<svg class="rich-terminal" viewBox="0 0 1482 1026.0" xmlns="http://www.w3.org/2000/svg">
    <!-- Generated with Rich https://www.textualize.io -->
    <style>

    @font-face {
        font-family: "Fira Code";
        src: local("FiraCode-Regular"),
                url("https://cdnjs.cloudflare.com/ajax/libs/firacode/6.2.0/woff2/FiraCode-Regular.woff2") format("woff2"),
                url("https://cdnjs.cloudflare.com/ajax/libs/firacode/6.2.0/woff/FiraCode-Regular.woff") format("woff");
        font-style: normal;
        font-weight: 400;
    }
    @font-face {
        font-family: "Fira Code";
        src: local("FiraCode-Bold"),
                url("https://cdnjs.cloudflare.com/ajax/libs/firacode/6.2.0/woff2/FiraCode-Bold.woff2") format("woff2"),
                url("https://cdnjs.cloudflare.com/ajax/libs/firacode/6.2.0/woff/FiraCode-Bold.woff") format("woff");
        font-style: bold;
        font-weight: 700;
    }

    .terminal-928563614-matrix {
        font-family: Fira Code, monospace;
        font-size: 20px;
        line-height: 24.4px;
        font-variant-east-asian: full-width;
    }

    .terminal-928563614-title {
        font-size: 18px;
        font-weight: bold;
        font-family: arial;
    }

    .terminal-928563614-r1 { fill: #c5c8c6 }
.terminal-928563614-r2 { fill: #57a5e2;font-weight: bold }
.terminal-928563614-r3 { fill: #7f7f7f }
.terminal-928563614-r4 { fill: #5f5f5f }
.terminal-928563614-r5 { fill: #e0e0e0 }
.terminal-928563614-r6 { fill: #0178d4;font-weight: bold }
.terminal-928563614-r7 { fill: #fea62b;font-weight: bold }
.terminal-928563614-r8 { fill: #a0a0a0 }
.terminal-928563614-r9 { fill: #262626 }
.terminal-928563614-r10 { fill: #0178d4 }
.terminal-928563614-r11 { fill: #e0e0e0;font-weight: bold }
.terminal-928563614-r12 { fill: #121212 }
.terminal-928563614-r13 { fill: #6f6f6f }
.terminal-928563614-r14 { fill: #2d2d2d }
.terminal-928563614-r15 { fill: #e0e0e0;text-decoration: underline; }
.terminal-928563614-r16 { fill: #a2a2a2 }
.terminal-928563614-r17 { fill: #57a5e2 }
.terminal-928563614-r18 { fill: #737373 }
.terminal-928563614-r19 { fill: #1e1e1e }
    </style>

    <defs>
    <clipPath id="terminal-928563614-clip-terminal">
      <rect x="0" y="0" width="1463.0" height="975.0" />
    </clipPath>
    <clipPath id="terminal-928563614-line-0">
    <rect x="0" y="1.5" width="1464" height="24.65"/>
            </clipPath>
<clipPath id="terminal-928563614-line-1">
    <rect x="0" y="25.9" width="1464" height="24.65"/>
            </clipPath>
<clipPath id="terminal-928563614-line-2">
    <rect x="0" y="50.3" width="1464" height="24.65"/>
            </clipPath>
<clipPath id="terminal-928563614-line-3">
    <rect x="0" y="74.7" width="1464" height="24.65"/>
            </clipPath>
<clipPath id="terminal-928563614-line-4">
    <rect x="0" y="99.1" width="1464" height="24.65"/>
            </clipPath>
<clipPath id="terminal-928563614-line-5">
    <rect x="0" y="123.5" width="1464" height="24.65"/>
            </clipPath>
<clipPath id="terminal-928563614-line-6">
    <rect x="0" y="147.9" width="1464" height="24.65"/>
            </clipPath>
<clipPath id="terminal-928563614-line-7">
    <rect x="0" y="172.3" width="1464" height="24.65"/>
            </clipPath>
<clipPath id="terminal-928563614-line-8">
    <rect x="0" y="196.7" width="1464" height="24.65"/>
            </clipPath>
<clipPath id="terminal-928563614-line-9">
    <rect x="0" y="221.1" width="1464" height="24.65"/>
            </clipPath>
<clipPath id="terminal-928563614-line-10">
    <rect x="0" y="245.5" width="1464" height="24.65"/>
            </clipPath>
<clipPath id="terminal-928563614-line-11">
    <rect x="0" y="269.9" width="1464" height="24.65"/>
            </clipPath>
<clipPath id="terminal-928563614-line-12">
    <rect x="0" y="294.3" width="1464" height="24.65"/>
            </clipPath>
<clipPath id="terminal-928563614-line-13">
    <rect x="0" y="318.7" width="1464" height="24.65"/>
            </clipPath>
<clipPath id="terminal-928563614-line-14">
    <rect x="0" y="343.1" width="1464" height="24.65"/>
            </clipPath>
<clipPath id="terminal-928563614-line-15">
    <rect x="0" y="367.5" width="1464" height="24.65"/>
            </clipPath>
<clipPath id="terminal-928563614-line-16">
    <rect x="0" y="391.9" width="1464" height="24.65"/>
            </clipPath>
<clipPath id="terminal-928563614-line-17">
    <rect x="0" y="416.3" width="1464" height="24.65"/>
            </clipPath>
<clipPath id="terminal-928563614-line-18">
    <rect x="0" y="440.7" width="1464" height="24.65"/>
            </clipPath>
<clipPath id="terminal-928563614-line-19">
    <rect x="0" y="465.1" width="1464" height="24.65"/>
            </clipPath>
<clipPath id="terminal-928563614-line-20">
    <rect x="0" y="489.5" width="1464" height="24.65"/>
            </clipPath>
<clipPath id="terminal-928563614-line-21">
    <rect x="0" y="513.9" width="1464" height="24.65"/>
            </clipPath>
<clipPath id="terminal-928563614-line-22">
    <rect x="0" y="538.3" width="1464" height="24.65"/>
            </clipPath>
<clipPath id="terminal-928563614-line-23">
    <rect x="0" y="562.7" width="1464" height="24.65"/>
            </clipPath>
<clipPath id="terminal-928563614-line-24">
    <rect x="0" y="587.1" width="1464" height="24.65"/>
            </clipPath>
<clipPath id="terminal-928563614-line-25">
    <rect x="0" y="611.5" width="1464" height="24.65"/>
            </clipPath>
<clipPath id="terminal-928563614-line-26">
    <rect x="0" y="635.9" width="1464" height="24.65"/>
            </clipPath>
<clipPath id="terminal-928563614-line-27">
    <rect x="0" y="660.3" width="1464" height="24.65"/>
            </clipPath>
<clipPath id="terminal-928563614-line-28">
    <rect x="0" y="684.7" width="1464" height="24.65"/>
            </clipPath>
<clipPath id="terminal-928563614-line-29">
    <rect x="0" y="709.1" width="1464" height="24.65"/>
            </clipPath>
<clipPath id="terminal-928563614-line-30">
    <rect x="0" y="733.5" width="1464" height="24.65"/>
            </clipPath>
<clipPath id="terminal-928563614-line-31">
    <rect x="0" y="757.9" width="1464" height="24.65"/>
            </clipPath>
<clipPath id="terminal-928563614-line-32">
    <rect x="0" y="782.3" width="1464" height="24.65"/>
            </clipPath>
<clipPath id="terminal-928563614-line-33">
    <rect x="0" y="806.7" width="1464" height="24.65"/>
            </clipPath>
<clipPath id="terminal-928563614-line-34">
    <rect x="0" y="831.1" width="1464" height="24.65"/>
            </clipPath>
<clipPath id="terminal-928563614-line-35">
    <rect x="0" y="855.5" width="1464" height="24.65"/>
            </clipPath>
<clipPath id="terminal-928563614-line-36">
    <rect x="0" y="879.9" width="1464" height="24.65"/>
            </clipPath>
<clipPath id="terminal-928563614-line-37">
    <rect x="0" y="904.3" width="1464" height="24.65"/>
            </clipPath>
<clipPath id="terminal-928563614-line-38">
    <rect x="0" y="928.7" width="1464" height="24.65"/>
            </clipPath>
    </defs>

    <rect fill="#292929" stroke="rgba(255,255,255,0.35)" stroke-width="1" x="1" y="1" width="1480" height="1024" rx="8"/><text class="terminal-928563614-title" fill="#c5c8c6" text-anchor="middle" x="740" y="27">gojeera</text>
            <g transform="translate(26,22)">
            <circle cx="0" cy="0" r="7" fill="#ff5f57"/>
            <circle cx="22" cy="0" r="7" fill="#febc2e"/>
            <circle cx="44" cy="0" r="7" fill="#28c840"/>
            </g>
        
    <g transform="translate(9, 41)" clip-path="url(#terminal-928563614-clip-terminal)">
    <rect fill="#121212" x="0" y="1.5" width="1464" height="24.65" shape-rendering="crispEdges"/><rect fill="#121212" x="0" y="25.9" width="12.2" height="24.65" shape-rendering="crispEdges"/><rect fill="#0c304c" x="12.2" y="25.9" width="12.2" height="24.65" shape-rendering="crispEdges"/><rect fill="#0c304c" x="24.4" y="25.9" width="61" height="24.65" shape-rendering="crispEdges"/><rect fill="#0c304c" x="85.4" y="25.9" width="12.2" height="24.65" shape-rendering="crispEdges"/><rect fill="#0c304c" x="97.6" y="25.9" width="12.2" height="24.65" shape-rendering="crispEdges"/><rect fill="#0c304c" x="109.8" y="25.9" width="12.2" height="24.65" shape-rendering="crispEdges"/><rect fill="#121212" x="122" y="25.9" width="12.2" height="24.65" shape-rendering="crispEdges"/><rect fill="#0c304c" x="134.2" y="25.9" width="36.6" height="24.65" shape-rendering="crispEdges"/><rect fill="#121212" x="170.8" y="25.9" width="12.2" height="24.65" shape-rendering="crispEdges"/><rect fill="#1e1e1e" x="183" y="25.9" width="85.4" height="24.65" shape-rendering="crispEdges"/><rect fill="#1e1e1e" x="268.4" y="25.9" width="170.8" height="24.65" shape-rendering="crispEdges"/><rect fill="#1e1e1e" x="439.2" y="25.9" width="12.2" height="24.65" shape-rendering="crispEdges"/><rect fill="#1e1e1e" x="451.4" y="25.9" width="12.2" height="24.65" shape-rendering="crispEdges"/><rect fill="#121212" x="463.6" y="25.9" width="12.2" height="24.65" shape-rendering="crispEdges"/><rect fill="#1a1a1a" x="475.8" y="25.9" width="97.6" height="24.65" shape-rendering="crispEdges"/><rect fill="#1a1a1a" x="573.4" y="25.9" width="158.6" height="24.65" shape-rendering="crispEdges"/><rect fill="#1a1a1a" x="732" y="25.9" width="12.2" height="24.65" shape-rendering="crispEdges"/><rect fill="#171717" x="744.2" y="25.9" width="12.2" height="24.65" shape-rendering="crispEdges"/><rect fill="#121212" x="756.4" y="25.9" width="12.2" height="24.65" shape-rendering="crispEdges"/><rect fill="#1a1a1a" x="768.6" y="25.9" width="48.8" height="24.65" shape-rendering="crispEdges"/><rect fill="#1a1a1a" x="817.4" y="25.9" width="207.4" height="24.65" shape-rendering="crispEdges"/><rect fill="#1a1a1a" x="1024.8" y="25.9" width="12.2" height="24.65" shape-rendering="crispEdges"/><rect fill="#171717" x="1037" y="25.9" width="12.2" height="24.65" shape-rendering="crispEdges"/><rect fill="#121212" x="1049.2" y="25.9" width="12.2" height="24.65" shape-rendering="crispEdges"/><rect fill="#1a1a1a" x="1061.4" y="25.9" width="73.2" height="24.65" shape-rendering="crispEdges"/><rect fill="#1a1a1a" x="1134.6" y="25.9" width="183" height="24.65" shape-rendering="crispEdges"/><rect fill="#1a1a1a" x="1317.6" y="25.9" width="12.2" height="24.65" shape-rendering="crispEdges"/><rect fill="#171717" x="1329.8" y="25.9" width="12.2" height="24.65" shape-rendering="crispEdges"/><rect fill="#121212" x="1342" y="25.9" width="12.2" height="24.65" shape-rendering="crispEdges"/><rect fill="#0c304c" x="1354.2" y="25.9" width="97.6" height="24.65" shape-rendering="crispEdges"/><rect fill="#121212" x="1451.8" y="25.9" width="12.2" height="24.65" shape-rendering="crispEdges"/><rect fill="#121212" x="0" y="50.3" width="1464" height="24.65" shape-rendering="crispEdges"/><rect fill="#121212" x="0" y="74.7" width="24.4" height="24.65" shape-rendering="crispEdges"/><rect fill="#121212" x="24.4" y="74.7" width="231.8" height="24.65" shape-rendering="crispEdges"/><rect fill="#121212" x="256.2" y="74.7" width="12.2" height="24.65" shape-rendering="crispEdges"/><rect fill="#121212" x="268.4" y="74.7" width="12.2" height="24.65" shape-rendering="crispEdges"/><rect fill="#121212" x="280.6" y="74.7" width="12.2" height="24.65" shape-rendering="crispEdges"/><rect fill="#121212" x="292.8" y="74.7" width="146.4" height="24.65" shape-rendering="crispEdges"/><rect fill="#121212" x="439.2" y="74.7" width="12.2" height="24.65" shape-rendering="crispEdges"/><rect fill="#121212" x="451.4" y="74.7" width="12.2" height="24.65" shape-rendering="crispEdges"/><rect fill="#121212" x="463.6" y="74.7" width="12.2" height="24.65" shape-rendering="crispEdges"/><rect fill="#121212" x="475.8" y="74.7" width="158.6" height="24.65" shape-rendering="crispEdges"/><rect fill="#121212" x="634.4" y="74.7" width="829.6" height="24.65" shape-rendering="crispEdges"/><rect fill="#121212" x="0" y="99.1" width="24.4" height="24.65" shape-rendering="crispEdges"/><rect fill="#121212" x="24.4" y="99.1" width="585.6" height="24.65" shape-rendering="crispEdges"/><rect fill="#121212" x="610" y="99.1" width="829.6" height="24.65" shape-rendering="crispEdges"/><rect fill="#121212" x="1439.6" y="99.1" width="24.4" height="24.65" shape-rendering="crispEdges"/><rect fill="#121212" x="0" y="123.5" width="1464" height="24.65" shape-rendering="crispEdges"/><rect fill="#121212" x="0" y="147.9" width="36.6" height="24.65" shape-rendering="crispEdges"/><rect fill="#121212" x="36.6" y="147.9" width="134.2" height="24.65" shape-rendering="crispEdges"/><rect fill="#121212" x="170.8" y="147.9" width="24.4" height="24.65" shape-rendering="crispEdges"/><rect fill="#121212" x="195.2" y="147.9" width="134.2" height="24.65" shape-rendering="crispEdges"/><rect fill="#121212" x="329.4" y="147.9" width="36.6" height="24.65" shape-rendering="crispEdges"/><rect fill="#121212" x="366" y="147.9" width="12.2" height="24.65" shape-rendering="crispEdges"/><rect fill="#121212" x="378.2" y="147.9" width="97.6" height="24.65" shape-rendering="crispEdges"/><rect fill="#121212" x="475.8" y="147.9" width="24.4" height="24.65" shape-rendering="crispEdges"/><rect fill="#121212" x="500.2" y="147.9" width="158.6" height="24.65" shape-rendering="crispEdges"/><rect fill="#121212" x="658.8" y="147.9" width="36.6" height="24.65" shape-rendering="crispEdges"/><rect fill="#121212" x="695.4" y="147.9" width="12.2" height="24.65" shape-rendering="crispEdges"/><rect fill="#121212" x="707.6" y="147.9" width="109.8" height="24.65" shape-rendering="crispEdges"/><rect fill="#121212" x="817.4" y="147.9" width="36.6" height="24.65" shape-rendering="crispEdges"/><rect fill="#121212" x="854" y="147.9" width="12.2" height="24.65" shape-rendering="crispEdges"/><rect fill="#121212" x="866.2" y="147.9" width="97.6" height="24.65" shape-rendering="crispEdges"/><rect fill="#121212" x="963.8" y="147.9" width="36.6" height="24.65" shape-rendering="crispEdges"/><rect fill="#121212" x="1000.4" y="147.9" width="463.6" height="24.65" shape-rendering="crispEdges"/><rect fill="#121212" x="0" y="172.3" width="24.4" height="24.65" shape-rendering="crispEdges"/><rect fill="#121212" x="24.4" y="172.3" width="829.6" height="24.65" shape-rendering="crispEdges"/><rect fill="#121212" x="854" y="172.3" width="146.4" height="24.65" shape-rendering="crispEdges"/><rect fill="#121212" x="1000.4" y="172.3" width="451.4" height="24.65" shape-rendering="crispEdges"/><rect fill="#121212" x="1451.8" y="172.3" width="12.2" height="24.65" shape-rendering="crispEdges"/><rect fill="#121212" x="0" y="196.7" width="36.6" height="24.65" shape-rendering="crispEdges"/><rect fill="#121212" x="36.6" y="196.7" width="122" height="24.65" shape-rendering="crispEdges"/><rect fill="#121212" x="158.6" y="196.7" width="817.4" height="24.65" shape-rendering="crispEdges"/><rect fill="#121212" x="976" y="196.7" width="73.2" height="24.65" shape-rendering="crispEdges"/><rect fill="#121212" x="1049.2" y="196.7" width="390.4" height="24.65" shape-rendering="crispEdges"/><rect fill="#0053aa" x="1439.6" y="196.7" width="12.2" height="24.65" shape-rendering="crispEdges"/><rect fill="#121212" x="1451.8" y="196.7" width="12.2" height="24.65" shape-rendering="crispEdges"/><rect fill="#121212" x="0" y="221.1" width="36.6" height="24.65" shape-rendering="crispEdges"/><rect fill="#121212" x="36.6" y="221.1" width="683.2" height="24.65" shape-rendering="crispEdges"/><rect fill="#121212" x="719.8" y="221.1" width="256.2" height="24.65" shape-rendering="crispEdges"/><rect fill="#1e1e1e" x="976" y="221.1" width="48.8" height="24.65" shape-rendering="crispEdges"/><rect fill="#1e1e1e" x="1024.8" y="221.1" width="366" height="24.65" shape-rendering="crispEdges"/><rect fill="#1e1e1e" x="1390.8" y="221.1" width="12.2" height="24.65" shape-rendering="crispEdges"/><rect fill="#1e1e1e" x="1403" y="221.1" width="12.2" height="24.65" shape-rendering="crispEdges"/><rect fill="#121212" x="1415.2" y="221.1" width="24.4" height="24.65" shape-rendering="crispEdges"/><rect fill="#0053aa" x="1439.6" y="221.1" width="12.2" height="24.65" shape-rendering="crispEdges"/><rect fill="#121212" x="1451.8" y="221.1" width="12.2" height="24.65" shape-rendering="crispEdges"/><rect fill="#121212" x="0" y="245.5" width="36.6" height="24.65" shape-rendering="crispEdges"/><rect fill="#121212" x="36.6" y="245.5" width="915" height="24.65" shape-rendering="crispEdges"/><rect fill="#121212" x="951.6" y="245.5" width="488" height="24.65" shape-rendering="crispEdges"/><rect fill="#0053aa" x="1439.6" y="245.5" width="12.2" height="24.65" shape-rendering="crispEdges"/><rect fill="#121212" x="1451.8" y="245.5" width="12.2" height="24.65" shape-rendering="crispEdges"/><rect fill="#121212" x="0" y="269.9" width="36.6" height="24.65" shape-rendering="crispEdges"/><rect fill="#121212" x="36.6" y="269.9" width="134.2" height="24.65" shape-rendering="crispEdges"/><rect fill="#121212" x="170.8" y="269.9" width="12.2" height="24.65" shape-rendering="crispEdges"/><rect fill="#121212" x="183" y="269.9" width="793" height="24.65" shape-rendering="crispEdges"/><rect fill="#121212" x="976" y="269.9" width="97.6" height="24.65" shape-rendering="crispEdges"/><rect fill="#121212" x="1073.6" y="269.9" width="366" height="24.65" shape-rendering="crispEdges"/><rect fill="#0053aa" x="1439.6" y="269.9" width="12.2" height="24.65" shape-rendering="crispEdges"/><rect fill="#121212" x="1451.8" y="269.9" width="12.2" height="24.65" shape-rendering="crispEdges"/><rect fill="#121212" x="0" y="294.3" width="976" height="24.65" shape-rendering="crispEdges"/><rect fill="#1e1e1e" x="976" y="294.3" width="73.2" height="24.65" shape-rendering="crispEdges"/><rect fill="#1e1e1e" x="1049.2" y="294.3" width="341.6" height="24.65" shape-rendering="crispEdges"/><rect fill="#1e1e1e" x="1390.8" y="294.3" width="12.2" height="24.65" shape-rendering="crispEdges"/><rect fill="#1e1e1e" x="1403" y="294.3" width="12.2" height="24.65" shape-rendering="crispEdges"/><rect fill="#121212" x="1415.2" y="294.3" width="24.4" height="24.65" shape-rendering="crispEdges"/><rect fill="#0053aa" x="1439.6" y="294.3" width="12.2" height="24.65" shape-rendering="crispEdges"/><rect fill="#121212" x="1451.8" y="294.3" width="12.2" height="24.65" shape-rendering="crispEdges"/><rect fill="#121212" x="0" y="318.7" width="36.6" height="24.65" shape-rendering="crispEdges"/><rect fill="#121212" x="36.6" y="318.7" width="817.4" height="24.65" shape-rendering="crispEdges"/><rect fill="#121212" x="854" y="318.7" width="585.6" height="24.65" shape-rendering="crispEdges"/><rect fill="#0053aa" x="1439.6" y="318.7" width="12.2" height="24.65" shape-rendering="crispEdges"/><rect fill="#121212" x="1451.8" y="318.7" width="12.2" height="24.65" shape-rendering="crispEdges"/><rect fill="#121212" x="0" y="343.1" width="976" height="24.65" shape-rendering="crispEdges"/><rect fill="#121212" x="976" y="343.1" width="97.6" height="24.65" shape-rendering="crispEdges"/><rect fill="#121212" x="1073.6" y="343.1" width="366" height="24.65" shape-rendering="crispEdges"/><rect fill="#0053aa" x="1439.6" y="343.1" width="12.2" height="24.65" shape-rendering="crispEdges"/><rect fill="#121212" x="1451.8" y="343.1" width="12.2" height="24.65" shape-rendering="crispEdges"/><rect fill="#121212" x="0" y="367.5" width="36.6" height="24.65" shape-rendering="crispEdges"/><rect fill="#0c304c" x="36.6" y="367.5" width="329.4" height="24.65" shape-rendering="crispEdges"/><rect fill="#121212" x="366" y="367.5" width="610" height="24.65" shape-rendering="crispEdges"/><rect fill="#1e1e1e" x="976" y="367.5" width="146.4" height="24.65" shape-rendering="crispEdges"/><rect fill="#1e1e1e" x="1122.4" y="367.5" width="268.4" height="24.65" shape-rendering="crispEdges"/><rect fill="#1e1e1e" x="1390.8" y="367.5" width="12.2" height="24.65" shape-rendering="crispEdges"/><rect fill="#1e1e1e" x="1403" y="367.5" width="12.2" height="24.65" shape-rendering="crispEdges"/><rect fill="#121212" x="1415.2" y="367.5" width="24.4" height="24.65" shape-rendering="crispEdges"/><rect fill="#0053aa" x="1439.6" y="367.5" width="12.2" height="24.65" shape-rendering="crispEdges"/><rect fill="#121212" x="1451.8" y="367.5" width="12.2" height="24.65" shape-rendering="crispEdges"/><rect fill="#121212" x="0" y="391.9" width="1439.6" height="24.65" shape-rendering="crispEdges"/><rect fill="#0053aa" x="1439.6" y="391.9" width="12.2" height="24.65" shape-rendering="crispEdges"/><rect fill="#121212" x="1451.8" y="391.9" width="12.2" height="24.65" shape-rendering="crispEdges"/><rect fill="#121212" x="0" y="416.3" width="36.6" height="24.65" shape-rendering="crispEdges"/><rect fill="#121212" x="36.6" y="416.3" width="841.8" height="24.65" shape-rendering="crispEdges"/><rect fill="#121212" x="878.4" y="416.3" width="97.6" height="24.65" shape-rendering="crispEdges"/><rect fill="#121212" x="976" y="416.3" width="97.6" height="24.65" shape-rendering="crispEdges"/><rect fill="#121212" x="1073.6" y="416.3" width="366" height="24.65" shape-rendering="crispEdges"/><rect fill="#0053aa" x="1439.6" y="416.3" width="12.2" height="24.65" shape-rendering="crispEdges"/><rect fill="#121212" x="1451.8" y="416.3" width="12.2" height="24.65" shape-rendering="crispEdges"/><rect fill="#121212" x="0" y="440.7" width="36.6" height="24.65" shape-rendering="crispEdges"/><rect fill="#121212" x="36.6" y="440.7" width="195.2" height="24.65" shape-rendering="crispEdges"/><rect fill="#121212" x="231.8" y="440.7" width="744.2" height="24.65" shape-rendering="crispEdges"/><rect fill="#171717" x="976" y="440.7" width="439.2" height="24.65" shape-rendering="crispEdges"/><rect fill="#121212" x="1415.2" y="440.7" width="24.4" height="24.65" shape-rendering="crispEdges"/><rect fill="#0053aa" x="1439.6" y="440.7" width="12.2" height="24.65" shape-rendering="crispEdges"/><rect fill="#121212" x="1451.8" y="440.7" width="12.2" height="24.65" shape-rendering="crispEdges"/><rect fill="#121212" x="0" y="465.1" width="1439.6" height="24.65" shape-rendering="crispEdges"/><rect fill="#0053aa" x="1439.6" y="465.1" width="12.2" height="24.65" shape-rendering="crispEdges"/><rect fill="#121212" x="1451.8" y="465.1" width="12.2" height="24.65" shape-rendering="crispEdges"/><rect fill="#121212" x="0" y="489.5" width="976" height="24.65" shape-rendering="crispEdges"/><rect fill="#121212" x="976" y="489.5" width="73.2" height="24.65" shape-rendering="crispEdges"/><rect fill="#121212" x="1049.2" y="489.5" width="390.4" height="24.65" shape-rendering="crispEdges"/><rect fill="#0053aa" x="1439.6" y="489.5" width="12.2" height="24.65" shape-rendering="crispEdges"/><rect fill="#121212" x="1451.8" y="489.5" width="12.2" height="24.65" shape-rendering="crispEdges"/><rect fill="#121212" x="0" y="513.9" width="976" height="24.65" shape-rendering="crispEdges"/><rect fill="#0c304c" x="976" y="513.9" width="12.2" height="24.65" shape-rendering="crispEdges"/><rect fill="#0c304c" x="988.2" y="513.9" width="158.6" height="24.65" shape-rendering="crispEdges"/><rect fill="#0c304c" x="1146.8" y="513.9" width="12.2" height="24.65" shape-rendering="crispEdges"/><rect fill="#0c304c" x="1159" y="513.9" width="12.2" height="24.65" shape-rendering="crispEdges"/><rect fill="#121212" x="1171.2" y="513.9" width="12.2" height="24.65" shape-rendering="crispEdges"/><rect fill="#0c304c" x="1183.4" y="513.9" width="12.2" height="24.65" shape-rendering="crispEdges"/><rect fill="#0c304c" x="1195.6" y="513.9" width="146.4" height="24.65" shape-rendering="crispEdges"/><rect fill="#0c304c" x="1342" y="513.9" width="12.2" height="24.65" shape-rendering="crispEdges"/><rect fill="#0c304c" x="1354.2" y="513.9" width="12.2" height="24.65" shape-rendering="crispEdges"/><rect fill="#121212" x="1366.4" y="513.9" width="73.2" height="24.65" shape-rendering="crispEdges"/><rect fill="#0053aa" x="1439.6" y="513.9" width="12.2" height="24.65" shape-rendering="crispEdges"/><rect fill="#121212" x="1451.8" y="513.9" width="12.2" height="24.65" shape-rendering="crispEdges"/><rect fill="#121212" x="0" y="538.3" width="976" height="24.65" shape-rendering="crispEdges"/><rect fill="#1e1e1e" x="976" y="538.3" width="439.2" height="24.65" shape-rendering="crispEdges"/><rect fill="#121212" x="1415.2" y="538.3" width="24.4" height="24.65" shape-rendering="crispEdges"/><rect fill="#0053aa" x="1439.6" y="538.3" width="12.2" height="24.65" shape-rendering="crispEdges"/><rect fill="#121212" x="1451.8" y="538.3" width="12.2" height="24.65" shape-rendering="crispEdges"/><rect fill="#121212" x="0" y="562.7" width="1439.6" height="24.65" shape-rendering="crispEdges"/><rect fill="#0053aa" x="1439.6" y="562.7" width="12.2" height="24.65" shape-rendering="crispEdges"/><rect fill="#121212" x="1451.8" y="562.7" width="12.2" height="24.65" shape-rendering="crispEdges"/><rect fill="#121212" x="0" y="587.1" width="976" height="24.65" shape-rendering="crispEdges"/><rect fill="#121212" x="976" y="587.1" width="122" height="24.65" shape-rendering="crispEdges"/><rect fill="#121212" x="1098" y="587.1" width="341.6" height="24.65" shape-rendering="crispEdges"/><rect fill="#0053aa" x="1439.6" y="587.1" width="12.2" height="24.65" shape-rendering="crispEdges"/><rect fill="#121212" x="1451.8" y="587.1" width="12.2" height="24.65" shape-rendering="crispEdges"/><rect fill="#121212" x="0" y="611.5" width="976" height="24.65" shape-rendering="crispEdges"/><rect fill="#0c304c" x="976" y="611.5" width="12.2" height="24.65" shape-rendering="crispEdges"/><rect fill="#0c304c" x="988.2" y="611.5" width="109.8" height="24.65" shape-rendering="crispEdges"/><rect fill="#0c304c" x="1098" y="611.5" width="12.2" height="24.65" shape-rendering="crispEdges"/><rect fill="#0c304c" x="1110.2" y="611.5" width="12.2" height="24.65" shape-rendering="crispEdges"/><rect fill="#121212" x="1122.4" y="611.5" width="12.2" height="24.65" shape-rendering="crispEdges"/><rect fill="#0c304c" x="1134.6" y="611.5" width="12.2" height="24.65" shape-rendering="crispEdges"/><rect fill="#0c304c" x="1146.8" y="611.5" width="48.8" height="24.65" shape-rendering="crispEdges"/><rect fill="#0c304c" x="1195.6" y="611.5" width="12.2" height="24.65" shape-rendering="crispEdges"/><rect fill="#0c304c" x="1207.8" y="611.5" width="12.2" height="24.65" shape-rendering="crispEdges"/><rect fill="#121212" x="1220" y="611.5" width="219.6" height="24.65" shape-rendering="crispEdges"/><rect fill="#0053aa" x="1439.6" y="611.5" width="12.2" height="24.65" shape-rendering="crispEdges"/><rect fill="#121212" x="1451.8" y="611.5" width="12.2" height="24.65" shape-rendering="crispEdges"/><rect fill="#121212" x="0" y="635.9" width="976" height="24.65" shape-rendering="crispEdges"/><rect fill="#1e1e1e" x="976" y="635.9" width="402.6" height="24.65" shape-rendering="crispEdges"/><rect fill="#1e1e1e" x="1378.6" y="635.9" width="24.4" height="24.65" shape-rendering="crispEdges"/><rect fill="#1e1e1e" x="1403" y="635.9" width="12.2" height="24.65" shape-rendering="crispEdges"/><rect fill="#121212" x="1415.2" y="635.9" width="24.4" height="24.65" shape-rendering="crispEdges"/><rect fill="#0053aa" x="1439.6" y="635.9" width="12.2" height="24.65" shape-rendering="crispEdges"/><rect fill="#121212" x="1451.8" y="635.9" width="12.2" height="24.65" shape-rendering="crispEdges"/><rect fill="#121212" x="0" y="660.3" width="1439.6" height="24.65" shape-rendering="crispEdges"/><rect fill="#0053aa" x="1439.6" y="660.3" width="12.2" height="24.65" shape-rendering="crispEdges"/><rect fill="#121212" x="1451.8" y="660.3" width="12.2" height="24.65" shape-rendering="crispEdges"/><rect fill="#121212" x="0" y="684.7" width="976" height="24.65" shape-rendering="crispEdges"/><rect fill="#121212" x="976" y="684.7" width="85.4" height="24.65" shape-rendering="crispEdges"/><rect fill="#121212" x="1061.4" y="684.7" width="378.2" height="24.65" shape-rendering="crispEdges"/><rect fill="#1e1e1e" x="1439.6" y="684.7" width="12.2" height="24.65" shape-rendering="crispEdges"/><rect fill="#121212" x="1451.8" y="684.7" width="12.2" height="24.65" shape-rendering="crispEdges"/><rect fill="#121212" x="0" y="709.1" width="976" height="24.65" shape-rendering="crispEdges"/><rect fill="#121212" x="976" y="709.1" width="97.6" height="24.65" shape-rendering="crispEdges"/><rect fill="#121212" x="1073.6" y="709.1" width="366" height="24.65" shape-rendering="crispEdges"/><rect fill="#1e1e1e" x="1439.6" y="709.1" width="12.2" height="24.65" shape-rendering="crispEdges"/><rect fill="#121212" x="1451.8" y="709.1" width="12.2" height="24.65" shape-rendering="crispEdges"/><rect fill="#121212" x="0" y="733.5" width="976" height="24.65" shape-rendering="crispEdges"/><rect fill="#0c304c" x="976" y="733.5" width="12.2" height="24.65" shape-rendering="crispEdges"/><rect fill="#0c304c" x="988.2" y="733.5" width="73.2" height="24.65" shape-rendering="crispEdges"/><rect fill="#0c304c" x="1061.4" y="733.5" width="12.2" height="24.65" shape-rendering="crispEdges"/><rect fill="#0c304c" x="1073.6" y="733.5" width="12.2" height="24.65" shape-rendering="crispEdges"/><rect fill="#121212" x="1085.8" y="733.5" width="353.8" height="24.65" shape-rendering="crispEdges"/><rect fill="#1e1e1e" x="1439.6" y="733.5" width="12.2" height="24.65" shape-rendering="crispEdges"/><rect fill="#121212" x="1451.8" y="733.5" width="12.2" height="24.65" shape-rendering="crispEdges"/><rect fill="#121212" x="0" y="757.9" width="976" height="24.65" shape-rendering="crispEdges"/><rect fill="#1e1e1e" x="976" y="757.9" width="402.6" height="24.65" shape-rendering="crispEdges"/><rect fill="#1e1e1e" x="1378.6" y="757.9" width="24.4" height="24.65" shape-rendering="crispEdges"/><rect fill="#1e1e1e" x="1403" y="757.9" width="12.2" height="24.65" shape-rendering="crispEdges"/><rect fill="#121212" x="1415.2" y="757.9" width="24.4" height="24.65" shape-rendering="crispEdges"/><rect fill="#1e1e1e" x="1439.6" y="757.9" width="12.2" height="24.65" shape-rendering="crispEdges"/><rect fill="#121212" x="1451.8" y="757.9" width="12.2" height="24.65" shape-rendering="crispEdges"/><rect fill="#121212" x="0" y="782.3" width="1439.6" height="24.65" shape-rendering="crispEdges"/><rect fill="#1e1e1e" x="1439.6" y="782.3" width="12.2" height="24.65" shape-rendering="crispEdges"/><rect fill="#121212" x="1451.8" y="782.3" width="12.2" height="24.65" shape-rendering="crispEdges"/><rect fill="#121212" x="0" y="806.7" width="976" height="24.65" shape-rendering="crispEdges"/><rect fill="#121212" x="976" y="806.7" width="146.4" height="24.65" shape-rendering="crispEdges"/><rect fill="#121212" x="1122.4" y="806.7" width="317.2" height="24.65" shape-rendering="crispEdges"/><rect fill="#1e1e1e" x="1439.6" y="806.7" width="12.2" height="24.65" shape-rendering="crispEdges"/><rect fill="#121212" x="1451.8" y="806.7" width="12.2" height="24.65" shape-rendering="crispEdges"/><rect fill="#121212" x="0" y="831.1" width="976" height="24.65" shape-rendering="crispEdges"/><rect fill="#0c304c" x="976" y="831.1" width="12.2" height="24.65" shape-rendering="crispEdges"/><rect fill="#0c304c" x="988.2" y="831.1" width="73.2" height="24.65" shape-rendering="crispEdges"/><rect fill="#0c304c" x="1061.4" y="831.1" width="12.2" height="24.65" shape-rendering="crispEdges"/><rect fill="#0c304c" x="1073.6" y="831.1" width="12.2" height="24.65" shape-rendering="crispEdges"/><rect fill="#121212" x="1085.8" y="831.1" width="353.8" height="24.65" shape-rendering="crispEdges"/><rect fill="#1e1e1e" x="1439.6" y="831.1" width="12.2" height="24.65" shape-rendering="crispEdges"/><rect fill="#121212" x="1451.8" y="831.1" width="12.2" height="24.65" shape-rendering="crispEdges"/><rect fill="#121212" x="0" y="855.5" width="976" height="24.65" shape-rendering="crispEdges"/><rect fill="#1e1e1e" x="976" y="855.5" width="402.6" height="24.65" shape-rendering="crispEdges"/><rect fill="#1e1e1e" x="1378.6" y="855.5" width="24.4" height="24.65" shape-rendering="crispEdges"/><rect fill="#1e1e1e" x="1403" y="855.5" width="12.2" height="24.65" shape-rendering="crispEdges"/><rect fill="#121212" x="1415.2" y="855.5" width="24.4" height="24.65" shape-rendering="crispEdges"/><rect fill="#1e1e1e" x="1439.6" y="855.5" width="12.2" height="24.65" shape-rendering="crispEdges"/><rect fill="#121212" x="1451.8" y="855.5" width="12.2" height="24.65" shape-rendering="crispEdges"/><rect fill="#121212" x="0" y="879.9" width="1439.6" height="24.65" shape-rendering="crispEdges"/><rect fill="#1e1e1e" x="1439.6" y="879.9" width="12.2" height="24.65" shape-rendering="crispEdges"/><rect fill="#121212" x="1451.8" y="879.9" width="12.2" height="24.65" shape-rendering="crispEdges"/><rect fill="#121212" x="0" y="904.3" width="1464" height="24.65" shape-rendering="crispEdges"/><rect fill="#121212" x="0" y="928.7" width="1464" height="24.65" shape-rendering="crispEdges"/><rect fill="#121212" x="0" y="953.1" width="1464" height="24.65" shape-rendering="crispEdges"/>
    <g class="terminal-928563614-matrix">
    <text class="terminal-928563614-r1" x="1464" y="20" textLength="12.2" clip-path="url(#terminal-928563614-line-0)">
</text><text class="terminal-928563614-r2" x="24.4" y="44.4" textLength="61" clip-path="url(#terminal-928563614-line-1)">Basic</text><text class="terminal-928563614-r2" x="97.6" y="44.4" textLength="12.2" clip-path="url(#terminal-928563614-line-1)">▼</text><text class="terminal-928563614-r2" x="134.2" y="44.4" textLength="36.6" clip-path="url(#terminal-928563614-line-1)">&#160;+&#160;</text><text class="terminal-928563614-r3" x="183" y="44.4" textLength="85.4" clip-path="url(#terminal-928563614-line-1)">Project</text><text class="terminal-928563614-r3" x="439.2" y="44.4" textLength="12.2" clip-path="url(#terminal-928563614-line-1)">▼</text><text class="terminal-928563614-r4" x="475.8" y="44.4" textLength="97.6" clip-path="url(#terminal-928563614-line-1)">Assignee</text><text class="terminal-928563614-r4" x="732" y="44.4" textLength="12.2" clip-path="url(#terminal-928563614-line-1)">▼</text><text class="terminal-928563614-r4" x="768.6" y="44.4" textLength="48.8" clip-path="url(#terminal-928563614-line-1)">Type</text><text class="terminal-928563614-r4" x="1024.8" y="44.4" textLength="12.2" clip-path="url(#terminal-928563614-line-1)">▼</text><text class="terminal-928563614-r4" x="1061.4" y="44.4" textLength="73.2" clip-path="url(#terminal-928563614-line-1)">Status</text><text class="terminal-928563614-r4" x="1317.6" y="44.4" textLength="12.2" clip-path="url(#terminal-928563614-line-1)">▼</text><text class="terminal-928563614-r2" x="1354.2" y="44.4" textLength="97.6" clip-path="url(#terminal-928563614-line-1)">&#160;Search&#160;</text><text class="terminal-928563614-r1" x="1464" y="44.4" textLength="12.2" clip-path="url(#terminal-928563614-line-1)">
</text><text class="terminal-928563614-r1" x="1464" y="68.8" textLength="12.2" clip-path="url(#terminal-928563614-line-2)">
</text><text class="terminal-928563614-r5" x="24.4" y="93.2" textLength="231.8" clip-path="url(#terminal-928563614-line-3)">Engineering&#160;Project</text><text class="terminal-928563614-r5" x="268.4" y="93.2" textLength="12.2" clip-path="url(#terminal-928563614-line-3)">/</text><text class="terminal-928563614-r6" x="292.8" y="93.2" textLength="146.4" clip-path="url(#terminal-928563614-line-3)">[Epic]&#160;ENG-2</text><text class="terminal-928563614-r5" x="451.4" y="93.2" textLength="12.2" clip-path="url(#terminal-928563614-line-3)">/</text><text class="terminal-928563614-r5" x="475.8" y="93.2" textLength="158.6" clip-path="url(#terminal-928563614-line-3)">[Story]&#160;ENG-3</text><text class="terminal-928563614-r1" x="1464" y="93.2" textLength="12.2" clip-path="url(#terminal-928563614-line-3)">
</text><text class="terminal-928563614-r7" x="24.4" y="117.6" textLength="585.6" clip-path="url(#terminal-928563614-line-4)">Review&#160;approval&#160;workflow&#160;for&#160;motion&#160;cue&#160;releases</text><text class="terminal-928563614-r1" x="1464" y="117.6" textLength="12.2" clip-path="url(#terminal-928563614-line-4)">
</text><text class="terminal-928563614-r1" x="1464" y="142" textLength="12.2" clip-path="url(#terminal-928563614-line-5)">
</text><text class="terminal-928563614-r8" x="36.6" y="166.4" textLength="134.2" clip-path="url(#terminal-928563614-line-6)">Description</text><text class="terminal-928563614-r8" x="195.2" y="166.4" textLength="134.2" clip-path="url(#terminal-928563614-line-6)">Attachments</text><text class="terminal-928563614-r2" x="329.4" y="166.4" textLength="36.6" clip-path="url(#terminal-928563614-line-6)">&#160;1&#160;</text><text class="terminal-928563614-r8" x="378.2" y="166.4" textLength="97.6" clip-path="url(#terminal-928563614-line-6)">Subtasks</text><text class="terminal-928563614-r8" x="500.2" y="166.4" textLength="158.6" clip-path="url(#terminal-928563614-line-6)">Related&#160;Items</text><text class="terminal-928563614-r2" x="658.8" y="166.4" textLength="36.6" clip-path="url(#terminal-928563614-line-6)">&#160;2&#160;</text><text class="terminal-928563614-r8" x="707.6" y="166.4" textLength="109.8" clip-path="url(#terminal-928563614-line-6)">Web&#160;Links</text><text class="terminal-928563614-r2" x="817.4" y="166.4" textLength="36.6" clip-path="url(#terminal-928563614-line-6)">&#160;6&#160;</text><text class="terminal-928563614-r5" x="866.2" y="166.4" textLength="97.6" clip-path="url(#terminal-928563614-line-6)">Comments</text><text class="terminal-928563614-r2" x="963.8" y="166.4" textLength="36.6" clip-path="url(#terminal-928563614-line-6)">&#160;1&#160;</text><text class="terminal-928563614-r1" x="1464" y="166.4" textLength="12.2" clip-path="url(#terminal-928563614-line-6)">
</text><text class="terminal-928563614-r9" x="24.4" y="190.8" textLength="829.6" clip-path="url(#terminal-928563614-line-7)">━━━━━━━━━━━━━━━━━━━━━━━━━━━━━━━━━━━━━━━━━━━━━━━━━━━━━━━━━━━━━━━━━━━╸</text><text class="terminal-928563614-r10" x="854" y="190.8" textLength="146.4" clip-path="url(#terminal-928563614-line-7)">━━━━━━━━━━━━</text><text class="terminal-928563614-r9" x="1000.4" y="190.8" textLength="451.4" clip-path="url(#terminal-928563614-line-7)">╺━━━━━━━━━━━━━━━━━━━━━━━━━━━━━━━━━━━━</text><text class="terminal-928563614-r1" x="1464" y="190.8" textLength="12.2" clip-path="url(#terminal-928563614-line-7)">
</text><text class="terminal-928563614-r11" x="36.6" y="215.2" textLength="122" clip-path="url(#terminal-928563614-line-8)">Rook&#160;Hydra</text><text class="terminal-928563614-r11" x="976" y="215.2" textLength="73.2" clip-path="url(#terminal-928563614-line-8)">Status</text><text class="terminal-928563614-r1" x="1464" y="215.2" textLength="12.2" clip-path="url(#terminal-928563614-line-8)">
</text><text class="terminal-928563614-r13" x="36.6" y="239.6" textLength="683.2" clip-path="url(#terminal-928563614-line-9)">2026-02-05&#160;13:23&#160;(edited&#160;2026-02-05&#160;13:23&#160;by&#160;Rook&#160;Hydra)</text><text class="terminal-928563614-r3" x="976" y="239.6" textLength="48.8" clip-path="url(#terminal-928563614-line-9)">Done</text><text class="terminal-928563614-r3" x="1390.8" y="239.6" textLength="12.2" clip-path="url(#terminal-928563614-line-9)">▼</text><text class="terminal-928563614-r1" x="1464" y="239.6" textLength="12.2" clip-path="url(#terminal-928563614-line-9)">
</text><text class="terminal-928563614-r14" x="36.6" y="264" textLength="915" clip-path="url(#terminal-928563614-line-10)">───────────────────────────────────────────────────────────────────────────</text><text class="terminal-928563614-r1" x="1464" y="264" textLength="12.2" clip-path="url(#terminal-928563614-line-10)">
</text><text class="terminal-928563614-r15" x="36.6" y="288.4" textLength="134.2" clip-path="url(#terminal-928563614-line-11)">@Rook&#160;Hydra</text><text class="terminal-928563614-r5" x="170.8" y="288.4" textLength="12.2" clip-path="url(#terminal-928563614-line-11)">,</text><text class="terminal-928563614-r11" x="976" y="288.4" textLength="97.6" clip-path="url(#terminal-928563614-line-11)">Priority</text><text class="terminal-928563614-r1" x="1464" y="288.4" textLength="12.2" clip-path="url(#terminal-928563614-line-11)">
</text><text class="terminal-928563614-r5" x="976" y="312.8" textLength="73.2" clip-path="url(#terminal-928563614-line-12)">Medium</text><text class="terminal-928563614-r3" x="1390.8" y="312.8" textLength="12.2" clip-path="url(#terminal-928563614-line-12)">▼</text><text class="terminal-928563614-r1" x="1464" y="312.8" textLength="12.2" clip-path="url(#terminal-928563614-line-12)">
</text><text class="terminal-928563614-r5" x="36.6" y="337.2" textLength="817.4" clip-path="url(#terminal-928563614-line-13)">Completed!&#160;The&#160;approval&#160;settings&#160;have&#160;been&#160;configured&#160;successfully:</text><text class="terminal-928563614-r1" x="1464" y="337.2" textLength="12.2" clip-path="url(#terminal-928563614-line-13)">
</text><text class="terminal-928563614-r11" x="976" y="361.6" textLength="97.6" clip-path="url(#terminal-928563614-line-14)">Assignee</text><text class="terminal-928563614-r1" x="1464" y="361.6" textLength="12.2" clip-path="url(#terminal-928563614-line-14)">
</text><text class="terminal-928563614-r2" x="36.6" y="386" textLength="329.4" clip-path="url(#terminal-928563614-line-15)">&#160;image-20260205-112310.png&#160;</text><text class="terminal-928563614-r5" x="976" y="386" textLength="146.4" clip-path="url(#terminal-928563614-line-15)">Nyx&#160;Basilisk</text><text class="terminal-928563614-r3" x="1390.8" y="386" textLength="12.2" clip-path="url(#terminal-928563614-line-15)">▼</text><text class="terminal-928563614-r1" x="1464" y="386" textLength="12.2" clip-path="url(#terminal-928563614-line-15)">
</text><text class="terminal-928563614-r1" x="1464" y="410.4" textLength="12.2" clip-path="url(#terminal-928563614-line-16)">
</text><text class="terminal-928563614-r5" x="36.6" y="434.8" textLength="841.8" clip-path="url(#terminal-928563614-line-17)">The&#160;repository&#160;now&#160;requires&#160;at&#160;least&#160;one&#160;approval&#160;from&#160;the&#160;designated</text><text class="terminal-928563614-r11" x="976" y="434.8" textLength="97.6" clip-path="url(#terminal-928563614-line-17)">Reporter</text><text class="terminal-928563614-r1" x="1464" y="434.8" textLength="12.2" clip-path="url(#terminal-928563614-line-17)">
</text><text class="terminal-928563614-r5" x="36.6" y="459.2" textLength="195.2" clip-path="url(#terminal-928563614-line-18)">approvers&#160;group.</text><text class="terminal-928563614-r16" x="976" y="459.2" textLength="439.2" clip-path="url(#terminal-928563614-line-18)">Rook&#160;Hydra&#160;&#160;&#160;&#160;&#160;&#160;&#160;&#160;&#160;&#160;&#160;&#160;&#160;&#160;&#160;&#160;&#160;&#160;&#160;&#160;&#160;&#160;&#160;&#160;&#160;&#160;</text><text class="terminal-928563614-r1" x="1464" y="459.2" textLength="12.2" clip-path="url(#terminal-928563614-line-18)">
</text><text class="terminal-928563614-r1" x="1464" y="483.6" textLength="12.2" clip-path="url(#terminal-928563614-line-19)">
</text><text class="terminal-928563614-r11" x="976" y="508" textLength="73.2" clip-path="url(#terminal-928563614-line-20)">Labels</text><text class="terminal-928563614-r1" x="1464" y="508" textLength="12.2" clip-path="url(#terminal-928563614-line-20)">
</text><text class="terminal-928563614-r17" x="988.2" y="532.4" textLength="158.6" clip-path="url(#terminal-928563614-line-21)">creature-rig&#160;</text><text class="terminal-928563614-r17" x="1146.8" y="532.4" textLength="12.2" clip-path="url(#terminal-928563614-line-21)">x</text><text class="terminal-928563614-r17" x="1195.6" y="532.4" textLength="146.4" clip-path="url(#terminal-928563614-line-21)">motion-cues&#160;</text><text class="terminal-928563614-r17" x="1342" y="532.4" textLength="12.2" clip-path="url(#terminal-928563614-line-21)">x</text><text class="terminal-928563614-r1" x="1464" y="532.4" textLength="12.2" clip-path="url(#terminal-928563614-line-21)">
</text><text class="terminal-928563614-r1" x="1464" y="556.8" textLength="12.2" clip-path="url(#terminal-928563614-line-22)">
</text><text class="terminal-928563614-r1" x="1464" y="581.2" textLength="12.2" clip-path="url(#terminal-928563614-line-23)">
</text><text class="terminal-928563614-r11" x="976" y="605.6" textLength="122" clip-path="url(#terminal-928563614-line-24)">Components</text><text class="terminal-928563614-r1" x="1464" y="605.6" textLength="12.2" clip-path="url(#terminal-928563614-line-24)">
</text><text class="terminal-928563614-r17" x="988.2" y="630" textLength="109.8" clip-path="url(#terminal-928563614-line-25)">Frontend&#160;</text><text class="terminal-928563614-r17" x="1098" y="630" textLength="12.2" clip-path="url(#terminal-928563614-line-25)">x</text><text class="terminal-928563614-r17" x="1146.8" y="630" textLength="48.8" clip-path="url(#terminal-928563614-line-25)">API&#160;</text><text class="terminal-928563614-r17" x="1195.6" y="630" textLength="12.2" clip-path="url(#terminal-928563614-line-25)">x</text><text class="terminal-928563614-r1" x="1464" y="630" textLength="12.2" clip-path="url(#terminal-928563614-line-25)">
</text><text class="terminal-928563614-r18" x="1378.6" y="654.4" textLength="24.4" clip-path="url(#terminal-928563614-line-26)">&#160;▼</text><text class="terminal-928563614-r1" x="1464" y="654.4" textLength="12.2" clip-path="url(#terminal-928563614-line-26)">
</text><text class="terminal-928563614-r19" x="1439.6" y="678.8" textLength="12.2" clip-path="url(#terminal-928563614-line-27)">▃</text><text class="terminal-928563614-r1" x="1464" y="678.8" textLength="12.2" clip-path="url(#terminal-928563614-line-27)">
</text><text class="terminal-928563614-r11" x="976" y="703.2" textLength="85.4" clip-path="url(#terminal-928563614-line-28)">Affects</text><text class="terminal-928563614-r1" x="1464" y="703.2" textLength="12.2" clip-path="url(#terminal-928563614-line-28)">
</text><text class="terminal-928563614-r11" x="976" y="727.6" textLength="97.6" clip-path="url(#terminal-928563614-line-29)">Versions</text><text class="terminal-928563614-r1" x="1464" y="727.6" textLength="12.2" clip-path="url(#terminal-928563614-line-29)">
</text><text class="terminal-928563614-r17" x="988.2" y="752" textLength="73.2" clip-path="url(#terminal-928563614-line-30)">1.0.0&#160;</text><text class="terminal-928563614-r17" x="1061.4" y="752" textLength="12.2" clip-path="url(#terminal-928563614-line-30)">x</text><text class="terminal-928563614-r1" x="1464" y="752" textLength="12.2" clip-path="url(#terminal-928563614-line-30)">
</text><text class="terminal-928563614-r18" x="1378.6" y="776.4" textLength="24.4" clip-path="url(#terminal-928563614-line-31)">&#160;▼</text><text class="terminal-928563614-r1" x="1464" y="776.4" textLength="12.2" clip-path="url(#terminal-928563614-line-31)">
</text><text class="terminal-928563614-r1" x="1464" y="800.8" textLength="12.2" clip-path="url(#terminal-928563614-line-32)">
</text><text class="terminal-928563614-r11" x="976" y="825.2" textLength="146.4" clip-path="url(#terminal-928563614-line-33)">Fix&#160;Versions</text><text class="terminal-928563614-r1" x="1464" y="825.2" textLength="12.2" clip-path="url(#terminal-928563614-line-33)">
</text><text class="terminal-928563614-r17" x="988.2" y="849.6" textLength="73.2" clip-path="url(#terminal-928563614-line-34)">2.0.0&#160;</text><text class="terminal-928563614-r17" x="1061.4" y="849.6" textLength="12.2" clip-path="url(#terminal-928563614-line-34)">x</text><text class="terminal-928563614-r1" x="1464" y="849.6" textLength="12.2" clip-path="url(#terminal-928563614-line-34)">
</text><text class="terminal-928563614-r18" x="1378.6" y="874" textLength="24.4" clip-path="url(#terminal-928563614-line-35)">&#160;▼</text><text class="terminal-928563614-r1" x="1464" y="874" textLength="12.2" clip-path="url(#terminal-928563614-line-35)">
</text><text class="terminal-928563614-r1" x="1464" y="898.4" textLength="12.2" clip-path="url(#terminal-928563614-line-36)">
</text><text class="terminal-928563614-r1" x="1464" y="922.8" textLength="12.2" clip-path="url(#terminal-928563614-line-37)">
</text><text class="terminal-928563614-r1" x="1464" y="947.2" textLength="12.2" clip-path="url(#terminal-928563614-line-38)">
</text>
    </g>
    </g>
</svg>
