<svg class="rich-terminal" viewBox="0 0 1482 1026.0" xmlns="http://www.w3.org/2000/svg">
    <!-- Generated with Rich https://www.textualize.io -->
    <style>

    @font-face {
        font-family: "Fira Code";
        src: local("FiraCode-Regular"),
                url("https://cdnjs.cloudflare.com/ajax/libs/firacode/6.2.0/woff2/FiraCode-Regular.woff2") format("woff2"),
                url("https://cdnjs.cloudflare.com/ajax/libs/firacode/6.2.0/woff/FiraCode-Regular.woff") format("woff");
        font-style: normal;
        font-weight: 400;
    }
    @font-face {
        font-family: "Fira Code";
        src: local("FiraCode-Bold"),
                url("https://cdnjs.cloudflare.com/ajax/libs/firacode/6.2.0/woff2/FiraCode-Bold.woff2") format("woff2"),
                url("https://cdnjs.cloudflare.com/ajax/libs/firacode/6.2.0/woff/FiraCode-Bold.woff") format("woff");
        font-style: bold;
        font-weight: 700;
    }

    .terminal-781761508-matrix {
        font-family: Fira Code, monospace;
        font-size: 20px;
        line-height: 24.4px;
        font-variant-east-asian: full-width;
    }

    .terminal-781761508-title {
        font-size: 18px;
        font-weight: bold;
        font-family: arial;
    }

    .terminal-781761508-r1 { fill: #e0e0e0 }
.terminal-781761508-r2 { fill: #c5c8c6 }
.terminal-781761508-r3 { fill: #1f2f3b;font-weight: bold }
.terminal-781761508-r4 { fill: #272727 }
.terminal-781761508-r5 { fill: #212121 }
.terminal-781761508-r6 { fill: #3b3b3b }
.terminal-781761508-r7 { fill: #0e2638;font-weight: bold }
.terminal-781761508-r8 { fill: #412f17;font-weight: bold }
.terminal-781761508-r9 { fill: #2e2e2e }
.terminal-781761508-r10 { fill: #1e1e1e }
.terminal-781761508-r11 { fill: #0e2638 }
.terminal-781761508-r12 { fill: #3b3b3b;font-weight: bold }
.terminal-781761508-r13 { fill: #121212 }
.terminal-781761508-r14 { fill: #1f2f3b }
.terminal-781761508-r15 { fill: #0e1f30 }
.terminal-781761508-r16 { fill: #e1e1e1;font-weight: bold }
.terminal-781761508-r17 { fill: #e0e0e0;font-weight: bold }
.terminal-781761508-r18 { fill: #a5a5a5 }
.terminal-781761508-r19 { fill: #dfeef9;font-weight: bold }
.terminal-781761508-r20 { fill: #fea62b }
.terminal-781761508-r21 { fill: #e0f1e7;font-weight: bold }
.terminal-781761508-r22 { fill: #f3e2e7;font-weight: bold }
.terminal-781761508-r23 { fill: #252525 }
.terminal-781761508-r24 { fill: #141414 }
    </style>

    <defs>
    <clipPath id="terminal-781761508-clip-terminal">
      <rect x="0" y="0" width="1463.0" height="975.0" />
    </clipPath>
    <clipPath id="terminal-781761508-line-0">
    <rect x="0" y="1.5" width="1464" height="24.65"/>
            </clipPath>
<clipPath id="terminal-781761508-line-1">
    <rect x="0" y="25.9" width="1464" height="24.65"/>
            </clipPath>
<clipPath id="terminal-781761508-line-2">
    <rect x="0" y="50.3" width="1464" height="24.65"/>
            </clipPath>
<clipPath id="terminal-781761508-line-3">
    <rect x="0" y="74.7" width="1464" height="24.65"/>
            </clipPath>
<clipPath id="terminal-781761508-line-4">
    <rect x="0" y="99.1" width="1464" height="24.65"/>
            </clipPath>
<clipPath id="terminal-781761508-line-5">
    <rect x="0" y="123.5" width="1464" height="24.65"/>
            </clipPath>
<clipPath id="terminal-781761508-line-6">
    <rect x="0" y="147.9" width="1464" height="24.65"/>
            </clipPath>
<clipPath id="terminal-781761508-line-7">
    <rect x="0" y="172.3" width="1464" height="24.65"/>
            </clipPath>
<clipPath id="terminal-781761508-line-8">
    <rect x="0" y="196.7" width="1464" height="24.65"/>
            </clipPath>
<clipPath id="terminal-781761508-line-9">
    <rect x="0" y="221.1" width="1464" height="24.65"/>
            </clipPath>
<clipPath id="terminal-781761508-line-10">
    <rect x="0" y="245.5" width="1464" height="24.65"/>
            </clipPath>
<clipPath id="terminal-781761508-line-11">
    <rect x="0" y="269.9" width="1464" height="24.65"/>
            </clipPath>
<clipPath id="terminal-781761508-line-12">
    <rect x="0" y="294.3" width="1464" height="24.65"/>
            </clipPath>
<clipPath id="terminal-781761508-line-13">
    <rect x="0" y="318.7" width="1464" height="24.65"/>
            </clipPath>
<clipPath id="terminal-781761508-line-14">
    <rect x="0" y="343.1" width="1464" height="24.65"/>
            </clipPath>
<clipPath id="terminal-781761508-line-15">
    <rect x="0" y="367.5" width="1464" height="24.65"/>
            </clipPath>
<clipPath id="terminal-781761508-line-16">
    <rect x="0" y="391.9" width="1464" height="24.65"/>
            </clipPath>
<clipPath id="terminal-781761508-line-17">
    <rect x="0" y="416.3" width="1464" height="24.65"/>
            </clipPath>
<clipPath id="terminal-781761508-line-18">
    <rect x="0" y="440.7" width="1464" height="24.65"/>
            </clipPath>
<clipPath id="terminal-781761508-line-19">
    <rect x="0" y="465.1" width="1464" height="24.65"/>
            </clipPath>
<clipPath id="terminal-781761508-line-20">
    <rect x="0" y="489.5" width="1464" height="24.65"/>
            </clipPath>
<clipPath id="terminal-781761508-line-21">
    <rect x="0" y="513.9" width="1464" height="24.65"/>
            </clipPath>
<clipPath id="terminal-781761508-line-22">
    <rect x="0" y="538.3" width="1464" height="24.65"/>
            </clipPath>
<clipPath id="terminal-781761508-line-23">
    <rect x="0" y="562.7" width="1464" height="24.65"/>
            </clipPath>
<clipPath id="terminal-781761508-line-24">
    <rect x="0" y="587.1" width="1464" height="24.65"/>
            </clipPath>
<clipPath id="terminal-781761508-line-25">
    <rect x="0" y="611.5" width="1464" height="24.65"/>
            </clipPath>
<clipPath id="terminal-781761508-line-26">
    <rect x="0" y="635.9" width="1464" height="24.65"/>
            </clipPath>
<clipPath id="terminal-781761508-line-27">
    <rect x="0" y="660.3" width="1464" height="24.65"/>
            </clipPath>
<clipPath id="terminal-781761508-line-28">
    <rect x="0" y="684.7" width="1464" height="24.65"/>
            </clipPath>
<clipPath id="terminal-781761508-line-29">
    <rect x="0" y="709.1" width="1464" height="24.65"/>
            </clipPath>
<clipPath id="terminal-781761508-line-30">
    <rect x="0" y="733.5" width="1464" height="24.65"/>
            </clipPath>
<clipPath id="terminal-781761508-line-31">
    <rect x="0" y="757.9" width="1464" height="24.65"/>
            </clipPath>
<clipPath id="terminal-781761508-line-32">
    <rect x="0" y="782.3" width="1464" height="24.65"/>
            </clipPath>
<clipPath id="terminal-781761508-line-33">
    <rect x="0" y="806.7" width="1464" height="24.65"/>
            </clipPath>
<clipPath id="terminal-781761508-line-34">
    <rect x="0" y="831.1" width="1464" height="24.65"/>
            </clipPath>
<clipPath id="terminal-781761508-line-35">
    <rect x="0" y="855.5" width="1464" height="24.65"/>
            </clipPath>
<clipPath id="terminal-781761508-line-36">
    <rect x="0" y="879.9" width="1464" height="24.65"/>
            </clipPath>
<clipPath id="terminal-781761508-line-37">
    <rect x="0" y="904.3" width="1464" height="24.65"/>
            </clipPath>
<clipPath id="terminal-781761508-line-38">
    <rect x="0" y="928.7" width="1464" height="24.65"/>
            </clipPath>
    </defs>

    <rect fill="#292929" stroke="rgba(255,255,255,0.35)" stroke-width="1" x="1" y="1" width="1480" height="1024" rx="8"/><text class="terminal-781761508-title" fill="#c5c8c6" text-anchor="middle" x="740" y="27">gojeera</text>
            <g transform="translate(26,22)">
            <circle cx="0" cy="0" r="7" fill="#ff5f57"/>
            <circle cx="22" cy="0" r="7" fill="#febc2e"/>
            <circle cx="44" cy="0" r="7" fill="#28c840"/>
            </g>
        
    <g transform="translate(9, 41)" clip-path="url(#terminal-781761508-clip-terminal)">
    <rect fill="#121212" x="0" y="1.5" width="1464" height="24.65" shape-rendering="crispEdges"/><rect fill="#121212" x="0" y="25.9" width="12.2" height="24.65" shape-rendering="crispEdges"/><rect fill="#10181d" x="12.2" y="25.9" width="12.2" height="24.65" shape-rendering="crispEdges"/><rect fill="#10181d" x="24.4" y="25.9" width="61" height="24.65" shape-rendering="crispEdges"/><rect fill="#10181d" x="85.4" y="25.9" width="12.2" height="24.65" shape-rendering="crispEdges"/><rect fill="#10181d" x="97.6" y="25.9" width="12.2" height="24.65" shape-rendering="crispEdges"/><rect fill="#10181d" x="109.8" y="25.9" width="12.2" height="24.65" shape-rendering="crispEdges"/><rect fill="#121212" x="122" y="25.9" width="12.2" height="24.65" shape-rendering="crispEdges"/><rect fill="#10181d" x="134.2" y="25.9" width="36.6" height="24.65" shape-rendering="crispEdges"/><rect fill="#121212" x="170.8" y="25.9" width="12.2" height="24.65" shape-rendering="crispEdges"/><rect fill="#141414" x="183" y="25.9" width="85.4" height="24.65" shape-rendering="crispEdges"/><rect fill="#141414" x="268.4" y="25.9" width="170.8" height="24.65" shape-rendering="crispEdges"/><rect fill="#141414" x="439.2" y="25.9" width="12.2" height="24.65" shape-rendering="crispEdges"/><rect fill="#141414" x="451.4" y="25.9" width="12.2" height="24.65" shape-rendering="crispEdges"/><rect fill="#121212" x="463.6" y="25.9" width="12.2" height="24.65" shape-rendering="crispEdges"/><rect fill="#131313" x="475.8" y="25.9" width="97.6" height="24.65" shape-rendering="crispEdges"/><rect fill="#131313" x="573.4" y="25.9" width="158.6" height="24.65" shape-rendering="crispEdges"/><rect fill="#131313" x="732" y="25.9" width="12.2" height="24.65" shape-rendering="crispEdges"/><rect fill="#131313" x="744.2" y="25.9" width="12.2" height="24.65" shape-rendering="crispEdges"/><rect fill="#121212" x="756.4" y="25.9" width="12.2" height="24.65" shape-rendering="crispEdges"/><rect fill="#131313" x="768.6" y="25.9" width="48.8" height="24.65" shape-rendering="crispEdges"/><rect fill="#131313" x="817.4" y="25.9" width="207.4" height="24.65" shape-rendering="crispEdges"/><rect fill="#131313" x="1024.8" y="25.9" width="12.2" height="24.65" shape-rendering="crispEdges"/><rect fill="#131313" x="1037" y="25.9" width="12.2" height="24.65" shape-rendering="crispEdges"/><rect fill="#121212" x="1049.2" y="25.9" width="12.2" height="24.65" shape-rendering="crispEdges"/><rect fill="#131313" x="1061.4" y="25.9" width="73.2" height="24.65" shape-rendering="crispEdges"/><rect fill="#131313" x="1134.6" y="25.9" width="183" height="24.65" shape-rendering="crispEdges"/><rect fill="#131313" x="1317.6" y="25.9" width="12.2" height="24.65" shape-rendering="crispEdges"/><rect fill="#131313" x="1329.8" y="25.9" width="12.2" height="24.65" shape-rendering="crispEdges"/><rect fill="#121212" x="1342" y="25.9" width="12.2" height="24.65" shape-rendering="crispEdges"/><rect fill="#10181d" x="1354.2" y="25.9" width="97.6" height="24.65" shape-rendering="crispEdges"/><rect fill="#121212" x="1451.8" y="25.9" width="12.2" height="24.65" shape-rendering="crispEdges"/><rect fill="#121212" x="0" y="50.3" width="1464" height="24.65" shape-rendering="crispEdges"/><rect fill="#121212" x="0" y="74.7" width="24.4" height="24.65" shape-rendering="crispEdges"/><rect fill="#121212" x="24.4" y="74.7" width="231.8" height="24.65" shape-rendering="crispEdges"/><rect fill="#121212" x="256.2" y="74.7" width="12.2" height="24.65" shape-rendering="crispEdges"/><rect fill="#121212" x="268.4" y="74.7" width="12.2" height="24.65" shape-rendering="crispEdges"/><rect fill="#121212" x="280.6" y="74.7" width="12.2" height="24.65" shape-rendering="crispEdges"/><rect fill="#121212" x="292.8" y="74.7" width="146.4" height="24.65" shape-rendering="crispEdges"/><rect fill="#121212" x="439.2" y="74.7" width="12.2" height="24.65" shape-rendering="crispEdges"/><rect fill="#121212" x="451.4" y="74.7" width="12.2" height="24.65" shape-rendering="crispEdges"/><rect fill="#121212" x="463.6" y="74.7" width="12.2" height="24.65" shape-rendering="crispEdges"/><rect fill="#121212" x="475.8" y="74.7" width="158.6" height="24.65" shape-rendering="crispEdges"/><rect fill="#121212" x="634.4" y="74.7" width="829.6" height="24.65" shape-rendering="crispEdges"/><rect fill="#121212" x="0" y="99.1" width="24.4" height="24.65" shape-rendering="crispEdges"/><rect fill="#121212" x="24.4" y="99.1" width="585.6" height="24.65" shape-rendering="crispEdges"/><rect fill="#121212" x="610" y="99.1" width="829.6" height="24.65" shape-rendering="crispEdges"/><rect fill="#121212" x="1439.6" y="99.1" width="24.4" height="24.65" shape-rendering="crispEdges"/><rect fill="#121212" x="0" y="123.5" width="1464" height="24.65" shape-rendering="crispEdges"/><rect fill="#121212" x="0" y="147.9" width="36.6" height="24.65" shape-rendering="crispEdges"/><rect fill="#121212" x="36.6" y="147.9" width="134.2" height="24.65" shape-rendering="crispEdges"/><rect fill="#121212" x="170.8" y="147.9" width="12.2" height="24.65" shape-rendering="crispEdges"/><rect fill="#10181d" x="183" y="147.9" width="12.2" height="24.65" shape-rendering="crispEdges"/><rect fill="#10181d" x="195.2" y="147.9" width="170.8" height="24.65" shape-rendering="crispEdges"/><rect fill="#121212" x="366" y="147.9" width="12.2" height="24.65" shape-rendering="crispEdges"/><rect fill="#121212" x="378.2" y="147.9" width="97.6" height="24.65" shape-rendering="crispEdges"/><rect fill="#121212" x="475.8" y="147.9" width="24.4" height="24.65" shape-rendering="crispEdges"/><rect fill="#121212" x="500.2" y="147.9" width="158.6" height="24.65" shape-rendering="crispEdges"/><rect fill="#121212" x="658.8" y="147.9" width="36.6" height="24.65" shape-rendering="crispEdges"/><rect fill="#121212" x="695.4" y="147.9" width="12.2" height="24.65" shape-rendering="crispEdges"/><rect fill="#121212" x="707.6" y="147.9" width="109.8" height="24.65" shape-rendering="crispEdges"/><rect fill="#121212" x="817.4" y="147.9" width="36.6" height="24.65" shape-rendering="crispEdges"/><rect fill="#121212" x="854" y="147.9" width="12.2" height="24.65" shape-rendering="crispEdges"/><rect fill="#121212" x="866.2" y="147.9" width="97.6" height="24.65" shape-rendering="crispEdges"/><rect fill="#121212" x="963.8" y="147.9" width="36.6" height="24.65" shape-rendering="crispEdges"/><rect fill="#121212" x="1000.4" y="147.9" width="463.6" height="24.65" shape-rendering="crispEdges"/><rect fill="#121212" x="0" y="172.3" width="24.4" height="24.65" shape-rendering="crispEdges"/><rect fill="#121212" x="24.4" y="172.3" width="158.6" height="24.65" shape-rendering="crispEdges"/><rect fill="#121212" x="183" y="172.3" width="183" height="24.65" shape-rendering="crispEdges"/><rect fill="#121212" x="366" y="172.3" width="1085.8" height="24.65" shape-rendering="crispEdges"/><rect fill="#121212" x="1451.8" y="172.3" width="12.2" height="24.65" shape-rendering="crispEdges"/><rect fill="#121212" x="0" y="196.7" width="24.4" height="24.65" shape-rendering="crispEdges"/><rect fill="#151719" x="24.4" y="196.7" width="939.4" height="24.65" shape-rendering="crispEdges"/><rect fill="#121212" x="963.8" y="196.7" width="12.2" height="24.65" shape-rendering="crispEdges"/><rect fill="#121212" x="976" y="196.7" width="73.2" height="24.65" shape-rendering="crispEdges"/><rect fill="#121212" x="1049.2" y="196.7" width="390.4" height="24.65" shape-rendering="crispEdges"/><rect fill="#0e1f30" x="1439.6" y="196.7" width="12.2" height="24.65" shape-rendering="crispEdges"/><rect fill="#121212" x="1451.8" y="196.7" width="12.2" height="24.65" shape-rendering="crispEdges"/><rect fill="#121212" x="0" y="221.1" width="24.4" height="24.65" shape-rendering="crispEdges"/><rect fill="#10181d" x="24.4" y="221.1" width="939.4" height="24.65" shape-rendering="crispEdges"/><rect fill="#121212" x="963.8" y="221.1" width="12.2" height="24.65" shape-rendering="crispEdges"/><rect fill="#141414" x="976" y="221.1" width="48.8" height="24.65" shape-rendering="crispEdges"/><rect fill="#141414" x="1024.8" y="221.1" width="366" height="24.65" shape-rendering="crispEdges"/><rect fill="#141414" x="1390.8" y="221.1" width="12.2" height="24.65" shape-rendering="crispEdges"/><rect fill="#141414" x="1403" y="221.1" width="12.2" height="24.65" shape-rendering="crispEdges"/><rect fill="#121212" x="1415.2" y="221.1" width="24.4" height="24.65" shape-rendering="crispEdges"/><rect fill="#0e1f30" x="1439.6" y="221.1" width="12.2" height="24.65" shape-rendering="crispEdges"/><rect fill="#121212" x="1451.8" y="221.1" width="12.2" height="24.65" shape-rendering="crispEdges"/><rect fill="#121212" x="0" y="245.5" width="24.4" height="24.65" shape-rendering="crispEdges"/><rect fill="#0e1f30" x="24.4" y="245.5" width="744.2" height="24.65" shape-rendering="crispEdges"/><rect fill="#141414" x="768.6" y="245.5" width="12.2" height="24.65" shape-rendering="crispEdges"/><rect fill="#141414" x="780.8" y="245.5" width="183" height="24.65" shape-rendering="crispEdges"/><rect fill="#121212" x="963.8" y="245.5" width="475.8" height="24.65" shape-rendering="crispEdges"/><rect fill="#0e1f30" x="1439.6" y="245.5" width="12.2" height="24.65" shape-rendering="crispEdges"/><rect fill="#121212" x="1451.8" y="245.5" width="12.2" height="24.65" shape-rendering="crispEdges"/><rect fill="#121212" x="0" y="269.9" width="976" height="24.65" shape-rendering="crispEdges"/><rect fill="#121212" x="976" y="269.9" width="97.6" height="24.65" shape-rendering="crispEdges"/><rect fill="#121212" x="1073.6" y="269.9" width="366" height="24.65" shape-rendering="crispEdges"/><rect fill="#0e1f30" x="1439.6" y="269.9" width="12.2" height="24.65" shape-rendering="crispEdges"/><rect fill="#121212" x="1451.8" y="269.9" width="12.2" height="24.65" shape-rendering="crispEdges"/><rect fill="#121212" x="0" y="294.3" width="976" height="24.65" shape-rendering="crispEdges"/><rect fill="#141414" x="976" y="294.3" width="73.2" height="24.65" shape-rendering="crispEdges"/><rect fill="#141414" x="1049.2" y="294.3" width="341.6" height="24.65" shape-rendering="crispEdges"/><rect fill="#141414" x="1390.8" y="294.3" width="12.2" height="24.65" shape-rendering="crispEdges"/><rect fill="#141414" x="1403" y="294.3" width="12.2" height="24.65" shape-rendering="crispEdges"/><rect fill="#121212" x="1415.2" y="294.3" width="24.4" height="24.65" shape-rendering="crispEdges"/><rect fill="#0e1f30" x="1439.6" y="294.3" width="12.2" height="24.65" shape-rendering="crispEdges"/><rect fill="#121212" x="1451.8" y="294.3" width="12.2" height="24.65" shape-rendering="crispEdges"/><rect fill="#121212" x="0" y="318.7" width="366" height="24.65" shape-rendering="crispEdges"/><rect fill="#1e1e1e" x="366" y="318.7" width="732" height="24.65" shape-rendering="crispEdges"/><rect fill="#121212" x="1098" y="318.7" width="341.6" height="24.65" shape-rendering="crispEdges"/><rect fill="#0e1f30" x="1439.6" y="318.7" width="12.2" height="24.65" shape-rendering="crispEdges"/><rect fill="#121212" x="1451.8" y="318.7" width="12.2" height="24.65" shape-rendering="crispEdges"/><rect fill="#121212" x="0" y="343.1" width="366" height="24.65" shape-rendering="crispEdges"/><rect fill="#1e1e1e" x="366" y="343.1" width="231.8" height="24.65" shape-rendering="crispEdges"/><rect fill="#1e1e1e" x="597.8" y="343.1" width="268.4" height="24.65" shape-rendering="crispEdges"/><rect fill="#1e1e1e" x="866.2" y="343.1" width="231.8" height="24.65" shape-rendering="crispEdges"/><rect fill="#121212" x="1098" y="343.1" width="341.6" height="24.65" shape-rendering="crispEdges"/><rect fill="#0e1f30" x="1439.6" y="343.1" width="12.2" height="24.65" shape-rendering="crispEdges"/><rect fill="#121212" x="1451.8" y="343.1" width="12.2" height="24.65" shape-rendering="crispEdges"/><rect fill="#121212" x="0" y="367.5" width="366" height="24.65" shape-rendering="crispEdges"/><rect fill="#1e1e1e" x="366" y="367.5" width="732" height="24.65" shape-rendering="crispEdges"/><rect fill="#141414" x="1098" y="367.5" width="24.4" height="24.65" shape-rendering="crispEdges"/><rect fill="#141414" x="1122.4" y="367.5" width="268.4" height="24.65" shape-rendering="crispEdges"/><rect fill="#141414" x="1390.8" y="367.5" width="12.2" height="24.65" shape-rendering="crispEdges"/><rect fill="#141414" x="1403" y="367.5" width="12.2" height="24.65" shape-rendering="crispEdges"/><rect fill="#121212" x="1415.2" y="367.5" width="24.4" height="24.65" shape-rendering="crispEdges"/><rect fill="#0e1f30" x="1439.6" y="367.5" width="12.2" height="24.65" shape-rendering="crispEdges"/><rect fill="#121212" x="1451.8" y="367.5" width="12.2" height="24.65" shape-rendering="crispEdges"/><rect fill="#121212" x="0" y="391.9" width="366" height="24.65" shape-rendering="crispEdges"/><rect fill="#1e1e1e" x="366" y="391.9" width="12.2" height="24.65" shape-rendering="crispEdges"/><rect fill="#1e1e1e" x="378.2" y="391.9" width="109.8" height="24.65" shape-rendering="crispEdges"/><rect fill="#1e1e1e" x="488" y="391.9" width="610" height="24.65" shape-rendering="crispEdges"/><rect fill="#121212" x="1098" y="391.9" width="341.6" height="24.65" shape-rendering="crispEdges"/><rect fill="#0e1f30" x="1439.6" y="391.9" width="12.2" height="24.65" shape-rendering="crispEdges"/><rect fill="#121212" x="1451.8" y="391.9" width="12.2" height="24.65" shape-rendering="crispEdges"/><rect fill="#121212" x="0" y="416.3" width="366" height="24.65" shape-rendering="crispEdges"/><rect fill="#1e1e1e" x="366" y="416.3" width="12.2" height="24.65" shape-rendering="crispEdges"/><rect fill="#252525" x="378.2" y="416.3" width="500.2" height="24.65" shape-rendering="crispEdges"/><rect fill="#1e1e1e" x="878.4" y="416.3" width="12.2" height="24.65" shape-rendering="crispEdges"/><rect fill="#0c7dd4" x="890.6" y="416.3" width="24.4" height="24.65" shape-rendering="crispEdges"/><rect fill="#0c7dd4" x="915" y="416.3" width="134.2" height="24.65" shape-rendering="crispEdges"/><rect fill="#0c7dd4" x="1049.2" y="416.3" width="36.6" height="24.65" shape-rendering="crispEdges"/><rect fill="#1e1e1e" x="1085.8" y="416.3" width="12.2" height="24.65" shape-rendering="crispEdges"/><rect fill="#121212" x="1098" y="416.3" width="341.6" height="24.65" shape-rendering="crispEdges"/><rect fill="#0e1f30" x="1439.6" y="416.3" width="12.2" height="24.65" shape-rendering="crispEdges"/><rect fill="#121212" x="1451.8" y="416.3" width="12.2" height="24.65" shape-rendering="crispEdges"/><rect fill="#121212" x="0" y="440.7" width="366" height="24.65" shape-rendering="crispEdges"/><rect fill="#1e1e1e" x="366" y="440.7" width="732" height="24.65" shape-rendering="crispEdges"/><rect fill="#131313" x="1098" y="440.7" width="317.2" height="24.65" shape-rendering="crispEdges"/><rect fill="#121212" x="1415.2" y="440.7" width="24.4" height="24.65" shape-rendering="crispEdges"/><rect fill="#0e1f30" x="1439.6" y="440.7" width="12.2" height="24.65" shape-rendering="crispEdges"/><rect fill="#121212" x="1451.8" y="440.7" width="12.2" height="24.65" shape-rendering="crispEdges"/><rect fill="#121212" x="0" y="465.1" width="366" height="24.65" shape-rendering="crispEdges"/><rect fill="#1e1e1e" x="366" y="465.1" width="12.2" height="24.65" shape-rendering="crispEdges"/><rect fill="#1e1e1e" x="378.2" y="465.1" width="524.6" height="24.65" shape-rendering="crispEdges"/><rect fill="#1e1e1e" x="902.8" y="465.1" width="195.2" height="24.65" shape-rendering="crispEdges"/><rect fill="#121212" x="1098" y="465.1" width="341.6" height="24.65" shape-rendering="crispEdges"/><rect fill="#0e1f30" x="1439.6" y="465.1" width="12.2" height="24.65" shape-rendering="crispEdges"/><rect fill="#121212" x="1451.8" y="465.1" width="12.2" height="24.65" shape-rendering="crispEdges"/><rect fill="#121212" x="0" y="489.5" width="366" height="24.65" shape-rendering="crispEdges"/><rect fill="#1e1e1e" x="366" y="489.5" width="12.2" height="24.65" shape-rendering="crispEdges"/><rect fill="#1e1e1e" x="378.2" y="489.5" width="488" height="24.65" shape-rendering="crispEdges"/><rect fill="#1e1e1e" x="866.2" y="489.5" width="231.8" height="24.65" shape-rendering="crispEdges"/><rect fill="#121212" x="1098" y="489.5" width="341.6" height="24.65" shape-rendering="crispEdges"/><rect fill="#0e1f30" x="1439.6" y="489.5" width="12.2" height="24.65" shape-rendering="crispEdges"/><rect fill="#121212" x="1451.8" y="489.5" width="12.2" height="24.65" shape-rendering="crispEdges"/><rect fill="#121212" x="0" y="513.9" width="366" height="24.65" shape-rendering="crispEdges"/><rect fill="#1e1e1e" x="366" y="513.9" width="732" height="24.65" shape-rendering="crispEdges"/><rect fill="#10181d" x="1098" y="513.9" width="73.2" height="24.65" shape-rendering="crispEdges"/><rect fill="#121212" x="1171.2" y="513.9" width="12.2" height="24.65" shape-rendering="crispEdges"/><rect fill="#10181d" x="1183.4" y="513.9" width="183" height="24.65" shape-rendering="crispEdges"/><rect fill="#121212" x="1366.4" y="513.9" width="73.2" height="24.65" shape-rendering="crispEdges"/><rect fill="#0e1f30" x="1439.6" y="513.9" width="12.2" height="24.65" shape-rendering="crispEdges"/><rect fill="#121212" x="1451.8" y="513.9" width="12.2" height="24.65" shape-rendering="crispEdges"/><rect fill="#121212" x="0" y="538.3" width="366" height="24.65" shape-rendering="crispEdges"/><rect fill="#1e1e1e" x="366" y="538.3" width="12.2" height="24.65" shape-rendering="crispEdges"/><rect fill="#1e1e1e" x="378.2" y="538.3" width="658.8" height="24.65" shape-rendering="crispEdges"/><rect fill="#1e1e1e" x="1037" y="538.3" width="61" height="24.65" shape-rendering="crispEdges"/><rect fill="#141414" x="1098" y="538.3" width="317.2" height="24.65" shape-rendering="crispEdges"/><rect fill="#121212" x="1415.2" y="538.3" width="24.4" height="24.65" shape-rendering="crispEdges"/><rect fill="#0e1f30" x="1439.6" y="538.3" width="12.2" height="24.65" shape-rendering="crispEdges"/><rect fill="#121212" x="1451.8" y="538.3" width="12.2" height="24.65" shape-rendering="crispEdges"/><rect fill="#121212" x="0" y="562.7" width="366" height="24.65" shape-rendering="crispEdges"/><rect fill="#1e1e1e" x="366" y="562.7" width="732" height="24.65" shape-rendering="crispEdges"/><rect fill="#121212" x="1098" y="562.7" width="341.6" height="24.65" shape-rendering="crispEdges"/><rect fill="#0e1f30" x="1439.6" y="562.7" width="12.2" height="24.65" shape-rendering="crispEdges"/><rect fill="#121212" x="1451.8" y="562.7" width="12.2" height="24.65" shape-rendering="crispEdges"/><rect fill="#121212" x="0" y="587.1" width="366" height="24.65" shape-rendering="crispEdges"/><rect fill="#1e1e1e" x="366" y="587.1" width="158.6" height="24.65" shape-rendering="crispEdges"/><rect fill="#18954b" x="524.6" y="587.1" width="48.8" height="24.65" shape-rendering="crispEdges"/><rect fill="#18954b" x="573.4" y="587.1" width="97.6" height="24.65" shape-rendering="crispEdges"/><rect fill="#18954b" x="671" y="587.1" width="48.8" height="24.65" shape-rendering="crispEdges"/><rect fill="#1e1e1e" x="719.8" y="587.1" width="12.2" height="24.65" shape-rendering="crispEdges"/><rect fill="#a32549" x="732" y="587.1" width="48.8" height="24.65" shape-rendering="crispEdges"/><rect fill="#a32549" x="780.8" y="587.1" width="97.6" height="24.65" shape-rendering="crispEdges"/><rect fill="#a32549" x="878.4" y="587.1" width="48.8" height="24.65" shape-rendering="crispEdges"/><rect fill="#1e1e1e" x="927.2" y="587.1" width="170.8" height="24.65" shape-rendering="crispEdges"/><rect fill="#121212" x="1098" y="587.1" width="341.6" height="24.65" shape-rendering="crispEdges"/><rect fill="#0e1f30" x="1439.6" y="587.1" width="12.2" height="24.65" shape-rendering="crispEdges"/><rect fill="#121212" x="1451.8" y="587.1" width="12.2" height="24.65" shape-rendering="crispEdges"/><rect fill="#121212" x="0" y="611.5" width="366" height="24.65" shape-rendering="crispEdges"/><rect fill="#1e1e1e" x="366" y="611.5" width="732" height="24.65" shape-rendering="crispEdges"/><rect fill="#10181d" x="1098" y="611.5" width="24.4" height="24.65" shape-rendering="crispEdges"/><rect fill="#121212" x="1122.4" y="611.5" width="12.2" height="24.65" shape-rendering="crispEdges"/><rect fill="#10181d" x="1134.6" y="611.5" width="85.4" height="24.65" shape-rendering="crispEdges"/><rect fill="#121212" x="1220" y="611.5" width="219.6" height="24.65" shape-rendering="crispEdges"/><rect fill="#0e1f30" x="1439.6" y="611.5" width="12.2" height="24.65" shape-rendering="crispEdges"/><rect fill="#121212" x="1451.8" y="611.5" width="12.2" height="24.65" shape-rendering="crispEdges"/><rect fill="#121212" x="0" y="635.9" width="976" height="24.65" shape-rendering="crispEdges"/><rect fill="#141414" x="976" y="635.9" width="402.6" height="24.65" shape-rendering="crispEdges"/><rect fill="#141414" x="1378.6" y="635.9" width="24.4" height="24.65" shape-rendering="crispEdges"/><rect fill="#141414" x="1403" y="635.9" width="12.2" height="24.65" shape-rendering="crispEdges"/><rect fill="#121212" x="1415.2" y="635.9" width="24.4" height="24.65" shape-rendering="crispEdges"/><rect fill="#0e1f30" x="1439.6" y="635.9" width="12.2" height="24.65" shape-rendering="crispEdges"/><rect fill="#121212" x="1451.8" y="635.9" width="12.2" height="24.65" shape-rendering="crispEdges"/><rect fill="#121212" x="0" y="660.3" width="1439.6" height="24.65" shape-rendering="crispEdges"/><rect fill="#0e1f30" x="1439.6" y="660.3" width="12.2" height="24.65" shape-rendering="crispEdges"/><rect fill="#121212" x="1451.8" y="660.3" width="12.2" height="24.65" shape-rendering="crispEdges"/><rect fill="#121212" x="0" y="684.7" width="976" height="24.65" shape-rendering="crispEdges"/><rect fill="#121212" x="976" y="684.7" width="85.4" height="24.65" shape-rendering="crispEdges"/><rect fill="#121212" x="1061.4" y="684.7" width="378.2" height="24.65" shape-rendering="crispEdges"/><rect fill="#141414" x="1439.6" y="684.7" width="12.2" height="24.65" shape-rendering="crispEdges"/><rect fill="#121212" x="1451.8" y="684.7" width="12.2" height="24.65" shape-rendering="crispEdges"/><rect fill="#121212" x="0" y="709.1" width="976" height="24.65" shape-rendering="crispEdges"/><rect fill="#121212" x="976" y="709.1" width="97.6" height="24.65" shape-rendering="crispEdges"/><rect fill="#121212" x="1073.6" y="709.1" width="366" height="24.65" shape-rendering="crispEdges"/><rect fill="#141414" x="1439.6" y="709.1" width="12.2" height="24.65" shape-rendering="crispEdges"/><rect fill="#121212" x="1451.8" y="709.1" width="12.2" height="24.65" shape-rendering="crispEdges"/><rect fill="#121212" x="0" y="733.5" width="976" height="24.65" shape-rendering="crispEdges"/><rect fill="#10181d" x="976" y="733.5" width="109.8" height="24.65" shape-rendering="crispEdges"/><rect fill="#121212" x="1085.8" y="733.5" width="353.8" height="24.65" shape-rendering="crispEdges"/><rect fill="#141414" x="1439.6" y="733.5" width="12.2" height="24.65" shape-rendering="crispEdges"/><rect fill="#121212" x="1451.8" y="733.5" width="12.2" height="24.65" shape-rendering="crispEdges"/><rect fill="#121212" x="0" y="757.9" width="976" height="24.65" shape-rendering="crispEdges"/><rect fill="#141414" x="976" y="757.9" width="402.6" height="24.65" shape-rendering="crispEdges"/><rect fill="#141414" x="1378.6" y="757.9" width="24.4" height="24.65" shape-rendering="crispEdges"/><rect fill="#141414" x="1403" y="757.9" width="12.2" height="24.65" shape-rendering="crispEdges"/><rect fill="#121212" x="1415.2" y="757.9" width="24.4" height="24.65" shape-rendering="crispEdges"/><rect fill="#141414" x="1439.6" y="757.9" width="12.2" height="24.65" shape-rendering="crispEdges"/><rect fill="#121212" x="1451.8" y="757.9" width="12.2" height="24.65" shape-rendering="crispEdges"/><rect fill="#121212" x="0" y="782.3" width="1439.6" height="24.65" shape-rendering="crispEdges"/><rect fill="#141414" x="1439.6" y="782.3" width="12.2" height="24.65" shape-rendering="crispEdges"/><rect fill="#121212" x="1451.8" y="782.3" width="12.2" height="24.65" shape-rendering="crispEdges"/><rect fill="#121212" x="0" y="806.7" width="976" height="24.65" shape-rendering="crispEdges"/><rect fill="#121212" x="976" y="806.7" width="146.4" height="24.65" shape-rendering="crispEdges"/><rect fill="#121212" x="1122.4" y="806.7" width="317.2" height="24.65" shape-rendering="crispEdges"/><rect fill="#141414" x="1439.6" y="806.7" width="12.2" height="24.65" shape-rendering="crispEdges"/><rect fill="#121212" x="1451.8" y="806.7" width="12.2" height="24.65" shape-rendering="crispEdges"/><rect fill="#121212" x="0" y="831.1" width="976" height="24.65" shape-rendering="crispEdges"/><rect fill="#10181d" x="976" y="831.1" width="109.8" height="24.65" shape-rendering="crispEdges"/><rect fill="#121212" x="1085.8" y="831.1" width="353.8" height="24.65" shape-rendering="crispEdges"/><rect fill="#141414" x="1439.6" y="831.1" width="12.2" height="24.65" shape-rendering="crispEdges"/><rect fill="#121212" x="1451.8" y="831.1" width="12.2" height="24.65" shape-rendering="crispEdges"/><rect fill="#121212" x="0" y="855.5" width="976" height="24.65" shape-rendering="crispEdges"/><rect fill="#141414" x="976" y="855.5" width="402.6" height="24.65" shape-rendering="crispEdges"/><rect fill="#141414" x="1378.6" y="855.5" width="24.4" height="24.65" shape-rendering="crispEdges"/><rect fill="#141414" x="1403" y="855.5" width="12.2" height="24.65" shape-rendering="crispEdges"/><rect fill="#121212" x="1415.2" y="855.5" width="24.4" height="24.65" shape-rendering="crispEdges"/><rect fill="#141414" x="1439.6" y="855.5" width="12.2" height="24.65" shape-rendering="crispEdges"/><rect fill="#121212" x="1451.8" y="855.5" width="12.2" height="24.65" shape-rendering="crispEdges"/><rect fill="#121212" x="0" y="879.9" width="1439.6" height="24.65" shape-rendering="crispEdges"/><rect fill="#141414" x="1439.6" y="879.9" width="12.2" height="24.65" shape-rendering="crispEdges"/><rect fill="#121212" x="1451.8" y="879.9" width="12.2" height="24.65" shape-rendering="crispEdges"/><rect fill="#121212" x="0" y="904.3" width="1464" height="24.65" shape-rendering="crispEdges"/><rect fill="#121212" x="0" y="928.7" width="1464" height="24.65" shape-rendering="crispEdges"/><rect fill="#121212" x="0" y="953.1" width="1464" height="24.65" shape-rendering="crispEdges"/>
    <g class="terminal-781761508-matrix">
    <text class="terminal-781761508-r2" x="1464" y="20" textLength="12.2" clip-path="url(#terminal-781761508-line-0)">
</text><text class="terminal-781761508-r3" x="24.4" y="44.4" textLength="61" clip-path="url(#terminal-781761508-line-1)">Basic</text><text class="terminal-781761508-r3" x="97.6" y="44.4" textLength="12.2" clip-path="url(#terminal-781761508-line-1)">▼</text><text class="terminal-781761508-r3" x="134.2" y="44.4" textLength="36.6" clip-path="url(#terminal-781761508-line-1)">&#160;+&#160;</text><text class="terminal-781761508-r4" x="183" y="44.4" textLength="85.4" clip-path="url(#terminal-781761508-line-1)">Project</text><text class="terminal-781761508-r4" x="439.2" y="44.4" textLength="12.2" clip-path="url(#terminal-781761508-line-1)">▼</text><text class="terminal-781761508-r5" x="475.8" y="44.4" textLength="97.6" clip-path="url(#terminal-781761508-line-1)">Assignee</text><text class="terminal-781761508-r5" x="732" y="44.4" textLength="12.2" clip-path="url(#terminal-781761508-line-1)">▼</text><text class="terminal-781761508-r5" x="768.6" y="44.4" textLength="48.8" clip-path="url(#terminal-781761508-line-1)">Type</text><text class="terminal-781761508-r5" x="1024.8" y="44.4" textLength="12.2" clip-path="url(#terminal-781761508-line-1)">▼</text><text class="terminal-781761508-r5" x="1061.4" y="44.4" textLength="73.2" clip-path="url(#terminal-781761508-line-1)">Status</text><text class="terminal-781761508-r5" x="1317.6" y="44.4" textLength="12.2" clip-path="url(#terminal-781761508-line-1)">▼</text><text class="terminal-781761508-r3" x="1354.2" y="44.4" textLength="97.6" clip-path="url(#terminal-781761508-line-1)">&#160;Search&#160;</text><text class="terminal-781761508-r2" x="1464" y="44.4" textLength="12.2" clip-path="url(#terminal-781761508-line-1)">
</text><text class="terminal-781761508-r2" x="1464" y="68.8" textLength="12.2" clip-path="url(#terminal-781761508-line-2)">
</text><text class="terminal-781761508-r6" x="24.4" y="93.2" textLength="231.8" clip-path="url(#terminal-781761508-line-3)">Engineering&#160;Project</text><text class="terminal-781761508-r6" x="268.4" y="93.2" textLength="12.2" clip-path="url(#terminal-781761508-line-3)">/</text><text class="terminal-781761508-r7" x="292.8" y="93.2" textLength="146.4" clip-path="url(#terminal-781761508-line-3)">[Epic]&#160;ENG-2</text><text class="terminal-781761508-r6" x="451.4" y="93.2" textLength="12.2" clip-path="url(#terminal-781761508-line-3)">/</text><text class="terminal-781761508-r6" x="475.8" y="93.2" textLength="158.6" clip-path="url(#terminal-781761508-line-3)">[Story]&#160;ENG-3</text><text class="terminal-781761508-r2" x="1464" y="93.2" textLength="12.2" clip-path="url(#terminal-781761508-line-3)">
</text><text class="terminal-781761508-r8" x="24.4" y="117.6" textLength="585.6" clip-path="url(#terminal-781761508-line-4)">Review&#160;approval&#160;workflow&#160;for&#160;motion&#160;cue&#160;releases</text><text class="terminal-781761508-r2" x="1464" y="117.6" textLength="12.2" clip-path="url(#terminal-781761508-line-4)">
</text><text class="terminal-781761508-r2" x="1464" y="142" textLength="12.2" clip-path="url(#terminal-781761508-line-5)">
</text><text class="terminal-781761508-r9" x="36.6" y="166.4" textLength="134.2" clip-path="url(#terminal-781761508-line-6)">Description</text><text class="terminal-781761508-r3" x="195.2" y="166.4" textLength="170.8" clip-path="url(#terminal-781761508-line-6)">Attachments&#160;1&#160;</text><text class="terminal-781761508-r9" x="378.2" y="166.4" textLength="97.6" clip-path="url(#terminal-781761508-line-6)">Subtasks</text><text class="terminal-781761508-r9" x="500.2" y="166.4" textLength="158.6" clip-path="url(#terminal-781761508-line-6)">Related&#160;Items</text><text class="terminal-781761508-r3" x="658.8" y="166.4" textLength="36.6" clip-path="url(#terminal-781761508-line-6)">&#160;2&#160;</text><text class="terminal-781761508-r9" x="707.6" y="166.4" textLength="109.8" clip-path="url(#terminal-781761508-line-6)">Web&#160;Links</text><text class="terminal-781761508-r3" x="817.4" y="166.4" textLength="36.6" clip-path="url(#terminal-781761508-line-6)">&#160;6&#160;</text><text class="terminal-781761508-r9" x="866.2" y="166.4" textLength="97.6" clip-path="url(#terminal-781761508-line-6)">Comments</text><text class="terminal-781761508-r3" x="963.8" y="166.4" textLength="36.6" clip-path="url(#terminal-781761508-line-6)">&#160;1&#160;</text><text class="terminal-781761508-r2" x="1464" y="166.4" textLength="12.2" clip-path="url(#terminal-781761508-line-6)">
</text><text class="terminal-781761508-r10" x="24.4" y="190.8" textLength="158.6" clip-path="url(#terminal-781761508-line-7)">━━━━━━━━━━━━╸</text><text class="terminal-781761508-r11" x="183" y="190.8" textLength="183" clip-path="url(#terminal-781761508-line-7)">━━━━━━━━━━━━━━━</text><text class="terminal-781761508-r10" x="366" y="190.8" textLength="1085.8" clip-path="url(#terminal-781761508-line-7)">╺━━━━━━━━━━━━━━━━━━━━━━━━━━━━━━━━━━━━━━━━━━━━━━━━━━━━━━━━━━━━━━━━━━━━━━━━━━━━━━━━━━━━━━━━</text><text class="terminal-781761508-r2" x="1464" y="190.8" textLength="12.2" clip-path="url(#terminal-781761508-line-7)">
</text><text class="terminal-781761508-r12" x="24.4" y="215.2" textLength="939.4" clip-path="url(#terminal-781761508-line-8)">&#160;File&#160;Name&#160;&#160;&#160;&#160;&#160;&#160;&#160;&#160;&#160;&#160;&#160;&#160;&#160;&#160;&#160;&#160;&#160;&#160;Type&#160;&#160;&#160;&#160;&#160;&#160;&#160;Size&#160;(KB)&#160;&#160;Author&#160;&#160;&#160;&#160;&#160;&#160;&#160;&#160;&#160;&#160;&#160;&#160;&#160;&#160;&#160;&#160;&#160;&#160;&#160;&#160;&#160;</text><text class="terminal-781761508-r12" x="976" y="215.2" textLength="73.2" clip-path="url(#terminal-781761508-line-8)">Status</text><text class="terminal-781761508-r2" x="1464" y="215.2" textLength="12.2" clip-path="url(#terminal-781761508-line-8)">
</text><text class="terminal-781761508-r14" x="24.4" y="239.6" textLength="939.4" clip-path="url(#terminal-781761508-line-9)">&#160;image-20260205-112310.png&#160;&#160;image/png&#160;&#160;244.54&#160;&#160;&#160;&#160;&#160;rook.hydra@acme.example.com</text><text class="terminal-781761508-r4" x="976" y="239.6" textLength="48.8" clip-path="url(#terminal-781761508-line-9)">Done</text><text class="terminal-781761508-r4" x="1390.8" y="239.6" textLength="12.2" clip-path="url(#terminal-781761508-line-9)">▼</text><text class="terminal-781761508-r2" x="1464" y="239.6" textLength="12.2" clip-path="url(#terminal-781761508-line-9)">
</text><text class="terminal-781761508-r15" x="768.6" y="264" textLength="12.2" clip-path="url(#terminal-781761508-line-10)">▉</text><text class="terminal-781761508-r2" x="1464" y="264" textLength="12.2" clip-path="url(#terminal-781761508-line-10)">
</text><text class="terminal-781761508-r12" x="976" y="288.4" textLength="97.6" clip-path="url(#terminal-781761508-line-11)">Priority</text><text class="terminal-781761508-r2" x="1464" y="288.4" textLength="12.2" clip-path="url(#terminal-781761508-line-11)">
</text><text class="terminal-781761508-r6" x="976" y="312.8" textLength="73.2" clip-path="url(#terminal-781761508-line-12)">Medium</text><text class="terminal-781761508-r4" x="1390.8" y="312.8" textLength="12.2" clip-path="url(#terminal-781761508-line-12)">▼</text><text class="terminal-781761508-r2" x="1464" y="312.8" textLength="12.2" clip-path="url(#terminal-781761508-line-12)">
</text><text class="terminal-781761508-r2" x="1464" y="337.2" textLength="12.2" clip-path="url(#terminal-781761508-line-13)">
</text><text class="terminal-781761508-r16" x="597.8" y="361.6" textLength="268.4" clip-path="url(#terminal-781761508-line-14)">Add&#160;Attachment&#160;-&#160;ENG-3</text><text class="terminal-781761508-r2" x="1464" y="361.6" textLength="12.2" clip-path="url(#terminal-781761508-line-14)">
</text><text class="terminal-781761508-r6" x="1098" y="386" textLength="24.4" clip-path="url(#terminal-781761508-line-15)">sk</text><text class="terminal-781761508-r4" x="1390.8" y="386" textLength="12.2" clip-path="url(#terminal-781761508-line-15)">▼</text><text class="terminal-781761508-r2" x="1464" y="386" textLength="12.2" clip-path="url(#terminal-781761508-line-15)">
</text><text class="terminal-781761508-r17" x="378.2" y="410.4" textLength="109.8" clip-path="url(#terminal-781761508-line-16)">File&#160;Path</text><text class="terminal-781761508-r2" x="1464" y="410.4" textLength="12.2" clip-path="url(#terminal-781761508-line-16)">
</text><text class="terminal-781761508-r18" x="378.2" y="434.8" textLength="500.2" clip-path="url(#terminal-781761508-line-17)">/tmp/test_attachment.txt&#160;&#160;&#160;&#160;&#160;&#160;&#160;&#160;&#160;&#160;&#160;&#160;&#160;&#160;&#160;&#160;&#160;</text><text class="terminal-781761508-r19" x="915" y="434.8" textLength="134.2" clip-path="url(#terminal-781761508-line-17)">&#160;Browse...&#160;</text><text class="terminal-781761508-r2" x="1464" y="434.8" textLength="12.2" clip-path="url(#terminal-781761508-line-17)">
</text><text class="terminal-781761508-r2" x="1464" y="459.2" textLength="12.2" clip-path="url(#terminal-781761508-line-18)">
</text><text class="terminal-781761508-r18" x="378.2" y="483.6" textLength="524.6" clip-path="url(#terminal-781761508-line-19)">•&#160;Click&#160;&quot;Browse...&quot;&#160;to&#160;open&#160;the&#160;file&#160;picker</text><text class="terminal-781761508-r2" x="1464" y="483.6" textLength="12.2" clip-path="url(#terminal-781761508-line-19)">
</text><text class="terminal-781761508-r18" x="378.2" y="508" textLength="488" clip-path="url(#terminal-781761508-line-20)">•&#160;Navigate&#160;and&#160;select&#160;the&#160;file&#160;to&#160;attach</text><text class="terminal-781761508-r2" x="1464" y="508" textLength="12.2" clip-path="url(#terminal-781761508-line-20)">
</text><text class="terminal-781761508-r14" x="1098" y="532.4" textLength="73.2" clip-path="url(#terminal-781761508-line-21)">rig&#160;x&#160;</text><text class="terminal-781761508-r14" x="1183.4" y="532.4" textLength="183" clip-path="url(#terminal-781761508-line-21)">&#160;motion-cues&#160;x&#160;</text><text class="terminal-781761508-r2" x="1464" y="532.4" textLength="12.2" clip-path="url(#terminal-781761508-line-21)">
</text><text class="terminal-781761508-r20" x="378.2" y="556.8" textLength="658.8" clip-path="url(#terminal-781761508-line-22)">⚠&#160;Large&#160;files&#160;may&#160;cause&#160;temporary&#160;UI&#160;unresponsiveness!</text><text class="terminal-781761508-r2" x="1464" y="556.8" textLength="12.2" clip-path="url(#terminal-781761508-line-22)">
</text><text class="terminal-781761508-r2" x="1464" y="581.2" textLength="12.2" clip-path="url(#terminal-781761508-line-23)">
</text><text class="terminal-781761508-r21" x="573.4" y="605.6" textLength="97.6" clip-path="url(#terminal-781761508-line-24)">&#160;Attach&#160;</text><text class="terminal-781761508-r22" x="780.8" y="605.6" textLength="97.6" clip-path="url(#terminal-781761508-line-24)">&#160;Cancel&#160;</text><text class="terminal-781761508-r2" x="1464" y="605.6" textLength="12.2" clip-path="url(#terminal-781761508-line-24)">
</text><text class="terminal-781761508-r14" x="1098" y="630" textLength="24.4" clip-path="url(#terminal-781761508-line-25)">x&#160;</text><text class="terminal-781761508-r14" x="1134.6" y="630" textLength="85.4" clip-path="url(#terminal-781761508-line-25)">&#160;API&#160;x&#160;</text><text class="terminal-781761508-r2" x="1464" y="630" textLength="12.2" clip-path="url(#terminal-781761508-line-25)">
</text><text class="terminal-781761508-r23" x="1378.6" y="654.4" textLength="24.4" clip-path="url(#terminal-781761508-line-26)">&#160;▼</text><text class="terminal-781761508-r2" x="1464" y="654.4" textLength="12.2" clip-path="url(#terminal-781761508-line-26)">
</text><text class="terminal-781761508-r24" x="1439.6" y="678.8" textLength="12.2" clip-path="url(#terminal-781761508-line-27)">▃</text><text class="terminal-781761508-r2" x="1464" y="678.8" textLength="12.2" clip-path="url(#terminal-781761508-line-27)">
</text><text class="terminal-781761508-r12" x="976" y="703.2" textLength="85.4" clip-path="url(#terminal-781761508-line-28)">Affects</text><text class="terminal-781761508-r2" x="1464" y="703.2" textLength="12.2" clip-path="url(#terminal-781761508-line-28)">
</text><text class="terminal-781761508-r12" x="976" y="727.6" textLength="97.6" clip-path="url(#terminal-781761508-line-29)">Versions</text><text class="terminal-781761508-r2" x="1464" y="727.6" textLength="12.2" clip-path="url(#terminal-781761508-line-29)">
</text><text class="terminal-781761508-r14" x="976" y="752" textLength="109.8" clip-path="url(#terminal-781761508-line-30)">&#160;1.0.0&#160;x&#160;</text><text class="terminal-781761508-r2" x="1464" y="752" textLength="12.2" clip-path="url(#terminal-781761508-line-30)">
</text><text class="terminal-781761508-r23" x="1378.6" y="776.4" textLength="24.4" clip-path="url(#terminal-781761508-line-31)">&#160;▼</text><text class="terminal-781761508-r2" x="1464" y="776.4" textLength="12.2" clip-path="url(#terminal-781761508-line-31)">
</text><text class="terminal-781761508-r2" x="1464" y="800.8" textLength="12.2" clip-path="url(#terminal-781761508-line-32)">
</text><text class="terminal-781761508-r12" x="976" y="825.2" textLength="146.4" clip-path="url(#terminal-781761508-line-33)">Fix&#160;Versions</text><text class="terminal-781761508-r2" x="1464" y="825.2" textLength="12.2" clip-path="url(#terminal-781761508-line-33)">
</text><text class="terminal-781761508-r14" x="976" y="849.6" textLength="109.8" clip-path="url(#terminal-781761508-line-34)">&#160;2.0.0&#160;x&#160;</text><text class="terminal-781761508-r2" x="1464" y="849.6" textLength="12.2" clip-path="url(#terminal-781761508-line-34)">
</text><text class="terminal-781761508-r23" x="1378.6" y="874" textLength="24.4" clip-path="url(#terminal-781761508-line-35)">&#160;▼</text><text class="terminal-781761508-r2" x="1464" y="874" textLength="12.2" clip-path="url(#terminal-781761508-line-35)">
</text><text class="terminal-781761508-r2" x="1464" y="898.4" textLength="12.2" clip-path="url(#terminal-781761508-line-36)">
</text><text class="terminal-781761508-r2" x="1464" y="922.8" textLength="12.2" clip-path="url(#terminal-781761508-line-37)">
</text><text class="terminal-781761508-r2" x="1464" y="947.2" textLength="12.2" clip-path="url(#terminal-781761508-line-38)">
</text>
    </g>
    </g>
</svg>
