<svg class="rich-terminal" viewBox="0 0 1482 1026.0" xmlns="http://www.w3.org/2000/svg">
    <!-- Generated with Rich https://www.textualize.io -->
    <style>

    @font-face {
        font-family: "Fira Code";
        src: local("FiraCode-Regular"),
                url("https://cdnjs.cloudflare.com/ajax/libs/firacode/6.2.0/woff2/FiraCode-Regular.woff2") format("woff2"),
                url("https://cdnjs.cloudflare.com/ajax/libs/firacode/6.2.0/woff/FiraCode-Regular.woff") format("woff");
        font-style: normal;
        font-weight: 400;
    }
    @font-face {
        font-family: "Fira Code";
        src: local("FiraCode-Bold"),
                url("https://cdnjs.cloudflare.com/ajax/libs/firacode/6.2.0/woff2/FiraCode-Bold.woff2") format("woff2"),
                url("https://cdnjs.cloudflare.com/ajax/libs/firacode/6.2.0/woff/FiraCode-Bold.woff") format("woff");
        font-style: bold;
        font-weight: 700;
    }

    .terminal-533785617-matrix {
        font-family: Fira Code, monospace;
        font-size: 20px;
        line-height: 24.4px;
        font-variant-east-asian: full-width;
    }

    .terminal-533785617-title {
        font-size: 18px;
        font-weight: bold;
        font-family: arial;
    }

    .terminal-533785617-r1 { fill: #e0e0e0 }
.terminal-533785617-r2 { fill: #c5c8c6 }
.terminal-533785617-r3 { fill: #121212;font-weight: bold }
.terminal-533785617-r4 { fill: #252525 }
.terminal-533785617-r5 { fill: #3b3b3b }
.terminal-533785617-r6 { fill: #272727 }
.terminal-533785617-r7 { fill: #212121 }
.terminal-533785617-r8 { fill: #3f3d3a;font-weight: bold }
.terminal-533785617-r9 { fill: #e1e1e1;font-weight: bold }
.terminal-533785617-r10 { fill: #7f7f7f }
.terminal-533785617-r11 { fill: #ddedf9;font-weight: bold }
.terminal-533785617-r12 { fill: #585858 }
.terminal-533785617-r13 { fill: #0178d4 }
.terminal-533785617-r14 { fill: #0178d4;font-weight: bold }
.terminal-533785617-r15 { fill: #e0e0e0;font-weight: bold }
.terminal-533785617-r16 { fill: #f4bc6e }
.terminal-533785617-r17 { fill: #2e2e2e }
    </style>

    <defs>
    <clipPath id="terminal-533785617-clip-terminal">
      <rect x="0" y="0" width="1463.0" height="975.0" />
    </clipPath>
    <clipPath id="terminal-533785617-line-0">
    <rect x="0" y="1.5" width="1464" height="24.65"/>
            </clipPath>
<clipPath id="terminal-533785617-line-1">
    <rect x="0" y="25.9" width="1464" height="24.65"/>
            </clipPath>
<clipPath id="terminal-533785617-line-2">
    <rect x="0" y="50.3" width="1464" height="24.65"/>
            </clipPath>
<clipPath id="terminal-533785617-line-3">
    <rect x="0" y="74.7" width="1464" height="24.65"/>
            </clipPath>
<clipPath id="terminal-533785617-line-4">
    <rect x="0" y="99.1" width="1464" height="24.65"/>
            </clipPath>
<clipPath id="terminal-533785617-line-5">
    <rect x="0" y="123.5" width="1464" height="24.65"/>
            </clipPath>
<clipPath id="terminal-533785617-line-6">
    <rect x="0" y="147.9" width="1464" height="24.65"/>
            </clipPath>
<clipPath id="terminal-533785617-line-7">
    <rect x="0" y="172.3" width="1464" height="24.65"/>
            </clipPath>
<clipPath id="terminal-533785617-line-8">
    <rect x="0" y="196.7" width="1464" height="24.65"/>
            </clipPath>
<clipPath id="terminal-533785617-line-9">
    <rect x="0" y="221.1" width="1464" height="24.65"/>
            </clipPath>
<clipPath id="terminal-533785617-line-10">
    <rect x="0" y="245.5" width="1464" height="24.65"/>
            </clipPath>
<clipPath id="terminal-533785617-line-11">
    <rect x="0" y="269.9" width="1464" height="24.65"/>
            </clipPath>
<clipPath id="terminal-533785617-line-12">
    <rect x="0" y="294.3" width="1464" height="24.65"/>
            </clipPath>
<clipPath id="terminal-533785617-line-13">
    <rect x="0" y="318.7" width="1464" height="24.65"/>
            </clipPath>
<clipPath id="terminal-533785617-line-14">
    <rect x="0" y="343.1" width="1464" height="24.65"/>
            </clipPath>
<clipPath id="terminal-533785617-line-15">
    <rect x="0" y="367.5" width="1464" height="24.65"/>
            </clipPath>
<clipPath id="terminal-533785617-line-16">
    <rect x="0" y="391.9" width="1464" height="24.65"/>
            </clipPath>
<clipPath id="terminal-533785617-line-17">
    <rect x="0" y="416.3" width="1464" height="24.65"/>
            </clipPath>
<clipPath id="terminal-533785617-line-18">
    <rect x="0" y="440.7" width="1464" height="24.65"/>
            </clipPath>
<clipPath id="terminal-533785617-line-19">
    <rect x="0" y="465.1" width="1464" height="24.65"/>
            </clipPath>
<clipPath id="terminal-533785617-line-20">
    <rect x="0" y="489.5" width="1464" height="24.65"/>
            </clipPath>
<clipPath id="terminal-533785617-line-21">
    <rect x="0" y="513.9" width="1464" height="24.65"/>
            </clipPath>
<clipPath id="terminal-533785617-line-22">
    <rect x="0" y="538.3" width="1464" height="24.65"/>
            </clipPath>
<clipPath id="terminal-533785617-line-23">
    <rect x="0" y="562.7" width="1464" height="24.65"/>
            </clipPath>
<clipPath id="terminal-533785617-line-24">
    <rect x="0" y="587.1" width="1464" height="24.65"/>
            </clipPath>
<clipPath id="terminal-533785617-line-25">
    <rect x="0" y="611.5" width="1464" height="24.65"/>
            </clipPath>
<clipPath id="terminal-533785617-line-26">
    <rect x="0" y="635.9" width="1464" height="24.65"/>
            </clipPath>
<clipPath id="terminal-533785617-line-27">
    <rect x="0" y="660.3" width="1464" height="24.65"/>
            </clipPath>
<clipPath id="terminal-533785617-line-28">
    <rect x="0" y="684.7" width="1464" height="24.65"/>
            </clipPath>
<clipPath id="terminal-533785617-line-29">
    <rect x="0" y="709.1" width="1464" height="24.65"/>
            </clipPath>
<clipPath id="terminal-533785617-line-30">
    <rect x="0" y="733.5" width="1464" height="24.65"/>
            </clipPath>
<clipPath id="terminal-533785617-line-31">
    <rect x="0" y="757.9" width="1464" height="24.65"/>
            </clipPath>
<clipPath id="terminal-533785617-line-32">
    <rect x="0" y="782.3" width="1464" height="24.65"/>
            </clipPath>
<clipPath id="terminal-533785617-line-33">
    <rect x="0" y="806.7" width="1464" height="24.65"/>
            </clipPath>
<clipPath id="terminal-533785617-line-34">
    <rect x="0" y="831.1" width="1464" height="24.65"/>
            </clipPath>
<clipPath id="terminal-533785617-line-35">
    <rect x="0" y="855.5" width="1464" height="24.65"/>
            </clipPath>
<clipPath id="terminal-533785617-line-36">
    <rect x="0" y="879.9" width="1464" height="24.65"/>
            </clipPath>
<clipPath id="terminal-533785617-line-37">
    <rect x="0" y="904.3" width="1464" height="24.65"/>
            </clipPath>
<clipPath id="terminal-533785617-line-38">
    <rect x="0" y="928.7" width="1464" height="24.65"/>
            </clipPath>
    </defs>

    <rect fill="#292929" stroke="rgba(255,255,255,0.35)" stroke-width="1" x="1" y="1" width="1480" height="1024" rx="8"/><text class="terminal-533785617-title" fill="#c5c8c6" text-anchor="middle" x="740" y="27">gojeera</text>
            <g transform="translate(26,22)">
            <circle cx="0" cy="0" r="7" fill="#ff5f57"/>
            <circle cx="22" cy="0" r="7" fill="#febc2e"/>
            <circle cx="44" cy="0" r="7" fill="#28c840"/>
            </g>
        
    <g transform="translate(9, 41)" clip-path="url(#terminal-533785617-clip-terminal)">
    <rect fill="#121212" x="0" y="1.5" width="1464" height="24.65" shape-rendering="crispEdges"/><rect fill="#121212" x="0" y="25.9" width="12.2" height="24.65" shape-rendering="crispEdges"/><rect fill="#102738" x="12.2" y="25.9" width="12.2" height="24.65" shape-rendering="crispEdges"/><rect fill="#102738" x="24.4" y="25.9" width="61" height="24.65" shape-rendering="crispEdges"/><rect fill="#102738" x="85.4" y="25.9" width="85.4" height="24.65" shape-rendering="crispEdges"/><rect fill="#102738" x="170.8" y="25.9" width="12.2" height="24.65" shape-rendering="crispEdges"/><rect fill="#102738" x="183" y="25.9" width="12.2" height="24.65" shape-rendering="crispEdges"/><rect fill="#121212" x="195.2" y="25.9" width="12.2" height="24.65" shape-rendering="crispEdges"/><rect fill="#141414" x="207.4" y="25.9" width="36.6" height="24.65" shape-rendering="crispEdges"/><rect fill="#141414" x="244" y="25.9" width="170.8" height="24.65" shape-rendering="crispEdges"/><rect fill="#121212" x="414.8" y="25.9" width="12.2" height="24.65" shape-rendering="crispEdges"/><rect fill="#141414" x="427" y="25.9" width="85.4" height="24.65" shape-rendering="crispEdges"/><rect fill="#141414" x="512.4" y="25.9" width="109.8" height="24.65" shape-rendering="crispEdges"/><rect fill="#141414" x="622.2" y="25.9" width="12.2" height="24.65" shape-rendering="crispEdges"/><rect fill="#141414" x="634.4" y="25.9" width="12.2" height="24.65" shape-rendering="crispEdges"/><rect fill="#121212" x="646.6" y="25.9" width="12.2" height="24.65" shape-rendering="crispEdges"/><rect fill="#131313" x="658.8" y="25.9" width="97.6" height="24.65" shape-rendering="crispEdges"/><rect fill="#131313" x="756.4" y="25.9" width="97.6" height="24.65" shape-rendering="crispEdges"/><rect fill="#131313" x="854" y="25.9" width="12.2" height="24.65" shape-rendering="crispEdges"/><rect fill="#131313" x="866.2" y="25.9" width="12.2" height="24.65" shape-rendering="crispEdges"/><rect fill="#121212" x="878.4" y="25.9" width="12.2" height="24.65" shape-rendering="crispEdges"/><rect fill="#131313" x="890.6" y="25.9" width="48.8" height="24.65" shape-rendering="crispEdges"/><rect fill="#131313" x="939.4" y="25.9" width="146.4" height="24.65" shape-rendering="crispEdges"/><rect fill="#131313" x="1085.8" y="25.9" width="12.2" height="24.65" shape-rendering="crispEdges"/><rect fill="#131313" x="1098" y="25.9" width="12.2" height="24.65" shape-rendering="crispEdges"/><rect fill="#121212" x="1110.2" y="25.9" width="12.2" height="24.65" shape-rendering="crispEdges"/><rect fill="#131313" x="1122.4" y="25.9" width="73.2" height="24.65" shape-rendering="crispEdges"/><rect fill="#131313" x="1195.6" y="25.9" width="122" height="24.65" shape-rendering="crispEdges"/><rect fill="#131313" x="1317.6" y="25.9" width="12.2" height="24.65" shape-rendering="crispEdges"/><rect fill="#131313" x="1329.8" y="25.9" width="12.2" height="24.65" shape-rendering="crispEdges"/><rect fill="#121212" x="1342" y="25.9" width="12.2" height="24.65" shape-rendering="crispEdges"/><rect fill="#33230e" x="1354.2" y="25.9" width="97.6" height="24.65" shape-rendering="crispEdges"/><rect fill="#121212" x="1451.8" y="25.9" width="12.2" height="24.65" shape-rendering="crispEdges"/><rect fill="#121212" x="0" y="50.3" width="73.2" height="24.65" shape-rendering="crispEdges"/><rect fill="#1e1e1e" x="73.2" y="50.3" width="1317.6" height="24.65" shape-rendering="crispEdges"/><rect fill="#121212" x="1390.8" y="50.3" width="73.2" height="24.65" shape-rendering="crispEdges"/><rect fill="#121212" x="0" y="74.7" width="73.2" height="24.65" shape-rendering="crispEdges"/><rect fill="#1e1e1e" x="73.2" y="74.7" width="549" height="24.65" shape-rendering="crispEdges"/><rect fill="#1e1e1e" x="622.2" y="74.7" width="207.4" height="24.65" shape-rendering="crispEdges"/><rect fill="#1e1e1e" x="829.6" y="74.7" width="561.2" height="24.65" shape-rendering="crispEdges"/><rect fill="#121212" x="1390.8" y="74.7" width="73.2" height="24.65" shape-rendering="crispEdges"/><rect fill="#121212" x="0" y="99.1" width="73.2" height="24.65" shape-rendering="crispEdges"/><rect fill="#1e1e1e" x="73.2" y="99.1" width="1317.6" height="24.65" shape-rendering="crispEdges"/><rect fill="#121212" x="1390.8" y="99.1" width="73.2" height="24.65" shape-rendering="crispEdges"/><rect fill="#121212" x="0" y="123.5" width="73.2" height="24.65" shape-rendering="crispEdges"/><rect fill="#1e1e1e" x="73.2" y="123.5" width="12.2" height="24.65" shape-rendering="crispEdges"/><rect fill="#1e1e1e" x="85.4" y="123.5" width="158.6" height="24.65" shape-rendering="crispEdges"/><rect fill="#1e1e1e" x="244" y="123.5" width="12.2" height="24.65" shape-rendering="crispEdges"/><rect fill="#0178d4" x="256.2" y="123.5" width="12.2" height="24.65" shape-rendering="crispEdges"/><rect fill="#0178d4" x="268.4" y="123.5" width="134.2" height="24.65" shape-rendering="crispEdges"/><rect fill="#0178d4" x="402.6" y="123.5" width="12.2" height="24.65" shape-rendering="crispEdges"/><rect fill="#1e1e1e" x="414.8" y="123.5" width="12.2" height="24.65" shape-rendering="crispEdges"/><rect fill="#1e1e1e" x="427" y="123.5" width="109.8" height="24.65" shape-rendering="crispEdges"/><rect fill="#1e1e1e" x="536.8" y="123.5" width="24.4" height="24.65" shape-rendering="crispEdges"/><rect fill="#1e1e1e" x="561.2" y="123.5" width="61" height="24.65" shape-rendering="crispEdges"/><rect fill="#1e1e1e" x="622.2" y="123.5" width="768.6" height="24.65" shape-rendering="crispEdges"/><rect fill="#121212" x="1390.8" y="123.5" width="73.2" height="24.65" shape-rendering="crispEdges"/><rect fill="#121212" x="0" y="147.9" width="73.2" height="24.65" shape-rendering="crispEdges"/><rect fill="#1e1e1e" x="73.2" y="147.9" width="195.2" height="24.65" shape-rendering="crispEdges"/><rect fill="#1e1e1e" x="268.4" y="147.9" width="134.2" height="24.65" shape-rendering="crispEdges"/><rect fill="#1e1e1e" x="402.6" y="147.9" width="988.2" height="24.65" shape-rendering="crispEdges"/><rect fill="#121212" x="1390.8" y="147.9" width="73.2" height="24.65" shape-rendering="crispEdges"/><rect fill="#121212" x="0" y="172.3" width="73.2" height="24.65" shape-rendering="crispEdges"/><rect fill="#1e1e1e" x="73.2" y="172.3" width="1317.6" height="24.65" shape-rendering="crispEdges"/><rect fill="#121212" x="1390.8" y="172.3" width="73.2" height="24.65" shape-rendering="crispEdges"/><rect fill="#121212" x="0" y="196.7" width="73.2" height="24.65" shape-rendering="crispEdges"/><rect fill="#1e1e1e" x="73.2" y="196.7" width="24.4" height="24.65" shape-rendering="crispEdges"/><rect fill="#192b39" x="97.6" y="196.7" width="12.2" height="24.65" shape-rendering="crispEdges"/><rect fill="#192b39" x="109.8" y="196.7" width="170.8" height="24.65" shape-rendering="crispEdges"/><rect fill="#192b39" x="280.6" y="196.7" width="12.2" height="24.65" shape-rendering="crispEdges"/><rect fill="#1e1e1e" x="292.8" y="196.7" width="1098" height="24.65" shape-rendering="crispEdges"/><rect fill="#121212" x="1390.8" y="196.7" width="73.2" height="24.65" shape-rendering="crispEdges"/><rect fill="#121212" x="0" y="221.1" width="73.2" height="24.65" shape-rendering="crispEdges"/><rect fill="#1e1e1e" x="73.2" y="221.1" width="1317.6" height="24.65" shape-rendering="crispEdges"/><rect fill="#121212" x="1390.8" y="221.1" width="73.2" height="24.65" shape-rendering="crispEdges"/><rect fill="#121212" x="0" y="245.5" width="73.2" height="24.65" shape-rendering="crispEdges"/><rect fill="#1e1e1e" x="73.2" y="245.5" width="24.4" height="24.65" shape-rendering="crispEdges"/><rect fill="#1e1e1e" x="97.6" y="245.5" width="97.6" height="24.65" shape-rendering="crispEdges"/><rect fill="#1e1e1e" x="195.2" y="245.5" width="24.4" height="24.65" shape-rendering="crispEdges"/><rect fill="#2f281e" x="219.6" y="245.5" width="353.8" height="24.65" shape-rendering="crispEdges"/><rect fill="#1e1e1e" x="573.4" y="245.5" width="817.4" height="24.65" shape-rendering="crispEdges"/><rect fill="#121212" x="1390.8" y="245.5" width="73.2" height="24.65" shape-rendering="crispEdges"/><rect fill="#121212" x="0" y="269.9" width="73.2" height="24.65" shape-rendering="crispEdges"/><rect fill="#1e1e1e" x="73.2" y="269.9" width="24.4" height="24.65" shape-rendering="crispEdges"/><rect fill="#1e1e1e" x="97.6" y="269.9" width="85.4" height="24.65" shape-rendering="crispEdges"/><rect fill="#1e1e1e" x="183" y="269.9" width="24.4" height="24.65" shape-rendering="crispEdges"/><rect fill="#2f281e" x="207.4" y="269.9" width="73.2" height="24.65" shape-rendering="crispEdges"/><rect fill="#1e1e1e" x="280.6" y="269.9" width="1110.2" height="24.65" shape-rendering="crispEdges"/><rect fill="#121212" x="1390.8" y="269.9" width="73.2" height="24.65" shape-rendering="crispEdges"/><rect fill="#121212" x="0" y="294.3" width="73.2" height="24.65" shape-rendering="crispEdges"/><rect fill="#1e1e1e" x="73.2" y="294.3" width="24.4" height="24.65" shape-rendering="crispEdges"/><rect fill="#1e1e1e" x="97.6" y="294.3" width="183" height="24.65" shape-rendering="crispEdges"/><rect fill="#1e1e1e" x="280.6" y="294.3" width="24.4" height="24.65" shape-rendering="crispEdges"/><rect fill="#2f281e" x="305" y="294.3" width="61" height="24.65" shape-rendering="crispEdges"/><rect fill="#1e1e1e" x="366" y="294.3" width="1024.8" height="24.65" shape-rendering="crispEdges"/><rect fill="#121212" x="1390.8" y="294.3" width="73.2" height="24.65" shape-rendering="crispEdges"/><rect fill="#121212" x="0" y="318.7" width="73.2" height="24.65" shape-rendering="crispEdges"/><rect fill="#1e1e1e" x="73.2" y="318.7" width="24.4" height="24.65" shape-rendering="crispEdges"/><rect fill="#1e1e1e" x="97.6" y="318.7" width="146.4" height="24.65" shape-rendering="crispEdges"/><rect fill="#1e1e1e" x="244" y="318.7" width="24.4" height="24.65" shape-rendering="crispEdges"/><rect fill="#2f281e" x="268.4" y="318.7" width="73.2" height="24.65" shape-rendering="crispEdges"/><rect fill="#1e1e1e" x="341.6" y="318.7" width="1049.2" height="24.65" shape-rendering="crispEdges"/><rect fill="#121212" x="1390.8" y="318.7" width="73.2" height="24.65" shape-rendering="crispEdges"/><rect fill="#121212" x="0" y="343.1" width="73.2" height="24.65" shape-rendering="crispEdges"/><rect fill="#1e1e1e" x="73.2" y="343.1" width="24.4" height="24.65" shape-rendering="crispEdges"/><rect fill="#1e1e1e" x="97.6" y="343.1" width="122" height="24.65" shape-rendering="crispEdges"/><rect fill="#1e1e1e" x="219.6" y="343.1" width="24.4" height="24.65" shape-rendering="crispEdges"/><rect fill="#2f281e" x="244" y="343.1" width="341.6" height="24.65" shape-rendering="crispEdges"/><rect fill="#1e1e1e" x="585.6" y="343.1" width="805.2" height="24.65" shape-rendering="crispEdges"/><rect fill="#121212" x="1390.8" y="343.1" width="73.2" height="24.65" shape-rendering="crispEdges"/><rect fill="#121212" x="0" y="367.5" width="73.2" height="24.65" shape-rendering="crispEdges"/><rect fill="#1e1e1e" x="73.2" y="367.5" width="24.4" height="24.65" shape-rendering="crispEdges"/><rect fill="#1e1e1e" x="97.6" y="367.5" width="134.2" height="24.65" shape-rendering="crispEdges"/><rect fill="#1e1e1e" x="231.8" y="367.5" width="24.4" height="24.65" shape-rendering="crispEdges"/><rect fill="#2f281e" x="256.2" y="367.5" width="341.6" height="24.65" shape-rendering="crispEdges"/><rect fill="#1e1e1e" x="597.8" y="367.5" width="793" height="24.65" shape-rendering="crispEdges"/><rect fill="#121212" x="1390.8" y="367.5" width="73.2" height="24.65" shape-rendering="crispEdges"/><rect fill="#121212" x="0" y="391.9" width="73.2" height="24.65" shape-rendering="crispEdges"/><rect fill="#1e1e1e" x="73.2" y="391.9" width="24.4" height="24.65" shape-rendering="crispEdges"/><rect fill="#1e1e1e" x="97.6" y="391.9" width="146.4" height="24.65" shape-rendering="crispEdges"/><rect fill="#1e1e1e" x="244" y="391.9" width="24.4" height="24.65" shape-rendering="crispEdges"/><rect fill="#2f281e" x="268.4" y="391.9" width="219.6" height="24.65" shape-rendering="crispEdges"/><rect fill="#1e1e1e" x="488" y="391.9" width="902.8" height="24.65" shape-rendering="crispEdges"/><rect fill="#121212" x="1390.8" y="391.9" width="73.2" height="24.65" shape-rendering="crispEdges"/><rect fill="#121212" x="0" y="416.3" width="73.2" height="24.65" shape-rendering="crispEdges"/><rect fill="#1e1e1e" x="73.2" y="416.3" width="24.4" height="24.65" shape-rendering="crispEdges"/><rect fill="#1e1e1e" x="97.6" y="416.3" width="170.8" height="24.65" shape-rendering="crispEdges"/><rect fill="#1e1e1e" x="268.4" y="416.3" width="24.4" height="24.65" shape-rendering="crispEdges"/><rect fill="#2f281e" x="292.8" y="416.3" width="280.6" height="24.65" shape-rendering="crispEdges"/><rect fill="#1e1e1e" x="573.4" y="416.3" width="817.4" height="24.65" shape-rendering="crispEdges"/><rect fill="#121212" x="1390.8" y="416.3" width="73.2" height="24.65" shape-rendering="crispEdges"/><rect fill="#121212" x="0" y="440.7" width="73.2" height="24.65" shape-rendering="crispEdges"/><rect fill="#1e1e1e" x="73.2" y="440.7" width="1317.6" height="24.65" shape-rendering="crispEdges"/><rect fill="#121212" x="1390.8" y="440.7" width="73.2" height="24.65" shape-rendering="crispEdges"/><rect fill="#121212" x="0" y="465.1" width="73.2" height="24.65" shape-rendering="crispEdges"/><rect fill="#1e1e1e" x="73.2" y="465.1" width="24.4" height="24.65" shape-rendering="crispEdges"/><rect fill="#192b39" x="97.6" y="465.1" width="12.2" height="24.65" shape-rendering="crispEdges"/><rect fill="#192b39" x="109.8" y="465.1" width="97.6" height="24.65" shape-rendering="crispEdges"/><rect fill="#192b39" x="207.4" y="465.1" width="12.2" height="24.65" shape-rendering="crispEdges"/><rect fill="#1e1e1e" x="219.6" y="465.1" width="1171.2" height="24.65" shape-rendering="crispEdges"/><rect fill="#121212" x="1390.8" y="465.1" width="73.2" height="24.65" shape-rendering="crispEdges"/><rect fill="#121212" x="0" y="489.5" width="73.2" height="24.65" shape-rendering="crispEdges"/><rect fill="#1e1e1e" x="73.2" y="489.5" width="1317.6" height="24.65" shape-rendering="crispEdges"/><rect fill="#121212" x="1390.8" y="489.5" width="73.2" height="24.65" shape-rendering="crispEdges"/><rect fill="#121212" x="0" y="513.9" width="73.2" height="24.65" shape-rendering="crispEdges"/><rect fill="#1e1e1e" x="73.2" y="513.9" width="24.4" height="24.65" shape-rendering="crispEdges"/><rect fill="#1e1e1e" x="97.6" y="513.9" width="134.2" height="24.65" shape-rendering="crispEdges"/><rect fill="#1e1e1e" x="231.8" y="513.9" width="61" height="24.65" shape-rendering="crispEdges"/><rect fill="#1e1e1e" x="292.8" y="513.9" width="1098" height="24.65" shape-rendering="crispEdges"/><rect fill="#121212" x="1390.8" y="513.9" width="73.2" height="24.65" shape-rendering="crispEdges"/><rect fill="#121212" x="0" y="538.3" width="73.2" height="24.65" shape-rendering="crispEdges"/><rect fill="#1e1e1e" x="73.2" y="538.3" width="24.4" height="24.65" shape-rendering="crispEdges"/><rect fill="#1e1e1e" x="97.6" y="538.3" width="207.4" height="24.65" shape-rendering="crispEdges"/><rect fill="#1e1e1e" x="305" y="538.3" width="61" height="24.65" shape-rendering="crispEdges"/><rect fill="#1e1e1e" x="366" y="538.3" width="1024.8" height="24.65" shape-rendering="crispEdges"/><rect fill="#121212" x="1390.8" y="538.3" width="73.2" height="24.65" shape-rendering="crispEdges"/><rect fill="#121212" x="0" y="562.7" width="73.2" height="24.65" shape-rendering="crispEdges"/><rect fill="#1e1e1e" x="73.2" y="562.7" width="24.4" height="24.65" shape-rendering="crispEdges"/><rect fill="#1e1e1e" x="97.6" y="562.7" width="97.6" height="24.65" shape-rendering="crispEdges"/><rect fill="#1e1e1e" x="195.2" y="562.7" width="61" height="24.65" shape-rendering="crispEdges"/><rect fill="#1e1e1e" x="256.2" y="562.7" width="1134.6" height="24.65" shape-rendering="crispEdges"/><rect fill="#121212" x="1390.8" y="562.7" width="73.2" height="24.65" shape-rendering="crispEdges"/><rect fill="#121212" x="0" y="587.1" width="73.2" height="24.65" shape-rendering="crispEdges"/><rect fill="#1e1e1e" x="73.2" y="587.1" width="24.4" height="24.65" shape-rendering="crispEdges"/><rect fill="#1e1e1e" x="97.6" y="587.1" width="73.2" height="24.65" shape-rendering="crispEdges"/><rect fill="#1e1e1e" x="170.8" y="587.1" width="61" height="24.65" shape-rendering="crispEdges"/><rect fill="#1e1e1e" x="231.8" y="587.1" width="1159" height="24.65" shape-rendering="crispEdges"/><rect fill="#121212" x="1390.8" y="587.1" width="73.2" height="24.65" shape-rendering="crispEdges"/><rect fill="#121212" x="0" y="611.5" width="73.2" height="24.65" shape-rendering="crispEdges"/><rect fill="#1e1e1e" x="73.2" y="611.5" width="24.4" height="24.65" shape-rendering="crispEdges"/><rect fill="#1e1e1e" x="97.6" y="611.5" width="158.6" height="24.65" shape-rendering="crispEdges"/><rect fill="#1e1e1e" x="256.2" y="611.5" width="61" height="24.65" shape-rendering="crispEdges"/><rect fill="#1e1e1e" x="317.2" y="611.5" width="1073.6" height="24.65" shape-rendering="crispEdges"/><rect fill="#121212" x="1390.8" y="611.5" width="73.2" height="24.65" shape-rendering="crispEdges"/><rect fill="#121212" x="0" y="635.9" width="73.2" height="24.65" shape-rendering="crispEdges"/><rect fill="#1e1e1e" x="73.2" y="635.9" width="24.4" height="24.65" shape-rendering="crispEdges"/><rect fill="#1e1e1e" x="97.6" y="635.9" width="97.6" height="24.65" shape-rendering="crispEdges"/><rect fill="#1e1e1e" x="195.2" y="635.9" width="61" height="24.65" shape-rendering="crispEdges"/><rect fill="#1e1e1e" x="256.2" y="635.9" width="1134.6" height="24.65" shape-rendering="crispEdges"/><rect fill="#121212" x="1390.8" y="635.9" width="73.2" height="24.65" shape-rendering="crispEdges"/><rect fill="#121212" x="0" y="660.3" width="73.2" height="24.65" shape-rendering="crispEdges"/><rect fill="#1e1e1e" x="73.2" y="660.3" width="24.4" height="24.65" shape-rendering="crispEdges"/><rect fill="#1e1e1e" x="97.6" y="660.3" width="256.2" height="24.65" shape-rendering="crispEdges"/><rect fill="#1e1e1e" x="353.8" y="660.3" width="48.8" height="24.65" shape-rendering="crispEdges"/><rect fill="#1e1e1e" x="402.6" y="660.3" width="988.2" height="24.65" shape-rendering="crispEdges"/><rect fill="#121212" x="1390.8" y="660.3" width="73.2" height="24.65" shape-rendering="crispEdges"/><rect fill="#121212" x="0" y="684.7" width="73.2" height="24.65" shape-rendering="crispEdges"/><rect fill="#1e1e1e" x="73.2" y="684.7" width="1317.6" height="24.65" shape-rendering="crispEdges"/><rect fill="#121212" x="1390.8" y="684.7" width="73.2" height="24.65" shape-rendering="crispEdges"/><rect fill="#121212" x="0" y="709.1" width="73.2" height="24.65" shape-rendering="crispEdges"/><rect fill="#1e1e1e" x="73.2" y="709.1" width="24.4" height="24.65" shape-rendering="crispEdges"/><rect fill="#192b39" x="97.6" y="709.1" width="12.2" height="24.65" shape-rendering="crispEdges"/><rect fill="#192b39" x="109.8" y="709.1" width="329.4" height="24.65" shape-rendering="crispEdges"/><rect fill="#192b39" x="439.2" y="709.1" width="12.2" height="24.65" shape-rendering="crispEdges"/><rect fill="#1e1e1e" x="451.4" y="709.1" width="939.4" height="24.65" shape-rendering="crispEdges"/><rect fill="#121212" x="1390.8" y="709.1" width="73.2" height="24.65" shape-rendering="crispEdges"/><rect fill="#121212" x="0" y="733.5" width="73.2" height="24.65" shape-rendering="crispEdges"/><rect fill="#1e1e1e" x="73.2" y="733.5" width="1317.6" height="24.65" shape-rendering="crispEdges"/><rect fill="#121212" x="1390.8" y="733.5" width="73.2" height="24.65" shape-rendering="crispEdges"/><rect fill="#121212" x="0" y="757.9" width="73.2" height="24.65" shape-rendering="crispEdges"/><rect fill="#1e1e1e" x="73.2" y="757.9" width="24.4" height="24.65" shape-rendering="crispEdges"/><rect fill="#1e1e1e" x="97.6" y="757.9" width="146.4" height="24.65" shape-rendering="crispEdges"/><rect fill="#1e1e1e" x="244" y="757.9" width="24.4" height="24.65" shape-rendering="crispEdges"/><rect fill="#2f281e" x="268.4" y="757.9" width="48.8" height="24.65" shape-rendering="crispEdges"/><rect fill="#1e1e1e" x="317.2" y="757.9" width="1073.6" height="24.65" shape-rendering="crispEdges"/><rect fill="#121212" x="1390.8" y="757.9" width="73.2" height="24.65" shape-rendering="crispEdges"/><rect fill="#121212" x="0" y="782.3" width="73.2" height="24.65" shape-rendering="crispEdges"/><rect fill="#1e1e1e" x="73.2" y="782.3" width="24.4" height="24.65" shape-rendering="crispEdges"/><rect fill="#1e1e1e" x="97.6" y="782.3" width="134.2" height="24.65" shape-rendering="crispEdges"/><rect fill="#1e1e1e" x="231.8" y="782.3" width="24.4" height="24.65" shape-rendering="crispEdges"/><rect fill="#2f281e" x="256.2" y="782.3" width="73.2" height="24.65" shape-rendering="crispEdges"/><rect fill="#1e1e1e" x="329.4" y="782.3" width="1061.4" height="24.65" shape-rendering="crispEdges"/><rect fill="#121212" x="1390.8" y="782.3" width="73.2" height="24.65" shape-rendering="crispEdges"/><rect fill="#121212" x="0" y="806.7" width="73.2" height="24.65" shape-rendering="crispEdges"/><rect fill="#1e1e1e" x="73.2" y="806.7" width="24.4" height="24.65" shape-rendering="crispEdges"/><rect fill="#1e1e1e" x="97.6" y="806.7" width="207.4" height="24.65" shape-rendering="crispEdges"/><rect fill="#1e1e1e" x="305" y="806.7" width="24.4" height="24.65" shape-rendering="crispEdges"/><rect fill="#2f281e" x="329.4" y="806.7" width="36.6" height="24.65" shape-rendering="crispEdges"/><rect fill="#1e1e1e" x="366" y="806.7" width="1024.8" height="24.65" shape-rendering="crispEdges"/><rect fill="#121212" x="1390.8" y="806.7" width="73.2" height="24.65" shape-rendering="crispEdges"/><rect fill="#121212" x="0" y="831.1" width="73.2" height="24.65" shape-rendering="crispEdges"/><rect fill="#1e1e1e" x="73.2" y="831.1" width="24.4" height="24.65" shape-rendering="crispEdges"/><rect fill="#1e1e1e" x="97.6" y="831.1" width="207.4" height="24.65" shape-rendering="crispEdges"/><rect fill="#1e1e1e" x="305" y="831.1" width="24.4" height="24.65" shape-rendering="crispEdges"/><rect fill="#2f281e" x="329.4" y="831.1" width="36.6" height="24.65" shape-rendering="crispEdges"/><rect fill="#1e1e1e" x="366" y="831.1" width="1024.8" height="24.65" shape-rendering="crispEdges"/><rect fill="#121212" x="1390.8" y="831.1" width="73.2" height="24.65" shape-rendering="crispEdges"/><rect fill="#121212" x="0" y="855.5" width="73.2" height="24.65" shape-rendering="crispEdges"/><rect fill="#1e1e1e" x="73.2" y="855.5" width="1317.6" height="24.65" shape-rendering="crispEdges"/><rect fill="#121212" x="1390.8" y="855.5" width="73.2" height="24.65" shape-rendering="crispEdges"/><rect fill="#121212" x="0" y="879.9" width="73.2" height="24.65" shape-rendering="crispEdges"/><rect fill="#1e1e1e" x="73.2" y="879.9" width="1317.6" height="24.65" shape-rendering="crispEdges"/><rect fill="#121212" x="1390.8" y="879.9" width="73.2" height="24.65" shape-rendering="crispEdges"/><rect fill="#121212" x="0" y="904.3" width="73.2" height="24.65" shape-rendering="crispEdges"/><rect fill="#1e1e1e" x="73.2" y="904.3" width="1317.6" height="24.65" shape-rendering="crispEdges"/><rect fill="#121212" x="1390.8" y="904.3" width="73.2" height="24.65" shape-rendering="crispEdges"/><rect fill="#121212" x="0" y="928.7" width="183" height="24.65" shape-rendering="crispEdges"/><rect fill="#121212" x="183" y="928.7" width="0" height="24.65" shape-rendering="crispEdges"/><rect fill="#121212" x="183" y="928.7" width="195.2" height="24.65" shape-rendering="crispEdges"/><rect fill="#121212" x="378.2" y="928.7" width="1073.6" height="24.65" shape-rendering="crispEdges"/><rect fill="#121212" x="1451.8" y="928.7" width="12.2" height="24.65" shape-rendering="crispEdges"/><rect fill="#121212" x="0" y="953.1" width="1464" height="24.65" shape-rendering="crispEdges"/>
    <g class="terminal-533785617-matrix">
    <text class="terminal-533785617-r2" x="1464" y="20" textLength="12.2" clip-path="url(#terminal-533785617-line-0)">
</text><text class="terminal-533785617-r3" x="24.4" y="44.4" textLength="61" clip-path="url(#terminal-533785617-line-1)">Basic</text><text class="terminal-533785617-r3" x="170.8" y="44.4" textLength="12.2" clip-path="url(#terminal-533785617-line-1)">▼</text><text class="terminal-533785617-r4" x="207.4" y="44.4" textLength="36.6" clip-path="url(#terminal-533785617-line-1)">KEY</text><text class="terminal-533785617-r6" x="427" y="44.4" textLength="85.4" clip-path="url(#terminal-533785617-line-1)">Project</text><text class="terminal-533785617-r6" x="622.2" y="44.4" textLength="12.2" clip-path="url(#terminal-533785617-line-1)">▼</text><text class="terminal-533785617-r7" x="658.8" y="44.4" textLength="97.6" clip-path="url(#terminal-533785617-line-1)">Assignee</text><text class="terminal-533785617-r7" x="854" y="44.4" textLength="12.2" clip-path="url(#terminal-533785617-line-1)">▼</text><text class="terminal-533785617-r7" x="890.6" y="44.4" textLength="48.8" clip-path="url(#terminal-533785617-line-1)">Type</text><text class="terminal-533785617-r7" x="1085.8" y="44.4" textLength="12.2" clip-path="url(#terminal-533785617-line-1)">▼</text><text class="terminal-533785617-r7" x="1122.4" y="44.4" textLength="73.2" clip-path="url(#terminal-533785617-line-1)">Status</text><text class="terminal-533785617-r7" x="1317.6" y="44.4" textLength="12.2" clip-path="url(#terminal-533785617-line-1)">▼</text><text class="terminal-533785617-r8" x="1354.2" y="44.4" textLength="97.6" clip-path="url(#terminal-533785617-line-1)">&#160;Search&#160;</text><text class="terminal-533785617-r2" x="1464" y="44.4" textLength="12.2" clip-path="url(#terminal-533785617-line-1)">
</text><text class="terminal-533785617-r2" x="1464" y="68.8" textLength="12.2" clip-path="url(#terminal-533785617-line-2)">
</text><text class="terminal-533785617-r9" x="622.2" y="93.2" textLength="207.4" clip-path="url(#terminal-533785617-line-3)">Debug&#160;Information</text><text class="terminal-533785617-r2" x="1464" y="93.2" textLength="12.2" clip-path="url(#terminal-533785617-line-3)">
</text><text class="terminal-533785617-r2" x="1464" y="117.6" textLength="12.2" clip-path="url(#terminal-533785617-line-4)">
</text><text class="terminal-533785617-r10" x="85.4" y="142" textLength="158.6" clip-path="url(#terminal-533785617-line-5)">Configuration</text><text class="terminal-533785617-r11" x="268.4" y="142" textLength="134.2" clip-path="url(#terminal-533785617-line-5)">Server&#160;Info</text><text class="terminal-533785617-r10" x="427" y="142" textLength="109.8" clip-path="url(#terminal-533785617-line-5)">User&#160;Info</text><text class="terminal-533785617-r10" x="561.2" y="142" textLength="61" clip-path="url(#terminal-533785617-line-5)">Cache</text><text class="terminal-533785617-r2" x="1464" y="142" textLength="12.2" clip-path="url(#terminal-533785617-line-5)">
</text><text class="terminal-533785617-r12" x="73.2" y="166.4" textLength="195.2" clip-path="url(#terminal-533785617-line-6)">━━━━━━━━━━━━━━━╸</text><text class="terminal-533785617-r13" x="268.4" y="166.4" textLength="134.2" clip-path="url(#terminal-533785617-line-6)">━━━━━━━━━━━</text><text class="terminal-533785617-r12" x="402.6" y="166.4" textLength="988.2" clip-path="url(#terminal-533785617-line-6)">╺━━━━━━━━━━━━━━━━━━━━━━━━━━━━━━━━━━━━━━━━━━━━━━━━━━━━━━━━━━━━━━━━━━━━━━━━━━━━━━━━</text><text class="terminal-533785617-r2" x="1464" y="166.4" textLength="12.2" clip-path="url(#terminal-533785617-line-6)">
</text><text class="terminal-533785617-r2" x="1464" y="190.8" textLength="12.2" clip-path="url(#terminal-533785617-line-7)">
</text><text class="terminal-533785617-r14" x="109.8" y="215.2" textLength="170.8" clip-path="url(#terminal-533785617-line-8)">Server&#160;Details</text><text class="terminal-533785617-r2" x="1464" y="215.2" textLength="12.2" clip-path="url(#terminal-533785617-line-8)">
</text><text class="terminal-533785617-r2" x="1464" y="239.6" textLength="12.2" clip-path="url(#terminal-533785617-line-9)">
</text><text class="terminal-533785617-r15" x="97.6" y="264" textLength="97.6" clip-path="url(#terminal-533785617-line-10)">Base&#160;URL</text><text class="terminal-533785617-r1" x="195.2" y="264" textLength="24.4" clip-path="url(#terminal-533785617-line-10)">:&#160;</text><text class="terminal-533785617-r16" x="219.6" y="264" textLength="353.8" clip-path="url(#terminal-533785617-line-10)">https://example.atlassian.net</text><text class="terminal-533785617-r2" x="1464" y="264" textLength="12.2" clip-path="url(#terminal-533785617-line-10)">
</text><text class="terminal-533785617-r15" x="97.6" y="288.4" textLength="85.4" clip-path="url(#terminal-533785617-line-11)">Version</text><text class="terminal-533785617-r1" x="183" y="288.4" textLength="24.4" clip-path="url(#terminal-533785617-line-11)">:&#160;</text><text class="terminal-533785617-r16" x="207.4" y="288.4" textLength="73.2" clip-path="url(#terminal-533785617-line-11)">9.12.0</text><text class="terminal-533785617-r2" x="1464" y="288.4" textLength="12.2" clip-path="url(#terminal-533785617-line-11)">
</text><text class="terminal-533785617-r15" x="97.6" y="312.8" textLength="183" clip-path="url(#terminal-533785617-line-12)">Deployment&#160;Type</text><text class="terminal-533785617-r1" x="280.6" y="312.8" textLength="24.4" clip-path="url(#terminal-533785617-line-12)">:&#160;</text><text class="terminal-533785617-r16" x="305" y="312.8" textLength="61" clip-path="url(#terminal-533785617-line-12)">Cloud</text><text class="terminal-533785617-r2" x="1464" y="312.8" textLength="12.2" clip-path="url(#terminal-533785617-line-12)">
</text><text class="terminal-533785617-r15" x="97.6" y="337.2" textLength="146.4" clip-path="url(#terminal-533785617-line-13)">Build&#160;Number</text><text class="terminal-533785617-r1" x="244" y="337.2" textLength="24.4" clip-path="url(#terminal-533785617-line-13)">:&#160;</text><text class="terminal-533785617-r16" x="268.4" y="337.2" textLength="73.2" clip-path="url(#terminal-533785617-line-13)">912000</text><text class="terminal-533785617-r2" x="1464" y="337.2" textLength="12.2" clip-path="url(#terminal-533785617-line-13)">
</text><text class="terminal-533785617-r15" x="97.6" y="361.6" textLength="122" clip-path="url(#terminal-533785617-line-14)">Build&#160;Date</text><text class="terminal-533785617-r1" x="219.6" y="361.6" textLength="24.4" clip-path="url(#terminal-533785617-line-14)">:&#160;</text><text class="terminal-533785617-r16" x="244" y="361.6" textLength="341.6" clip-path="url(#terminal-533785617-line-14)">2024-01-01T00:00:00.000+0000</text><text class="terminal-533785617-r2" x="1464" y="361.6" textLength="12.2" clip-path="url(#terminal-533785617-line-14)">
</text><text class="terminal-533785617-r15" x="97.6" y="386" textLength="134.2" clip-path="url(#terminal-533785617-line-15)">Server&#160;Time</text><text class="terminal-533785617-r1" x="231.8" y="386" textLength="24.4" clip-path="url(#terminal-533785617-line-15)">:&#160;</text><text class="terminal-533785617-r16" x="256.2" y="386" textLength="341.6" clip-path="url(#terminal-533785617-line-15)">2026-02-07T12:00:00.000+0000</text><text class="terminal-533785617-r2" x="1464" y="386" textLength="12.2" clip-path="url(#terminal-533785617-line-15)">
</text><text class="terminal-533785617-r15" x="97.6" y="410.4" textLength="146.4" clip-path="url(#terminal-533785617-line-16)">Server&#160;Title</text><text class="terminal-533785617-r1" x="244" y="410.4" textLength="24.4" clip-path="url(#terminal-533785617-line-16)">:&#160;</text><text class="terminal-533785617-r16" x="268.4" y="410.4" textLength="219.6" clip-path="url(#terminal-533785617-line-16)">Test&#160;Jira&#160;Instance</text><text class="terminal-533785617-r2" x="1464" y="410.4" textLength="12.2" clip-path="url(#terminal-533785617-line-16)">
</text><text class="terminal-533785617-r15" x="97.6" y="434.8" textLength="170.8" clip-path="url(#terminal-533785617-line-17)">Default&#160;Locale</text><text class="terminal-533785617-r1" x="268.4" y="434.8" textLength="24.4" clip-path="url(#terminal-533785617-line-17)">:&#160;</text><text class="terminal-533785617-r16" x="292.8" y="434.8" textLength="280.6" clip-path="url(#terminal-533785617-line-17)">&#160;&#160;**Server&#160;Time&#160;Zone**:</text><text class="terminal-533785617-r2" x="1464" y="434.8" textLength="12.2" clip-path="url(#terminal-533785617-line-17)">
</text><text class="terminal-533785617-r2" x="1464" y="459.2" textLength="12.2" clip-path="url(#terminal-533785617-line-18)">
</text><text class="terminal-533785617-r14" x="109.8" y="483.6" textLength="97.6" clip-path="url(#terminal-533785617-line-19)">Features</text><text class="terminal-533785617-r2" x="1464" y="483.6" textLength="12.2" clip-path="url(#terminal-533785617-line-19)">
</text><text class="terminal-533785617-r2" x="1464" y="508" textLength="12.2" clip-path="url(#terminal-533785617-line-20)">
</text><text class="terminal-533785617-r15" x="97.6" y="532.4" textLength="134.2" clip-path="url(#terminal-533785617-line-21)">Attachments</text><text class="terminal-533785617-r1" x="231.8" y="532.4" textLength="61" clip-path="url(#terminal-533785617-line-21)">:&#160;Yes</text><text class="terminal-533785617-r2" x="1464" y="532.4" textLength="12.2" clip-path="url(#terminal-533785617-line-21)">
</text><text class="terminal-533785617-r15" x="97.6" y="556.8" textLength="207.4" clip-path="url(#terminal-533785617-line-22)">Work&#160;Item&#160;Linking</text><text class="terminal-533785617-r1" x="305" y="556.8" textLength="61" clip-path="url(#terminal-533785617-line-22)">:&#160;Yes</text><text class="terminal-533785617-r2" x="1464" y="556.8" textLength="12.2" clip-path="url(#terminal-533785617-line-22)">
</text><text class="terminal-533785617-r15" x="97.6" y="581.2" textLength="97.6" clip-path="url(#terminal-533785617-line-23)">Subtasks</text><text class="terminal-533785617-r1" x="195.2" y="581.2" textLength="61" clip-path="url(#terminal-533785617-line-23)">:&#160;Yes</text><text class="terminal-533785617-r2" x="1464" y="581.2" textLength="12.2" clip-path="url(#terminal-533785617-line-23)">
</text><text class="terminal-533785617-r15" x="97.6" y="605.6" textLength="73.2" clip-path="url(#terminal-533785617-line-24)">Voting</text><text class="terminal-533785617-r1" x="170.8" y="605.6" textLength="61" clip-path="url(#terminal-533785617-line-24)">:&#160;Yes</text><text class="terminal-533785617-r2" x="1464" y="605.6" textLength="12.2" clip-path="url(#terminal-533785617-line-24)">
</text><text class="terminal-533785617-r15" x="97.6" y="630" textLength="158.6" clip-path="url(#terminal-533785617-line-25)">Time&#160;Tracking</text><text class="terminal-533785617-r1" x="256.2" y="630" textLength="61" clip-path="url(#terminal-533785617-line-25)">:&#160;Yes</text><text class="terminal-533785617-r2" x="1464" y="630" textLength="12.2" clip-path="url(#terminal-533785617-line-25)">
</text><text class="terminal-533785617-r15" x="97.6" y="654.4" textLength="97.6" clip-path="url(#terminal-533785617-line-26)">Watching</text><text class="terminal-533785617-r1" x="195.2" y="654.4" textLength="61" clip-path="url(#terminal-533785617-line-26)">:&#160;Yes</text><text class="terminal-533785617-r2" x="1464" y="654.4" textLength="12.2" clip-path="url(#terminal-533785617-line-26)">
</text><text class="terminal-533785617-r15" x="97.6" y="678.8" textLength="256.2" clip-path="url(#terminal-533785617-line-27)">Unassigned&#160;Work&#160;Items</text><text class="terminal-533785617-r1" x="353.8" y="678.8" textLength="48.8" clip-path="url(#terminal-533785617-line-27)">:&#160;No</text><text class="terminal-533785617-r2" x="1464" y="678.8" textLength="12.2" clip-path="url(#terminal-533785617-line-27)">
</text><text class="terminal-533785617-r2" x="1464" y="703.2" textLength="12.2" clip-path="url(#terminal-533785617-line-28)">
</text><text class="terminal-533785617-r14" x="109.8" y="727.6" textLength="329.4" clip-path="url(#terminal-533785617-line-29)">Time&#160;Tracking&#160;Configuration</text><text class="terminal-533785617-r2" x="1464" y="727.6" textLength="12.2" clip-path="url(#terminal-533785617-line-29)">
</text><text class="terminal-533785617-r2" x="1464" y="752" textLength="12.2" clip-path="url(#terminal-533785617-line-30)">
</text><text class="terminal-533785617-r15" x="97.6" y="776.4" textLength="146.4" clip-path="url(#terminal-533785617-line-31)">Default&#160;Unit</text><text class="terminal-533785617-r1" x="244" y="776.4" textLength="24.4" clip-path="url(#terminal-533785617-line-31)">:&#160;</text><text class="terminal-533785617-r16" x="268.4" y="776.4" textLength="48.8" clip-path="url(#terminal-533785617-line-31)">hour</text><text class="terminal-533785617-r2" x="1464" y="776.4" textLength="12.2" clip-path="url(#terminal-533785617-line-31)">
</text><text class="terminal-533785617-r15" x="97.6" y="800.8" textLength="134.2" clip-path="url(#terminal-533785617-line-32)">Time&#160;Format</text><text class="terminal-533785617-r1" x="231.8" y="800.8" textLength="24.4" clip-path="url(#terminal-533785617-line-32)">:&#160;</text><text class="terminal-533785617-r16" x="256.2" y="800.8" textLength="73.2" clip-path="url(#terminal-533785617-line-32)">pretty</text><text class="terminal-533785617-r2" x="1464" y="800.8" textLength="12.2" clip-path="url(#terminal-533785617-line-32)">
</text><text class="terminal-533785617-r15" x="97.6" y="825.2" textLength="207.4" clip-path="url(#terminal-533785617-line-33)">Working&#160;Days/Week</text><text class="terminal-533785617-r1" x="305" y="825.2" textLength="24.4" clip-path="url(#terminal-533785617-line-33)">:&#160;</text><text class="terminal-533785617-r16" x="329.4" y="825.2" textLength="36.6" clip-path="url(#terminal-533785617-line-33)">5.0</text><text class="terminal-533785617-r2" x="1464" y="825.2" textLength="12.2" clip-path="url(#terminal-533785617-line-33)">
</text><text class="terminal-533785617-r15" x="97.6" y="849.6" textLength="207.4" clip-path="url(#terminal-533785617-line-34)">Working&#160;Hours/Day</text><text class="terminal-533785617-r1" x="305" y="849.6" textLength="24.4" clip-path="url(#terminal-533785617-line-34)">:&#160;</text><text class="terminal-533785617-r16" x="329.4" y="849.6" textLength="36.6" clip-path="url(#terminal-533785617-line-34)">8.0</text><text class="terminal-533785617-r2" x="1464" y="849.6" textLength="12.2" clip-path="url(#terminal-533785617-line-34)">
</text><text class="terminal-533785617-r2" x="1464" y="874" textLength="12.2" clip-path="url(#terminal-533785617-line-35)">
</text><text class="terminal-533785617-r2" x="1464" y="898.4" textLength="12.2" clip-path="url(#terminal-533785617-line-36)">
</text><text class="terminal-533785617-r2" x="1464" y="922.8" textLength="12.2" clip-path="url(#terminal-533785617-line-37)">
</text><text class="terminal-533785617-r2" x="1464" y="947.2" textLength="12.2" clip-path="url(#terminal-533785617-line-38)">
</text>
    </g>
    </g>
</svg>
