<svg class="rich-terminal" viewBox="0 0 1482 1026.0" xmlns="http://www.w3.org/2000/svg">
    <!-- Generated with Rich https://www.textualize.io -->
    <style>

    @font-face {
        font-family: "Fira Code";
        src: local("FiraCode-Regular"),
                url("https://cdnjs.cloudflare.com/ajax/libs/firacode/6.2.0/woff2/FiraCode-Regular.woff2") format("woff2"),
                url("https://cdnjs.cloudflare.com/ajax/libs/firacode/6.2.0/woff/FiraCode-Regular.woff") format("woff");
        font-style: normal;
        font-weight: 400;
    }
    @font-face {
        font-family: "Fira Code";
        src: local("FiraCode-Bold"),
                url("https://cdnjs.cloudflare.com/ajax/libs/firacode/6.2.0/woff2/FiraCode-Bold.woff2") format("woff2"),
                url("https://cdnjs.cloudflare.com/ajax/libs/firacode/6.2.0/woff/FiraCode-Bold.woff") format("woff");
        font-style: bold;
        font-weight: 700;
    }

    .terminal-191603877-matrix {
        font-family: Fira Code, monospace;
        font-size: 20px;
        line-height: 24.4px;
        font-variant-east-asian: full-width;
    }

    .terminal-191603877-title {
        font-size: 18px;
        font-weight: bold;
        font-family: arial;
    }

    .terminal-191603877-r1 { fill: #c5c8c6 }
.terminal-191603877-r2 { fill: #002d4f;font-weight: bold }
.terminal-191603877-r3 { fill: #7b7b7b }
.terminal-191603877-r4 { fill: #989898 }
.terminal-191603877-r5 { fill: #1f1f1f }
.terminal-191603877-r6 { fill: #939393 }
.terminal-191603877-r7 { fill: #002452 }
.terminal-191603877-r8 { fill: #e7920d }
.terminal-191603877-r9 { fill: #e0e0e0 }
.terminal-191603877-r10 { fill: #d8d8d8 }
.terminal-191603877-r11 { fill: #ffffff }
.terminal-191603877-r12 { fill: #e7920d;font-weight: bold }
.terminal-191603877-r13 { fill: #8f97a8;font-weight: bold }
.terminal-191603877-r14 { fill: #595959 }
.terminal-191603877-r15 { fill: #fea62b;font-weight: bold }
.terminal-191603877-r16 { fill: #565656 }
    </style>

    <defs>
    <clipPath id="terminal-191603877-clip-terminal">
      <rect x="0" y="0" width="1463.0" height="975.0" />
    </clipPath>
    <clipPath id="terminal-191603877-line-0">
    <rect x="0" y="1.5" width="1464" height="24.65"/>
            </clipPath>
<clipPath id="terminal-191603877-line-1">
    <rect x="0" y="25.9" width="1464" height="24.65"/>
            </clipPath>
<clipPath id="terminal-191603877-line-2">
    <rect x="0" y="50.3" width="1464" height="24.65"/>
            </clipPath>
<clipPath id="terminal-191603877-line-3">
    <rect x="0" y="74.7" width="1464" height="24.65"/>
            </clipPath>
<clipPath id="terminal-191603877-line-4">
    <rect x="0" y="99.1" width="1464" height="24.65"/>
            </clipPath>
<clipPath id="terminal-191603877-line-5">
    <rect x="0" y="123.5" width="1464" height="24.65"/>
            </clipPath>
<clipPath id="terminal-191603877-line-6">
    <rect x="0" y="147.9" width="1464" height="24.65"/>
            </clipPath>
<clipPath id="terminal-191603877-line-7">
    <rect x="0" y="172.3" width="1464" height="24.65"/>
            </clipPath>
<clipPath id="terminal-191603877-line-8">
    <rect x="0" y="196.7" width="1464" height="24.65"/>
            </clipPath>
<clipPath id="terminal-191603877-line-9">
    <rect x="0" y="221.1" width="1464" height="24.65"/>
            </clipPath>
<clipPath id="terminal-191603877-line-10">
    <rect x="0" y="245.5" width="1464" height="24.65"/>
            </clipPath>
<clipPath id="terminal-191603877-line-11">
    <rect x="0" y="269.9" width="1464" height="24.65"/>
            </clipPath>
<clipPath id="terminal-191603877-line-12">
    <rect x="0" y="294.3" width="1464" height="24.65"/>
            </clipPath>
<clipPath id="terminal-191603877-line-13">
    <rect x="0" y="318.7" width="1464" height="24.65"/>
            </clipPath>
<clipPath id="terminal-191603877-line-14">
    <rect x="0" y="343.1" width="1464" height="24.65"/>
            </clipPath>
<clipPath id="terminal-191603877-line-15">
    <rect x="0" y="367.5" width="1464" height="24.65"/>
            </clipPath>
<clipPath id="terminal-191603877-line-16">
    <rect x="0" y="391.9" width="1464" height="24.65"/>
            </clipPath>
<clipPath id="terminal-191603877-line-17">
    <rect x="0" y="416.3" width="1464" height="24.65"/>
            </clipPath>
<clipPath id="terminal-191603877-line-18">
    <rect x="0" y="440.7" width="1464" height="24.65"/>
            </clipPath>
<clipPath id="terminal-191603877-line-19">
    <rect x="0" y="465.1" width="1464" height="24.65"/>
            </clipPath>
<clipPath id="terminal-191603877-line-20">
    <rect x="0" y="489.5" width="1464" height="24.65"/>
            </clipPath>
<clipPath id="terminal-191603877-line-21">
    <rect x="0" y="513.9" width="1464" height="24.65"/>
            </clipPath>
<clipPath id="terminal-191603877-line-22">
    <rect x="0" y="538.3" width="1464" height="24.65"/>
            </clipPath>
<clipPath id="terminal-191603877-line-23">
    <rect x="0" y="562.7" width="1464" height="24.65"/>
            </clipPath>
<clipPath id="terminal-191603877-line-24">
    <rect x="0" y="587.1" width="1464" height="24.65"/>
            </clipPath>
<clipPath id="terminal-191603877-line-25">
    <rect x="0" y="611.5" width="1464" height="24.65"/>
            </clipPath>
<clipPath id="terminal-191603877-line-26">
    <rect x="0" y="635.9" width="1464" height="24.65"/>
            </clipPath>
<clipPath id="terminal-191603877-line-27">
    <rect x="0" y="660.3" width="1464" height="24.65"/>
            </clipPath>
<clipPath id="terminal-191603877-line-28">
    <rect x="0" y="684.7" width="1464" height="24.65"/>
            </clipPath>
<clipPath id="terminal-191603877-line-29">
    <rect x="0" y="709.1" width="1464" height="24.65"/>
            </clipPath>
<clipPath id="terminal-191603877-line-30">
    <rect x="0" y="733.5" width="1464" height="24.65"/>
            </clipPath>
<clipPath id="terminal-191603877-line-31">
    <rect x="0" y="757.9" width="1464" height="24.65"/>
            </clipPath>
<clipPath id="terminal-191603877-line-32">
    <rect x="0" y="782.3" width="1464" height="24.65"/>
            </clipPath>
<clipPath id="terminal-191603877-line-33">
    <rect x="0" y="806.7" width="1464" height="24.65"/>
            </clipPath>
<clipPath id="terminal-191603877-line-34">
    <rect x="0" y="831.1" width="1464" height="24.65"/>
            </clipPath>
<clipPath id="terminal-191603877-line-35">
    <rect x="0" y="855.5" width="1464" height="24.65"/>
            </clipPath>
<clipPath id="terminal-191603877-line-36">
    <rect x="0" y="879.9" width="1464" height="24.65"/>
            </clipPath>
<clipPath id="terminal-191603877-line-37">
    <rect x="0" y="904.3" width="1464" height="24.65"/>
            </clipPath>
<clipPath id="terminal-191603877-line-38">
    <rect x="0" y="928.7" width="1464" height="24.65"/>
            </clipPath>
    </defs>

    <rect fill="#292929" stroke="rgba(255,255,255,0.35)" stroke-width="1" x="1" y="1" width="1480" height="1024" rx="8"/><text class="terminal-191603877-title" fill="#c5c8c6" text-anchor="middle" x="740" y="27">gojeera</text>
            <g transform="translate(26,22)">
            <circle cx="0" cy="0" r="7" fill="#ff5f57"/>
            <circle cx="22" cy="0" r="7" fill="#febc2e"/>
            <circle cx="44" cy="0" r="7" fill="#28c840"/>
            </g>
        
    <g transform="translate(9, 41)" clip-path="url(#terminal-191603877-clip-terminal)">
    <rect fill="#e0e0e0" x="0" y="1.5" width="1464" height="24.65" shape-rendering="crispEdges"/><rect fill="#e0e0e0" x="0" y="25.9" width="12.2" height="24.65" shape-rendering="crispEdges"/><rect fill="#9cb1c0" x="12.2" y="25.9" width="12.2" height="24.65" shape-rendering="crispEdges"/><rect fill="#9cb1c0" x="24.4" y="25.9" width="61" height="24.65" shape-rendering="crispEdges"/><rect fill="#9cb1c0" x="85.4" y="25.9" width="12.2" height="24.65" shape-rendering="crispEdges"/><rect fill="#9cb1c0" x="97.6" y="25.9" width="12.2" height="24.65" shape-rendering="crispEdges"/><rect fill="#9cb1c0" x="109.8" y="25.9" width="12.2" height="24.65" shape-rendering="crispEdges"/><rect fill="#e0e0e0" x="122" y="25.9" width="12.2" height="24.65" shape-rendering="crispEdges"/><rect fill="#9cb1c0" x="134.2" y="25.9" width="36.6" height="24.65" shape-rendering="crispEdges"/><rect fill="#e0e0e0" x="170.8" y="25.9" width="12.2" height="24.65" shape-rendering="crispEdges"/><rect fill="#d8d8d8" x="183" y="25.9" width="85.4" height="24.65" shape-rendering="crispEdges"/><rect fill="#d8d8d8" x="268.4" y="25.9" width="170.8" height="24.65" shape-rendering="crispEdges"/><rect fill="#d8d8d8" x="439.2" y="25.9" width="12.2" height="24.65" shape-rendering="crispEdges"/><rect fill="#d8d8d8" x="451.4" y="25.9" width="12.2" height="24.65" shape-rendering="crispEdges"/><rect fill="#e0e0e0" x="463.6" y="25.9" width="12.2" height="24.65" shape-rendering="crispEdges"/><rect fill="#dadada" x="475.8" y="25.9" width="97.6" height="24.65" shape-rendering="crispEdges"/><rect fill="#dadada" x="573.4" y="25.9" width="158.6" height="24.65" shape-rendering="crispEdges"/><rect fill="#dadada" x="732" y="25.9" width="12.2" height="24.65" shape-rendering="crispEdges"/><rect fill="#dbdbdb" x="744.2" y="25.9" width="12.2" height="24.65" shape-rendering="crispEdges"/><rect fill="#e0e0e0" x="756.4" y="25.9" width="12.2" height="24.65" shape-rendering="crispEdges"/><rect fill="#dadada" x="768.6" y="25.9" width="48.8" height="24.65" shape-rendering="crispEdges"/><rect fill="#dadada" x="817.4" y="25.9" width="207.4" height="24.65" shape-rendering="crispEdges"/><rect fill="#dadada" x="1024.8" y="25.9" width="12.2" height="24.65" shape-rendering="crispEdges"/><rect fill="#dbdbdb" x="1037" y="25.9" width="12.2" height="24.65" shape-rendering="crispEdges"/><rect fill="#e0e0e0" x="1049.2" y="25.9" width="12.2" height="24.65" shape-rendering="crispEdges"/><rect fill="#dadada" x="1061.4" y="25.9" width="73.2" height="24.65" shape-rendering="crispEdges"/><rect fill="#dadada" x="1134.6" y="25.9" width="183" height="24.65" shape-rendering="crispEdges"/><rect fill="#dadada" x="1317.6" y="25.9" width="12.2" height="24.65" shape-rendering="crispEdges"/><rect fill="#dbdbdb" x="1329.8" y="25.9" width="12.2" height="24.65" shape-rendering="crispEdges"/><rect fill="#e0e0e0" x="1342" y="25.9" width="12.2" height="24.65" shape-rendering="crispEdges"/><rect fill="#9cb1c0" x="1354.2" y="25.9" width="97.6" height="24.65" shape-rendering="crispEdges"/><rect fill="#e0e0e0" x="1451.8" y="25.9" width="12.2" height="24.65" shape-rendering="crispEdges"/><rect fill="#e0e0e0" x="0" y="50.3" width="1464" height="24.65" shape-rendering="crispEdges"/><rect fill="#e0e0e0" x="0" y="74.7" width="12.2" height="24.65" shape-rendering="crispEdges"/><rect fill="#d8d8d8" x="12.2" y="74.7" width="85.4" height="24.65" shape-rendering="crispEdges"/><rect fill="#d8d8d8" x="97.6" y="74.7" width="146.4" height="24.65" shape-rendering="crispEdges"/><rect fill="#d8d8d8" x="244" y="74.7" width="12.2" height="24.65" shape-rendering="crispEdges"/><rect fill="#d8d8d8" x="256.2" y="74.7" width="12.2" height="24.65" shape-rendering="crispEdges"/><rect fill="#e0e0e0" x="268.4" y="74.7" width="12.2" height="24.65" shape-rendering="crispEdges"/><rect fill="#9cb1c0" x="280.6" y="74.7" width="36.6" height="24.65" shape-rendering="crispEdges"/><rect fill="#e0e0e0" x="317.2" y="74.7" width="12.2" height="24.65" shape-rendering="crispEdges"/><rect fill="#9cb1c0" x="329.4" y="74.7" width="36.6" height="24.65" shape-rendering="crispEdges"/><rect fill="#e0e0e0" x="366" y="74.7" width="1098" height="24.65" shape-rendering="crispEdges"/><rect fill="#e0e0e0" x="0" y="99.1" width="1464" height="24.65" shape-rendering="crispEdges"/><rect fill="#e0e0e0" x="0" y="123.5" width="12.2" height="24.65" shape-rendering="crispEdges"/><rect fill="#d8d8d8" x="12.2" y="123.5" width="12.2" height="24.65" shape-rendering="crispEdges"/><rect fill="#d8d8d8" x="24.4" y="123.5" width="134.2" height="24.65" shape-rendering="crispEdges"/><rect fill="#d8d8d8" x="158.6" y="123.5" width="183" height="24.65" shape-rendering="crispEdges"/><rect fill="#e0e0e0" x="341.6" y="123.5" width="12.2" height="24.65" shape-rendering="crispEdges"/><rect fill="#d8d8d8" x="353.8" y="123.5" width="12.2" height="24.65" shape-rendering="crispEdges"/><rect fill="#e0e0e0" x="366" y="123.5" width="1098" height="24.65" shape-rendering="crispEdges"/><rect fill="#e0e0e0" x="0" y="147.9" width="12.2" height="24.65" shape-rendering="crispEdges"/><rect fill="#d8d8d8" x="12.2" y="147.9" width="12.2" height="24.65" shape-rendering="crispEdges"/><rect fill="#d8d8d8" x="24.4" y="147.9" width="219.6" height="24.65" shape-rendering="crispEdges"/><rect fill="#d8d8d8" x="244" y="147.9" width="97.6" height="24.65" shape-rendering="crispEdges"/><rect fill="#e0e0e0" x="341.6" y="147.9" width="12.2" height="24.65" shape-rendering="crispEdges"/><rect fill="#002452" x="353.8" y="147.9" width="12.2" height="24.65" shape-rendering="crispEdges"/><rect fill="#e0e0e0" x="366" y="147.9" width="1098" height="24.65" shape-rendering="crispEdges"/><rect fill="#e0e0e0" x="0" y="172.3" width="12.2" height="24.65" shape-rendering="crispEdges"/><rect fill="#d8d8d8" x="12.2" y="172.3" width="12.2" height="24.65" shape-rendering="crispEdges"/><rect fill="#d8d8d8" x="24.4" y="172.3" width="244" height="24.65" shape-rendering="crispEdges"/><rect fill="#d8d8d8" x="268.4" y="172.3" width="73.2" height="24.65" shape-rendering="crispEdges"/><rect fill="#e0e0e0" x="341.6" y="172.3" width="12.2" height="24.65" shape-rendering="crispEdges"/><rect fill="#002452" x="353.8" y="172.3" width="12.2" height="24.65" shape-rendering="crispEdges"/><rect fill="#e0e0e0" x="366" y="172.3" width="1098" height="24.65" shape-rendering="crispEdges"/><rect fill="#e0e0e0" x="0" y="196.7" width="12.2" height="24.65" shape-rendering="crispEdges"/><rect fill="#d8d8d8" x="12.2" y="196.7" width="12.2" height="24.65" shape-rendering="crispEdges"/><rect fill="#d8d8d8" x="24.4" y="196.7" width="256.2" height="24.65" shape-rendering="crispEdges"/><rect fill="#d8d8d8" x="280.6" y="196.7" width="61" height="24.65" shape-rendering="crispEdges"/><rect fill="#e0e0e0" x="341.6" y="196.7" width="12.2" height="24.65" shape-rendering="crispEdges"/><rect fill="#002452" x="353.8" y="196.7" width="12.2" height="24.65" shape-rendering="crispEdges"/><rect fill="#e0e0e0" x="366" y="196.7" width="1098" height="24.65" shape-rendering="crispEdges"/><rect fill="#e0e0e0" x="0" y="221.1" width="12.2" height="24.65" shape-rendering="crispEdges"/><rect fill="#d8d8d8" x="12.2" y="221.1" width="12.2" height="24.65" shape-rendering="crispEdges"/><rect fill="#d8d8d8" x="24.4" y="221.1" width="61" height="24.65" shape-rendering="crispEdges"/><rect fill="#d8d8d8" x="85.4" y="221.1" width="256.2" height="24.65" shape-rendering="crispEdges"/><rect fill="#e0e0e0" x="341.6" y="221.1" width="12.2" height="24.65" shape-rendering="crispEdges"/><rect fill="#002452" x="353.8" y="221.1" width="12.2" height="24.65" shape-rendering="crispEdges"/><rect fill="#e0e0e0" x="366" y="221.1" width="1098" height="24.65" shape-rendering="crispEdges"/><rect fill="#e0e0e0" x="0" y="245.5" width="12.2" height="24.65" shape-rendering="crispEdges"/><rect fill="#d8d8d8" x="12.2" y="245.5" width="329.4" height="24.65" shape-rendering="crispEdges"/><rect fill="#e0e0e0" x="341.6" y="245.5" width="12.2" height="24.65" shape-rendering="crispEdges"/><rect fill="#002452" x="353.8" y="245.5" width="12.2" height="24.65" shape-rendering="crispEdges"/><rect fill="#e0e0e0" x="366" y="245.5" width="1098" height="24.65" shape-rendering="crispEdges"/><rect fill="#e0e0e0" x="0" y="269.9" width="12.2" height="24.65" shape-rendering="crispEdges"/><rect fill="#e0e0e0" x="12.2" y="269.9" width="341.6" height="24.65" shape-rendering="crispEdges"/><rect fill="#002452" x="353.8" y="269.9" width="12.2" height="24.65" shape-rendering="crispEdges"/><rect fill="#e0e0e0" x="366" y="269.9" width="1098" height="24.65" shape-rendering="crispEdges"/><rect fill="#e0e0e0" x="0" y="294.3" width="12.2" height="24.65" shape-rendering="crispEdges"/><rect fill="#d8d8d8" x="12.2" y="294.3" width="329.4" height="24.65" shape-rendering="crispEdges"/><rect fill="#e0e0e0" x="341.6" y="294.3" width="12.2" height="24.65" shape-rendering="crispEdges"/><rect fill="#002452" x="353.8" y="294.3" width="12.2" height="24.65" shape-rendering="crispEdges"/><rect fill="#e0e0e0" x="366" y="294.3" width="1098" height="24.65" shape-rendering="crispEdges"/><rect fill="#e0e0e0" x="0" y="318.7" width="12.2" height="24.65" shape-rendering="crispEdges"/><rect fill="#d8d8d8" x="12.2" y="318.7" width="12.2" height="24.65" shape-rendering="crispEdges"/><rect fill="#d8d8d8" x="24.4" y="318.7" width="158.6" height="24.65" shape-rendering="crispEdges"/><rect fill="#d8d8d8" x="183" y="318.7" width="158.6" height="24.65" shape-rendering="crispEdges"/><rect fill="#e0e0e0" x="341.6" y="318.7" width="12.2" height="24.65" shape-rendering="crispEdges"/><rect fill="#002452" x="353.8" y="318.7" width="12.2" height="24.65" shape-rendering="crispEdges"/><rect fill="#e0e0e0" x="366" y="318.7" width="1098" height="24.65" shape-rendering="crispEdges"/><rect fill="#e0e0e0" x="0" y="343.1" width="12.2" height="24.65" shape-rendering="crispEdges"/><rect fill="#d8d8d8" x="12.2" y="343.1" width="12.2" height="24.65" shape-rendering="crispEdges"/><rect fill="#d8d8d8" x="24.4" y="343.1" width="292.8" height="24.65" shape-rendering="crispEdges"/><rect fill="#d8d8d8" x="317.2" y="343.1" width="24.4" height="24.65" shape-rendering="crispEdges"/><rect fill="#e0e0e0" x="341.6" y="343.1" width="12.2" height="24.65" shape-rendering="crispEdges"/><rect fill="#002452" x="353.8" y="343.1" width="12.2" height="24.65" shape-rendering="crispEdges"/><rect fill="#e0e0e0" x="366" y="343.1" width="1098" height="24.65" shape-rendering="crispEdges"/><rect fill="#e0e0e0" x="0" y="367.5" width="12.2" height="24.65" shape-rendering="crispEdges"/><rect fill="#d8d8d8" x="12.2" y="367.5" width="12.2" height="24.65" shape-rendering="crispEdges"/><rect fill="#d8d8d8" x="24.4" y="367.5" width="268.4" height="24.65" shape-rendering="crispEdges"/><rect fill="#d8d8d8" x="292.8" y="367.5" width="48.8" height="24.65" shape-rendering="crispEdges"/><rect fill="#e0e0e0" x="341.6" y="367.5" width="12.2" height="24.65" shape-rendering="crispEdges"/><rect fill="#d8d8d8" x="353.8" y="367.5" width="12.2" height="24.65" shape-rendering="crispEdges"/><rect fill="#e0e0e0" x="366" y="367.5" width="1098" height="24.65" shape-rendering="crispEdges"/><rect fill="#e0e0e0" x="0" y="391.9" width="12.2" height="24.65" shape-rendering="crispEdges"/><rect fill="#d8d8d8" x="12.2" y="391.9" width="12.2" height="24.65" shape-rendering="crispEdges"/><rect fill="#d8d8d8" x="24.4" y="391.9" width="292.8" height="24.65" shape-rendering="crispEdges"/><rect fill="#d8d8d8" x="317.2" y="391.9" width="24.4" height="24.65" shape-rendering="crispEdges"/><rect fill="#e0e0e0" x="341.6" y="391.9" width="12.2" height="24.65" shape-rendering="crispEdges"/><rect fill="#d8d8d8" x="353.8" y="391.9" width="12.2" height="24.65" shape-rendering="crispEdges"/><rect fill="#e0e0e0" x="366" y="391.9" width="1098" height="24.65" shape-rendering="crispEdges"/><rect fill="#e0e0e0" x="0" y="416.3" width="12.2" height="24.65" shape-rendering="crispEdges"/><rect fill="#d8d8d8" x="12.2" y="416.3" width="329.4" height="24.65" shape-rendering="crispEdges"/><rect fill="#e0e0e0" x="341.6" y="416.3" width="12.2" height="24.65" shape-rendering="crispEdges"/><rect fill="#d8d8d8" x="353.8" y="416.3" width="12.2" height="24.65" shape-rendering="crispEdges"/><rect fill="#e0e0e0" x="366" y="416.3" width="1098" height="24.65" shape-rendering="crispEdges"/><rect fill="#e0e0e0" x="0" y="440.7" width="12.2" height="24.65" shape-rendering="crispEdges"/><rect fill="#e0e0e0" x="12.2" y="440.7" width="341.6" height="24.65" shape-rendering="crispEdges"/><rect fill="#d8d8d8" x="353.8" y="440.7" width="12.2" height="24.65" shape-rendering="crispEdges"/><rect fill="#e0e0e0" x="366" y="440.7" width="1098" height="24.65" shape-rendering="crispEdges"/><rect fill="#e0e0e0" x="0" y="465.1" width="12.2" height="24.65" shape-rendering="crispEdges"/><rect fill="#d8d8d8" x="12.2" y="465.1" width="329.4" height="24.65" shape-rendering="crispEdges"/><rect fill="#e0e0e0" x="341.6" y="465.1" width="12.2" height="24.65" shape-rendering="crispEdges"/><rect fill="#d8d8d8" x="353.8" y="465.1" width="12.2" height="24.65" shape-rendering="crispEdges"/><rect fill="#e0e0e0" x="366" y="465.1" width="1098" height="24.65" shape-rendering="crispEdges"/><rect fill="#e0e0e0" x="0" y="489.5" width="12.2" height="24.65" shape-rendering="crispEdges"/><rect fill="#d8d8d8" x="12.2" y="489.5" width="12.2" height="24.65" shape-rendering="crispEdges"/><rect fill="#d8d8d8" x="24.4" y="489.5" width="195.2" height="24.65" shape-rendering="crispEdges"/><rect fill="#d8d8d8" x="219.6" y="489.5" width="122" height="24.65" shape-rendering="crispEdges"/><rect fill="#e0e0e0" x="341.6" y="489.5" width="12.2" height="24.65" shape-rendering="crispEdges"/><rect fill="#d8d8d8" x="353.8" y="489.5" width="12.2" height="24.65" shape-rendering="crispEdges"/><rect fill="#e0e0e0" x="366" y="489.5" width="1098" height="24.65" shape-rendering="crispEdges"/><rect fill="#e0e0e0" x="0" y="513.9" width="12.2" height="24.65" shape-rendering="crispEdges"/><rect fill="#d8d8d8" x="12.2" y="513.9" width="12.2" height="24.65" shape-rendering="crispEdges"/><rect fill="#d8d8d8" x="24.4" y="513.9" width="292.8" height="24.65" shape-rendering="crispEdges"/><rect fill="#d8d8d8" x="317.2" y="513.9" width="24.4" height="24.65" shape-rendering="crispEdges"/><rect fill="#e0e0e0" x="341.6" y="513.9" width="12.2" height="24.65" shape-rendering="crispEdges"/><rect fill="#d8d8d8" x="353.8" y="513.9" width="12.2" height="24.65" shape-rendering="crispEdges"/><rect fill="#e0e0e0" x="366" y="513.9" width="1098" height="24.65" shape-rendering="crispEdges"/><rect fill="#e0e0e0" x="0" y="538.3" width="12.2" height="24.65" shape-rendering="crispEdges"/><rect fill="#d8d8d8" x="12.2" y="538.3" width="12.2" height="24.65" shape-rendering="crispEdges"/><rect fill="#d8d8d8" x="24.4" y="538.3" width="268.4" height="24.65" shape-rendering="crispEdges"/><rect fill="#d8d8d8" x="292.8" y="538.3" width="48.8" height="24.65" shape-rendering="crispEdges"/><rect fill="#e0e0e0" x="341.6" y="538.3" width="12.2" height="24.65" shape-rendering="crispEdges"/><rect fill="#d8d8d8" x="353.8" y="538.3" width="12.2" height="24.65" shape-rendering="crispEdges"/><rect fill="#e0e0e0" x="366" y="538.3" width="1098" height="24.65" shape-rendering="crispEdges"/><rect fill="#e0e0e0" x="0" y="562.7" width="12.2" height="24.65" shape-rendering="crispEdges"/><rect fill="#d8d8d8" x="12.2" y="562.7" width="12.2" height="24.65" shape-rendering="crispEdges"/><rect fill="#d8d8d8" x="24.4" y="562.7" width="85.4" height="24.65" shape-rendering="crispEdges"/><rect fill="#d8d8d8" x="109.8" y="562.7" width="231.8" height="24.65" shape-rendering="crispEdges"/><rect fill="#e0e0e0" x="341.6" y="562.7" width="12.2" height="24.65" shape-rendering="crispEdges"/><rect fill="#d8d8d8" x="353.8" y="562.7" width="12.2" height="24.65" shape-rendering="crispEdges"/><rect fill="#e0e0e0" x="366" y="562.7" width="1098" height="24.65" shape-rendering="crispEdges"/><rect fill="#e0e0e0" x="0" y="587.1" width="12.2" height="24.65" shape-rendering="crispEdges"/><rect fill="#d8d8d8" x="12.2" y="587.1" width="12.2" height="24.65" shape-rendering="crispEdges"/><rect fill="#d8d8d8" x="24.4" y="587.1" width="231.8" height="24.65" shape-rendering="crispEdges"/><rect fill="#d8d8d8" x="256.2" y="587.1" width="85.4" height="24.65" shape-rendering="crispEdges"/><rect fill="#e0e0e0" x="341.6" y="587.1" width="12.2" height="24.65" shape-rendering="crispEdges"/><rect fill="#d8d8d8" x="353.8" y="587.1" width="12.2" height="24.65" shape-rendering="crispEdges"/><rect fill="#e0e0e0" x="366" y="587.1" width="1098" height="24.65" shape-rendering="crispEdges"/><rect fill="#e0e0e0" x="0" y="611.5" width="12.2" height="24.65" shape-rendering="crispEdges"/><rect fill="#d8d8d8" x="12.2" y="611.5" width="12.2" height="24.65" shape-rendering="crispEdges"/><rect fill="#d8d8d8" x="24.4" y="611.5" width="97.6" height="24.65" shape-rendering="crispEdges"/><rect fill="#d8d8d8" x="122" y="611.5" width="219.6" height="24.65" shape-rendering="crispEdges"/><rect fill="#e0e0e0" x="341.6" y="611.5" width="12.2" height="24.65" shape-rendering="crispEdges"/><rect fill="#d8d8d8" x="353.8" y="611.5" width="12.2" height="24.65" shape-rendering="crispEdges"/><rect fill="#e0e0e0" x="366" y="611.5" width="1098" height="24.65" shape-rendering="crispEdges"/><rect fill="#e0e0e0" x="0" y="635.9" width="12.2" height="24.65" shape-rendering="crispEdges"/><rect fill="#d8d8d8" x="12.2" y="635.9" width="329.4" height="24.65" shape-rendering="crispEdges"/><rect fill="#e0e0e0" x="341.6" y="635.9" width="12.2" height="24.65" shape-rendering="crispEdges"/><rect fill="#d8d8d8" x="353.8" y="635.9" width="12.2" height="24.65" shape-rendering="crispEdges"/><rect fill="#e0e0e0" x="366" y="635.9" width="1098" height="24.65" shape-rendering="crispEdges"/><rect fill="#e0e0e0" x="0" y="660.3" width="12.2" height="24.65" shape-rendering="crispEdges"/><rect fill="#e0e0e0" x="12.2" y="660.3" width="341.6" height="24.65" shape-rendering="crispEdges"/><rect fill="#d8d8d8" x="353.8" y="660.3" width="12.2" height="24.65" shape-rendering="crispEdges"/><rect fill="#e0e0e0" x="366" y="660.3" width="1098" height="24.65" shape-rendering="crispEdges"/><rect fill="#e0e0e0" x="0" y="684.7" width="12.2" height="24.65" shape-rendering="crispEdges"/><rect fill="#d0d0d0" x="12.2" y="684.7" width="329.4" height="24.65" shape-rendering="crispEdges"/><rect fill="#e0e0e0" x="341.6" y="684.7" width="12.2" height="24.65" shape-rendering="crispEdges"/><rect fill="#d8d8d8" x="353.8" y="684.7" width="12.2" height="24.65" shape-rendering="crispEdges"/><rect fill="#e0e0e0" x="366" y="684.7" width="1098" height="24.65" shape-rendering="crispEdges"/><rect fill="#e0e0e0" x="0" y="709.1" width="12.2" height="24.65" shape-rendering="crispEdges"/><rect fill="#d0d0d0" x="12.2" y="709.1" width="12.2" height="24.65" shape-rendering="crispEdges"/><rect fill="#d0d0d0" x="24.4" y="709.1" width="134.2" height="24.65" shape-rendering="crispEdges"/><rect fill="#d0d0d0" x="158.6" y="709.1" width="183" height="24.65" shape-rendering="crispEdges"/><rect fill="#e0e0e0" x="341.6" y="709.1" width="12.2" height="24.65" shape-rendering="crispEdges"/><rect fill="#d8d8d8" x="353.8" y="709.1" width="12.2" height="24.65" shape-rendering="crispEdges"/><rect fill="#e0e0e0" x="366" y="709.1" width="1098" height="24.65" shape-rendering="crispEdges"/><rect fill="#e0e0e0" x="0" y="733.5" width="12.2" height="24.65" shape-rendering="crispEdges"/><rect fill="#d0d0d0" x="12.2" y="733.5" width="12.2" height="24.65" shape-rendering="crispEdges"/><rect fill="#d0d0d0" x="24.4" y="733.5" width="244" height="24.65" shape-rendering="crispEdges"/><rect fill="#d0d0d0" x="268.4" y="733.5" width="73.2" height="24.65" shape-rendering="crispEdges"/><rect fill="#e0e0e0" x="341.6" y="733.5" width="12.2" height="24.65" shape-rendering="crispEdges"/><rect fill="#d8d8d8" x="353.8" y="733.5" width="12.2" height="24.65" shape-rendering="crispEdges"/><rect fill="#e0e0e0" x="366" y="733.5" width="1098" height="24.65" shape-rendering="crispEdges"/><rect fill="#e0e0e0" x="0" y="757.9" width="12.2" height="24.65" shape-rendering="crispEdges"/><rect fill="#d0d0d0" x="12.2" y="757.9" width="12.2" height="24.65" shape-rendering="crispEdges"/><rect fill="#d0d0d0" x="24.4" y="757.9" width="195.2" height="24.65" shape-rendering="crispEdges"/><rect fill="#d0d0d0" x="219.6" y="757.9" width="122" height="24.65" shape-rendering="crispEdges"/><rect fill="#e0e0e0" x="341.6" y="757.9" width="12.2" height="24.65" shape-rendering="crispEdges"/><rect fill="#d8d8d8" x="353.8" y="757.9" width="12.2" height="24.65" shape-rendering="crispEdges"/><rect fill="#e0e0e0" x="366" y="757.9" width="1098" height="24.65" shape-rendering="crispEdges"/><rect fill="#e0e0e0" x="0" y="782.3" width="12.2" height="24.65" shape-rendering="crispEdges"/><rect fill="#d0d0d0" x="12.2" y="782.3" width="12.2" height="24.65" shape-rendering="crispEdges"/><rect fill="#d0d0d0" x="24.4" y="782.3" width="183" height="24.65" shape-rendering="crispEdges"/><rect fill="#d0d0d0" x="207.4" y="782.3" width="134.2" height="24.65" shape-rendering="crispEdges"/><rect fill="#e0e0e0" x="341.6" y="782.3" width="12.2" height="24.65" shape-rendering="crispEdges"/><rect fill="#d8d8d8" x="353.8" y="782.3" width="12.2" height="24.65" shape-rendering="crispEdges"/><rect fill="#e0e0e0" x="366" y="782.3" width="1098" height="24.65" shape-rendering="crispEdges"/><rect fill="#e0e0e0" x="0" y="806.7" width="12.2" height="24.65" shape-rendering="crispEdges"/><rect fill="#d0d0d0" x="12.2" y="806.7" width="12.2" height="24.65" shape-rendering="crispEdges"/><rect fill="#d0d0d0" x="24.4" y="806.7" width="292.8" height="24.65" shape-rendering="crispEdges"/><rect fill="#d0d0d0" x="317.2" y="806.7" width="24.4" height="24.65" shape-rendering="crispEdges"/><rect fill="#e0e0e0" x="341.6" y="806.7" width="12.2" height="24.65" shape-rendering="crispEdges"/><rect fill="#d8d8d8" x="353.8" y="806.7" width="12.2" height="24.65" shape-rendering="crispEdges"/><rect fill="#e0e0e0" x="366" y="806.7" width="1098" height="24.65" shape-rendering="crispEdges"/><rect fill="#e0e0e0" x="0" y="831.1" width="12.2" height="24.65" shape-rendering="crispEdges"/><rect fill="#d0d0d0" x="12.2" y="831.1" width="12.2" height="24.65" shape-rendering="crispEdges"/><rect fill="#d0d0d0" x="24.4" y="831.1" width="97.6" height="24.65" shape-rendering="crispEdges"/><rect fill="#d0d0d0" x="122" y="831.1" width="219.6" height="24.65" shape-rendering="crispEdges"/><rect fill="#e0e0e0" x="341.6" y="831.1" width="12.2" height="24.65" shape-rendering="crispEdges"/><rect fill="#d8d8d8" x="353.8" y="831.1" width="12.2" height="24.65" shape-rendering="crispEdges"/><rect fill="#e0e0e0" x="366" y="831.1" width="1098" height="24.65" shape-rendering="crispEdges"/><rect fill="#e0e0e0" x="0" y="855.5" width="12.2" height="24.65" shape-rendering="crispEdges"/><rect fill="#d0d0d0" x="12.2" y="855.5" width="329.4" height="24.65" shape-rendering="crispEdges"/><rect fill="#e0e0e0" x="341.6" y="855.5" width="12.2" height="24.65" shape-rendering="crispEdges"/><rect fill="#d8d8d8" x="353.8" y="855.5" width="12.2" height="24.65" shape-rendering="crispEdges"/><rect fill="#e0e0e0" x="366" y="855.5" width="1098" height="24.65" shape-rendering="crispEdges"/><rect fill="#e0e0e0" x="0" y="879.9" width="12.2" height="24.65" shape-rendering="crispEdges"/><rect fill="#e0e0e0" x="12.2" y="879.9" width="0" height="24.65" shape-rendering="crispEdges"/><rect fill="#e0e0e0" x="12.2" y="879.9" width="1451.8" height="24.65" shape-rendering="crispEdges"/><rect fill="#e0e0e0" x="0" y="904.3" width="85.4" height="24.65" shape-rendering="crispEdges"/><rect fill="#727b91" x="85.4" y="904.3" width="36.6" height="24.65" shape-rendering="crispEdges"/><rect fill="#e0e0e0" x="122" y="904.3" width="12.2" height="24.65" shape-rendering="crispEdges"/><rect fill="#d8d8d8" x="134.2" y="904.3" width="12.2" height="24.65" shape-rendering="crispEdges"/><rect fill="#e0e0e0" x="146.4" y="904.3" width="12.2" height="24.65" shape-rendering="crispEdges"/><rect fill="#e0e0e0" x="158.6" y="904.3" width="85.4" height="24.65" shape-rendering="crispEdges"/><rect fill="#e0e0e0" x="244" y="904.3" width="12.2" height="24.65" shape-rendering="crispEdges"/><rect fill="#727b91" x="256.2" y="904.3" width="36.6" height="24.65" shape-rendering="crispEdges"/><rect fill="#e0e0e0" x="292.8" y="904.3" width="1171.2" height="24.65" shape-rendering="crispEdges"/><rect fill="#e0e0e0" x="0" y="928.7" width="1464" height="24.65" shape-rendering="crispEdges"/><rect fill="#d8d8d8" x="0" y="953.1" width="48.8" height="24.65" shape-rendering="crispEdges"/><rect fill="#d8d8d8" x="48.8" y="953.1" width="73.2" height="24.65" shape-rendering="crispEdges"/><rect fill="#d8d8d8" x="122" y="953.1" width="48.8" height="24.65" shape-rendering="crispEdges"/><rect fill="#d8d8d8" x="170.8" y="953.1" width="109.8" height="24.65" shape-rendering="crispEdges"/><rect fill="#d8d8d8" x="280.6" y="953.1" width="48.8" height="24.65" shape-rendering="crispEdges"/><rect fill="#d8d8d8" x="329.4" y="953.1" width="109.8" height="24.65" shape-rendering="crispEdges"/><rect fill="#d8d8d8" x="439.2" y="953.1" width="48.8" height="24.65" shape-rendering="crispEdges"/><rect fill="#d8d8d8" x="488" y="953.1" width="85.4" height="24.65" shape-rendering="crispEdges"/><rect fill="#d8d8d8" x="573.4" y="953.1" width="61" height="24.65" shape-rendering="crispEdges"/><rect fill="#d8d8d8" x="634.4" y="953.1" width="207.4" height="24.65" shape-rendering="crispEdges"/><rect fill="#d8d8d8" x="841.8" y="953.1" width="48.8" height="24.65" shape-rendering="crispEdges"/><rect fill="#d8d8d8" x="890.6" y="953.1" width="170.8" height="24.65" shape-rendering="crispEdges"/><rect fill="#d8d8d8" x="1061.4" y="953.1" width="36.6" height="24.65" shape-rendering="crispEdges"/><rect fill="#d8d8d8" x="1098" y="953.1" width="61" height="24.65" shape-rendering="crispEdges"/><rect fill="#d8d8d8" x="1159" y="953.1" width="305" height="24.65" shape-rendering="crispEdges"/>
    <g class="terminal-191603877-matrix">
    <text class="terminal-191603877-r1" x="1464" y="20" textLength="12.2" clip-path="url(#terminal-191603877-line-0)">
</text><text class="terminal-191603877-r2" x="24.4" y="44.4" textLength="61" clip-path="url(#terminal-191603877-line-1)">Basic</text><text class="terminal-191603877-r2" x="97.6" y="44.4" textLength="12.2" clip-path="url(#terminal-191603877-line-1)">▼</text><text class="terminal-191603877-r2" x="134.2" y="44.4" textLength="36.6" clip-path="url(#terminal-191603877-line-1)">&#160;+&#160;</text><text class="terminal-191603877-r3" x="183" y="44.4" textLength="85.4" clip-path="url(#terminal-191603877-line-1)">Project</text><text class="terminal-191603877-r3" x="439.2" y="44.4" textLength="12.2" clip-path="url(#terminal-191603877-line-1)">▼</text><text class="terminal-191603877-r4" x="475.8" y="44.4" textLength="97.6" clip-path="url(#terminal-191603877-line-1)">Assignee</text><text class="terminal-191603877-r4" x="732" y="44.4" textLength="12.2" clip-path="url(#terminal-191603877-line-1)">▼</text><text class="terminal-191603877-r4" x="768.6" y="44.4" textLength="48.8" clip-path="url(#terminal-191603877-line-1)">Type</text><text class="terminal-191603877-r4" x="1024.8" y="44.4" textLength="12.2" clip-path="url(#terminal-191603877-line-1)">▼</text><text class="terminal-191603877-r4" x="1061.4" y="44.4" textLength="73.2" clip-path="url(#terminal-191603877-line-1)">Status</text><text class="terminal-191603877-r4" x="1317.6" y="44.4" textLength="12.2" clip-path="url(#terminal-191603877-line-1)">▼</text><text class="terminal-191603877-r2" x="1354.2" y="44.4" textLength="97.6" clip-path="url(#terminal-191603877-line-1)">&#160;Search&#160;</text><text class="terminal-191603877-r1" x="1464" y="44.4" textLength="12.2" clip-path="url(#terminal-191603877-line-1)">
</text><text class="terminal-191603877-r1" x="1464" y="68.8" textLength="12.2" clip-path="url(#terminal-191603877-line-2)">
</text><text class="terminal-191603877-r5" x="12.2" y="93.2" textLength="85.4" clip-path="url(#terminal-191603877-line-3)">Created</text><text class="terminal-191603877-r3" x="244" y="93.2" textLength="12.2" clip-path="url(#terminal-191603877-line-3)">▼</text><text class="terminal-191603877-r2" x="280.6" y="93.2" textLength="36.6" clip-path="url(#terminal-191603877-line-3)">&#160;⇊&#160;</text><text class="terminal-191603877-r2" x="329.4" y="93.2" textLength="36.6" clip-path="url(#terminal-191603877-line-3)">&#160;↺&#160;</text><text class="terminal-191603877-r1" x="1464" y="93.2" textLength="12.2" clip-path="url(#terminal-191603877-line-3)">
</text><text class="terminal-191603877-r1" x="1464" y="117.6" textLength="12.2" clip-path="url(#terminal-191603877-line-4)">
</text><text class="terminal-191603877-r6" x="24.4" y="142" textLength="134.2" clip-path="url(#terminal-191603877-line-5)">[Bug]&#160;ENG-8</text><text class="terminal-191603877-r7" x="353.8" y="142" textLength="12.2" clip-path="url(#terminal-191603877-line-5)">▆</text><text class="terminal-191603877-r1" x="1464" y="142" textLength="12.2" clip-path="url(#terminal-191603877-line-5)">
</text><text class="terminal-191603877-r8" x="24.4" y="166.4" textLength="219.6" clip-path="url(#terminal-191603877-line-6)">Coordinate&#160;monster</text><text class="terminal-191603877-r1" x="1464" y="166.4" textLength="12.2" clip-path="url(#terminal-191603877-line-6)">
</text><text class="terminal-191603877-r8" x="24.4" y="190.8" textLength="244" clip-path="url(#terminal-191603877-line-7)">rollout&#160;dependencies</text><text class="terminal-191603877-r1" x="1464" y="190.8" textLength="12.2" clip-path="url(#terminal-191603877-line-7)">
</text><text class="terminal-191603877-r6" x="24.4" y="215.2" textLength="256.2" clip-path="url(#terminal-191603877-line-8)">Medium&#160;•&#160;To&#160;Do&#160;•&#160;Rook</text><text class="terminal-191603877-r1" x="1464" y="215.2" textLength="12.2" clip-path="url(#terminal-191603877-line-8)">
</text><text class="terminal-191603877-r6" x="24.4" y="239.6" textLength="61" clip-path="url(#terminal-191603877-line-9)">Hydra</text><text class="terminal-191603877-r1" x="1464" y="239.6" textLength="12.2" clip-path="url(#terminal-191603877-line-9)">
</text><text class="terminal-191603877-r1" x="1464" y="264" textLength="12.2" clip-path="url(#terminal-191603877-line-10)">
</text><text class="terminal-191603877-r1" x="1464" y="288.4" textLength="12.2" clip-path="url(#terminal-191603877-line-11)">
</text><text class="terminal-191603877-r1" x="1464" y="312.8" textLength="12.2" clip-path="url(#terminal-191603877-line-12)">
</text><text class="terminal-191603877-r6" x="24.4" y="337.2" textLength="158.6" clip-path="url(#terminal-191603877-line-13)">[Story]&#160;ENG-7</text><text class="terminal-191603877-r1" x="1464" y="337.2" textLength="12.2" clip-path="url(#terminal-191603877-line-13)">
</text><text class="terminal-191603877-r8" x="24.4" y="361.6" textLength="292.8" clip-path="url(#terminal-191603877-line-14)">Audit&#160;night-shift&#160;alerts</text><text class="terminal-191603877-r10" x="353.8" y="361.6" textLength="12.2" clip-path="url(#terminal-191603877-line-14)">▃</text><text class="terminal-191603877-r1" x="1464" y="361.6" textLength="12.2" clip-path="url(#terminal-191603877-line-14)">
</text><text class="terminal-191603877-r8" x="24.4" y="386" textLength="268.4" clip-path="url(#terminal-191603877-line-15)">for&#160;monster&#160;bay&#160;builds</text><text class="terminal-191603877-r1" x="1464" y="386" textLength="12.2" clip-path="url(#terminal-191603877-line-15)">
</text><text class="terminal-191603877-r6" x="24.4" y="410.4" textLength="292.8" clip-path="url(#terminal-191603877-line-16)">Low&#160;•&#160;To&#160;Do&#160;•&#160;Rook&#160;Hydra</text><text class="terminal-191603877-r1" x="1464" y="410.4" textLength="12.2" clip-path="url(#terminal-191603877-line-16)">
</text><text class="terminal-191603877-r1" x="1464" y="434.8" textLength="12.2" clip-path="url(#terminal-191603877-line-17)">
</text><text class="terminal-191603877-r1" x="1464" y="459.2" textLength="12.2" clip-path="url(#terminal-191603877-line-18)">
</text><text class="terminal-191603877-r1" x="1464" y="483.6" textLength="12.2" clip-path="url(#terminal-191603877-line-19)">
</text><text class="terminal-191603877-r6" x="24.4" y="508" textLength="195.2" clip-path="url(#terminal-191603877-line-20)">[Sub-task]&#160;ENG-6</text><text class="terminal-191603877-r1" x="1464" y="508" textLength="12.2" clip-path="url(#terminal-191603877-line-20)">
</text><text class="terminal-191603877-r8" x="24.4" y="532.4" textLength="292.8" clip-path="url(#terminal-191603877-line-21)">Verify&#160;rollback&#160;path&#160;for</text><text class="terminal-191603877-r1" x="1464" y="532.4" textLength="12.2" clip-path="url(#terminal-191603877-line-21)">
</text><text class="terminal-191603877-r8" x="24.4" y="556.8" textLength="268.4" clip-path="url(#terminal-191603877-line-22)">claw&#160;actuator&#160;firmware</text><text class="terminal-191603877-r1" x="1464" y="556.8" textLength="12.2" clip-path="url(#terminal-191603877-line-22)">
</text><text class="terminal-191603877-r8" x="24.4" y="581.2" textLength="85.4" clip-path="url(#terminal-191603877-line-23)">rollout</text><text class="terminal-191603877-r1" x="1464" y="581.2" textLength="12.2" clip-path="url(#terminal-191603877-line-23)">
</text><text class="terminal-191603877-r6" x="24.4" y="605.6" textLength="231.8" clip-path="url(#terminal-191603877-line-24)">Medium&#160;•&#160;Done&#160;•&#160;Nyx</text><text class="terminal-191603877-r1" x="1464" y="605.6" textLength="12.2" clip-path="url(#terminal-191603877-line-24)">
</text><text class="terminal-191603877-r6" x="24.4" y="630" textLength="97.6" clip-path="url(#terminal-191603877-line-25)">Basilisk</text><text class="terminal-191603877-r1" x="1464" y="630" textLength="12.2" clip-path="url(#terminal-191603877-line-25)">
</text><text class="terminal-191603877-r1" x="1464" y="654.4" textLength="12.2" clip-path="url(#terminal-191603877-line-26)">
</text><text class="terminal-191603877-r1" x="1464" y="678.8" textLength="12.2" clip-path="url(#terminal-191603877-line-27)">
</text><text class="terminal-191603877-r1" x="1464" y="703.2" textLength="12.2" clip-path="url(#terminal-191603877-line-28)">
</text><text class="terminal-191603877-r6" x="24.4" y="727.6" textLength="134.2" clip-path="url(#terminal-191603877-line-29)">[Bug]&#160;ENG-5</text><text class="terminal-191603877-r1" x="1464" y="727.6" textLength="12.2" clip-path="url(#terminal-191603877-line-29)">
</text><text class="terminal-191603877-r12" x="24.4" y="752" textLength="244" clip-path="url(#terminal-191603877-line-30)">Fix&#160;jaw&#160;servo&#160;jitter</text><text class="terminal-191603877-r1" x="1464" y="752" textLength="12.2" clip-path="url(#terminal-191603877-line-30)">
</text><text class="terminal-191603877-r12" x="24.4" y="776.4" textLength="195.2" clip-path="url(#terminal-191603877-line-31)">during&#160;fog&#160;burst</text><text class="terminal-191603877-r1" x="1464" y="776.4" textLength="12.2" clip-path="url(#terminal-191603877-line-31)">
</text><text class="terminal-191603877-r12" x="24.4" y="800.8" textLength="183" clip-path="url(#terminal-191603877-line-32)">synchronization</text><text class="terminal-191603877-r1" x="1464" y="800.8" textLength="12.2" clip-path="url(#terminal-191603877-line-32)">
</text><text class="terminal-191603877-r6" x="24.4" y="825.2" textLength="292.8" clip-path="url(#terminal-191603877-line-33)">High&#160;•&#160;In&#160;Progress&#160;•&#160;Nyx</text><text class="terminal-191603877-r1" x="1464" y="825.2" textLength="12.2" clip-path="url(#terminal-191603877-line-33)">
</text><text class="terminal-191603877-r6" x="24.4" y="849.6" textLength="97.6" clip-path="url(#terminal-191603877-line-34)">Basilisk</text><text class="terminal-191603877-r1" x="1464" y="849.6" textLength="12.2" clip-path="url(#terminal-191603877-line-34)">
</text><text class="terminal-191603877-r1" x="1464" y="874" textLength="12.2" clip-path="url(#terminal-191603877-line-35)">
</text><text class="terminal-191603877-r1" x="1464" y="898.4" textLength="12.2" clip-path="url(#terminal-191603877-line-36)">
</text><text class="terminal-191603877-r13" x="85.4" y="922.8" textLength="36.6" clip-path="url(#terminal-191603877-line-37)">&#160;←&#160;</text><text class="terminal-191603877-r5" x="134.2" y="922.8" textLength="12.2" clip-path="url(#terminal-191603877-line-37)">1</text><text class="terminal-191603877-r14" x="158.6" y="922.8" textLength="85.4" clip-path="url(#terminal-191603877-line-37)">/1&#160;(12)</text><text class="terminal-191603877-r13" x="256.2" y="922.8" textLength="36.6" clip-path="url(#terminal-191603877-line-37)">&#160;→&#160;</text><text class="terminal-191603877-r1" x="1464" y="922.8" textLength="12.2" clip-path="url(#terminal-191603877-line-37)">
</text><text class="terminal-191603877-r1" x="1464" y="947.2" textLength="12.2" clip-path="url(#terminal-191603877-line-38)">
</text><text class="terminal-191603877-r15" x="0" y="971.6" textLength="48.8" clip-path="url(#terminal-191603877-line-39)">&#160;^b&#160;</text><text class="terminal-191603877-r16" x="48.8" y="971.6" textLength="73.2" clip-path="url(#terminal-191603877-line-39)">Clone&#160;</text><text class="terminal-191603877-r15" x="122" y="971.6" textLength="48.8" clip-path="url(#terminal-191603877-line-39)">&#160;^y&#160;</text><text class="terminal-191603877-r16" x="170.8" y="971.6" textLength="109.8" clip-path="url(#terminal-191603877-line-39)">Copy&#160;Key&#160;</text><text class="terminal-191603877-r15" x="280.6" y="971.6" textLength="48.8" clip-path="url(#terminal-191603877-line-39)">&#160;^u&#160;</text><text class="terminal-191603877-r16" x="329.4" y="971.6" textLength="109.8" clip-path="url(#terminal-191603877-line-39)">Copy&#160;URL&#160;</text><text class="terminal-191603877-r15" x="439.2" y="971.6" textLength="48.8" clip-path="url(#terminal-191603877-line-39)">&#160;^j&#160;</text><text class="terminal-191603877-r16" x="488" y="971.6" textLength="85.4" clip-path="url(#terminal-191603877-line-39)">Search&#160;</text><text class="terminal-191603877-r15" x="573.4" y="971.6" textLength="61" clip-path="url(#terminal-191603877-line-39)">&#160;f10&#160;</text><text class="terminal-191603877-r16" x="634.4" y="971.6" textLength="207.4" clip-path="url(#terminal-191603877-line-39)">Quick&#160;Navigation&#160;</text><text class="terminal-191603877-r15" x="841.8" y="971.6" textLength="48.8" clip-path="url(#terminal-191603877-line-39)">&#160;^n&#160;</text><text class="terminal-191603877-r16" x="890.6" y="971.6" textLength="170.8" clip-path="url(#terminal-191603877-line-39)">New&#160;Work&#160;Item&#160;</text><text class="terminal-191603877-r15" x="1061.4" y="971.6" textLength="36.6" clip-path="url(#terminal-191603877-line-39)">&#160;?&#160;</text><text class="terminal-191603877-r16" x="1098" y="971.6" textLength="61" clip-path="url(#terminal-191603877-line-39)">Help&#160;</text>
    </g>
    </g>
</svg>
