<svg class="rich-terminal" viewBox="0 0 1482 1026.0" xmlns="http://www.w3.org/2000/svg">
    <!-- Generated with Rich https://www.textualize.io -->
    <style>

    @font-face {
        font-family: "Fira Code";
        src: local("FiraCode-Regular"),
                url("https://cdnjs.cloudflare.com/ajax/libs/firacode/6.2.0/woff2/FiraCode-Regular.woff2") format("woff2"),
                url("https://cdnjs.cloudflare.com/ajax/libs/firacode/6.2.0/woff/FiraCode-Regular.woff") format("woff");
        font-style: normal;
        font-weight: 400;
    }
    @font-face {
        font-family: "Fira Code";
        src: local("FiraCode-Bold"),
                url("https://cdnjs.cloudflare.com/ajax/libs/firacode/6.2.0/woff2/FiraCode-Bold.woff2") format("woff2"),
                url("https://cdnjs.cloudflare.com/ajax/libs/firacode/6.2.0/woff/FiraCode-Bold.woff") format("woff");
        font-style: bold;
        font-weight: 700;
    }

    .terminal-2590973410-matrix {
        font-family: Fira Code, monospace;
        font-size: 20px;
        line-height: 24.4px;
        font-variant-east-asian: full-width;
    }

    .terminal-2590973410-title {
        font-size: 18px;
        font-weight: bold;
        font-family: arial;
    }

    .terminal-2590973410-r1 { fill: #e0e0e0 }
.terminal-2590973410-r2 { fill: #c5c8c6 }
.terminal-2590973410-r3 { fill: #121212;font-weight: bold }
.terminal-2590973410-r4 { fill: #252525 }
.terminal-2590973410-r5 { fill: #3b3b3b }
.terminal-2590973410-r6 { fill: #272727 }
.terminal-2590973410-r7 { fill: #212121 }
.terminal-2590973410-r8 { fill: #3f3d3a;font-weight: bold }
.terminal-2590973410-r9 { fill: #e1e1e1;font-weight: bold }
.terminal-2590973410-r10 { fill: #e0e0e0;font-weight: bold }
.terminal-2590973410-r11 { fill: #7c7c7c }
.terminal-2590973410-r12 { fill: #a5a5a5 }
.terminal-2590973410-r13 { fill: #868686 }
.terminal-2590973410-r14 { fill: #3e3e3e }
.terminal-2590973410-r15 { fill: #0178d4 }
.terminal-2590973410-r16 { fill: #e0f1e7;font-weight: bold }
.terminal-2590973410-r17 { fill: #f3e2e7;font-weight: bold }
.terminal-2590973410-r18 { fill: #2e2e2e }
    </style>

    <defs>
    <clipPath id="terminal-2590973410-clip-terminal">
      <rect x="0" y="0" width="1463.0" height="975.0" />
    </clipPath>
    <clipPath id="terminal-2590973410-line-0">
    <rect x="0" y="1.5" width="1464" height="24.65"/>
            </clipPath>
<clipPath id="terminal-2590973410-line-1">
    <rect x="0" y="25.9" width="1464" height="24.65"/>
            </clipPath>
<clipPath id="terminal-2590973410-line-2">
    <rect x="0" y="50.3" width="1464" height="24.65"/>
            </clipPath>
<clipPath id="terminal-2590973410-line-3">
    <rect x="0" y="74.7" width="1464" height="24.65"/>
            </clipPath>
<clipPath id="terminal-2590973410-line-4">
    <rect x="0" y="99.1" width="1464" height="24.65"/>
            </clipPath>
<clipPath id="terminal-2590973410-line-5">
    <rect x="0" y="123.5" width="1464" height="24.65"/>
            </clipPath>
<clipPath id="terminal-2590973410-line-6">
    <rect x="0" y="147.9" width="1464" height="24.65"/>
            </clipPath>
<clipPath id="terminal-2590973410-line-7">
    <rect x="0" y="172.3" width="1464" height="24.65"/>
            </clipPath>
<clipPath id="terminal-2590973410-line-8">
    <rect x="0" y="196.7" width="1464" height="24.65"/>
            </clipPath>
<clipPath id="terminal-2590973410-line-9">
    <rect x="0" y="221.1" width="1464" height="24.65"/>
            </clipPath>
<clipPath id="terminal-2590973410-line-10">
    <rect x="0" y="245.5" width="1464" height="24.65"/>
            </clipPath>
<clipPath id="terminal-2590973410-line-11">
    <rect x="0" y="269.9" width="1464" height="24.65"/>
            </clipPath>
<clipPath id="terminal-2590973410-line-12">
    <rect x="0" y="294.3" width="1464" height="24.65"/>
            </clipPath>
<clipPath id="terminal-2590973410-line-13">
    <rect x="0" y="318.7" width="1464" height="24.65"/>
            </clipPath>
<clipPath id="terminal-2590973410-line-14">
    <rect x="0" y="343.1" width="1464" height="24.65"/>
            </clipPath>
<clipPath id="terminal-2590973410-line-15">
    <rect x="0" y="367.5" width="1464" height="24.65"/>
            </clipPath>
<clipPath id="terminal-2590973410-line-16">
    <rect x="0" y="391.9" width="1464" height="24.65"/>
            </clipPath>
<clipPath id="terminal-2590973410-line-17">
    <rect x="0" y="416.3" width="1464" height="24.65"/>
            </clipPath>
<clipPath id="terminal-2590973410-line-18">
    <rect x="0" y="440.7" width="1464" height="24.65"/>
            </clipPath>
<clipPath id="terminal-2590973410-line-19">
    <rect x="0" y="465.1" width="1464" height="24.65"/>
            </clipPath>
<clipPath id="terminal-2590973410-line-20">
    <rect x="0" y="489.5" width="1464" height="24.65"/>
            </clipPath>
<clipPath id="terminal-2590973410-line-21">
    <rect x="0" y="513.9" width="1464" height="24.65"/>
            </clipPath>
<clipPath id="terminal-2590973410-line-22">
    <rect x="0" y="538.3" width="1464" height="24.65"/>
            </clipPath>
<clipPath id="terminal-2590973410-line-23">
    <rect x="0" y="562.7" width="1464" height="24.65"/>
            </clipPath>
<clipPath id="terminal-2590973410-line-24">
    <rect x="0" y="587.1" width="1464" height="24.65"/>
            </clipPath>
<clipPath id="terminal-2590973410-line-25">
    <rect x="0" y="611.5" width="1464" height="24.65"/>
            </clipPath>
<clipPath id="terminal-2590973410-line-26">
    <rect x="0" y="635.9" width="1464" height="24.65"/>
            </clipPath>
<clipPath id="terminal-2590973410-line-27">
    <rect x="0" y="660.3" width="1464" height="24.65"/>
            </clipPath>
<clipPath id="terminal-2590973410-line-28">
    <rect x="0" y="684.7" width="1464" height="24.65"/>
            </clipPath>
<clipPath id="terminal-2590973410-line-29">
    <rect x="0" y="709.1" width="1464" height="24.65"/>
            </clipPath>
<clipPath id="terminal-2590973410-line-30">
    <rect x="0" y="733.5" width="1464" height="24.65"/>
            </clipPath>
<clipPath id="terminal-2590973410-line-31">
    <rect x="0" y="757.9" width="1464" height="24.65"/>
            </clipPath>
<clipPath id="terminal-2590973410-line-32">
    <rect x="0" y="782.3" width="1464" height="24.65"/>
            </clipPath>
<clipPath id="terminal-2590973410-line-33">
    <rect x="0" y="806.7" width="1464" height="24.65"/>
            </clipPath>
<clipPath id="terminal-2590973410-line-34">
    <rect x="0" y="831.1" width="1464" height="24.65"/>
            </clipPath>
<clipPath id="terminal-2590973410-line-35">
    <rect x="0" y="855.5" width="1464" height="24.65"/>
            </clipPath>
<clipPath id="terminal-2590973410-line-36">
    <rect x="0" y="879.9" width="1464" height="24.65"/>
            </clipPath>
<clipPath id="terminal-2590973410-line-37">
    <rect x="0" y="904.3" width="1464" height="24.65"/>
            </clipPath>
<clipPath id="terminal-2590973410-line-38">
    <rect x="0" y="928.7" width="1464" height="24.65"/>
            </clipPath>
    </defs>

    <rect fill="#292929" stroke="rgba(255,255,255,0.35)" stroke-width="1" x="1" y="1" width="1480" height="1024" rx="8"/><text class="terminal-2590973410-title" fill="#c5c8c6" text-anchor="middle" x="740" y="27">gojeera</text>
            <g transform="translate(26,22)">
            <circle cx="0" cy="0" r="7" fill="#ff5f57"/>
            <circle cx="22" cy="0" r="7" fill="#febc2e"/>
            <circle cx="44" cy="0" r="7" fill="#28c840"/>
            </g>
        
    <g transform="translate(9, 41)" clip-path="url(#terminal-2590973410-clip-terminal)">
    <rect fill="#121212" x="0" y="1.5" width="1464" height="24.65" shape-rendering="crispEdges"/><rect fill="#121212" x="0" y="25.9" width="12.2" height="24.65" shape-rendering="crispEdges"/><rect fill="#102738" x="12.2" y="25.9" width="12.2" height="24.65" shape-rendering="crispEdges"/><rect fill="#102738" x="24.4" y="25.9" width="61" height="24.65" shape-rendering="crispEdges"/><rect fill="#102738" x="85.4" y="25.9" width="85.4" height="24.65" shape-rendering="crispEdges"/><rect fill="#102738" x="170.8" y="25.9" width="12.2" height="24.65" shape-rendering="crispEdges"/><rect fill="#102738" x="183" y="25.9" width="12.2" height="24.65" shape-rendering="crispEdges"/><rect fill="#121212" x="195.2" y="25.9" width="12.2" height="24.65" shape-rendering="crispEdges"/><rect fill="#141414" x="207.4" y="25.9" width="36.6" height="24.65" shape-rendering="crispEdges"/><rect fill="#141414" x="244" y="25.9" width="170.8" height="24.65" shape-rendering="crispEdges"/><rect fill="#121212" x="414.8" y="25.9" width="12.2" height="24.65" shape-rendering="crispEdges"/><rect fill="#141414" x="427" y="25.9" width="85.4" height="24.65" shape-rendering="crispEdges"/><rect fill="#141414" x="512.4" y="25.9" width="109.8" height="24.65" shape-rendering="crispEdges"/><rect fill="#141414" x="622.2" y="25.9" width="12.2" height="24.65" shape-rendering="crispEdges"/><rect fill="#141414" x="634.4" y="25.9" width="12.2" height="24.65" shape-rendering="crispEdges"/><rect fill="#121212" x="646.6" y="25.9" width="12.2" height="24.65" shape-rendering="crispEdges"/><rect fill="#131313" x="658.8" y="25.9" width="97.6" height="24.65" shape-rendering="crispEdges"/><rect fill="#131313" x="756.4" y="25.9" width="97.6" height="24.65" shape-rendering="crispEdges"/><rect fill="#131313" x="854" y="25.9" width="12.2" height="24.65" shape-rendering="crispEdges"/><rect fill="#131313" x="866.2" y="25.9" width="12.2" height="24.65" shape-rendering="crispEdges"/><rect fill="#121212" x="878.4" y="25.9" width="12.2" height="24.65" shape-rendering="crispEdges"/><rect fill="#131313" x="890.6" y="25.9" width="48.8" height="24.65" shape-rendering="crispEdges"/><rect fill="#131313" x="939.4" y="25.9" width="146.4" height="24.65" shape-rendering="crispEdges"/><rect fill="#131313" x="1085.8" y="25.9" width="12.2" height="24.65" shape-rendering="crispEdges"/><rect fill="#131313" x="1098" y="25.9" width="12.2" height="24.65" shape-rendering="crispEdges"/><rect fill="#121212" x="1110.2" y="25.9" width="12.2" height="24.65" shape-rendering="crispEdges"/><rect fill="#131313" x="1122.4" y="25.9" width="73.2" height="24.65" shape-rendering="crispEdges"/><rect fill="#131313" x="1195.6" y="25.9" width="122" height="24.65" shape-rendering="crispEdges"/><rect fill="#131313" x="1317.6" y="25.9" width="12.2" height="24.65" shape-rendering="crispEdges"/><rect fill="#131313" x="1329.8" y="25.9" width="12.2" height="24.65" shape-rendering="crispEdges"/><rect fill="#121212" x="1342" y="25.9" width="12.2" height="24.65" shape-rendering="crispEdges"/><rect fill="#33230e" x="1354.2" y="25.9" width="97.6" height="24.65" shape-rendering="crispEdges"/><rect fill="#121212" x="1451.8" y="25.9" width="12.2" height="24.65" shape-rendering="crispEdges"/><rect fill="#121212" x="0" y="50.3" width="1464" height="24.65" shape-rendering="crispEdges"/><rect fill="#121212" x="0" y="74.7" width="1464" height="24.65" shape-rendering="crispEdges"/><rect fill="#121212" x="0" y="99.1" width="219.6" height="24.65" shape-rendering="crispEdges"/><rect fill="#1e1e1e" x="219.6" y="99.1" width="1024.8" height="24.65" shape-rendering="crispEdges"/><rect fill="#121212" x="1244.4" y="99.1" width="219.6" height="24.65" shape-rendering="crispEdges"/><rect fill="#121212" x="0" y="123.5" width="219.6" height="24.65" shape-rendering="crispEdges"/><rect fill="#1e1e1e" x="219.6" y="123.5" width="414.8" height="24.65" shape-rendering="crispEdges"/><rect fill="#1e1e1e" x="634.4" y="123.5" width="195.2" height="24.65" shape-rendering="crispEdges"/><rect fill="#1e1e1e" x="829.6" y="123.5" width="414.8" height="24.65" shape-rendering="crispEdges"/><rect fill="#121212" x="1244.4" y="123.5" width="219.6" height="24.65" shape-rendering="crispEdges"/><rect fill="#121212" x="0" y="147.9" width="219.6" height="24.65" shape-rendering="crispEdges"/><rect fill="#1e1e1e" x="219.6" y="147.9" width="1024.8" height="24.65" shape-rendering="crispEdges"/><rect fill="#121212" x="1244.4" y="147.9" width="219.6" height="24.65" shape-rendering="crispEdges"/><rect fill="#121212" x="0" y="172.3" width="219.6" height="24.65" shape-rendering="crispEdges"/><rect fill="#1e1e1e" x="219.6" y="172.3" width="1024.8" height="24.65" shape-rendering="crispEdges"/><rect fill="#121212" x="1244.4" y="172.3" width="219.6" height="24.65" shape-rendering="crispEdges"/><rect fill="#121212" x="0" y="196.7" width="219.6" height="24.65" shape-rendering="crispEdges"/><rect fill="#1e1e1e" x="219.6" y="196.7" width="24.4" height="24.65" shape-rendering="crispEdges"/><rect fill="#1e1e1e" x="244" y="196.7" width="170.8" height="24.65" shape-rendering="crispEdges"/><rect fill="#1e1e1e" x="414.8" y="196.7" width="329.4" height="24.65" shape-rendering="crispEdges"/><rect fill="#1e1e1e" x="744.2" y="196.7" width="170.8" height="24.65" shape-rendering="crispEdges"/><rect fill="#1e1e1e" x="915" y="196.7" width="329.4" height="24.65" shape-rendering="crispEdges"/><rect fill="#121212" x="1244.4" y="196.7" width="219.6" height="24.65" shape-rendering="crispEdges"/><rect fill="#121212" x="0" y="221.1" width="219.6" height="24.65" shape-rendering="crispEdges"/><rect fill="#1e1e1e" x="219.6" y="221.1" width="24.4" height="24.65" shape-rendering="crispEdges"/><rect fill="#353535" x="244" y="221.1" width="488" height="24.65" shape-rendering="crispEdges"/><rect fill="#1e1e1e" x="732" y="221.1" width="12.2" height="24.65" shape-rendering="crispEdges"/><rect fill="#2d2d2d" x="744.2" y="221.1" width="170.8" height="24.65" shape-rendering="crispEdges"/><rect fill="#2d2d2d" x="915" y="221.1" width="305" height="24.65" shape-rendering="crispEdges"/><rect fill="#1e1e1e" x="1220" y="221.1" width="24.4" height="24.65" shape-rendering="crispEdges"/><rect fill="#121212" x="1244.4" y="221.1" width="219.6" height="24.65" shape-rendering="crispEdges"/><rect fill="#121212" x="0" y="245.5" width="219.6" height="24.65" shape-rendering="crispEdges"/><rect fill="#1e1e1e" x="219.6" y="245.5" width="1024.8" height="24.65" shape-rendering="crispEdges"/><rect fill="#121212" x="1244.4" y="245.5" width="219.6" height="24.65" shape-rendering="crispEdges"/><rect fill="#121212" x="0" y="269.9" width="219.6" height="24.65" shape-rendering="crispEdges"/><rect fill="#1e1e1e" x="219.6" y="269.9" width="24.4" height="24.65" shape-rendering="crispEdges"/><rect fill="#1e1e1e" x="244" y="269.9" width="146.4" height="24.65" shape-rendering="crispEdges"/><rect fill="#1e1e1e" x="390.4" y="269.9" width="854" height="24.65" shape-rendering="crispEdges"/><rect fill="#121212" x="1244.4" y="269.9" width="219.6" height="24.65" shape-rendering="crispEdges"/><rect fill="#121212" x="0" y="294.3" width="219.6" height="24.65" shape-rendering="crispEdges"/><rect fill="#1e1e1e" x="219.6" y="294.3" width="24.4" height="24.65" shape-rendering="crispEdges"/><rect fill="#2d2d2d" x="244" y="294.3" width="122" height="24.65" shape-rendering="crispEdges"/><rect fill="#2d2d2d" x="366" y="294.3" width="12.2" height="24.65" shape-rendering="crispEdges"/><rect fill="#2d2d2d" x="378.2" y="294.3" width="841.8" height="24.65" shape-rendering="crispEdges"/><rect fill="#1e1e1e" x="1220" y="294.3" width="24.4" height="24.65" shape-rendering="crispEdges"/><rect fill="#121212" x="1244.4" y="294.3" width="219.6" height="24.65" shape-rendering="crispEdges"/><rect fill="#121212" x="0" y="318.7" width="219.6" height="24.65" shape-rendering="crispEdges"/><rect fill="#1e1e1e" x="219.6" y="318.7" width="24.4" height="24.65" shape-rendering="crispEdges"/><rect fill="#1e1e1e" x="244" y="318.7" width="524.6" height="24.65" shape-rendering="crispEdges"/><rect fill="#1e1e1e" x="768.6" y="318.7" width="475.8" height="24.65" shape-rendering="crispEdges"/><rect fill="#121212" x="1244.4" y="318.7" width="219.6" height="24.65" shape-rendering="crispEdges"/><rect fill="#121212" x="0" y="343.1" width="219.6" height="24.65" shape-rendering="crispEdges"/><rect fill="#1e1e1e" x="219.6" y="343.1" width="1024.8" height="24.65" shape-rendering="crispEdges"/><rect fill="#121212" x="1244.4" y="343.1" width="219.6" height="24.65" shape-rendering="crispEdges"/><rect fill="#121212" x="0" y="367.5" width="219.6" height="24.65" shape-rendering="crispEdges"/><rect fill="#1e1e1e" x="219.6" y="367.5" width="1024.8" height="24.65" shape-rendering="crispEdges"/><rect fill="#121212" x="1244.4" y="367.5" width="219.6" height="24.65" shape-rendering="crispEdges"/><rect fill="#121212" x="0" y="391.9" width="219.6" height="24.65" shape-rendering="crispEdges"/><rect fill="#1e1e1e" x="219.6" y="391.9" width="24.4" height="24.65" shape-rendering="crispEdges"/><rect fill="#1e1e1e" x="244" y="391.9" width="195.2" height="24.65" shape-rendering="crispEdges"/><rect fill="#1e1e1e" x="439.2" y="391.9" width="805.2" height="24.65" shape-rendering="crispEdges"/><rect fill="#121212" x="1244.4" y="391.9" width="219.6" height="24.65" shape-rendering="crispEdges"/><rect fill="#121212" x="0" y="416.3" width="219.6" height="24.65" shape-rendering="crispEdges"/><rect fill="#1e1e1e" x="219.6" y="416.3" width="24.4" height="24.65" shape-rendering="crispEdges"/><rect fill="#2d2d2d" x="244" y="416.3" width="12.2" height="24.65" shape-rendering="crispEdges"/><rect fill="#2d2d2d" x="256.2" y="416.3" width="48.8" height="24.65" shape-rendering="crispEdges"/><rect fill="#2d2d2d" x="305" y="416.3" width="24.4" height="24.65" shape-rendering="crispEdges"/><rect fill="#2d2d2d" x="329.4" y="416.3" width="85.4" height="24.65" shape-rendering="crispEdges"/><rect fill="#2d2d2d" x="414.8" y="416.3" width="805.2" height="24.65" shape-rendering="crispEdges"/><rect fill="#1e1e1e" x="1220" y="416.3" width="24.4" height="24.65" shape-rendering="crispEdges"/><rect fill="#121212" x="1244.4" y="416.3" width="219.6" height="24.65" shape-rendering="crispEdges"/><rect fill="#121212" x="0" y="440.7" width="219.6" height="24.65" shape-rendering="crispEdges"/><rect fill="#1e1e1e" x="219.6" y="440.7" width="24.4" height="24.65" shape-rendering="crispEdges"/><rect fill="#2d2d2d" x="244" y="440.7" width="12.2" height="24.65" shape-rendering="crispEdges"/><rect fill="#2d2d2d" x="256.2" y="440.7" width="48.8" height="24.65" shape-rendering="crispEdges"/><rect fill="#2d2d2d" x="305" y="440.7" width="915" height="24.65" shape-rendering="crispEdges"/><rect fill="#1e1e1e" x="1220" y="440.7" width="24.4" height="24.65" shape-rendering="crispEdges"/><rect fill="#121212" x="1244.4" y="440.7" width="219.6" height="24.65" shape-rendering="crispEdges"/><rect fill="#121212" x="0" y="465.1" width="219.6" height="24.65" shape-rendering="crispEdges"/><rect fill="#1e1e1e" x="219.6" y="465.1" width="24.4" height="24.65" shape-rendering="crispEdges"/><rect fill="#353535" x="244" y="465.1" width="976" height="24.65" shape-rendering="crispEdges"/><rect fill="#1e1e1e" x="1220" y="465.1" width="24.4" height="24.65" shape-rendering="crispEdges"/><rect fill="#121212" x="1244.4" y="465.1" width="219.6" height="24.65" shape-rendering="crispEdges"/><rect fill="#121212" x="0" y="489.5" width="219.6" height="24.65" shape-rendering="crispEdges"/><rect fill="#1e1e1e" x="219.6" y="489.5" width="24.4" height="24.65" shape-rendering="crispEdges"/><rect fill="#2d2d2d" x="244" y="489.5" width="976" height="24.65" shape-rendering="crispEdges"/><rect fill="#1e1e1e" x="1220" y="489.5" width="24.4" height="24.65" shape-rendering="crispEdges"/><rect fill="#121212" x="1244.4" y="489.5" width="219.6" height="24.65" shape-rendering="crispEdges"/><rect fill="#121212" x="0" y="513.9" width="219.6" height="24.65" shape-rendering="crispEdges"/><rect fill="#1e1e1e" x="219.6" y="513.9" width="24.4" height="24.65" shape-rendering="crispEdges"/><rect fill="#2d2d2d" x="244" y="513.9" width="976" height="24.65" shape-rendering="crispEdges"/><rect fill="#1e1e1e" x="1220" y="513.9" width="24.4" height="24.65" shape-rendering="crispEdges"/><rect fill="#121212" x="1244.4" y="513.9" width="219.6" height="24.65" shape-rendering="crispEdges"/><rect fill="#121212" x="0" y="538.3" width="219.6" height="24.65" shape-rendering="crispEdges"/><rect fill="#1e1e1e" x="219.6" y="538.3" width="24.4" height="24.65" shape-rendering="crispEdges"/><rect fill="#2d2d2d" x="244" y="538.3" width="976" height="24.65" shape-rendering="crispEdges"/><rect fill="#1e1e1e" x="1220" y="538.3" width="24.4" height="24.65" shape-rendering="crispEdges"/><rect fill="#121212" x="1244.4" y="538.3" width="219.6" height="24.65" shape-rendering="crispEdges"/><rect fill="#121212" x="0" y="562.7" width="219.6" height="24.65" shape-rendering="crispEdges"/><rect fill="#1e1e1e" x="219.6" y="562.7" width="24.4" height="24.65" shape-rendering="crispEdges"/><rect fill="#2d2d2d" x="244" y="562.7" width="976" height="24.65" shape-rendering="crispEdges"/><rect fill="#1e1e1e" x="1220" y="562.7" width="24.4" height="24.65" shape-rendering="crispEdges"/><rect fill="#121212" x="1244.4" y="562.7" width="219.6" height="24.65" shape-rendering="crispEdges"/><rect fill="#121212" x="0" y="587.1" width="219.6" height="24.65" shape-rendering="crispEdges"/><rect fill="#1e1e1e" x="219.6" y="587.1" width="24.4" height="24.65" shape-rendering="crispEdges"/><rect fill="#2d2d2d" x="244" y="587.1" width="976" height="24.65" shape-rendering="crispEdges"/><rect fill="#1e1e1e" x="1220" y="587.1" width="24.4" height="24.65" shape-rendering="crispEdges"/><rect fill="#121212" x="1244.4" y="587.1" width="219.6" height="24.65" shape-rendering="crispEdges"/><rect fill="#121212" x="0" y="611.5" width="219.6" height="24.65" shape-rendering="crispEdges"/><rect fill="#1e1e1e" x="219.6" y="611.5" width="24.4" height="24.65" shape-rendering="crispEdges"/><rect fill="#2d2d2d" x="244" y="611.5" width="976" height="24.65" shape-rendering="crispEdges"/><rect fill="#1e1e1e" x="1220" y="611.5" width="24.4" height="24.65" shape-rendering="crispEdges"/><rect fill="#121212" x="1244.4" y="611.5" width="219.6" height="24.65" shape-rendering="crispEdges"/><rect fill="#121212" x="0" y="635.9" width="219.6" height="24.65" shape-rendering="crispEdges"/><rect fill="#1e1e1e" x="219.6" y="635.9" width="24.4" height="24.65" shape-rendering="crispEdges"/><rect fill="#2d2d2d" x="244" y="635.9" width="976" height="24.65" shape-rendering="crispEdges"/><rect fill="#1e1e1e" x="1220" y="635.9" width="24.4" height="24.65" shape-rendering="crispEdges"/><rect fill="#121212" x="1244.4" y="635.9" width="219.6" height="24.65" shape-rendering="crispEdges"/><rect fill="#121212" x="0" y="660.3" width="219.6" height="24.65" shape-rendering="crispEdges"/><rect fill="#1e1e1e" x="219.6" y="660.3" width="24.4" height="24.65" shape-rendering="crispEdges"/><rect fill="#2d2d2d" x="244" y="660.3" width="976" height="24.65" shape-rendering="crispEdges"/><rect fill="#1e1e1e" x="1220" y="660.3" width="24.4" height="24.65" shape-rendering="crispEdges"/><rect fill="#121212" x="1244.4" y="660.3" width="219.6" height="24.65" shape-rendering="crispEdges"/><rect fill="#121212" x="0" y="684.7" width="219.6" height="24.65" shape-rendering="crispEdges"/><rect fill="#1e1e1e" x="219.6" y="684.7" width="24.4" height="24.65" shape-rendering="crispEdges"/><rect fill="#2d2d2d" x="244" y="684.7" width="976" height="24.65" shape-rendering="crispEdges"/><rect fill="#1e1e1e" x="1220" y="684.7" width="24.4" height="24.65" shape-rendering="crispEdges"/><rect fill="#121212" x="1244.4" y="684.7" width="219.6" height="24.65" shape-rendering="crispEdges"/><rect fill="#121212" x="0" y="709.1" width="219.6" height="24.65" shape-rendering="crispEdges"/><rect fill="#1e1e1e" x="219.6" y="709.1" width="24.4" height="24.65" shape-rendering="crispEdges"/><rect fill="#2d2d2d" x="244" y="709.1" width="976" height="24.65" shape-rendering="crispEdges"/><rect fill="#1e1e1e" x="1220" y="709.1" width="24.4" height="24.65" shape-rendering="crispEdges"/><rect fill="#121212" x="1244.4" y="709.1" width="219.6" height="24.65" shape-rendering="crispEdges"/><rect fill="#121212" x="0" y="733.5" width="219.6" height="24.65" shape-rendering="crispEdges"/><rect fill="#1e1e1e" x="219.6" y="733.5" width="24.4" height="24.65" shape-rendering="crispEdges"/><rect fill="#2d2d2d" x="244" y="733.5" width="976" height="24.65" shape-rendering="crispEdges"/><rect fill="#1e1e1e" x="1220" y="733.5" width="24.4" height="24.65" shape-rendering="crispEdges"/><rect fill="#121212" x="1244.4" y="733.5" width="219.6" height="24.65" shape-rendering="crispEdges"/><rect fill="#121212" x="0" y="757.9" width="219.6" height="24.65" shape-rendering="crispEdges"/><rect fill="#1e1e1e" x="219.6" y="757.9" width="1024.8" height="24.65" shape-rendering="crispEdges"/><rect fill="#121212" x="1244.4" y="757.9" width="219.6" height="24.65" shape-rendering="crispEdges"/><rect fill="#121212" x="0" y="782.3" width="219.6" height="24.65" shape-rendering="crispEdges"/><rect fill="#1e1e1e" x="219.6" y="782.3" width="1024.8" height="24.65" shape-rendering="crispEdges"/><rect fill="#121212" x="1244.4" y="782.3" width="219.6" height="24.65" shape-rendering="crispEdges"/><rect fill="#121212" x="0" y="806.7" width="219.6" height="24.65" shape-rendering="crispEdges"/><rect fill="#1e1e1e" x="219.6" y="806.7" width="1024.8" height="24.65" shape-rendering="crispEdges"/><rect fill="#121212" x="1244.4" y="806.7" width="219.6" height="24.65" shape-rendering="crispEdges"/><rect fill="#121212" x="0" y="831.1" width="219.6" height="24.65" shape-rendering="crispEdges"/><rect fill="#1e1e1e" x="219.6" y="831.1" width="305" height="24.65" shape-rendering="crispEdges"/><rect fill="#18954b" x="524.6" y="831.1" width="61" height="24.65" shape-rendering="crispEdges"/><rect fill="#18954b" x="585.6" y="831.1" width="73.2" height="24.65" shape-rendering="crispEdges"/><rect fill="#18954b" x="658.8" y="831.1" width="61" height="24.65" shape-rendering="crispEdges"/><rect fill="#1e1e1e" x="719.8" y="831.1" width="12.2" height="24.65" shape-rendering="crispEdges"/><rect fill="#a32549" x="732" y="831.1" width="48.8" height="24.65" shape-rendering="crispEdges"/><rect fill="#a32549" x="780.8" y="831.1" width="97.6" height="24.65" shape-rendering="crispEdges"/><rect fill="#a32549" x="878.4" y="831.1" width="48.8" height="24.65" shape-rendering="crispEdges"/><rect fill="#1e1e1e" x="927.2" y="831.1" width="317.2" height="24.65" shape-rendering="crispEdges"/><rect fill="#121212" x="1244.4" y="831.1" width="219.6" height="24.65" shape-rendering="crispEdges"/><rect fill="#121212" x="0" y="855.5" width="219.6" height="24.65" shape-rendering="crispEdges"/><rect fill="#1e1e1e" x="219.6" y="855.5" width="1024.8" height="24.65" shape-rendering="crispEdges"/><rect fill="#121212" x="1244.4" y="855.5" width="219.6" height="24.65" shape-rendering="crispEdges"/><rect fill="#121212" x="0" y="879.9" width="1464" height="24.65" shape-rendering="crispEdges"/><rect fill="#121212" x="0" y="904.3" width="12.2" height="24.65" shape-rendering="crispEdges"/><rect fill="#121212" x="12.2" y="904.3" width="0" height="24.65" shape-rendering="crispEdges"/><rect fill="#121212" x="12.2" y="904.3" width="366" height="24.65" shape-rendering="crispEdges"/><rect fill="#121212" x="378.2" y="904.3" width="0" height="24.65" shape-rendering="crispEdges"/><rect fill="#121212" x="378.2" y="904.3" width="1085.8" height="24.65" shape-rendering="crispEdges"/><rect fill="#121212" x="0" y="928.7" width="183" height="24.65" shape-rendering="crispEdges"/><rect fill="#121212" x="183" y="928.7" width="0" height="24.65" shape-rendering="crispEdges"/><rect fill="#121212" x="183" y="928.7" width="195.2" height="24.65" shape-rendering="crispEdges"/><rect fill="#121212" x="378.2" y="928.7" width="1073.6" height="24.65" shape-rendering="crispEdges"/><rect fill="#121212" x="1451.8" y="928.7" width="12.2" height="24.65" shape-rendering="crispEdges"/><rect fill="#121212" x="0" y="953.1" width="1464" height="24.65" shape-rendering="crispEdges"/>
    <g class="terminal-2590973410-matrix">
    <text class="terminal-2590973410-r2" x="1464" y="20" textLength="12.2" clip-path="url(#terminal-2590973410-line-0)">
</text><text class="terminal-2590973410-r3" x="24.4" y="44.4" textLength="61" clip-path="url(#terminal-2590973410-line-1)">Basic</text><text class="terminal-2590973410-r3" x="170.8" y="44.4" textLength="12.2" clip-path="url(#terminal-2590973410-line-1)">▼</text><text class="terminal-2590973410-r4" x="207.4" y="44.4" textLength="36.6" clip-path="url(#terminal-2590973410-line-1)">KEY</text><text class="terminal-2590973410-r6" x="427" y="44.4" textLength="85.4" clip-path="url(#terminal-2590973410-line-1)">Project</text><text class="terminal-2590973410-r6" x="622.2" y="44.4" textLength="12.2" clip-path="url(#terminal-2590973410-line-1)">▼</text><text class="terminal-2590973410-r7" x="658.8" y="44.4" textLength="97.6" clip-path="url(#terminal-2590973410-line-1)">Assignee</text><text class="terminal-2590973410-r7" x="854" y="44.4" textLength="12.2" clip-path="url(#terminal-2590973410-line-1)">▼</text><text class="terminal-2590973410-r7" x="890.6" y="44.4" textLength="48.8" clip-path="url(#terminal-2590973410-line-1)">Type</text><text class="terminal-2590973410-r7" x="1085.8" y="44.4" textLength="12.2" clip-path="url(#terminal-2590973410-line-1)">▼</text><text class="terminal-2590973410-r7" x="1122.4" y="44.4" textLength="73.2" clip-path="url(#terminal-2590973410-line-1)">Status</text><text class="terminal-2590973410-r7" x="1317.6" y="44.4" textLength="12.2" clip-path="url(#terminal-2590973410-line-1)">▼</text><text class="terminal-2590973410-r8" x="1354.2" y="44.4" textLength="97.6" clip-path="url(#terminal-2590973410-line-1)">&#160;Search&#160;</text><text class="terminal-2590973410-r2" x="1464" y="44.4" textLength="12.2" clip-path="url(#terminal-2590973410-line-1)">
</text><text class="terminal-2590973410-r2" x="1464" y="68.8" textLength="12.2" clip-path="url(#terminal-2590973410-line-2)">
</text><text class="terminal-2590973410-r2" x="1464" y="93.2" textLength="12.2" clip-path="url(#terminal-2590973410-line-3)">
</text><text class="terminal-2590973410-r2" x="1464" y="117.6" textLength="12.2" clip-path="url(#terminal-2590973410-line-4)">
</text><text class="terminal-2590973410-r9" x="634.4" y="142" textLength="195.2" clip-path="url(#terminal-2590973410-line-5)">Log&#160;Work&#160;-&#160;ENG-1</text><text class="terminal-2590973410-r2" x="1464" y="142" textLength="12.2" clip-path="url(#terminal-2590973410-line-5)">
</text><text class="terminal-2590973410-r2" x="1464" y="166.4" textLength="12.2" clip-path="url(#terminal-2590973410-line-6)">
</text><text class="terminal-2590973410-r2" x="1464" y="190.8" textLength="12.2" clip-path="url(#terminal-2590973410-line-7)">
</text><text class="terminal-2590973410-r10" x="244" y="215.2" textLength="170.8" clip-path="url(#terminal-2590973410-line-8)">Time&#160;Spent&#160;(*)</text><text class="terminal-2590973410-r10" x="744.2" y="215.2" textLength="170.8" clip-path="url(#terminal-2590973410-line-8)">Time&#160;Remaining</text><text class="terminal-2590973410-r2" x="1464" y="215.2" textLength="12.2" clip-path="url(#terminal-2590973410-line-8)">
</text><text class="terminal-2590973410-r1" x="244" y="239.6" textLength="488" clip-path="url(#terminal-2590973410-line-9)">2h&#160;&#160;&#160;&#160;&#160;&#160;&#160;&#160;&#160;&#160;&#160;&#160;&#160;&#160;&#160;&#160;&#160;&#160;&#160;&#160;&#160;&#160;&#160;&#160;&#160;&#160;&#160;&#160;&#160;&#160;&#160;&#160;&#160;&#160;&#160;&#160;&#160;&#160;</text><text class="terminal-2590973410-r11" x="744.2" y="239.6" textLength="170.8" clip-path="url(#terminal-2590973410-line-9)">E.g.&#160;1d&#160;1h&#160;30m</text><text class="terminal-2590973410-r2" x="1464" y="239.6" textLength="12.2" clip-path="url(#terminal-2590973410-line-9)">
</text><text class="terminal-2590973410-r2" x="1464" y="264" textLength="12.2" clip-path="url(#terminal-2590973410-line-10)">
</text><text class="terminal-2590973410-r10" x="244" y="288.4" textLength="146.4" clip-path="url(#terminal-2590973410-line-11)">Date&#160;Started</text><text class="terminal-2590973410-r2" x="1464" y="288.4" textLength="12.2" clip-path="url(#terminal-2590973410-line-11)">
</text><text class="terminal-2590973410-r1" x="244" y="312.8" textLength="122" clip-path="url(#terminal-2590973410-line-12)">2026-02-14</text><text class="terminal-2590973410-r1" x="378.2" y="312.8" textLength="841.8" clip-path="url(#terminal-2590973410-line-12)">12:00&#160;&#160;&#160;&#160;&#160;&#160;&#160;&#160;&#160;&#160;&#160;&#160;&#160;&#160;&#160;&#160;&#160;&#160;&#160;&#160;&#160;&#160;&#160;&#160;&#160;&#160;&#160;&#160;&#160;&#160;&#160;&#160;&#160;&#160;&#160;&#160;&#160;&#160;&#160;&#160;&#160;&#160;&#160;&#160;&#160;&#160;&#160;&#160;&#160;&#160;&#160;&#160;&#160;&#160;&#160;&#160;&#160;&#160;&#160;&#160;&#160;&#160;&#160;&#160;</text><text class="terminal-2590973410-r2" x="1464" y="312.8" textLength="12.2" clip-path="url(#terminal-2590973410-line-12)">
</text><text class="terminal-2590973410-r12" x="244" y="337.2" textLength="524.6" clip-path="url(#terminal-2590973410-line-13)">w&#160;=&#160;week&#160;|&#160;d&#160;=&#160;day&#160;|&#160;h&#160;=&#160;hour&#160;|&#160;m&#160;=&#160;minutes</text><text class="terminal-2590973410-r2" x="1464" y="337.2" textLength="12.2" clip-path="url(#terminal-2590973410-line-13)">
</text><text class="terminal-2590973410-r2" x="1464" y="361.6" textLength="12.2" clip-path="url(#terminal-2590973410-line-14)">
</text><text class="terminal-2590973410-r2" x="1464" y="386" textLength="12.2" clip-path="url(#terminal-2590973410-line-15)">
</text><text class="terminal-2590973410-r10" x="244" y="410.4" textLength="195.2" clip-path="url(#terminal-2590973410-line-16)">Work&#160;Description</text><text class="terminal-2590973410-r2" x="1464" y="410.4" textLength="12.2" clip-path="url(#terminal-2590973410-line-16)">
</text><text class="terminal-2590973410-r1" x="256.2" y="434.8" textLength="48.8" clip-path="url(#terminal-2590973410-line-17)">Edit</text><text class="terminal-2590973410-r13" x="329.4" y="434.8" textLength="85.4" clip-path="url(#terminal-2590973410-line-17)">Preview</text><text class="terminal-2590973410-r2" x="1464" y="434.8" textLength="12.2" clip-path="url(#terminal-2590973410-line-17)">
</text><text class="terminal-2590973410-r14" x="244" y="459.2" textLength="12.2" clip-path="url(#terminal-2590973410-line-18)">╸</text><text class="terminal-2590973410-r15" x="256.2" y="459.2" textLength="48.8" clip-path="url(#terminal-2590973410-line-18)">━━━━</text><text class="terminal-2590973410-r14" x="305" y="459.2" textLength="915" clip-path="url(#terminal-2590973410-line-18)">╺━━━━━━━━━━━━━━━━━━━━━━━━━━━━━━━━━━━━━━━━━━━━━━━━━━━━━━━━━━━━━━━━━━━━━━━━━━</text><text class="terminal-2590973410-r2" x="1464" y="459.2" textLength="12.2" clip-path="url(#terminal-2590973410-line-18)">
</text><text class="terminal-2590973410-r2" x="1464" y="483.6" textLength="12.2" clip-path="url(#terminal-2590973410-line-19)">
</text><text class="terminal-2590973410-r2" x="1464" y="508" textLength="12.2" clip-path="url(#terminal-2590973410-line-20)">
</text><text class="terminal-2590973410-r2" x="1464" y="532.4" textLength="12.2" clip-path="url(#terminal-2590973410-line-21)">
</text><text class="terminal-2590973410-r2" x="1464" y="556.8" textLength="12.2" clip-path="url(#terminal-2590973410-line-22)">
</text><text class="terminal-2590973410-r2" x="1464" y="581.2" textLength="12.2" clip-path="url(#terminal-2590973410-line-23)">
</text><text class="terminal-2590973410-r2" x="1464" y="605.6" textLength="12.2" clip-path="url(#terminal-2590973410-line-24)">
</text><text class="terminal-2590973410-r2" x="1464" y="630" textLength="12.2" clip-path="url(#terminal-2590973410-line-25)">
</text><text class="terminal-2590973410-r2" x="1464" y="654.4" textLength="12.2" clip-path="url(#terminal-2590973410-line-26)">
</text><text class="terminal-2590973410-r2" x="1464" y="678.8" textLength="12.2" clip-path="url(#terminal-2590973410-line-27)">
</text><text class="terminal-2590973410-r2" x="1464" y="703.2" textLength="12.2" clip-path="url(#terminal-2590973410-line-28)">
</text><text class="terminal-2590973410-r2" x="1464" y="727.6" textLength="12.2" clip-path="url(#terminal-2590973410-line-29)">
</text><text class="terminal-2590973410-r2" x="1464" y="752" textLength="12.2" clip-path="url(#terminal-2590973410-line-30)">
</text><text class="terminal-2590973410-r2" x="1464" y="776.4" textLength="12.2" clip-path="url(#terminal-2590973410-line-31)">
</text><text class="terminal-2590973410-r2" x="1464" y="800.8" textLength="12.2" clip-path="url(#terminal-2590973410-line-32)">
</text><text class="terminal-2590973410-r2" x="1464" y="825.2" textLength="12.2" clip-path="url(#terminal-2590973410-line-33)">
</text><text class="terminal-2590973410-r16" x="585.6" y="849.6" textLength="73.2" clip-path="url(#terminal-2590973410-line-34)">&#160;Save&#160;</text><text class="terminal-2590973410-r17" x="780.8" y="849.6" textLength="97.6" clip-path="url(#terminal-2590973410-line-34)">&#160;Cancel&#160;</text><text class="terminal-2590973410-r2" x="1464" y="849.6" textLength="12.2" clip-path="url(#terminal-2590973410-line-34)">
</text><text class="terminal-2590973410-r2" x="1464" y="874" textLength="12.2" clip-path="url(#terminal-2590973410-line-35)">
</text><text class="terminal-2590973410-r2" x="1464" y="898.4" textLength="12.2" clip-path="url(#terminal-2590973410-line-36)">
</text><text class="terminal-2590973410-r2" x="1464" y="922.8" textLength="12.2" clip-path="url(#terminal-2590973410-line-37)">
</text><text class="terminal-2590973410-r2" x="1464" y="947.2" textLength="12.2" clip-path="url(#terminal-2590973410-line-38)">
</text>
    </g>
    </g>
</svg>
