<svg class="rich-terminal" viewBox="0 0 1482 1026.0" xmlns="http://www.w3.org/2000/svg">
    <!-- Generated with Rich https://www.textualize.io -->
    <style>

    @font-face {
        font-family: "Fira Code";
        src: local("FiraCode-Regular"),
                url("https://cdnjs.cloudflare.com/ajax/libs/firacode/6.2.0/woff2/FiraCode-Regular.woff2") format("woff2"),
                url("https://cdnjs.cloudflare.com/ajax/libs/firacode/6.2.0/woff/FiraCode-Regular.woff") format("woff");
        font-style: normal;
        font-weight: 400;
    }
    @font-face {
        font-family: "Fira Code";
        src: local("FiraCode-Bold"),
                url("https://cdnjs.cloudflare.com/ajax/libs/firacode/6.2.0/woff2/FiraCode-Bold.woff2") format("woff2"),
                url("https://cdnjs.cloudflare.com/ajax/libs/firacode/6.2.0/woff/FiraCode-Bold.woff") format("woff");
        font-style: bold;
        font-weight: 700;
    }

    .terminal-396488486-matrix {
        font-family: Fira Code, monospace;
        font-size: 20px;
        line-height: 24.4px;
        font-variant-east-asian: full-width;
    }

    .terminal-396488486-title {
        font-size: 18px;
        font-weight: bold;
        font-family: arial;
    }

    .terminal-396488486-r1 { fill: #e0e0e0 }
.terminal-396488486-r2 { fill: #c5c8c6 }
.terminal-396488486-r3 { fill: #1f2f3b;font-weight: bold }
.terminal-396488486-r4 { fill: #272727 }
.terminal-396488486-r5 { fill: #212121 }
.terminal-396488486-r6 { fill: #e1e1e1;font-weight: bold }
.terminal-396488486-r7 { fill: #ababab }
.terminal-396488486-r8 { fill: #e3e3e3 }
.terminal-396488486-r9 { fill: #e0e0e0;font-weight: bold }
.terminal-396488486-r10 { fill: #b93c5b }
.terminal-396488486-r11 { fill: #fea62b;font-weight: bold }
.terminal-396488486-r12 { fill: #a5a5a5 }
    </style>

    <defs>
    <clipPath id="terminal-396488486-clip-terminal">
      <rect x="0" y="0" width="1463.0" height="975.0" />
    </clipPath>
    <clipPath id="terminal-396488486-line-0">
    <rect x="0" y="1.5" width="1464" height="24.65"/>
            </clipPath>
<clipPath id="terminal-396488486-line-1">
    <rect x="0" y="25.9" width="1464" height="24.65"/>
            </clipPath>
<clipPath id="terminal-396488486-line-2">
    <rect x="0" y="50.3" width="1464" height="24.65"/>
            </clipPath>
<clipPath id="terminal-396488486-line-3">
    <rect x="0" y="74.7" width="1464" height="24.65"/>
            </clipPath>
<clipPath id="terminal-396488486-line-4">
    <rect x="0" y="99.1" width="1464" height="24.65"/>
            </clipPath>
<clipPath id="terminal-396488486-line-5">
    <rect x="0" y="123.5" width="1464" height="24.65"/>
            </clipPath>
<clipPath id="terminal-396488486-line-6">
    <rect x="0" y="147.9" width="1464" height="24.65"/>
            </clipPath>
<clipPath id="terminal-396488486-line-7">
    <rect x="0" y="172.3" width="1464" height="24.65"/>
            </clipPath>
<clipPath id="terminal-396488486-line-8">
    <rect x="0" y="196.7" width="1464" height="24.65"/>
            </clipPath>
<clipPath id="terminal-396488486-line-9">
    <rect x="0" y="221.1" width="1464" height="24.65"/>
            </clipPath>
<clipPath id="terminal-396488486-line-10">
    <rect x="0" y="245.5" width="1464" height="24.65"/>
            </clipPath>
<clipPath id="terminal-396488486-line-11">
    <rect x="0" y="269.9" width="1464" height="24.65"/>
            </clipPath>
<clipPath id="terminal-396488486-line-12">
    <rect x="0" y="294.3" width="1464" height="24.65"/>
            </clipPath>
<clipPath id="terminal-396488486-line-13">
    <rect x="0" y="318.7" width="1464" height="24.65"/>
            </clipPath>
<clipPath id="terminal-396488486-line-14">
    <rect x="0" y="343.1" width="1464" height="24.65"/>
            </clipPath>
<clipPath id="terminal-396488486-line-15">
    <rect x="0" y="367.5" width="1464" height="24.65"/>
            </clipPath>
<clipPath id="terminal-396488486-line-16">
    <rect x="0" y="391.9" width="1464" height="24.65"/>
            </clipPath>
<clipPath id="terminal-396488486-line-17">
    <rect x="0" y="416.3" width="1464" height="24.65"/>
            </clipPath>
<clipPath id="terminal-396488486-line-18">
    <rect x="0" y="440.7" width="1464" height="24.65"/>
            </clipPath>
<clipPath id="terminal-396488486-line-19">
    <rect x="0" y="465.1" width="1464" height="24.65"/>
            </clipPath>
<clipPath id="terminal-396488486-line-20">
    <rect x="0" y="489.5" width="1464" height="24.65"/>
            </clipPath>
<clipPath id="terminal-396488486-line-21">
    <rect x="0" y="513.9" width="1464" height="24.65"/>
            </clipPath>
<clipPath id="terminal-396488486-line-22">
    <rect x="0" y="538.3" width="1464" height="24.65"/>
            </clipPath>
<clipPath id="terminal-396488486-line-23">
    <rect x="0" y="562.7" width="1464" height="24.65"/>
            </clipPath>
<clipPath id="terminal-396488486-line-24">
    <rect x="0" y="587.1" width="1464" height="24.65"/>
            </clipPath>
<clipPath id="terminal-396488486-line-25">
    <rect x="0" y="611.5" width="1464" height="24.65"/>
            </clipPath>
<clipPath id="terminal-396488486-line-26">
    <rect x="0" y="635.9" width="1464" height="24.65"/>
            </clipPath>
<clipPath id="terminal-396488486-line-27">
    <rect x="0" y="660.3" width="1464" height="24.65"/>
            </clipPath>
<clipPath id="terminal-396488486-line-28">
    <rect x="0" y="684.7" width="1464" height="24.65"/>
            </clipPath>
<clipPath id="terminal-396488486-line-29">
    <rect x="0" y="709.1" width="1464" height="24.65"/>
            </clipPath>
<clipPath id="terminal-396488486-line-30">
    <rect x="0" y="733.5" width="1464" height="24.65"/>
            </clipPath>
<clipPath id="terminal-396488486-line-31">
    <rect x="0" y="757.9" width="1464" height="24.65"/>
            </clipPath>
<clipPath id="terminal-396488486-line-32">
    <rect x="0" y="782.3" width="1464" height="24.65"/>
            </clipPath>
<clipPath id="terminal-396488486-line-33">
    <rect x="0" y="806.7" width="1464" height="24.65"/>
            </clipPath>
<clipPath id="terminal-396488486-line-34">
    <rect x="0" y="831.1" width="1464" height="24.65"/>
            </clipPath>
<clipPath id="terminal-396488486-line-35">
    <rect x="0" y="855.5" width="1464" height="24.65"/>
            </clipPath>
<clipPath id="terminal-396488486-line-36">
    <rect x="0" y="879.9" width="1464" height="24.65"/>
            </clipPath>
<clipPath id="terminal-396488486-line-37">
    <rect x="0" y="904.3" width="1464" height="24.65"/>
            </clipPath>
<clipPath id="terminal-396488486-line-38">
    <rect x="0" y="928.7" width="1464" height="24.65"/>
            </clipPath>
    </defs>

    <rect fill="#292929" stroke="rgba(255,255,255,0.35)" stroke-width="1" x="1" y="1" width="1480" height="1024" rx="8"/><text class="terminal-396488486-title" fill="#c5c8c6" text-anchor="middle" x="740" y="27">gojeera</text>
            <g transform="translate(26,22)">
            <circle cx="0" cy="0" r="7" fill="#ff5f57"/>
            <circle cx="22" cy="0" r="7" fill="#febc2e"/>
            <circle cx="44" cy="0" r="7" fill="#28c840"/>
            </g>
        
    <g transform="translate(9, 41)" clip-path="url(#terminal-396488486-clip-terminal)">
    <rect fill="#121212" x="0" y="1.5" width="1464" height="24.65" shape-rendering="crispEdges"/><rect fill="#121212" x="0" y="25.9" width="12.2" height="24.65" shape-rendering="crispEdges"/><rect fill="#12191f" x="12.2" y="25.9" width="12.2" height="24.65" shape-rendering="crispEdges"/><rect fill="#12191f" x="24.4" y="25.9" width="61" height="24.65" shape-rendering="crispEdges"/><rect fill="#12191f" x="85.4" y="25.9" width="12.2" height="24.65" shape-rendering="crispEdges"/><rect fill="#12191f" x="97.6" y="25.9" width="12.2" height="24.65" shape-rendering="crispEdges"/><rect fill="#12191f" x="109.8" y="25.9" width="12.2" height="24.65" shape-rendering="crispEdges"/><rect fill="#121212" x="122" y="25.9" width="12.2" height="24.65" shape-rendering="crispEdges"/><rect fill="#10181d" x="134.2" y="25.9" width="36.6" height="24.65" shape-rendering="crispEdges"/><rect fill="#121212" x="170.8" y="25.9" width="12.2" height="24.65" shape-rendering="crispEdges"/><rect fill="#141414" x="183" y="25.9" width="85.4" height="24.65" shape-rendering="crispEdges"/><rect fill="#141414" x="268.4" y="25.9" width="170.8" height="24.65" shape-rendering="crispEdges"/><rect fill="#141414" x="439.2" y="25.9" width="12.2" height="24.65" shape-rendering="crispEdges"/><rect fill="#141414" x="451.4" y="25.9" width="12.2" height="24.65" shape-rendering="crispEdges"/><rect fill="#121212" x="463.6" y="25.9" width="12.2" height="24.65" shape-rendering="crispEdges"/><rect fill="#131313" x="475.8" y="25.9" width="97.6" height="24.65" shape-rendering="crispEdges"/><rect fill="#131313" x="573.4" y="25.9" width="158.6" height="24.65" shape-rendering="crispEdges"/><rect fill="#131313" x="732" y="25.9" width="12.2" height="24.65" shape-rendering="crispEdges"/><rect fill="#131313" x="744.2" y="25.9" width="12.2" height="24.65" shape-rendering="crispEdges"/><rect fill="#121212" x="756.4" y="25.9" width="12.2" height="24.65" shape-rendering="crispEdges"/><rect fill="#131313" x="768.6" y="25.9" width="48.8" height="24.65" shape-rendering="crispEdges"/><rect fill="#131313" x="817.4" y="25.9" width="207.4" height="24.65" shape-rendering="crispEdges"/><rect fill="#131313" x="1024.8" y="25.9" width="12.2" height="24.65" shape-rendering="crispEdges"/><rect fill="#131313" x="1037" y="25.9" width="12.2" height="24.65" shape-rendering="crispEdges"/><rect fill="#121212" x="1049.2" y="25.9" width="12.2" height="24.65" shape-rendering="crispEdges"/><rect fill="#131313" x="1061.4" y="25.9" width="73.2" height="24.65" shape-rendering="crispEdges"/><rect fill="#131313" x="1134.6" y="25.9" width="183" height="24.65" shape-rendering="crispEdges"/><rect fill="#131313" x="1317.6" y="25.9" width="12.2" height="24.65" shape-rendering="crispEdges"/><rect fill="#131313" x="1329.8" y="25.9" width="12.2" height="24.65" shape-rendering="crispEdges"/><rect fill="#121212" x="1342" y="25.9" width="12.2" height="24.65" shape-rendering="crispEdges"/><rect fill="#10181d" x="1354.2" y="25.9" width="97.6" height="24.65" shape-rendering="crispEdges"/><rect fill="#121212" x="1451.8" y="25.9" width="12.2" height="24.65" shape-rendering="crispEdges"/><rect fill="#121212" x="0" y="50.3" width="1464" height="24.65" shape-rendering="crispEdges"/><rect fill="#121212" x="0" y="74.7" width="1464" height="24.65" shape-rendering="crispEdges"/><rect fill="#121212" x="0" y="99.1" width="73.2" height="24.65" shape-rendering="crispEdges"/><rect fill="#1e1e1e" x="73.2" y="99.1" width="1317.6" height="24.65" shape-rendering="crispEdges"/><rect fill="#121212" x="1390.8" y="99.1" width="73.2" height="24.65" shape-rendering="crispEdges"/><rect fill="#121212" x="0" y="123.5" width="73.2" height="24.65" shape-rendering="crispEdges"/><rect fill="#1e1e1e" x="73.2" y="123.5" width="549" height="24.65" shape-rendering="crispEdges"/><rect fill="#1e1e1e" x="622.2" y="123.5" width="219.6" height="24.65" shape-rendering="crispEdges"/><rect fill="#1e1e1e" x="841.8" y="123.5" width="549" height="24.65" shape-rendering="crispEdges"/><rect fill="#121212" x="1390.8" y="123.5" width="73.2" height="24.65" shape-rendering="crispEdges"/><rect fill="#121212" x="0" y="147.9" width="73.2" height="24.65" shape-rendering="crispEdges"/><rect fill="#1e1e1e" x="73.2" y="147.9" width="1317.6" height="24.65" shape-rendering="crispEdges"/><rect fill="#121212" x="1390.8" y="147.9" width="73.2" height="24.65" shape-rendering="crispEdges"/><rect fill="#121212" x="0" y="172.3" width="73.2" height="24.65" shape-rendering="crispEdges"/><rect fill="#1e1e1e" x="73.2" y="172.3" width="12.2" height="24.65" shape-rendering="crispEdges"/><rect fill="#2d2d2d" x="85.4" y="172.3" width="231.8" height="24.65" shape-rendering="crispEdges"/><rect fill="#2d2d2d" x="317.2" y="172.3" width="158.6" height="24.65" shape-rendering="crispEdges"/><rect fill="#1e1e1e" x="475.8" y="172.3" width="915" height="24.65" shape-rendering="crispEdges"/><rect fill="#121212" x="1390.8" y="172.3" width="73.2" height="24.65" shape-rendering="crispEdges"/><rect fill="#121212" x="0" y="196.7" width="73.2" height="24.65" shape-rendering="crispEdges"/><rect fill="#1e1e1e" x="73.2" y="196.7" width="1317.6" height="24.65" shape-rendering="crispEdges"/><rect fill="#121212" x="1390.8" y="196.7" width="73.2" height="24.65" shape-rendering="crispEdges"/><rect fill="#121212" x="0" y="221.1" width="73.2" height="24.65" shape-rendering="crispEdges"/><rect fill="#1e1e1e" x="73.2" y="221.1" width="12.2" height="24.65" shape-rendering="crispEdges"/><rect fill="#2d3740" x="85.4" y="221.1" width="73.2" height="24.65" shape-rendering="crispEdges"/><rect fill="#2d3740" x="158.6" y="221.1" width="122" height="24.65" shape-rendering="crispEdges"/><rect fill="#2d3740" x="280.6" y="221.1" width="73.2" height="24.65" shape-rendering="crispEdges"/><rect fill="#2d3740" x="353.8" y="221.1" width="61" height="24.65" shape-rendering="crispEdges"/><rect fill="#2d3740" x="414.8" y="221.1" width="158.6" height="24.65" shape-rendering="crispEdges"/><rect fill="#2d3740" x="573.4" y="221.1" width="805.2" height="24.65" shape-rendering="crispEdges"/><rect fill="#1e1e1e" x="1378.6" y="221.1" width="12.2" height="24.65" shape-rendering="crispEdges"/><rect fill="#121212" x="1390.8" y="221.1" width="73.2" height="24.65" shape-rendering="crispEdges"/><rect fill="#121212" x="0" y="245.5" width="73.2" height="24.65" shape-rendering="crispEdges"/><rect fill="#1e1e1e" x="73.2" y="245.5" width="12.2" height="24.65" shape-rendering="crispEdges"/><rect fill="#1e1e1e" x="85.4" y="245.5" width="1293.2" height="24.65" shape-rendering="crispEdges"/><rect fill="#1e1e1e" x="1378.6" y="245.5" width="12.2" height="24.65" shape-rendering="crispEdges"/><rect fill="#121212" x="1390.8" y="245.5" width="73.2" height="24.65" shape-rendering="crispEdges"/><rect fill="#121212" x="0" y="269.9" width="73.2" height="24.65" shape-rendering="crispEdges"/><rect fill="#1e1e1e" x="73.2" y="269.9" width="12.2" height="24.65" shape-rendering="crispEdges"/><rect fill="#1e1e1e" x="85.4" y="269.9" width="1293.2" height="24.65" shape-rendering="crispEdges"/><rect fill="#1e1e1e" x="1378.6" y="269.9" width="12.2" height="24.65" shape-rendering="crispEdges"/><rect fill="#121212" x="1390.8" y="269.9" width="73.2" height="24.65" shape-rendering="crispEdges"/><rect fill="#121212" x="0" y="294.3" width="73.2" height="24.65" shape-rendering="crispEdges"/><rect fill="#1e1e1e" x="73.2" y="294.3" width="12.2" height="24.65" shape-rendering="crispEdges"/><rect fill="#1e1e1e" x="85.4" y="294.3" width="1293.2" height="24.65" shape-rendering="crispEdges"/><rect fill="#1e1e1e" x="1378.6" y="294.3" width="12.2" height="24.65" shape-rendering="crispEdges"/><rect fill="#121212" x="1390.8" y="294.3" width="73.2" height="24.65" shape-rendering="crispEdges"/><rect fill="#121212" x="0" y="318.7" width="73.2" height="24.65" shape-rendering="crispEdges"/><rect fill="#1e1e1e" x="73.2" y="318.7" width="12.2" height="24.65" shape-rendering="crispEdges"/><rect fill="#1e1e1e" x="85.4" y="318.7" width="1293.2" height="24.65" shape-rendering="crispEdges"/><rect fill="#1e1e1e" x="1378.6" y="318.7" width="12.2" height="24.65" shape-rendering="crispEdges"/><rect fill="#121212" x="1390.8" y="318.7" width="73.2" height="24.65" shape-rendering="crispEdges"/><rect fill="#121212" x="0" y="343.1" width="73.2" height="24.65" shape-rendering="crispEdges"/><rect fill="#1e1e1e" x="73.2" y="343.1" width="12.2" height="24.65" shape-rendering="crispEdges"/><rect fill="#1e1e1e" x="85.4" y="343.1" width="1293.2" height="24.65" shape-rendering="crispEdges"/><rect fill="#1e1e1e" x="1378.6" y="343.1" width="12.2" height="24.65" shape-rendering="crispEdges"/><rect fill="#121212" x="1390.8" y="343.1" width="73.2" height="24.65" shape-rendering="crispEdges"/><rect fill="#121212" x="0" y="367.5" width="73.2" height="24.65" shape-rendering="crispEdges"/><rect fill="#1e1e1e" x="73.2" y="367.5" width="12.2" height="24.65" shape-rendering="crispEdges"/><rect fill="#1e1e1e" x="85.4" y="367.5" width="1293.2" height="24.65" shape-rendering="crispEdges"/><rect fill="#1e1e1e" x="1378.6" y="367.5" width="12.2" height="24.65" shape-rendering="crispEdges"/><rect fill="#121212" x="1390.8" y="367.5" width="73.2" height="24.65" shape-rendering="crispEdges"/><rect fill="#121212" x="0" y="391.9" width="73.2" height="24.65" shape-rendering="crispEdges"/><rect fill="#1e1e1e" x="73.2" y="391.9" width="12.2" height="24.65" shape-rendering="crispEdges"/><rect fill="#1e1e1e" x="85.4" y="391.9" width="1293.2" height="24.65" shape-rendering="crispEdges"/><rect fill="#1e1e1e" x="1378.6" y="391.9" width="12.2" height="24.65" shape-rendering="crispEdges"/><rect fill="#121212" x="1390.8" y="391.9" width="73.2" height="24.65" shape-rendering="crispEdges"/><rect fill="#121212" x="0" y="416.3" width="73.2" height="24.65" shape-rendering="crispEdges"/><rect fill="#1e1e1e" x="73.2" y="416.3" width="12.2" height="24.65" shape-rendering="crispEdges"/><rect fill="#1e1e1e" x="85.4" y="416.3" width="1293.2" height="24.65" shape-rendering="crispEdges"/><rect fill="#1e1e1e" x="1378.6" y="416.3" width="12.2" height="24.65" shape-rendering="crispEdges"/><rect fill="#121212" x="1390.8" y="416.3" width="73.2" height="24.65" shape-rendering="crispEdges"/><rect fill="#121212" x="0" y="440.7" width="73.2" height="24.65" shape-rendering="crispEdges"/><rect fill="#1e1e1e" x="73.2" y="440.7" width="12.2" height="24.65" shape-rendering="crispEdges"/><rect fill="#1e1e1e" x="85.4" y="440.7" width="1293.2" height="24.65" shape-rendering="crispEdges"/><rect fill="#1e1e1e" x="1378.6" y="440.7" width="12.2" height="24.65" shape-rendering="crispEdges"/><rect fill="#121212" x="1390.8" y="440.7" width="73.2" height="24.65" shape-rendering="crispEdges"/><rect fill="#121212" x="0" y="465.1" width="73.2" height="24.65" shape-rendering="crispEdges"/><rect fill="#1e1e1e" x="73.2" y="465.1" width="12.2" height="24.65" shape-rendering="crispEdges"/><rect fill="#1e1e1e" x="85.4" y="465.1" width="1293.2" height="24.65" shape-rendering="crispEdges"/><rect fill="#1e1e1e" x="1378.6" y="465.1" width="12.2" height="24.65" shape-rendering="crispEdges"/><rect fill="#121212" x="1390.8" y="465.1" width="73.2" height="24.65" shape-rendering="crispEdges"/><rect fill="#121212" x="0" y="489.5" width="73.2" height="24.65" shape-rendering="crispEdges"/><rect fill="#1e1e1e" x="73.2" y="489.5" width="12.2" height="24.65" shape-rendering="crispEdges"/><rect fill="#1e1e1e" x="85.4" y="489.5" width="1293.2" height="24.65" shape-rendering="crispEdges"/><rect fill="#1e1e1e" x="1378.6" y="489.5" width="12.2" height="24.65" shape-rendering="crispEdges"/><rect fill="#121212" x="1390.8" y="489.5" width="73.2" height="24.65" shape-rendering="crispEdges"/><rect fill="#121212" x="0" y="513.9" width="73.2" height="24.65" shape-rendering="crispEdges"/><rect fill="#1e1e1e" x="73.2" y="513.9" width="12.2" height="24.65" shape-rendering="crispEdges"/><rect fill="#1e1e1e" x="85.4" y="513.9" width="1293.2" height="24.65" shape-rendering="crispEdges"/><rect fill="#1e1e1e" x="1378.6" y="513.9" width="12.2" height="24.65" shape-rendering="crispEdges"/><rect fill="#121212" x="1390.8" y="513.9" width="73.2" height="24.65" shape-rendering="crispEdges"/><rect fill="#121212" x="0" y="538.3" width="73.2" height="24.65" shape-rendering="crispEdges"/><rect fill="#1e1e1e" x="73.2" y="538.3" width="12.2" height="24.65" shape-rendering="crispEdges"/><rect fill="#1e1e1e" x="85.4" y="538.3" width="1293.2" height="24.65" shape-rendering="crispEdges"/><rect fill="#1e1e1e" x="1378.6" y="538.3" width="12.2" height="24.65" shape-rendering="crispEdges"/><rect fill="#121212" x="1390.8" y="538.3" width="73.2" height="24.65" shape-rendering="crispEdges"/><rect fill="#121212" x="0" y="562.7" width="73.2" height="24.65" shape-rendering="crispEdges"/><rect fill="#1e1e1e" x="73.2" y="562.7" width="12.2" height="24.65" shape-rendering="crispEdges"/><rect fill="#1e1e1e" x="85.4" y="562.7" width="1293.2" height="24.65" shape-rendering="crispEdges"/><rect fill="#1e1e1e" x="1378.6" y="562.7" width="12.2" height="24.65" shape-rendering="crispEdges"/><rect fill="#121212" x="1390.8" y="562.7" width="73.2" height="24.65" shape-rendering="crispEdges"/><rect fill="#121212" x="0" y="587.1" width="73.2" height="24.65" shape-rendering="crispEdges"/><rect fill="#1e1e1e" x="73.2" y="587.1" width="12.2" height="24.65" shape-rendering="crispEdges"/><rect fill="#1e1e1e" x="85.4" y="587.1" width="1293.2" height="24.65" shape-rendering="crispEdges"/><rect fill="#1e1e1e" x="1378.6" y="587.1" width="12.2" height="24.65" shape-rendering="crispEdges"/><rect fill="#121212" x="1390.8" y="587.1" width="73.2" height="24.65" shape-rendering="crispEdges"/><rect fill="#121212" x="0" y="611.5" width="73.2" height="24.65" shape-rendering="crispEdges"/><rect fill="#1e1e1e" x="73.2" y="611.5" width="12.2" height="24.65" shape-rendering="crispEdges"/><rect fill="#1e1e1e" x="85.4" y="611.5" width="1293.2" height="24.65" shape-rendering="crispEdges"/><rect fill="#1e1e1e" x="1378.6" y="611.5" width="12.2" height="24.65" shape-rendering="crispEdges"/><rect fill="#121212" x="1390.8" y="611.5" width="73.2" height="24.65" shape-rendering="crispEdges"/><rect fill="#121212" x="0" y="635.9" width="73.2" height="24.65" shape-rendering="crispEdges"/><rect fill="#1e1e1e" x="73.2" y="635.9" width="12.2" height="24.65" shape-rendering="crispEdges"/><rect fill="#1e1e1e" x="85.4" y="635.9" width="1293.2" height="24.65" shape-rendering="crispEdges"/><rect fill="#1e1e1e" x="1378.6" y="635.9" width="12.2" height="24.65" shape-rendering="crispEdges"/><rect fill="#121212" x="1390.8" y="635.9" width="73.2" height="24.65" shape-rendering="crispEdges"/><rect fill="#121212" x="0" y="660.3" width="73.2" height="24.65" shape-rendering="crispEdges"/><rect fill="#1e1e1e" x="73.2" y="660.3" width="12.2" height="24.65" shape-rendering="crispEdges"/><rect fill="#1e1e1e" x="85.4" y="660.3" width="1293.2" height="24.65" shape-rendering="crispEdges"/><rect fill="#1e1e1e" x="1378.6" y="660.3" width="12.2" height="24.65" shape-rendering="crispEdges"/><rect fill="#121212" x="1390.8" y="660.3" width="73.2" height="24.65" shape-rendering="crispEdges"/><rect fill="#121212" x="0" y="684.7" width="73.2" height="24.65" shape-rendering="crispEdges"/><rect fill="#1e1e1e" x="73.2" y="684.7" width="12.2" height="24.65" shape-rendering="crispEdges"/><rect fill="#1e1e1e" x="85.4" y="684.7" width="1293.2" height="24.65" shape-rendering="crispEdges"/><rect fill="#1e1e1e" x="1378.6" y="684.7" width="12.2" height="24.65" shape-rendering="crispEdges"/><rect fill="#121212" x="1390.8" y="684.7" width="73.2" height="24.65" shape-rendering="crispEdges"/><rect fill="#121212" x="0" y="709.1" width="73.2" height="24.65" shape-rendering="crispEdges"/><rect fill="#1e1e1e" x="73.2" y="709.1" width="12.2" height="24.65" shape-rendering="crispEdges"/><rect fill="#1e1e1e" x="85.4" y="709.1" width="1293.2" height="24.65" shape-rendering="crispEdges"/><rect fill="#1e1e1e" x="1378.6" y="709.1" width="12.2" height="24.65" shape-rendering="crispEdges"/><rect fill="#121212" x="1390.8" y="709.1" width="73.2" height="24.65" shape-rendering="crispEdges"/><rect fill="#121212" x="0" y="733.5" width="73.2" height="24.65" shape-rendering="crispEdges"/><rect fill="#1e1e1e" x="73.2" y="733.5" width="12.2" height="24.65" shape-rendering="crispEdges"/><rect fill="#1e1e1e" x="85.4" y="733.5" width="1293.2" height="24.65" shape-rendering="crispEdges"/><rect fill="#1e1e1e" x="1378.6" y="733.5" width="12.2" height="24.65" shape-rendering="crispEdges"/><rect fill="#121212" x="1390.8" y="733.5" width="73.2" height="24.65" shape-rendering="crispEdges"/><rect fill="#121212" x="0" y="757.9" width="73.2" height="24.65" shape-rendering="crispEdges"/><rect fill="#1e1e1e" x="73.2" y="757.9" width="12.2" height="24.65" shape-rendering="crispEdges"/><rect fill="#1e1e1e" x="85.4" y="757.9" width="1293.2" height="24.65" shape-rendering="crispEdges"/><rect fill="#1e1e1e" x="1378.6" y="757.9" width="12.2" height="24.65" shape-rendering="crispEdges"/><rect fill="#121212" x="1390.8" y="757.9" width="73.2" height="24.65" shape-rendering="crispEdges"/><rect fill="#121212" x="0" y="782.3" width="73.2" height="24.65" shape-rendering="crispEdges"/><rect fill="#1e1e1e" x="73.2" y="782.3" width="12.2" height="24.65" shape-rendering="crispEdges"/><rect fill="#1e1e1e" x="85.4" y="782.3" width="1293.2" height="24.65" shape-rendering="crispEdges"/><rect fill="#1e1e1e" x="1378.6" y="782.3" width="12.2" height="24.65" shape-rendering="crispEdges"/><rect fill="#121212" x="1390.8" y="782.3" width="73.2" height="24.65" shape-rendering="crispEdges"/><rect fill="#121212" x="0" y="806.7" width="73.2" height="24.65" shape-rendering="crispEdges"/><rect fill="#1e1e1e" x="73.2" y="806.7" width="12.2" height="24.65" shape-rendering="crispEdges"/><rect fill="#1e1e1e" x="85.4" y="806.7" width="1293.2" height="24.65" shape-rendering="crispEdges"/><rect fill="#1e1e1e" x="1378.6" y="806.7" width="12.2" height="24.65" shape-rendering="crispEdges"/><rect fill="#121212" x="1390.8" y="806.7" width="73.2" height="24.65" shape-rendering="crispEdges"/><rect fill="#121212" x="0" y="831.1" width="73.2" height="24.65" shape-rendering="crispEdges"/><rect fill="#1e1e1e" x="73.2" y="831.1" width="1317.6" height="24.65" shape-rendering="crispEdges"/><rect fill="#121212" x="1390.8" y="831.1" width="73.2" height="24.65" shape-rendering="crispEdges"/><rect fill="#121212" x="0" y="855.5" width="719.8" height="24.65" shape-rendering="crispEdges"/><rect fill="#343f49" x="719.8" y="855.5" width="12.2" height="24.65" shape-rendering="crispEdges"/><rect fill="#343f49" x="732" y="855.5" width="707.6" height="24.65" shape-rendering="crispEdges"/><rect fill="#121212" x="1439.6" y="855.5" width="24.4" height="24.65" shape-rendering="crispEdges"/><rect fill="#121212" x="0" y="879.9" width="719.8" height="24.65" shape-rendering="crispEdges"/><rect fill="#343f49" x="719.8" y="879.9" width="12.2" height="24.65" shape-rendering="crispEdges"/><rect fill="#343f49" x="732" y="879.9" width="12.2" height="24.65" shape-rendering="crispEdges"/><rect fill="#343f49" x="744.2" y="879.9" width="671" height="24.65" shape-rendering="crispEdges"/><rect fill="#343f49" x="1415.2" y="879.9" width="24.4" height="24.65" shape-rendering="crispEdges"/><rect fill="#121212" x="1439.6" y="879.9" width="24.4" height="24.65" shape-rendering="crispEdges"/><rect fill="#121212" x="0" y="904.3" width="719.8" height="24.65" shape-rendering="crispEdges"/><rect fill="#343f49" x="719.8" y="904.3" width="12.2" height="24.65" shape-rendering="crispEdges"/><rect fill="#343f49" x="732" y="904.3" width="12.2" height="24.65" shape-rendering="crispEdges"/><rect fill="#343f49" x="744.2" y="904.3" width="195.2" height="24.65" shape-rendering="crispEdges"/><rect fill="#343f49" x="939.4" y="904.3" width="500.2" height="24.65" shape-rendering="crispEdges"/><rect fill="#121212" x="1439.6" y="904.3" width="24.4" height="24.65" shape-rendering="crispEdges"/><rect fill="#121212" x="0" y="928.7" width="719.8" height="24.65" shape-rendering="crispEdges"/><rect fill="#343f49" x="719.8" y="928.7" width="12.2" height="24.65" shape-rendering="crispEdges"/><rect fill="#343f49" x="732" y="928.7" width="707.6" height="24.65" shape-rendering="crispEdges"/><rect fill="#121212" x="1439.6" y="928.7" width="24.4" height="24.65" shape-rendering="crispEdges"/><rect fill="#1e1e1e" x="0" y="953.1" width="61" height="24.65" shape-rendering="crispEdges"/><rect fill="#1e1e1e" x="61" y="953.1" width="73.2" height="24.65" shape-rendering="crispEdges"/><rect fill="#1e1e1e" x="134.2" y="953.1" width="48.8" height="24.65" shape-rendering="crispEdges"/><rect fill="#1e1e1e" x="183" y="953.1" width="195.2" height="24.65" shape-rendering="crispEdges"/><rect fill="#1e1e1e" x="378.2" y="953.1" width="48.8" height="24.65" shape-rendering="crispEdges"/><rect fill="#1e1e1e" x="427" y="953.1" width="231.8" height="24.65" shape-rendering="crispEdges"/><rect fill="#1e1e1e" x="658.8" y="953.1" width="805.2" height="24.65" shape-rendering="crispEdges"/>
    <g class="terminal-396488486-matrix">
    <text class="terminal-396488486-r2" x="1464" y="20" textLength="12.2" clip-path="url(#terminal-396488486-line-0)">
</text><text class="terminal-396488486-r3" x="24.4" y="44.4" textLength="61" clip-path="url(#terminal-396488486-line-1)">Basic</text><text class="terminal-396488486-r3" x="97.6" y="44.4" textLength="12.2" clip-path="url(#terminal-396488486-line-1)">▼</text><text class="terminal-396488486-r3" x="134.2" y="44.4" textLength="36.6" clip-path="url(#terminal-396488486-line-1)">&#160;+&#160;</text><text class="terminal-396488486-r4" x="183" y="44.4" textLength="85.4" clip-path="url(#terminal-396488486-line-1)">Project</text><text class="terminal-396488486-r4" x="439.2" y="44.4" textLength="12.2" clip-path="url(#terminal-396488486-line-1)">▼</text><text class="terminal-396488486-r5" x="475.8" y="44.4" textLength="97.6" clip-path="url(#terminal-396488486-line-1)">Assignee</text><text class="terminal-396488486-r5" x="732" y="44.4" textLength="12.2" clip-path="url(#terminal-396488486-line-1)">▼</text><text class="terminal-396488486-r5" x="768.6" y="44.4" textLength="48.8" clip-path="url(#terminal-396488486-line-1)">Type</text><text class="terminal-396488486-r5" x="1024.8" y="44.4" textLength="12.2" clip-path="url(#terminal-396488486-line-1)">▼</text><text class="terminal-396488486-r5" x="1061.4" y="44.4" textLength="73.2" clip-path="url(#terminal-396488486-line-1)">Status</text><text class="terminal-396488486-r5" x="1317.6" y="44.4" textLength="12.2" clip-path="url(#terminal-396488486-line-1)">▼</text><text class="terminal-396488486-r3" x="1354.2" y="44.4" textLength="97.6" clip-path="url(#terminal-396488486-line-1)">&#160;Search&#160;</text><text class="terminal-396488486-r2" x="1464" y="44.4" textLength="12.2" clip-path="url(#terminal-396488486-line-1)">
</text><text class="terminal-396488486-r2" x="1464" y="68.8" textLength="12.2" clip-path="url(#terminal-396488486-line-2)">
</text><text class="terminal-396488486-r2" x="1464" y="93.2" textLength="12.2" clip-path="url(#terminal-396488486-line-3)">
</text><text class="terminal-396488486-r2" x="1464" y="117.6" textLength="12.2" clip-path="url(#terminal-396488486-line-4)">
</text><text class="terminal-396488486-r6" x="622.2" y="142" textLength="219.6" clip-path="url(#terminal-396488486-line-5)">Repositories&#160;-&#160;ENG</text><text class="terminal-396488486-r2" x="1464" y="142" textLength="12.2" clip-path="url(#terminal-396488486-line-5)">
</text><text class="terminal-396488486-r2" x="1464" y="166.4" textLength="12.2" clip-path="url(#terminal-396488486-line-6)">
</text><text class="terminal-396488486-r7" x="85.4" y="190.8" textLength="231.8" clip-path="url(#terminal-396488486-line-7)">Filter&#160;repositories</text><text class="terminal-396488486-r2" x="1464" y="190.8" textLength="12.2" clip-path="url(#terminal-396488486-line-7)">
</text><text class="terminal-396488486-r2" x="1464" y="215.2" textLength="12.2" clip-path="url(#terminal-396488486-line-8)">
</text><text class="terminal-396488486-r9" x="85.4" y="239.6" textLength="73.2" clip-path="url(#terminal-396488486-line-9)">&#160;Name&#160;</text><text class="terminal-396488486-r9" x="158.6" y="239.6" textLength="122" clip-path="url(#terminal-396488486-line-9)">&#160;Provider&#160;</text><text class="terminal-396488486-r9" x="280.6" y="239.6" textLength="73.2" clip-path="url(#terminal-396488486-line-9)">&#160;Type&#160;</text><text class="terminal-396488486-r9" x="353.8" y="239.6" textLength="61" clip-path="url(#terminal-396488486-line-9)">&#160;URL&#160;</text><text class="terminal-396488486-r9" x="414.8" y="239.6" textLength="158.6" clip-path="url(#terminal-396488486-line-9)">&#160;External&#160;ID&#160;</text><text class="terminal-396488486-r2" x="1464" y="239.6" textLength="12.2" clip-path="url(#terminal-396488486-line-9)">
</text><text class="terminal-396488486-r2" x="1464" y="264" textLength="12.2" clip-path="url(#terminal-396488486-line-10)">
</text><text class="terminal-396488486-r2" x="1464" y="288.4" textLength="12.2" clip-path="url(#terminal-396488486-line-11)">
</text><text class="terminal-396488486-r2" x="1464" y="312.8" textLength="12.2" clip-path="url(#terminal-396488486-line-12)">
</text><text class="terminal-396488486-r2" x="1464" y="337.2" textLength="12.2" clip-path="url(#terminal-396488486-line-13)">
</text><text class="terminal-396488486-r2" x="1464" y="361.6" textLength="12.2" clip-path="url(#terminal-396488486-line-14)">
</text><text class="terminal-396488486-r2" x="1464" y="386" textLength="12.2" clip-path="url(#terminal-396488486-line-15)">
</text><text class="terminal-396488486-r2" x="1464" y="410.4" textLength="12.2" clip-path="url(#terminal-396488486-line-16)">
</text><text class="terminal-396488486-r2" x="1464" y="434.8" textLength="12.2" clip-path="url(#terminal-396488486-line-17)">
</text><text class="terminal-396488486-r2" x="1464" y="459.2" textLength="12.2" clip-path="url(#terminal-396488486-line-18)">
</text><text class="terminal-396488486-r2" x="1464" y="483.6" textLength="12.2" clip-path="url(#terminal-396488486-line-19)">
</text><text class="terminal-396488486-r2" x="1464" y="508" textLength="12.2" clip-path="url(#terminal-396488486-line-20)">
</text><text class="terminal-396488486-r2" x="1464" y="532.4" textLength="12.2" clip-path="url(#terminal-396488486-line-21)">
</text><text class="terminal-396488486-r2" x="1464" y="556.8" textLength="12.2" clip-path="url(#terminal-396488486-line-22)">
</text><text class="terminal-396488486-r2" x="1464" y="581.2" textLength="12.2" clip-path="url(#terminal-396488486-line-23)">
</text><text class="terminal-396488486-r2" x="1464" y="605.6" textLength="12.2" clip-path="url(#terminal-396488486-line-24)">
</text><text class="terminal-396488486-r2" x="1464" y="630" textLength="12.2" clip-path="url(#terminal-396488486-line-25)">
</text><text class="terminal-396488486-r2" x="1464" y="654.4" textLength="12.2" clip-path="url(#terminal-396488486-line-26)">
</text><text class="terminal-396488486-r2" x="1464" y="678.8" textLength="12.2" clip-path="url(#terminal-396488486-line-27)">
</text><text class="terminal-396488486-r2" x="1464" y="703.2" textLength="12.2" clip-path="url(#terminal-396488486-line-28)">
</text><text class="terminal-396488486-r2" x="1464" y="727.6" textLength="12.2" clip-path="url(#terminal-396488486-line-29)">
</text><text class="terminal-396488486-r2" x="1464" y="752" textLength="12.2" clip-path="url(#terminal-396488486-line-30)">
</text><text class="terminal-396488486-r2" x="1464" y="776.4" textLength="12.2" clip-path="url(#terminal-396488486-line-31)">
</text><text class="terminal-396488486-r2" x="1464" y="800.8" textLength="12.2" clip-path="url(#terminal-396488486-line-32)">
</text><text class="terminal-396488486-r2" x="1464" y="825.2" textLength="12.2" clip-path="url(#terminal-396488486-line-33)">
</text><text class="terminal-396488486-r2" x="1464" y="849.6" textLength="12.2" clip-path="url(#terminal-396488486-line-34)">
</text><text class="terminal-396488486-r10" x="719.8" y="874" textLength="12.2" clip-path="url(#terminal-396488486-line-35)">▌</text><text class="terminal-396488486-r2" x="1464" y="874" textLength="12.2" clip-path="url(#terminal-396488486-line-35)">
</text><text class="terminal-396488486-r10" x="719.8" y="898.4" textLength="12.2" clip-path="url(#terminal-396488486-line-36)">▌</text><text class="terminal-396488486-r1" x="744.2" y="898.4" textLength="671" clip-path="url(#terminal-396488486-line-36)">This&#160;feature&#160;requires&#160;an&#160;API-token&#160;fallback&#160;profile&#160;for</text><text class="terminal-396488486-r2" x="1464" y="898.4" textLength="12.2" clip-path="url(#terminal-396488486-line-36)">
</text><text class="terminal-396488486-r10" x="719.8" y="922.8" textLength="12.2" clip-path="url(#terminal-396488486-line-37)">▌</text><text class="terminal-396488486-r1" x="744.2" y="922.8" textLength="195.2" clip-path="url(#terminal-396488486-line-37)">OAuth2&#160;profiles.</text><text class="terminal-396488486-r2" x="1464" y="922.8" textLength="12.2" clip-path="url(#terminal-396488486-line-37)">
</text><text class="terminal-396488486-r10" x="719.8" y="947.2" textLength="12.2" clip-path="url(#terminal-396488486-line-38)">▌</text><text class="terminal-396488486-r2" x="1464" y="947.2" textLength="12.2" clip-path="url(#terminal-396488486-line-38)">
</text><text class="terminal-396488486-r11" x="0" y="971.6" textLength="61" clip-path="url(#terminal-396488486-line-39)">&#160;esc&#160;</text><text class="terminal-396488486-r12" x="61" y="971.6" textLength="73.2" clip-path="url(#terminal-396488486-line-39)">Close&#160;</text><text class="terminal-396488486-r11" x="134.2" y="971.6" textLength="48.8" clip-path="url(#terminal-396488486-line-39)">&#160;^o&#160;</text><text class="terminal-396488486-r12" x="183" y="971.6" textLength="195.2" clip-path="url(#terminal-396488486-line-39)">Open&#160;in&#160;browser&#160;</text><text class="terminal-396488486-r11" x="378.2" y="971.6" textLength="48.8" clip-path="url(#terminal-396488486-line-39)">&#160;^g&#160;</text><text class="terminal-396488486-r12" x="427" y="971.6" textLength="231.8" clip-path="url(#terminal-396488486-line-39)">View&#160;pull&#160;requests&#160;</text>
    </g>
    </g>
</svg>
