<svg class="rich-terminal" viewBox="0 0 1482 1026.0" xmlns="http://www.w3.org/2000/svg">
    <!-- Generated with Rich https://www.textualize.io -->
    <style>

    @font-face {
        font-family: "Fira Code";
        src: local("FiraCode-Regular"),
                url("https://cdnjs.cloudflare.com/ajax/libs/firacode/6.2.0/woff2/FiraCode-Regular.woff2") format("woff2"),
                url("https://cdnjs.cloudflare.com/ajax/libs/firacode/6.2.0/woff/FiraCode-Regular.woff") format("woff");
        font-style: normal;
        font-weight: 400;
    }
    @font-face {
        font-family: "Fira Code";
        src: local("FiraCode-Bold"),
                url("https://cdnjs.cloudflare.com/ajax/libs/firacode/6.2.0/woff2/FiraCode-Bold.woff2") format("woff2"),
                url("https://cdnjs.cloudflare.com/ajax/libs/firacode/6.2.0/woff/FiraCode-Bold.woff") format("woff");
        font-style: bold;
        font-weight: 700;
    }

    .terminal-2114963963-matrix {
        font-family: Fira Code, monospace;
        font-size: 20px;
        line-height: 24.4px;
        font-variant-east-asian: full-width;
    }

    .terminal-2114963963-title {
        font-size: 18px;
        font-weight: bold;
        font-family: arial;
    }

    .terminal-2114963963-r1 { fill: #e0e0e0 }
.terminal-2114963963-r2 { fill: #c5c8c6 }
.terminal-2114963963-r3 { fill: #121212;font-weight: bold }
.terminal-2114963963-r4 { fill: #272727 }
.terminal-2114963963-r5 { fill: #212121 }
.terminal-2114963963-r6 { fill: #3f3d3a;font-weight: bold }
.terminal-2114963963-r7 { fill: #e1e1e1;font-weight: bold }
.terminal-2114963963-r8 { fill: #e0e0e0;font-weight: bold }
.terminal-2114963963-r9 { fill: #8a8a8a }
.terminal-2114963963-r10 { fill: #6e8b79;font-weight: bold }
.terminal-2114963963-r11 { fill: #f3e2e7;font-weight: bold }
.terminal-2114963963-r12 { fill: #1a1000;font-weight: bold }
.terminal-2114963963-r13 { fill: #3b3b3b }
    </style>

    <defs>
    <clipPath id="terminal-2114963963-clip-terminal">
      <rect x="0" y="0" width="1463.0" height="975.0" />
    </clipPath>
    <clipPath id="terminal-2114963963-line-0">
    <rect x="0" y="1.5" width="1464" height="24.65"/>
            </clipPath>
<clipPath id="terminal-2114963963-line-1">
    <rect x="0" y="25.9" width="1464" height="24.65"/>
            </clipPath>
<clipPath id="terminal-2114963963-line-2">
    <rect x="0" y="50.3" width="1464" height="24.65"/>
            </clipPath>
<clipPath id="terminal-2114963963-line-3">
    <rect x="0" y="74.7" width="1464" height="24.65"/>
            </clipPath>
<clipPath id="terminal-2114963963-line-4">
    <rect x="0" y="99.1" width="1464" height="24.65"/>
            </clipPath>
<clipPath id="terminal-2114963963-line-5">
    <rect x="0" y="123.5" width="1464" height="24.65"/>
            </clipPath>
<clipPath id="terminal-2114963963-line-6">
    <rect x="0" y="147.9" width="1464" height="24.65"/>
            </clipPath>
<clipPath id="terminal-2114963963-line-7">
    <rect x="0" y="172.3" width="1464" height="24.65"/>
            </clipPath>
<clipPath id="terminal-2114963963-line-8">
    <rect x="0" y="196.7" width="1464" height="24.65"/>
            </clipPath>
<clipPath id="terminal-2114963963-line-9">
    <rect x="0" y="221.1" width="1464" height="24.65"/>
            </clipPath>
<clipPath id="terminal-2114963963-line-10">
    <rect x="0" y="245.5" width="1464" height="24.65"/>
            </clipPath>
<clipPath id="terminal-2114963963-line-11">
    <rect x="0" y="269.9" width="1464" height="24.65"/>
            </clipPath>
<clipPath id="terminal-2114963963-line-12">
    <rect x="0" y="294.3" width="1464" height="24.65"/>
            </clipPath>
<clipPath id="terminal-2114963963-line-13">
    <rect x="0" y="318.7" width="1464" height="24.65"/>
            </clipPath>
<clipPath id="terminal-2114963963-line-14">
    <rect x="0" y="343.1" width="1464" height="24.65"/>
            </clipPath>
<clipPath id="terminal-2114963963-line-15">
    <rect x="0" y="367.5" width="1464" height="24.65"/>
            </clipPath>
<clipPath id="terminal-2114963963-line-16">
    <rect x="0" y="391.9" width="1464" height="24.65"/>
            </clipPath>
<clipPath id="terminal-2114963963-line-17">
    <rect x="0" y="416.3" width="1464" height="24.65"/>
            </clipPath>
<clipPath id="terminal-2114963963-line-18">
    <rect x="0" y="440.7" width="1464" height="24.65"/>
            </clipPath>
<clipPath id="terminal-2114963963-line-19">
    <rect x="0" y="465.1" width="1464" height="24.65"/>
            </clipPath>
<clipPath id="terminal-2114963963-line-20">
    <rect x="0" y="489.5" width="1464" height="24.65"/>
            </clipPath>
<clipPath id="terminal-2114963963-line-21">
    <rect x="0" y="513.9" width="1464" height="24.65"/>
            </clipPath>
<clipPath id="terminal-2114963963-line-22">
    <rect x="0" y="538.3" width="1464" height="24.65"/>
            </clipPath>
<clipPath id="terminal-2114963963-line-23">
    <rect x="0" y="562.7" width="1464" height="24.65"/>
            </clipPath>
<clipPath id="terminal-2114963963-line-24">
    <rect x="0" y="587.1" width="1464" height="24.65"/>
            </clipPath>
<clipPath id="terminal-2114963963-line-25">
    <rect x="0" y="611.5" width="1464" height="24.65"/>
            </clipPath>
<clipPath id="terminal-2114963963-line-26">
    <rect x="0" y="635.9" width="1464" height="24.65"/>
            </clipPath>
<clipPath id="terminal-2114963963-line-27">
    <rect x="0" y="660.3" width="1464" height="24.65"/>
            </clipPath>
<clipPath id="terminal-2114963963-line-28">
    <rect x="0" y="684.7" width="1464" height="24.65"/>
            </clipPath>
<clipPath id="terminal-2114963963-line-29">
    <rect x="0" y="709.1" width="1464" height="24.65"/>
            </clipPath>
<clipPath id="terminal-2114963963-line-30">
    <rect x="0" y="733.5" width="1464" height="24.65"/>
            </clipPath>
<clipPath id="terminal-2114963963-line-31">
    <rect x="0" y="757.9" width="1464" height="24.65"/>
            </clipPath>
<clipPath id="terminal-2114963963-line-32">
    <rect x="0" y="782.3" width="1464" height="24.65"/>
            </clipPath>
<clipPath id="terminal-2114963963-line-33">
    <rect x="0" y="806.7" width="1464" height="24.65"/>
            </clipPath>
<clipPath id="terminal-2114963963-line-34">
    <rect x="0" y="831.1" width="1464" height="24.65"/>
            </clipPath>
<clipPath id="terminal-2114963963-line-35">
    <rect x="0" y="855.5" width="1464" height="24.65"/>
            </clipPath>
<clipPath id="terminal-2114963963-line-36">
    <rect x="0" y="879.9" width="1464" height="24.65"/>
            </clipPath>
<clipPath id="terminal-2114963963-line-37">
    <rect x="0" y="904.3" width="1464" height="24.65"/>
            </clipPath>
<clipPath id="terminal-2114963963-line-38">
    <rect x="0" y="928.7" width="1464" height="24.65"/>
            </clipPath>
    </defs>

    <rect fill="#292929" stroke="rgba(255,255,255,0.35)" stroke-width="1" x="1" y="1" width="1480" height="1024" rx="8"/><text class="terminal-2114963963-title" fill="#c5c8c6" text-anchor="middle" x="740" y="27">gojeera</text>
            <g transform="translate(26,22)">
            <circle cx="0" cy="0" r="7" fill="#ff5f57"/>
            <circle cx="22" cy="0" r="7" fill="#febc2e"/>
            <circle cx="44" cy="0" r="7" fill="#28c840"/>
            </g>
        
    <g transform="translate(9, 41)" clip-path="url(#terminal-2114963963-clip-terminal)">
    <rect fill="#121212" x="0" y="1.5" width="1464" height="24.65" shape-rendering="crispEdges"/><rect fill="#121212" x="0" y="25.9" width="12.2" height="24.65" shape-rendering="crispEdges"/><rect fill="#102738" x="12.2" y="25.9" width="12.2" height="24.65" shape-rendering="crispEdges"/><rect fill="#102738" x="24.4" y="25.9" width="61" height="24.65" shape-rendering="crispEdges"/><rect fill="#102738" x="85.4" y="25.9" width="85.4" height="24.65" shape-rendering="crispEdges"/><rect fill="#102738" x="170.8" y="25.9" width="12.2" height="24.65" shape-rendering="crispEdges"/><rect fill="#102738" x="183" y="25.9" width="12.2" height="24.65" shape-rendering="crispEdges"/><rect fill="#121212" x="195.2" y="25.9" width="12.2" height="24.65" shape-rendering="crispEdges"/><rect fill="#141414" x="207.4" y="25.9" width="85.4" height="24.65" shape-rendering="crispEdges"/><rect fill="#141414" x="292.8" y="25.9" width="158.6" height="24.65" shape-rendering="crispEdges"/><rect fill="#141414" x="451.4" y="25.9" width="12.2" height="24.65" shape-rendering="crispEdges"/><rect fill="#141414" x="463.6" y="25.9" width="12.2" height="24.65" shape-rendering="crispEdges"/><rect fill="#121212" x="475.8" y="25.9" width="12.2" height="24.65" shape-rendering="crispEdges"/><rect fill="#131313" x="488" y="25.9" width="97.6" height="24.65" shape-rendering="crispEdges"/><rect fill="#131313" x="585.6" y="25.9" width="158.6" height="24.65" shape-rendering="crispEdges"/><rect fill="#131313" x="744.2" y="25.9" width="12.2" height="24.65" shape-rendering="crispEdges"/><rect fill="#131313" x="756.4" y="25.9" width="12.2" height="24.65" shape-rendering="crispEdges"/><rect fill="#121212" x="768.6" y="25.9" width="12.2" height="24.65" shape-rendering="crispEdges"/><rect fill="#131313" x="780.8" y="25.9" width="48.8" height="24.65" shape-rendering="crispEdges"/><rect fill="#131313" x="829.6" y="25.9" width="195.2" height="24.65" shape-rendering="crispEdges"/><rect fill="#131313" x="1024.8" y="25.9" width="12.2" height="24.65" shape-rendering="crispEdges"/><rect fill="#131313" x="1037" y="25.9" width="12.2" height="24.65" shape-rendering="crispEdges"/><rect fill="#121212" x="1049.2" y="25.9" width="12.2" height="24.65" shape-rendering="crispEdges"/><rect fill="#131313" x="1061.4" y="25.9" width="73.2" height="24.65" shape-rendering="crispEdges"/><rect fill="#131313" x="1134.6" y="25.9" width="183" height="24.65" shape-rendering="crispEdges"/><rect fill="#131313" x="1317.6" y="25.9" width="12.2" height="24.65" shape-rendering="crispEdges"/><rect fill="#131313" x="1329.8" y="25.9" width="12.2" height="24.65" shape-rendering="crispEdges"/><rect fill="#121212" x="1342" y="25.9" width="12.2" height="24.65" shape-rendering="crispEdges"/><rect fill="#33230e" x="1354.2" y="25.9" width="97.6" height="24.65" shape-rendering="crispEdges"/><rect fill="#121212" x="1451.8" y="25.9" width="12.2" height="24.65" shape-rendering="crispEdges"/><rect fill="#121212" x="0" y="50.3" width="36.6" height="24.65" shape-rendering="crispEdges"/><rect fill="#1e1e1e" x="36.6" y="50.3" width="1390.8" height="24.65" shape-rendering="crispEdges"/><rect fill="#121212" x="1427.4" y="50.3" width="36.6" height="24.65" shape-rendering="crispEdges"/><rect fill="#121212" x="0" y="74.7" width="36.6" height="24.65" shape-rendering="crispEdges"/><rect fill="#1e1e1e" x="36.6" y="74.7" width="610" height="24.65" shape-rendering="crispEdges"/><rect fill="#1e1e1e" x="646.6" y="74.7" width="158.6" height="24.65" shape-rendering="crispEdges"/><rect fill="#1e1e1e" x="805.2" y="74.7" width="622.2" height="24.65" shape-rendering="crispEdges"/><rect fill="#121212" x="1427.4" y="74.7" width="36.6" height="24.65" shape-rendering="crispEdges"/><rect fill="#121212" x="0" y="99.1" width="36.6" height="24.65" shape-rendering="crispEdges"/><rect fill="#1e1e1e" x="36.6" y="99.1" width="24.4" height="24.65" shape-rendering="crispEdges"/><rect fill="#1e1e1e" x="61" y="99.1" width="85.4" height="24.65" shape-rendering="crispEdges"/><rect fill="#1e1e1e" x="146.4" y="99.1" width="1281" height="24.65" shape-rendering="crispEdges"/><rect fill="#121212" x="1427.4" y="99.1" width="36.6" height="24.65" shape-rendering="crispEdges"/><rect fill="#121212" x="0" y="123.5" width="36.6" height="24.65" shape-rendering="crispEdges"/><rect fill="#1e1e1e" x="36.6" y="123.5" width="24.4" height="24.65" shape-rendering="crispEdges"/><rect fill="#353535" x="61" y="123.5" width="195.2" height="24.65" shape-rendering="crispEdges"/><rect fill="#353535" x="256.2" y="123.5" width="1110.2" height="24.65" shape-rendering="crispEdges"/><rect fill="#353535" x="1366.4" y="123.5" width="12.2" height="24.65" shape-rendering="crispEdges"/><rect fill="#353535" x="1378.6" y="123.5" width="12.2" height="24.65" shape-rendering="crispEdges"/><rect fill="#1e1e1e" x="1390.8" y="123.5" width="36.6" height="24.65" shape-rendering="crispEdges"/><rect fill="#121212" x="1427.4" y="123.5" width="36.6" height="24.65" shape-rendering="crispEdges"/><rect fill="#121212" x="0" y="147.9" width="36.6" height="24.65" shape-rendering="crispEdges"/><rect fill="#1e1e1e" x="36.6" y="147.9" width="1390.8" height="24.65" shape-rendering="crispEdges"/><rect fill="#121212" x="1427.4" y="147.9" width="36.6" height="24.65" shape-rendering="crispEdges"/><rect fill="#121212" x="0" y="172.3" width="36.6" height="24.65" shape-rendering="crispEdges"/><rect fill="#1e1e1e" x="36.6" y="172.3" width="1390.8" height="24.65" shape-rendering="crispEdges"/><rect fill="#121212" x="1427.4" y="172.3" width="36.6" height="24.65" shape-rendering="crispEdges"/><rect fill="#121212" x="0" y="196.7" width="36.6" height="24.65" shape-rendering="crispEdges"/><rect fill="#1e1e1e" x="36.6" y="196.7" width="1390.8" height="24.65" shape-rendering="crispEdges"/><rect fill="#121212" x="1427.4" y="196.7" width="36.6" height="24.65" shape-rendering="crispEdges"/><rect fill="#121212" x="0" y="221.1" width="36.6" height="24.65" shape-rendering="crispEdges"/><rect fill="#1e1e1e" x="36.6" y="221.1" width="1390.8" height="24.65" shape-rendering="crispEdges"/><rect fill="#121212" x="1427.4" y="221.1" width="36.6" height="24.65" shape-rendering="crispEdges"/><rect fill="#121212" x="0" y="245.5" width="36.6" height="24.65" shape-rendering="crispEdges"/><rect fill="#1e1e1e" x="36.6" y="245.5" width="1390.8" height="24.65" shape-rendering="crispEdges"/><rect fill="#121212" x="1427.4" y="245.5" width="36.6" height="24.65" shape-rendering="crispEdges"/><rect fill="#121212" x="0" y="269.9" width="36.6" height="24.65" shape-rendering="crispEdges"/><rect fill="#1e1e1e" x="36.6" y="269.9" width="1390.8" height="24.65" shape-rendering="crispEdges"/><rect fill="#121212" x="1427.4" y="269.9" width="36.6" height="24.65" shape-rendering="crispEdges"/><rect fill="#121212" x="0" y="294.3" width="36.6" height="24.65" shape-rendering="crispEdges"/><rect fill="#1e1e1e" x="36.6" y="294.3" width="1390.8" height="24.65" shape-rendering="crispEdges"/><rect fill="#121212" x="1427.4" y="294.3" width="36.6" height="24.65" shape-rendering="crispEdges"/><rect fill="#121212" x="0" y="318.7" width="36.6" height="24.65" shape-rendering="crispEdges"/><rect fill="#1e1e1e" x="36.6" y="318.7" width="1390.8" height="24.65" shape-rendering="crispEdges"/><rect fill="#121212" x="1427.4" y="318.7" width="36.6" height="24.65" shape-rendering="crispEdges"/><rect fill="#121212" x="0" y="343.1" width="36.6" height="24.65" shape-rendering="crispEdges"/><rect fill="#1e1e1e" x="36.6" y="343.1" width="1390.8" height="24.65" shape-rendering="crispEdges"/><rect fill="#121212" x="1427.4" y="343.1" width="36.6" height="24.65" shape-rendering="crispEdges"/><rect fill="#121212" x="0" y="367.5" width="36.6" height="24.65" shape-rendering="crispEdges"/><rect fill="#1e1e1e" x="36.6" y="367.5" width="1390.8" height="24.65" shape-rendering="crispEdges"/><rect fill="#121212" x="1427.4" y="367.5" width="36.6" height="24.65" shape-rendering="crispEdges"/><rect fill="#121212" x="0" y="391.9" width="36.6" height="24.65" shape-rendering="crispEdges"/><rect fill="#1e1e1e" x="36.6" y="391.9" width="1390.8" height="24.65" shape-rendering="crispEdges"/><rect fill="#121212" x="1427.4" y="391.9" width="36.6" height="24.65" shape-rendering="crispEdges"/><rect fill="#121212" x="0" y="416.3" width="36.6" height="24.65" shape-rendering="crispEdges"/><rect fill="#1e1e1e" x="36.6" y="416.3" width="1390.8" height="24.65" shape-rendering="crispEdges"/><rect fill="#121212" x="1427.4" y="416.3" width="36.6" height="24.65" shape-rendering="crispEdges"/><rect fill="#121212" x="0" y="440.7" width="36.6" height="24.65" shape-rendering="crispEdges"/><rect fill="#1e1e1e" x="36.6" y="440.7" width="1390.8" height="24.65" shape-rendering="crispEdges"/><rect fill="#121212" x="1427.4" y="440.7" width="36.6" height="24.65" shape-rendering="crispEdges"/><rect fill="#121212" x="0" y="465.1" width="36.6" height="24.65" shape-rendering="crispEdges"/><rect fill="#1e1e1e" x="36.6" y="465.1" width="1390.8" height="24.65" shape-rendering="crispEdges"/><rect fill="#121212" x="1427.4" y="465.1" width="36.6" height="24.65" shape-rendering="crispEdges"/><rect fill="#121212" x="0" y="489.5" width="36.6" height="24.65" shape-rendering="crispEdges"/><rect fill="#1e1e1e" x="36.6" y="489.5" width="1390.8" height="24.65" shape-rendering="crispEdges"/><rect fill="#121212" x="1427.4" y="489.5" width="36.6" height="24.65" shape-rendering="crispEdges"/><rect fill="#121212" x="0" y="513.9" width="36.6" height="24.65" shape-rendering="crispEdges"/><rect fill="#1e1e1e" x="36.6" y="513.9" width="1390.8" height="24.65" shape-rendering="crispEdges"/><rect fill="#121212" x="1427.4" y="513.9" width="36.6" height="24.65" shape-rendering="crispEdges"/><rect fill="#121212" x="0" y="538.3" width="36.6" height="24.65" shape-rendering="crispEdges"/><rect fill="#1e1e1e" x="36.6" y="538.3" width="1390.8" height="24.65" shape-rendering="crispEdges"/><rect fill="#121212" x="1427.4" y="538.3" width="36.6" height="24.65" shape-rendering="crispEdges"/><rect fill="#121212" x="0" y="562.7" width="36.6" height="24.65" shape-rendering="crispEdges"/><rect fill="#1e1e1e" x="36.6" y="562.7" width="1390.8" height="24.65" shape-rendering="crispEdges"/><rect fill="#121212" x="1427.4" y="562.7" width="36.6" height="24.65" shape-rendering="crispEdges"/><rect fill="#121212" x="0" y="587.1" width="36.6" height="24.65" shape-rendering="crispEdges"/><rect fill="#1e1e1e" x="36.6" y="587.1" width="1390.8" height="24.65" shape-rendering="crispEdges"/><rect fill="#121212" x="1427.4" y="587.1" width="36.6" height="24.65" shape-rendering="crispEdges"/><rect fill="#121212" x="0" y="611.5" width="36.6" height="24.65" shape-rendering="crispEdges"/><rect fill="#1e1e1e" x="36.6" y="611.5" width="1390.8" height="24.65" shape-rendering="crispEdges"/><rect fill="#121212" x="1427.4" y="611.5" width="36.6" height="24.65" shape-rendering="crispEdges"/><rect fill="#121212" x="0" y="635.9" width="36.6" height="24.65" shape-rendering="crispEdges"/><rect fill="#1e1e1e" x="36.6" y="635.9" width="1390.8" height="24.65" shape-rendering="crispEdges"/><rect fill="#121212" x="1427.4" y="635.9" width="36.6" height="24.65" shape-rendering="crispEdges"/><rect fill="#121212" x="0" y="660.3" width="36.6" height="24.65" shape-rendering="crispEdges"/><rect fill="#1e1e1e" x="36.6" y="660.3" width="1390.8" height="24.65" shape-rendering="crispEdges"/><rect fill="#121212" x="1427.4" y="660.3" width="36.6" height="24.65" shape-rendering="crispEdges"/><rect fill="#121212" x="0" y="684.7" width="36.6" height="24.65" shape-rendering="crispEdges"/><rect fill="#1e1e1e" x="36.6" y="684.7" width="1390.8" height="24.65" shape-rendering="crispEdges"/><rect fill="#121212" x="1427.4" y="684.7" width="36.6" height="24.65" shape-rendering="crispEdges"/><rect fill="#121212" x="0" y="709.1" width="36.6" height="24.65" shape-rendering="crispEdges"/><rect fill="#1e1e1e" x="36.6" y="709.1" width="1390.8" height="24.65" shape-rendering="crispEdges"/><rect fill="#121212" x="1427.4" y="709.1" width="36.6" height="24.65" shape-rendering="crispEdges"/><rect fill="#121212" x="0" y="733.5" width="36.6" height="24.65" shape-rendering="crispEdges"/><rect fill="#1e1e1e" x="36.6" y="733.5" width="1390.8" height="24.65" shape-rendering="crispEdges"/><rect fill="#121212" x="1427.4" y="733.5" width="36.6" height="24.65" shape-rendering="crispEdges"/><rect fill="#121212" x="0" y="757.9" width="36.6" height="24.65" shape-rendering="crispEdges"/><rect fill="#1e1e1e" x="36.6" y="757.9" width="1390.8" height="24.65" shape-rendering="crispEdges"/><rect fill="#121212" x="1427.4" y="757.9" width="36.6" height="24.65" shape-rendering="crispEdges"/><rect fill="#121212" x="0" y="782.3" width="36.6" height="24.65" shape-rendering="crispEdges"/><rect fill="#1e1e1e" x="36.6" y="782.3" width="1390.8" height="24.65" shape-rendering="crispEdges"/><rect fill="#121212" x="1427.4" y="782.3" width="36.6" height="24.65" shape-rendering="crispEdges"/><rect fill="#121212" x="0" y="806.7" width="36.6" height="24.65" shape-rendering="crispEdges"/><rect fill="#1e1e1e" x="36.6" y="806.7" width="1390.8" height="24.65" shape-rendering="crispEdges"/><rect fill="#121212" x="1427.4" y="806.7" width="36.6" height="24.65" shape-rendering="crispEdges"/><rect fill="#121212" x="0" y="831.1" width="36.6" height="24.65" shape-rendering="crispEdges"/><rect fill="#1e1e1e" x="36.6" y="831.1" width="1390.8" height="24.65" shape-rendering="crispEdges"/><rect fill="#121212" x="1427.4" y="831.1" width="36.6" height="24.65" shape-rendering="crispEdges"/><rect fill="#121212" x="0" y="855.5" width="36.6" height="24.65" shape-rendering="crispEdges"/><rect fill="#1e1e1e" x="36.6" y="855.5" width="488" height="24.65" shape-rendering="crispEdges"/><rect fill="#1a5833" x="524.6" y="855.5" width="61" height="24.65" shape-rendering="crispEdges"/><rect fill="#1a5833" x="585.6" y="855.5" width="73.2" height="24.65" shape-rendering="crispEdges"/><rect fill="#1a5833" x="658.8" y="855.5" width="61" height="24.65" shape-rendering="crispEdges"/><rect fill="#1e1e1e" x="719.8" y="855.5" width="12.2" height="24.65" shape-rendering="crispEdges"/><rect fill="#a32549" x="732" y="855.5" width="48.8" height="24.65" shape-rendering="crispEdges"/><rect fill="#a32549" x="780.8" y="855.5" width="97.6" height="24.65" shape-rendering="crispEdges"/><rect fill="#a32549" x="878.4" y="855.5" width="48.8" height="24.65" shape-rendering="crispEdges"/><rect fill="#1e1e1e" x="927.2" y="855.5" width="500.2" height="24.65" shape-rendering="crispEdges"/><rect fill="#121212" x="1427.4" y="855.5" width="36.6" height="24.65" shape-rendering="crispEdges"/><rect fill="#121212" x="0" y="879.9" width="36.6" height="24.65" shape-rendering="crispEdges"/><rect fill="#1e1e1e" x="36.6" y="879.9" width="1390.8" height="24.65" shape-rendering="crispEdges"/><rect fill="#121212" x="1427.4" y="879.9" width="36.6" height="24.65" shape-rendering="crispEdges"/><rect fill="#121212" x="0" y="904.3" width="36.6" height="24.65" shape-rendering="crispEdges"/><rect fill="#cf7e00" x="36.6" y="904.3" width="317.2" height="24.65" shape-rendering="crispEdges"/><rect fill="#cf7e00" x="353.8" y="904.3" width="756.4" height="24.65" shape-rendering="crispEdges"/><rect fill="#cf7e00" x="1110.2" y="904.3" width="317.2" height="24.65" shape-rendering="crispEdges"/><rect fill="#121212" x="1427.4" y="904.3" width="36.6" height="24.65" shape-rendering="crispEdges"/><rect fill="#121212" x="0" y="928.7" width="24.4" height="24.65" shape-rendering="crispEdges"/><rect fill="#121212" x="24.4" y="928.7" width="1427.4" height="24.65" shape-rendering="crispEdges"/><rect fill="#121212" x="1451.8" y="928.7" width="12.2" height="24.65" shape-rendering="crispEdges"/><rect fill="#121212" x="0" y="953.1" width="1464" height="24.65" shape-rendering="crispEdges"/>
    <g class="terminal-2114963963-matrix">
    <text class="terminal-2114963963-r2" x="1464" y="20" textLength="12.2" clip-path="url(#terminal-2114963963-line-0)">
</text><text class="terminal-2114963963-r3" x="24.4" y="44.4" textLength="61" clip-path="url(#terminal-2114963963-line-1)">Basic</text><text class="terminal-2114963963-r3" x="170.8" y="44.4" textLength="12.2" clip-path="url(#terminal-2114963963-line-1)">▼</text><text class="terminal-2114963963-r4" x="207.4" y="44.4" textLength="85.4" clip-path="url(#terminal-2114963963-line-1)">Project</text><text class="terminal-2114963963-r4" x="451.4" y="44.4" textLength="12.2" clip-path="url(#terminal-2114963963-line-1)">▼</text><text class="terminal-2114963963-r5" x="488" y="44.4" textLength="97.6" clip-path="url(#terminal-2114963963-line-1)">Assignee</text><text class="terminal-2114963963-r5" x="744.2" y="44.4" textLength="12.2" clip-path="url(#terminal-2114963963-line-1)">▼</text><text class="terminal-2114963963-r5" x="780.8" y="44.4" textLength="48.8" clip-path="url(#terminal-2114963963-line-1)">Type</text><text class="terminal-2114963963-r5" x="1024.8" y="44.4" textLength="12.2" clip-path="url(#terminal-2114963963-line-1)">▼</text><text class="terminal-2114963963-r5" x="1061.4" y="44.4" textLength="73.2" clip-path="url(#terminal-2114963963-line-1)">Status</text><text class="terminal-2114963963-r5" x="1317.6" y="44.4" textLength="12.2" clip-path="url(#terminal-2114963963-line-1)">▼</text><text class="terminal-2114963963-r6" x="1354.2" y="44.4" textLength="97.6" clip-path="url(#terminal-2114963963-line-1)">&#160;Search&#160;</text><text class="terminal-2114963963-r2" x="1464" y="44.4" textLength="12.2" clip-path="url(#terminal-2114963963-line-1)">
</text><text class="terminal-2114963963-r2" x="1464" y="68.8" textLength="12.2" clip-path="url(#terminal-2114963963-line-2)">
</text><text class="terminal-2114963963-r7" x="646.6" y="93.2" textLength="158.6" clip-path="url(#terminal-2114963963-line-3)">New&#160;Work&#160;Item</text><text class="terminal-2114963963-r2" x="1464" y="93.2" textLength="12.2" clip-path="url(#terminal-2114963963-line-3)">
</text><text class="terminal-2114963963-r8" x="61" y="117.6" textLength="85.4" clip-path="url(#terminal-2114963963-line-4)">Project</text><text class="terminal-2114963963-r2" x="1464" y="117.6" textLength="12.2" clip-path="url(#terminal-2114963963-line-4)">
</text><text class="terminal-2114963963-r9" x="61" y="142" textLength="195.2" clip-path="url(#terminal-2114963963-line-5)">Select&#160;a&#160;project</text><text class="terminal-2114963963-r9" x="1366.4" y="142" textLength="12.2" clip-path="url(#terminal-2114963963-line-5)">▼</text><text class="terminal-2114963963-r2" x="1464" y="142" textLength="12.2" clip-path="url(#terminal-2114963963-line-5)">
</text><text class="terminal-2114963963-r2" x="1464" y="166.4" textLength="12.2" clip-path="url(#terminal-2114963963-line-6)">
</text><text class="terminal-2114963963-r2" x="1464" y="190.8" textLength="12.2" clip-path="url(#terminal-2114963963-line-7)">
</text><text class="terminal-2114963963-r2" x="1464" y="215.2" textLength="12.2" clip-path="url(#terminal-2114963963-line-8)">
</text><text class="terminal-2114963963-r2" x="1464" y="239.6" textLength="12.2" clip-path="url(#terminal-2114963963-line-9)">
</text><text class="terminal-2114963963-r2" x="1464" y="264" textLength="12.2" clip-path="url(#terminal-2114963963-line-10)">
</text><text class="terminal-2114963963-r2" x="1464" y="288.4" textLength="12.2" clip-path="url(#terminal-2114963963-line-11)">
</text><text class="terminal-2114963963-r2" x="1464" y="312.8" textLength="12.2" clip-path="url(#terminal-2114963963-line-12)">
</text><text class="terminal-2114963963-r2" x="1464" y="337.2" textLength="12.2" clip-path="url(#terminal-2114963963-line-13)">
</text><text class="terminal-2114963963-r2" x="1464" y="361.6" textLength="12.2" clip-path="url(#terminal-2114963963-line-14)">
</text><text class="terminal-2114963963-r2" x="1464" y="386" textLength="12.2" clip-path="url(#terminal-2114963963-line-15)">
</text><text class="terminal-2114963963-r2" x="1464" y="410.4" textLength="12.2" clip-path="url(#terminal-2114963963-line-16)">
</text><text class="terminal-2114963963-r2" x="1464" y="434.8" textLength="12.2" clip-path="url(#terminal-2114963963-line-17)">
</text><text class="terminal-2114963963-r2" x="1464" y="459.2" textLength="12.2" clip-path="url(#terminal-2114963963-line-18)">
</text><text class="terminal-2114963963-r2" x="1464" y="483.6" textLength="12.2" clip-path="url(#terminal-2114963963-line-19)">
</text><text class="terminal-2114963963-r2" x="1464" y="508" textLength="12.2" clip-path="url(#terminal-2114963963-line-20)">
</text><text class="terminal-2114963963-r2" x="1464" y="532.4" textLength="12.2" clip-path="url(#terminal-2114963963-line-21)">
</text><text class="terminal-2114963963-r2" x="1464" y="556.8" textLength="12.2" clip-path="url(#terminal-2114963963-line-22)">
</text><text class="terminal-2114963963-r2" x="1464" y="581.2" textLength="12.2" clip-path="url(#terminal-2114963963-line-23)">
</text><text class="terminal-2114963963-r2" x="1464" y="605.6" textLength="12.2" clip-path="url(#terminal-2114963963-line-24)">
</text><text class="terminal-2114963963-r2" x="1464" y="630" textLength="12.2" clip-path="url(#terminal-2114963963-line-25)">
</text><text class="terminal-2114963963-r2" x="1464" y="654.4" textLength="12.2" clip-path="url(#terminal-2114963963-line-26)">
</text><text class="terminal-2114963963-r2" x="1464" y="678.8" textLength="12.2" clip-path="url(#terminal-2114963963-line-27)">
</text><text class="terminal-2114963963-r2" x="1464" y="703.2" textLength="12.2" clip-path="url(#terminal-2114963963-line-28)">
</text><text class="terminal-2114963963-r2" x="1464" y="727.6" textLength="12.2" clip-path="url(#terminal-2114963963-line-29)">
</text><text class="terminal-2114963963-r2" x="1464" y="752" textLength="12.2" clip-path="url(#terminal-2114963963-line-30)">
</text><text class="terminal-2114963963-r2" x="1464" y="776.4" textLength="12.2" clip-path="url(#terminal-2114963963-line-31)">
</text><text class="terminal-2114963963-r2" x="1464" y="800.8" textLength="12.2" clip-path="url(#terminal-2114963963-line-32)">
</text><text class="terminal-2114963963-r2" x="1464" y="825.2" textLength="12.2" clip-path="url(#terminal-2114963963-line-33)">
</text><text class="terminal-2114963963-r2" x="1464" y="849.6" textLength="12.2" clip-path="url(#terminal-2114963963-line-34)">
</text><text class="terminal-2114963963-r10" x="585.6" y="874" textLength="73.2" clip-path="url(#terminal-2114963963-line-35)">&#160;Save&#160;</text><text class="terminal-2114963963-r11" x="780.8" y="874" textLength="97.6" clip-path="url(#terminal-2114963963-line-35)">&#160;Cancel&#160;</text><text class="terminal-2114963963-r2" x="1464" y="874" textLength="12.2" clip-path="url(#terminal-2114963963-line-35)">
</text><text class="terminal-2114963963-r2" x="1464" y="898.4" textLength="12.2" clip-path="url(#terminal-2114963963-line-36)">
</text><text class="terminal-2114963963-r12" x="353.8" y="922.8" textLength="756.4" clip-path="url(#terminal-2114963963-line-37)">⚠&#160;Required:&#160;4&#160;pending&#160;(Project,&#160;Issue&#160;Type,&#160;Summary,&#160;Reporter)</text><text class="terminal-2114963963-r2" x="1464" y="922.8" textLength="12.2" clip-path="url(#terminal-2114963963-line-37)">
</text><text class="terminal-2114963963-r2" x="1464" y="947.2" textLength="12.2" clip-path="url(#terminal-2114963963-line-38)">
</text>
    </g>
    </g>
</svg>
