<svg class="rich-terminal" viewBox="0 0 994 1026.0" xmlns="http://www.w3.org/2000/svg">
    <!-- Generated with Rich https://www.textualize.io -->
    <style>

    @font-face {
        font-family: "Fira Code";
        src: local("FiraCode-Regular"),
                url("https://cdnjs.cloudflare.com/ajax/libs/firacode/6.2.0/woff2/FiraCode-Regular.woff2") format("woff2"),
                url("https://cdnjs.cloudflare.com/ajax/libs/firacode/6.2.0/woff/FiraCode-Regular.woff") format("woff");
        font-style: normal;
        font-weight: 400;
    }
    @font-face {
        font-family: "Fira Code";
        src: local("FiraCode-Bold"),
                url("https://cdnjs.cloudflare.com/ajax/libs/firacode/6.2.0/woff2/FiraCode-Bold.woff2") format("woff2"),
                url("https://cdnjs.cloudflare.com/ajax/libs/firacode/6.2.0/woff/FiraCode-Bold.woff") format("woff");
        font-style: bold;
        font-weight: 700;
    }

    .terminal-3109797362-matrix {
        font-family: Fira Code, monospace;
        font-size: 20px;
        line-height: 24.4px;
        font-variant-east-asian: full-width;
    }

    .terminal-3109797362-title {
        font-size: 18px;
        font-weight: bold;
        font-family: arial;
    }

    .terminal-3109797362-r1 { fill: #c5c8c6 }
.terminal-3109797362-r2 { fill: #282a36;font-weight: bold }
.terminal-3109797362-r3 { fill: #7b7d85 }
.terminal-3109797362-r4 { fill: #f8f8f2 }
.terminal-3109797362-r5 { fill: #919396 }
.terminal-3109797362-r6 { fill: #727379 }
.terminal-3109797362-r7 { fill: #f6e5ef;font-weight: bold }
.terminal-3109797362-r8 { fill: #a9a9ae;font-weight: bold }
.terminal-3109797362-r9 { fill: #ff79c6;font-weight: bold }
.terminal-3109797362-r10 { fill: #bd93f9;font-weight: bold }
.terminal-3109797362-r11 { fill: #909194 }
.terminal-3109797362-r12 { fill: #3c3e48 }
.terminal-3109797362-r13 { fill: #bd93f9 }
.terminal-3109797362-r14 { fill: #f8f8f2;font-weight: bold }
.terminal-3109797362-r15 { fill: #282a36 }
.terminal-3109797362-r16 { fill: #e3e3e4;text-decoration: underline; }
.terminal-3109797362-r17 { fill: #181320;font-weight: bold }
.terminal-3109797362-r18 { fill: #b9bab9 }
.terminal-3109797362-r19 { fill: #313442 }
.terminal-3109797362-r20 { fill: #e8bbff }
.terminal-3109797362-r21 { fill: #181a25 }
.terminal-3109797362-r22 { fill: #a9a9ae }
.terminal-3109797362-r23 { fill: #81654c;font-weight: bold }
.terminal-3109797362-r24 { fill: #625044;font-weight: bold }
    </style>

    <defs>
    <clipPath id="terminal-3109797362-clip-terminal">
      <rect x="0" y="0" width="975.0" height="975.0" />
    </clipPath>
    <clipPath id="terminal-3109797362-line-0">
    <rect x="0" y="1.5" width="976" height="24.65"/>
            </clipPath>
<clipPath id="terminal-3109797362-line-1">
    <rect x="0" y="25.9" width="976" height="24.65"/>
            </clipPath>
<clipPath id="terminal-3109797362-line-2">
    <rect x="0" y="50.3" width="976" height="24.65"/>
            </clipPath>
<clipPath id="terminal-3109797362-line-3">
    <rect x="0" y="74.7" width="976" height="24.65"/>
            </clipPath>
<clipPath id="terminal-3109797362-line-4">
    <rect x="0" y="99.1" width="976" height="24.65"/>
            </clipPath>
<clipPath id="terminal-3109797362-line-5">
    <rect x="0" y="123.5" width="976" height="24.65"/>
            </clipPath>
<clipPath id="terminal-3109797362-line-6">
    <rect x="0" y="147.9" width="976" height="24.65"/>
            </clipPath>
<clipPath id="terminal-3109797362-line-7">
    <rect x="0" y="172.3" width="976" height="24.65"/>
            </clipPath>
<clipPath id="terminal-3109797362-line-8">
    <rect x="0" y="196.7" width="976" height="24.65"/>
            </clipPath>
<clipPath id="terminal-3109797362-line-9">
    <rect x="0" y="221.1" width="976" height="24.65"/>
            </clipPath>
<clipPath id="terminal-3109797362-line-10">
    <rect x="0" y="245.5" width="976" height="24.65"/>
            </clipPath>
<clipPath id="terminal-3109797362-line-11">
    <rect x="0" y="269.9" width="976" height="24.65"/>
            </clipPath>
<clipPath id="terminal-3109797362-line-12">
    <rect x="0" y="294.3" width="976" height="24.65"/>
            </clipPath>
<clipPath id="terminal-3109797362-line-13">
    <rect x="0" y="318.7" width="976" height="24.65"/>
            </clipPath>
<clipPath id="terminal-3109797362-line-14">
    <rect x="0" y="343.1" width="976" height="24.65"/>
            </clipPath>
<clipPath id="terminal-3109797362-line-15">
    <rect x="0" y="367.5" width="976" height="24.65"/>
            </clipPath>
<clipPath id="terminal-3109797362-line-16">
    <rect x="0" y="391.9" width="976" height="24.65"/>
            </clipPath>
<clipPath id="terminal-3109797362-line-17">
    <rect x="0" y="416.3" width="976" height="24.65"/>
            </clipPath>
<clipPath id="terminal-3109797362-line-18">
    <rect x="0" y="440.7" width="976" height="24.65"/>
            </clipPath>
<clipPath id="terminal-3109797362-line-19">
    <rect x="0" y="465.1" width="976" height="24.65"/>
            </clipPath>
<clipPath id="terminal-3109797362-line-20">
    <rect x="0" y="489.5" width="976" height="24.65"/>
            </clipPath>
<clipPath id="terminal-3109797362-line-21">
    <rect x="0" y="513.9" width="976" height="24.65"/>
            </clipPath>
<clipPath id="terminal-3109797362-line-22">
    <rect x="0" y="538.3" width="976" height="24.65"/>
            </clipPath>
<clipPath id="terminal-3109797362-line-23">
    <rect x="0" y="562.7" width="976" height="24.65"/>
            </clipPath>
<clipPath id="terminal-3109797362-line-24">
    <rect x="0" y="587.1" width="976" height="24.65"/>
            </clipPath>
<clipPath id="terminal-3109797362-line-25">
    <rect x="0" y="611.5" width="976" height="24.65"/>
            </clipPath>
<clipPath id="terminal-3109797362-line-26">
    <rect x="0" y="635.9" width="976" height="24.65"/>
            </clipPath>
<clipPath id="terminal-3109797362-line-27">
    <rect x="0" y="660.3" width="976" height="24.65"/>
            </clipPath>
<clipPath id="terminal-3109797362-line-28">
    <rect x="0" y="684.7" width="976" height="24.65"/>
            </clipPath>
<clipPath id="terminal-3109797362-line-29">
    <rect x="0" y="709.1" width="976" height="24.65"/>
            </clipPath>
<clipPath id="terminal-3109797362-line-30">
    <rect x="0" y="733.5" width="976" height="24.65"/>
            </clipPath>
<clipPath id="terminal-3109797362-line-31">
    <rect x="0" y="757.9" width="976" height="24.65"/>
            </clipPath>
<clipPath id="terminal-3109797362-line-32">
    <rect x="0" y="782.3" width="976" height="24.65"/>
            </clipPath>
<clipPath id="terminal-3109797362-line-33">
    <rect x="0" y="806.7" width="976" height="24.65"/>
            </clipPath>
<clipPath id="terminal-3109797362-line-34">
    <rect x="0" y="831.1" width="976" height="24.65"/>
            </clipPath>
<clipPath id="terminal-3109797362-line-35">
    <rect x="0" y="855.5" width="976" height="24.65"/>
            </clipPath>
<clipPath id="terminal-3109797362-line-36">
    <rect x="0" y="879.9" width="976" height="24.65"/>
            </clipPath>
<clipPath id="terminal-3109797362-line-37">
    <rect x="0" y="904.3" width="976" height="24.65"/>
            </clipPath>
<clipPath id="terminal-3109797362-line-38">
    <rect x="0" y="928.7" width="976" height="24.65"/>
            </clipPath>
    </defs>

    <rect fill="#292929" stroke="rgba(255,255,255,0.35)" stroke-width="1" x="1" y="1" width="992" height="1024" rx="8"/><text class="terminal-3109797362-title" fill="#c5c8c6" text-anchor="middle" x="496" y="27">gojeera</text>
            <g transform="translate(26,22)">
            <circle cx="0" cy="0" r="7" fill="#ff5f57"/>
            <circle cx="22" cy="0" r="7" fill="#febc2e"/>
            <circle cx="44" cy="0" r="7" fill="#28c840"/>
            </g>
        
    <g transform="translate(9, 41)" clip-path="url(#terminal-3109797362-clip-terminal)">
    <rect fill="#282a36" x="0" y="1.5" width="976" height="24.65" shape-rendering="crispEdges"/><rect fill="#282a36" x="0" y="25.9" width="12.2" height="24.65" shape-rendering="crispEdges"/><rect fill="#bf98f8" x="12.2" y="25.9" width="12.2" height="24.65" shape-rendering="crispEdges"/><rect fill="#bf98f8" x="24.4" y="25.9" width="61" height="24.65" shape-rendering="crispEdges"/><rect fill="#bf98f8" x="85.4" y="25.9" width="85.4" height="24.65" shape-rendering="crispEdges"/><rect fill="#bf98f8" x="170.8" y="25.9" width="12.2" height="24.65" shape-rendering="crispEdges"/><rect fill="#bf98f8" x="183" y="25.9" width="12.2" height="24.65" shape-rendering="crispEdges"/><rect fill="#282a36" x="195.2" y="25.9" width="12.2" height="24.65" shape-rendering="crispEdges"/><rect fill="#2b2e3b" x="207.4" y="25.9" width="36.6" height="24.65" shape-rendering="crispEdges"/><rect fill="#2b2e3b" x="244" y="25.9" width="73.2" height="24.65" shape-rendering="crispEdges"/><rect fill="#282a36" x="317.2" y="25.9" width="12.2" height="24.65" shape-rendering="crispEdges"/><rect fill="#2b2e3b" x="329.4" y="25.9" width="85.4" height="24.65" shape-rendering="crispEdges"/><rect fill="#2b2e3b" x="414.8" y="25.9" width="12.2" height="24.65" shape-rendering="crispEdges"/><rect fill="#2b2e3b" x="427" y="25.9" width="12.2" height="24.65" shape-rendering="crispEdges"/><rect fill="#2b2e3b" x="439.2" y="25.9" width="12.2" height="24.65" shape-rendering="crispEdges"/><rect fill="#282a36" x="451.4" y="25.9" width="12.2" height="24.65" shape-rendering="crispEdges"/><rect fill="#2a2c39" x="463.6" y="25.9" width="85.4" height="24.65" shape-rendering="crispEdges"/><rect fill="#2a2c39" x="549" y="25.9" width="12.2" height="24.65" shape-rendering="crispEdges"/><rect fill="#2a2c39" x="561.2" y="25.9" width="12.2" height="24.65" shape-rendering="crispEdges"/><rect fill="#292b38" x="573.4" y="25.9" width="12.2" height="24.65" shape-rendering="crispEdges"/><rect fill="#282a36" x="585.6" y="25.9" width="12.2" height="24.65" shape-rendering="crispEdges"/><rect fill="#2a2c39" x="597.8" y="25.9" width="48.8" height="24.65" shape-rendering="crispEdges"/><rect fill="#2a2c39" x="646.6" y="25.9" width="48.8" height="24.65" shape-rendering="crispEdges"/><rect fill="#2a2c39" x="695.4" y="25.9" width="12.2" height="24.65" shape-rendering="crispEdges"/><rect fill="#292b38" x="707.6" y="25.9" width="12.2" height="24.65" shape-rendering="crispEdges"/><rect fill="#282a36" x="719.8" y="25.9" width="12.2" height="24.65" shape-rendering="crispEdges"/><rect fill="#2a2c39" x="732" y="25.9" width="73.2" height="24.65" shape-rendering="crispEdges"/><rect fill="#2a2c39" x="805.2" y="25.9" width="24.4" height="24.65" shape-rendering="crispEdges"/><rect fill="#2a2c39" x="829.6" y="25.9" width="12.2" height="24.65" shape-rendering="crispEdges"/><rect fill="#292b38" x="841.8" y="25.9" width="12.2" height="24.65" shape-rendering="crispEdges"/><rect fill="#282a36" x="854" y="25.9" width="12.2" height="24.65" shape-rendering="crispEdges"/><rect fill="#bc3989" x="866.2" y="25.9" width="97.6" height="24.65" shape-rendering="crispEdges"/><rect fill="#282a36" x="963.8" y="25.9" width="12.2" height="24.65" shape-rendering="crispEdges"/><rect fill="#282a36" x="0" y="50.3" width="976" height="24.65" shape-rendering="crispEdges"/><rect fill="#282a36" x="0" y="74.7" width="256.2" height="24.65" shape-rendering="crispEdges"/><rect fill="#282a36" x="256.2" y="74.7" width="231.8" height="24.65" shape-rendering="crispEdges"/><rect fill="#282a36" x="488" y="74.7" width="12.2" height="24.65" shape-rendering="crispEdges"/><rect fill="#282a36" x="500.2" y="74.7" width="12.2" height="24.65" shape-rendering="crispEdges"/><rect fill="#282a36" x="512.4" y="74.7" width="170.8" height="24.65" shape-rendering="crispEdges"/><rect fill="#282a36" x="683.2" y="74.7" width="12.2" height="24.65" shape-rendering="crispEdges"/><rect fill="#282a36" x="695.4" y="74.7" width="12.2" height="24.65" shape-rendering="crispEdges"/><rect fill="#282a36" x="707.6" y="74.7" width="134.2" height="24.65" shape-rendering="crispEdges"/><rect fill="#282a36" x="841.8" y="74.7" width="134.2" height="24.65" shape-rendering="crispEdges"/><rect fill="#282a36" x="0" y="99.1" width="256.2" height="24.65" shape-rendering="crispEdges"/><rect fill="#282a36" x="256.2" y="99.1" width="475.8" height="24.65" shape-rendering="crispEdges"/><rect fill="#282a36" x="732" y="99.1" width="219.6" height="24.65" shape-rendering="crispEdges"/><rect fill="#282a36" x="951.6" y="99.1" width="24.4" height="24.65" shape-rendering="crispEdges"/><rect fill="#282a36" x="0" y="123.5" width="976" height="24.65" shape-rendering="crispEdges"/><rect fill="#282a36" x="0" y="147.9" width="268.4" height="24.65" shape-rendering="crispEdges"/><rect fill="#282a36" x="268.4" y="147.9" width="134.2" height="24.65" shape-rendering="crispEdges"/><rect fill="#282a36" x="402.6" y="147.9" width="24.4" height="24.65" shape-rendering="crispEdges"/><rect fill="#282a36" x="427" y="147.9" width="134.2" height="24.65" shape-rendering="crispEdges"/><rect fill="#282a36" x="561.2" y="147.9" width="24.4" height="24.65" shape-rendering="crispEdges"/><rect fill="#282a36" x="585.6" y="147.9" width="97.6" height="24.65" shape-rendering="crispEdges"/><rect fill="#282a36" x="683.2" y="147.9" width="24.4" height="24.65" shape-rendering="crispEdges"/><rect fill="#282a36" x="707.6" y="147.9" width="158.6" height="24.65" shape-rendering="crispEdges"/><rect fill="#282a36" x="866.2" y="147.9" width="24.4" height="24.65" shape-rendering="crispEdges"/><rect fill="#282a36" x="890.6" y="147.9" width="73.2" height="24.65" shape-rendering="crispEdges"/><rect fill="#282a36" x="963.8" y="147.9" width="12.2" height="24.65" shape-rendering="crispEdges"/><rect fill="#282a36" x="0" y="172.3" width="256.2" height="24.65" shape-rendering="crispEdges"/><rect fill="#282a36" x="256.2" y="172.3" width="12.2" height="24.65" shape-rendering="crispEdges"/><rect fill="#282a36" x="268.4" y="172.3" width="134.2" height="24.65" shape-rendering="crispEdges"/><rect fill="#282a36" x="402.6" y="172.3" width="561.2" height="24.65" shape-rendering="crispEdges"/><rect fill="#282a36" x="963.8" y="172.3" width="12.2" height="24.65" shape-rendering="crispEdges"/><rect fill="#282a36" x="0" y="196.7" width="280.6" height="24.65" shape-rendering="crispEdges"/><rect fill="#282a36" x="280.6" y="196.7" width="414.8" height="24.65" shape-rendering="crispEdges"/><rect fill="#282a36" x="695.4" y="196.7" width="36.6" height="24.65" shape-rendering="crispEdges"/><rect fill="#282a36" x="732" y="196.7" width="73.2" height="24.65" shape-rendering="crispEdges"/><rect fill="#282a36" x="805.2" y="196.7" width="146.4" height="24.65" shape-rendering="crispEdges"/><rect fill="#5a4a79" x="951.6" y="196.7" width="12.2" height="24.65" shape-rendering="crispEdges"/><rect fill="#282a36" x="963.8" y="196.7" width="12.2" height="24.65" shape-rendering="crispEdges"/><rect fill="#282a36" x="0" y="221.1" width="280.6" height="24.65" shape-rendering="crispEdges"/><rect fill="#282a36" x="280.6" y="221.1" width="36.6" height="24.65" shape-rendering="crispEdges"/><rect fill="#282a36" x="317.2" y="221.1" width="61" height="24.65" shape-rendering="crispEdges"/><rect fill="#282a36" x="378.2" y="221.1" width="353.8" height="24.65" shape-rendering="crispEdges"/><rect fill="#2b2e3b" x="732" y="221.1" width="61" height="24.65" shape-rendering="crispEdges"/><rect fill="#2b2e3b" x="793" y="221.1" width="134.2" height="24.65" shape-rendering="crispEdges"/><rect fill="#282a36" x="927.2" y="221.1" width="24.4" height="24.65" shape-rendering="crispEdges"/><rect fill="#5a4a79" x="951.6" y="221.1" width="12.2" height="24.65" shape-rendering="crispEdges"/><rect fill="#282a36" x="963.8" y="221.1" width="12.2" height="24.65" shape-rendering="crispEdges"/><rect fill="#282a36" x="0" y="245.5" width="951.6" height="24.65" shape-rendering="crispEdges"/><rect fill="#5a4a79" x="951.6" y="245.5" width="12.2" height="24.65" shape-rendering="crispEdges"/><rect fill="#282a36" x="963.8" y="245.5" width="12.2" height="24.65" shape-rendering="crispEdges"/><rect fill="#282a36" x="0" y="269.9" width="280.6" height="24.65" shape-rendering="crispEdges"/><rect fill="#282a36" x="280.6" y="269.9" width="390.4" height="24.65" shape-rendering="crispEdges"/><rect fill="#282a36" x="671" y="269.9" width="61" height="24.65" shape-rendering="crispEdges"/><rect fill="#282a36" x="732" y="269.9" width="97.6" height="24.65" shape-rendering="crispEdges"/><rect fill="#282a36" x="829.6" y="269.9" width="122" height="24.65" shape-rendering="crispEdges"/><rect fill="#5a4a79" x="951.6" y="269.9" width="12.2" height="24.65" shape-rendering="crispEdges"/><rect fill="#282a36" x="963.8" y="269.9" width="12.2" height="24.65" shape-rendering="crispEdges"/><rect fill="#282a36" x="0" y="294.3" width="280.6" height="24.65" shape-rendering="crispEdges"/><rect fill="#282a36" x="280.6" y="294.3" width="61" height="24.65" shape-rendering="crispEdges"/><rect fill="#282a36" x="341.6" y="294.3" width="390.4" height="24.65" shape-rendering="crispEdges"/><rect fill="#2b2e3b" x="732" y="294.3" width="73.2" height="24.65" shape-rendering="crispEdges"/><rect fill="#2b2e3b" x="805.2" y="294.3" width="122" height="24.65" shape-rendering="crispEdges"/><rect fill="#282a36" x="927.2" y="294.3" width="24.4" height="24.65" shape-rendering="crispEdges"/><rect fill="#5a4a79" x="951.6" y="294.3" width="12.2" height="24.65" shape-rendering="crispEdges"/><rect fill="#282a36" x="963.8" y="294.3" width="12.2" height="24.65" shape-rendering="crispEdges"/><rect fill="#282a36" x="0" y="318.7" width="951.6" height="24.65" shape-rendering="crispEdges"/><rect fill="#5a4a79" x="951.6" y="318.7" width="12.2" height="24.65" shape-rendering="crispEdges"/><rect fill="#282a36" x="963.8" y="318.7" width="12.2" height="24.65" shape-rendering="crispEdges"/><rect fill="#282a36" x="0" y="343.1" width="280.6" height="24.65" shape-rendering="crispEdges"/><rect fill="#282a36" x="280.6" y="343.1" width="292.8" height="24.65" shape-rendering="crispEdges"/><rect fill="#282a36" x="573.4" y="343.1" width="158.6" height="24.65" shape-rendering="crispEdges"/><rect fill="#282a36" x="732" y="343.1" width="97.6" height="24.65" shape-rendering="crispEdges"/><rect fill="#282a36" x="829.6" y="343.1" width="122" height="24.65" shape-rendering="crispEdges"/><rect fill="#5a4a79" x="951.6" y="343.1" width="12.2" height="24.65" shape-rendering="crispEdges"/><rect fill="#282a36" x="963.8" y="343.1" width="12.2" height="24.65" shape-rendering="crispEdges"/><rect fill="#282a36" x="0" y="367.5" width="280.6" height="24.65" shape-rendering="crispEdges"/><rect fill="#282a36" x="280.6" y="367.5" width="341.6" height="24.65" shape-rendering="crispEdges"/><rect fill="#282a36" x="622.2" y="367.5" width="109.8" height="24.65" shape-rendering="crispEdges"/><rect fill="#2b2e3b" x="732" y="367.5" width="122" height="24.65" shape-rendering="crispEdges"/><rect fill="#2b2e3b" x="854" y="367.5" width="73.2" height="24.65" shape-rendering="crispEdges"/><rect fill="#282a36" x="927.2" y="367.5" width="24.4" height="24.65" shape-rendering="crispEdges"/><rect fill="#5a4a79" x="951.6" y="367.5" width="12.2" height="24.65" shape-rendering="crispEdges"/><rect fill="#282a36" x="963.8" y="367.5" width="12.2" height="24.65" shape-rendering="crispEdges"/><rect fill="#282a36" x="0" y="391.9" width="951.6" height="24.65" shape-rendering="crispEdges"/><rect fill="#5a4a79" x="951.6" y="391.9" width="12.2" height="24.65" shape-rendering="crispEdges"/><rect fill="#282a36" x="963.8" y="391.9" width="12.2" height="24.65" shape-rendering="crispEdges"/><rect fill="#282a36" x="0" y="416.3" width="280.6" height="24.65" shape-rendering="crispEdges"/><rect fill="#282a36" x="280.6" y="416.3" width="268.4" height="24.65" shape-rendering="crispEdges"/><rect fill="#282a36" x="549" y="416.3" width="183" height="24.65" shape-rendering="crispEdges"/><rect fill="#282a36" x="732" y="416.3" width="97.6" height="24.65" shape-rendering="crispEdges"/><rect fill="#282a36" x="829.6" y="416.3" width="122" height="24.65" shape-rendering="crispEdges"/><rect fill="#5a4a79" x="951.6" y="416.3" width="12.2" height="24.65" shape-rendering="crispEdges"/><rect fill="#282a36" x="963.8" y="416.3" width="12.2" height="24.65" shape-rendering="crispEdges"/><rect fill="#282a36" x="0" y="440.7" width="280.6" height="24.65" shape-rendering="crispEdges"/><rect fill="#bd93f9" x="280.6" y="440.7" width="414.8" height="24.65" shape-rendering="crispEdges"/><rect fill="#282a36" x="695.4" y="440.7" width="36.6" height="24.65" shape-rendering="crispEdges"/><rect fill="#292b38" x="732" y="440.7" width="195.2" height="24.65" shape-rendering="crispEdges"/><rect fill="#282a36" x="927.2" y="440.7" width="24.4" height="24.65" shape-rendering="crispEdges"/><rect fill="#5a4a79" x="951.6" y="440.7" width="12.2" height="24.65" shape-rendering="crispEdges"/><rect fill="#282a36" x="963.8" y="440.7" width="12.2" height="24.65" shape-rendering="crispEdges"/><rect fill="#282a36" x="0" y="465.1" width="280.6" height="24.65" shape-rendering="crispEdges"/><rect fill="#bd93f9" x="280.6" y="465.1" width="414.8" height="24.65" shape-rendering="crispEdges"/><rect fill="#282a36" x="695.4" y="465.1" width="256.2" height="24.65" shape-rendering="crispEdges"/><rect fill="#5a4a79" x="951.6" y="465.1" width="12.2" height="24.65" shape-rendering="crispEdges"/><rect fill="#282a36" x="963.8" y="465.1" width="12.2" height="24.65" shape-rendering="crispEdges"/><rect fill="#282a36" x="0" y="489.5" width="280.6" height="24.65" shape-rendering="crispEdges"/><rect fill="#bd93f9" x="280.6" y="489.5" width="48.8" height="24.65" shape-rendering="crispEdges"/><rect fill="#282a36" x="329.4" y="489.5" width="402.6" height="24.65" shape-rendering="crispEdges"/><rect fill="#282a36" x="732" y="489.5" width="73.2" height="24.65" shape-rendering="crispEdges"/><rect fill="#282a36" x="805.2" y="489.5" width="146.4" height="24.65" shape-rendering="crispEdges"/><rect fill="#5a4a79" x="951.6" y="489.5" width="12.2" height="24.65" shape-rendering="crispEdges"/><rect fill="#282a36" x="963.8" y="489.5" width="12.2" height="24.65" shape-rendering="crispEdges"/><rect fill="#282a36" x="0" y="513.9" width="732" height="24.65" shape-rendering="crispEdges"/><rect fill="#282a36" x="732" y="513.9" width="12.2" height="24.65" shape-rendering="crispEdges"/><rect fill="#313442" x="744.2" y="513.9" width="183" height="24.65" shape-rendering="crispEdges"/><rect fill="#282a36" x="927.2" y="513.9" width="24.4" height="24.65" shape-rendering="crispEdges"/><rect fill="#5a4a79" x="951.6" y="513.9" width="12.2" height="24.65" shape-rendering="crispEdges"/><rect fill="#282a36" x="963.8" y="513.9" width="12.2" height="24.65" shape-rendering="crispEdges"/><rect fill="#282a36" x="0" y="538.3" width="732" height="24.65" shape-rendering="crispEdges"/><rect fill="#282a36" x="732" y="538.3" width="12.2" height="24.65" shape-rendering="crispEdges"/><rect fill="#313442" x="744.2" y="538.3" width="183" height="24.65" shape-rendering="crispEdges"/><rect fill="#282a36" x="927.2" y="538.3" width="24.4" height="24.65" shape-rendering="crispEdges"/><rect fill="#5a4a79" x="951.6" y="538.3" width="12.2" height="24.65" shape-rendering="crispEdges"/><rect fill="#282a36" x="963.8" y="538.3" width="12.2" height="24.65" shape-rendering="crispEdges"/><rect fill="#282a36" x="0" y="562.7" width="732" height="24.65" shape-rendering="crispEdges"/><rect fill="#2b2e3b" x="732" y="562.7" width="195.2" height="24.65" shape-rendering="crispEdges"/><rect fill="#282a36" x="927.2" y="562.7" width="24.4" height="24.65" shape-rendering="crispEdges"/><rect fill="#5a4a79" x="951.6" y="562.7" width="12.2" height="24.65" shape-rendering="crispEdges"/><rect fill="#282a36" x="963.8" y="562.7" width="12.2" height="24.65" shape-rendering="crispEdges"/><rect fill="#282a36" x="0" y="587.1" width="951.6" height="24.65" shape-rendering="crispEdges"/><rect fill="#5a4a79" x="951.6" y="587.1" width="12.2" height="24.65" shape-rendering="crispEdges"/><rect fill="#282a36" x="963.8" y="587.1" width="12.2" height="24.65" shape-rendering="crispEdges"/><rect fill="#282a36" x="0" y="611.5" width="732" height="24.65" shape-rendering="crispEdges"/><rect fill="#282a36" x="732" y="611.5" width="122" height="24.65" shape-rendering="crispEdges"/><rect fill="#282a36" x="854" y="611.5" width="97.6" height="24.65" shape-rendering="crispEdges"/><rect fill="#5a4a79" x="951.6" y="611.5" width="12.2" height="24.65" shape-rendering="crispEdges"/><rect fill="#282a36" x="963.8" y="611.5" width="12.2" height="24.65" shape-rendering="crispEdges"/><rect fill="#282a36" x="0" y="635.9" width="732" height="24.65" shape-rendering="crispEdges"/><rect fill="#282a36" x="732" y="635.9" width="12.2" height="24.65" shape-rendering="crispEdges"/><rect fill="#313442" x="744.2" y="635.9" width="109.8" height="24.65" shape-rendering="crispEdges"/><rect fill="#282a36" x="854" y="635.9" width="12.2" height="24.65" shape-rendering="crispEdges"/><rect fill="#282a36" x="866.2" y="635.9" width="85.4" height="24.65" shape-rendering="crispEdges"/><rect fill="#5a4a79" x="951.6" y="635.9" width="12.2" height="24.65" shape-rendering="crispEdges"/><rect fill="#282a36" x="963.8" y="635.9" width="12.2" height="24.65" shape-rendering="crispEdges"/><rect fill="#282a36" x="0" y="660.3" width="732" height="24.65" shape-rendering="crispEdges"/><rect fill="#282a36" x="732" y="660.3" width="12.2" height="24.65" shape-rendering="crispEdges"/><rect fill="#313442" x="744.2" y="660.3" width="61" height="24.65" shape-rendering="crispEdges"/><rect fill="#282a36" x="805.2" y="660.3" width="12.2" height="24.65" shape-rendering="crispEdges"/><rect fill="#282a36" x="817.4" y="660.3" width="134.2" height="24.65" shape-rendering="crispEdges"/><rect fill="#181a25" x="951.6" y="660.3" width="12.2" height="24.65" shape-rendering="crispEdges"/><rect fill="#282a36" x="963.8" y="660.3" width="12.2" height="24.65" shape-rendering="crispEdges"/><rect fill="#282a36" x="0" y="684.7" width="732" height="24.65" shape-rendering="crispEdges"/><rect fill="#2b2e3b" x="732" y="684.7" width="195.2" height="24.65" shape-rendering="crispEdges"/><rect fill="#282a36" x="927.2" y="684.7" width="24.4" height="24.65" shape-rendering="crispEdges"/><rect fill="#181a25" x="951.6" y="684.7" width="12.2" height="24.65" shape-rendering="crispEdges"/><rect fill="#282a36" x="963.8" y="684.7" width="12.2" height="24.65" shape-rendering="crispEdges"/><rect fill="#282a36" x="0" y="709.1" width="951.6" height="24.65" shape-rendering="crispEdges"/><rect fill="#181a25" x="951.6" y="709.1" width="12.2" height="24.65" shape-rendering="crispEdges"/><rect fill="#282a36" x="963.8" y="709.1" width="12.2" height="24.65" shape-rendering="crispEdges"/><rect fill="#282a36" x="0" y="733.5" width="732" height="24.65" shape-rendering="crispEdges"/><rect fill="#282a36" x="732" y="733.5" width="85.4" height="24.65" shape-rendering="crispEdges"/><rect fill="#282a36" x="817.4" y="733.5" width="134.2" height="24.65" shape-rendering="crispEdges"/><rect fill="#181a25" x="951.6" y="733.5" width="12.2" height="24.65" shape-rendering="crispEdges"/><rect fill="#282a36" x="963.8" y="733.5" width="12.2" height="24.65" shape-rendering="crispEdges"/><rect fill="#282a36" x="0" y="757.9" width="732" height="24.65" shape-rendering="crispEdges"/><rect fill="#282a36" x="732" y="757.9" width="97.6" height="24.65" shape-rendering="crispEdges"/><rect fill="#282a36" x="829.6" y="757.9" width="122" height="24.65" shape-rendering="crispEdges"/><rect fill="#181a25" x="951.6" y="757.9" width="12.2" height="24.65" shape-rendering="crispEdges"/><rect fill="#282a36" x="963.8" y="757.9" width="12.2" height="24.65" shape-rendering="crispEdges"/><rect fill="#282a36" x="0" y="782.3" width="732" height="24.65" shape-rendering="crispEdges"/><rect fill="#282a36" x="732" y="782.3" width="12.2" height="24.65" shape-rendering="crispEdges"/><rect fill="#313442" x="744.2" y="782.3" width="85.4" height="24.65" shape-rendering="crispEdges"/><rect fill="#282a36" x="829.6" y="782.3" width="12.2" height="24.65" shape-rendering="crispEdges"/><rect fill="#282a36" x="841.8" y="782.3" width="109.8" height="24.65" shape-rendering="crispEdges"/><rect fill="#181a25" x="951.6" y="782.3" width="12.2" height="24.65" shape-rendering="crispEdges"/><rect fill="#282a36" x="963.8" y="782.3" width="12.2" height="24.65" shape-rendering="crispEdges"/><rect fill="#282a36" x="0" y="806.7" width="732" height="24.65" shape-rendering="crispEdges"/><rect fill="#2b2e3b" x="732" y="806.7" width="195.2" height="24.65" shape-rendering="crispEdges"/><rect fill="#282a36" x="927.2" y="806.7" width="24.4" height="24.65" shape-rendering="crispEdges"/><rect fill="#181a25" x="951.6" y="806.7" width="12.2" height="24.65" shape-rendering="crispEdges"/><rect fill="#282a36" x="963.8" y="806.7" width="12.2" height="24.65" shape-rendering="crispEdges"/><rect fill="#282a36" x="0" y="831.1" width="951.6" height="24.65" shape-rendering="crispEdges"/><rect fill="#181a25" x="951.6" y="831.1" width="12.2" height="24.65" shape-rendering="crispEdges"/><rect fill="#282a36" x="963.8" y="831.1" width="12.2" height="24.65" shape-rendering="crispEdges"/><rect fill="#282a36" x="0" y="855.5" width="732" height="24.65" shape-rendering="crispEdges"/><rect fill="#282a36" x="732" y="855.5" width="146.4" height="24.65" shape-rendering="crispEdges"/><rect fill="#282a36" x="878.4" y="855.5" width="73.2" height="24.65" shape-rendering="crispEdges"/><rect fill="#181a25" x="951.6" y="855.5" width="12.2" height="24.65" shape-rendering="crispEdges"/><rect fill="#282a36" x="963.8" y="855.5" width="12.2" height="24.65" shape-rendering="crispEdges"/><rect fill="#282a36" x="0" y="879.9" width="732" height="24.65" shape-rendering="crispEdges"/><rect fill="#282a36" x="732" y="879.9" width="12.2" height="24.65" shape-rendering="crispEdges"/><rect fill="#313442" x="744.2" y="879.9" width="85.4" height="24.65" shape-rendering="crispEdges"/><rect fill="#282a36" x="829.6" y="879.9" width="12.2" height="24.65" shape-rendering="crispEdges"/><rect fill="#282a36" x="841.8" y="879.9" width="109.8" height="24.65" shape-rendering="crispEdges"/><rect fill="#181a25" x="951.6" y="879.9" width="12.2" height="24.65" shape-rendering="crispEdges"/><rect fill="#282a36" x="963.8" y="879.9" width="12.2" height="24.65" shape-rendering="crispEdges"/><rect fill="#282a36" x="0" y="904.3" width="12.2" height="24.65" shape-rendering="crispEdges"/><rect fill="#282a36" x="12.2" y="904.3" width="0" height="24.65" shape-rendering="crispEdges"/><rect fill="#282a36" x="12.2" y="904.3" width="244" height="24.65" shape-rendering="crispEdges"/><rect fill="#282a36" x="256.2" y="904.3" width="0" height="24.65" shape-rendering="crispEdges"/><rect fill="#282a36" x="256.2" y="904.3" width="719.8" height="24.65" shape-rendering="crispEdges"/><rect fill="#282a36" x="0" y="928.7" width="122" height="24.65" shape-rendering="crispEdges"/><rect fill="#282a36" x="122" y="928.7" width="0" height="24.65" shape-rendering="crispEdges"/><rect fill="#282a36" x="122" y="928.7" width="134.2" height="24.65" shape-rendering="crispEdges"/><rect fill="#282a36" x="256.2" y="928.7" width="463.6" height="24.65" shape-rendering="crispEdges"/><rect fill="#282a36" x="719.8" y="928.7" width="12.2" height="24.65" shape-rendering="crispEdges"/><rect fill="#282a36" x="732" y="928.7" width="219.6" height="24.65" shape-rendering="crispEdges"/><rect fill="#282a36" x="951.6" y="928.7" width="12.2" height="24.65" shape-rendering="crispEdges"/><rect fill="#282a36" x="963.8" y="928.7" width="12.2" height="24.65" shape-rendering="crispEdges"/><rect fill="#282a36" x="0" y="953.1" width="976" height="24.65" shape-rendering="crispEdges"/>
    <g class="terminal-3109797362-matrix">
    <text class="terminal-3109797362-r1" x="976" y="20" textLength="12.2" clip-path="url(#terminal-3109797362-line-0)">
</text><text class="terminal-3109797362-r2" x="24.4" y="44.4" textLength="61" clip-path="url(#terminal-3109797362-line-1)">Basic</text><text class="terminal-3109797362-r2" x="170.8" y="44.4" textLength="12.2" clip-path="url(#terminal-3109797362-line-1)">▼</text><text class="terminal-3109797362-r3" x="207.4" y="44.4" textLength="36.6" clip-path="url(#terminal-3109797362-line-1)">KEY</text><text class="terminal-3109797362-r5" x="329.4" y="44.4" textLength="85.4" clip-path="url(#terminal-3109797362-line-1)">Project</text><text class="terminal-3109797362-r5" x="427" y="44.4" textLength="12.2" clip-path="url(#terminal-3109797362-line-1)">▼</text><text class="terminal-3109797362-r6" x="463.6" y="44.4" textLength="85.4" clip-path="url(#terminal-3109797362-line-1)">Assigne</text><text class="terminal-3109797362-r6" x="561.2" y="44.4" textLength="12.2" clip-path="url(#terminal-3109797362-line-1)">▼</text><text class="terminal-3109797362-r6" x="597.8" y="44.4" textLength="48.8" clip-path="url(#terminal-3109797362-line-1)">Type</text><text class="terminal-3109797362-r6" x="695.4" y="44.4" textLength="12.2" clip-path="url(#terminal-3109797362-line-1)">▼</text><text class="terminal-3109797362-r6" x="732" y="44.4" textLength="73.2" clip-path="url(#terminal-3109797362-line-1)">Status</text><text class="terminal-3109797362-r6" x="829.6" y="44.4" textLength="12.2" clip-path="url(#terminal-3109797362-line-1)">▼</text><text class="terminal-3109797362-r7" x="866.2" y="44.4" textLength="97.6" clip-path="url(#terminal-3109797362-line-1)">&#160;Search&#160;</text><text class="terminal-3109797362-r1" x="976" y="44.4" textLength="12.2" clip-path="url(#terminal-3109797362-line-1)">
</text><text class="terminal-3109797362-r1" x="976" y="68.8" textLength="12.2" clip-path="url(#terminal-3109797362-line-2)">
</text><text class="terminal-3109797362-r8" x="256.2" y="93.2" textLength="231.8" clip-path="url(#terminal-3109797362-line-3)">Engineering&#160;Project</text><text class="terminal-3109797362-r8" x="500.2" y="93.2" textLength="12.2" clip-path="url(#terminal-3109797362-line-3)">/</text><text class="terminal-3109797362-r9" x="512.4" y="93.2" textLength="170.8" clip-path="url(#terminal-3109797362-line-3)">&#160;+&#160;Add&#160;parent&#160;</text><text class="terminal-3109797362-r8" x="683.2" y="93.2" textLength="12.2" clip-path="url(#terminal-3109797362-line-3)">/</text><text class="terminal-3109797362-r8" x="707.6" y="93.2" textLength="134.2" clip-path="url(#terminal-3109797362-line-3)">[Bug]&#160;ENG-8</text><text class="terminal-3109797362-r1" x="976" y="93.2" textLength="12.2" clip-path="url(#terminal-3109797362-line-3)">
</text><text class="terminal-3109797362-r10" x="256.2" y="117.6" textLength="475.8" clip-path="url(#terminal-3109797362-line-4)">Coordinate&#160;monster&#160;rollout&#160;dependencies</text><text class="terminal-3109797362-r1" x="976" y="117.6" textLength="12.2" clip-path="url(#terminal-3109797362-line-4)">
</text><text class="terminal-3109797362-r1" x="976" y="142" textLength="12.2" clip-path="url(#terminal-3109797362-line-5)">
</text><text class="terminal-3109797362-r4" x="268.4" y="166.4" textLength="134.2" clip-path="url(#terminal-3109797362-line-6)">Description</text><text class="terminal-3109797362-r11" x="427" y="166.4" textLength="134.2" clip-path="url(#terminal-3109797362-line-6)">Attachments</text><text class="terminal-3109797362-r11" x="585.6" y="166.4" textLength="97.6" clip-path="url(#terminal-3109797362-line-6)">Subtasks</text><text class="terminal-3109797362-r11" x="707.6" y="166.4" textLength="158.6" clip-path="url(#terminal-3109797362-line-6)">Related&#160;Items</text><text class="terminal-3109797362-r11" x="890.6" y="166.4" textLength="73.2" clip-path="url(#terminal-3109797362-line-6)">Web&#160;Li</text><text class="terminal-3109797362-r1" x="976" y="166.4" textLength="12.2" clip-path="url(#terminal-3109797362-line-6)">
</text><text class="terminal-3109797362-r12" x="256.2" y="190.8" textLength="12.2" clip-path="url(#terminal-3109797362-line-7)">╸</text><text class="terminal-3109797362-r13" x="268.4" y="190.8" textLength="134.2" clip-path="url(#terminal-3109797362-line-7)">━━━━━━━━━━━</text><text class="terminal-3109797362-r12" x="402.6" y="190.8" textLength="561.2" clip-path="url(#terminal-3109797362-line-7)">╺━━━━━━━━━━━━━━━━━━━━━━━━━━━━━━━━━━━━━━━━━━━━━</text><text class="terminal-3109797362-r1" x="976" y="190.8" textLength="12.2" clip-path="url(#terminal-3109797362-line-7)">
</text><text class="terminal-3109797362-r4" x="280.6" y="215.2" textLength="414.8" clip-path="url(#terminal-3109797362-line-8)">Depends&#160;on&#160;motion&#160;alert&#160;validation</text><text class="terminal-3109797362-r14" x="732" y="215.2" textLength="73.2" clip-path="url(#terminal-3109797362-line-8)">Status</text><text class="terminal-3109797362-r1" x="976" y="215.2" textLength="12.2" clip-path="url(#terminal-3109797362-line-8)">
</text><text class="terminal-3109797362-r4" x="280.6" y="239.6" textLength="36.6" clip-path="url(#terminal-3109797362-line-9)">in&#160;</text><text class="terminal-3109797362-r16" x="317.2" y="239.6" textLength="61" clip-path="url(#terminal-3109797362-line-9)">ENG-7</text><text class="terminal-3109797362-r5" x="732" y="239.6" textLength="61" clip-path="url(#terminal-3109797362-line-9)">To&#160;Do</text><text class="terminal-3109797362-r1" x="976" y="239.6" textLength="12.2" clip-path="url(#terminal-3109797362-line-9)">
</text><text class="terminal-3109797362-r1" x="976" y="264" textLength="12.2" clip-path="url(#terminal-3109797362-line-10)">
</text><text class="terminal-3109797362-r4" x="280.6" y="288.4" textLength="390.4" clip-path="url(#terminal-3109797362-line-11)">Related&#160;support&#160;escalation&#160;item:</text><text class="terminal-3109797362-r14" x="732" y="288.4" textLength="97.6" clip-path="url(#terminal-3109797362-line-11)">Priority</text><text class="terminal-3109797362-r1" x="976" y="288.4" textLength="12.2" clip-path="url(#terminal-3109797362-line-11)">
</text><text class="terminal-3109797362-r16" x="280.6" y="312.8" textLength="61" clip-path="url(#terminal-3109797362-line-12)">SUP-1</text><text class="terminal-3109797362-r4" x="732" y="312.8" textLength="73.2" clip-path="url(#terminal-3109797362-line-12)">Medium</text><text class="terminal-3109797362-r1" x="976" y="312.8" textLength="12.2" clip-path="url(#terminal-3109797362-line-12)">
</text><text class="terminal-3109797362-r1" x="976" y="337.2" textLength="12.2" clip-path="url(#terminal-3109797362-line-13)">
</text><text class="terminal-3109797362-r4" x="280.6" y="361.6" textLength="292.8" clip-path="url(#terminal-3109797362-line-14)">Reference&#160;documentation:</text><text class="terminal-3109797362-r14" x="732" y="361.6" textLength="97.6" clip-path="url(#terminal-3109797362-line-14)">Assignee</text><text class="terminal-3109797362-r1" x="976" y="361.6" textLength="12.2" clip-path="url(#terminal-3109797362-line-14)">
</text><text class="terminal-3109797362-r16" x="280.6" y="386" textLength="341.6" clip-path="url(#terminal-3109797362-line-15)">Animatronic&#160;release&#160;playbook</text><text class="terminal-3109797362-r4" x="732" y="386" textLength="122" clip-path="url(#terminal-3109797362-line-15)">Rook&#160;Hydra</text><text class="terminal-3109797362-r1" x="976" y="386" textLength="12.2" clip-path="url(#terminal-3109797362-line-15)">
</text><text class="terminal-3109797362-r1" x="976" y="410.4" textLength="12.2" clip-path="url(#terminal-3109797362-line-16)">
</text><text class="terminal-3109797362-r4" x="280.6" y="434.8" textLength="268.4" clip-path="url(#terminal-3109797362-line-17)">Nightly&#160;checklist&#160;URL:</text><text class="terminal-3109797362-r14" x="732" y="434.8" textLength="97.6" clip-path="url(#terminal-3109797362-line-17)">Reporter</text><text class="terminal-3109797362-r1" x="976" y="434.8" textLength="12.2" clip-path="url(#terminal-3109797362-line-17)">
</text><text class="terminal-3109797362-r17" x="280.6" y="459.2" textLength="414.8" clip-path="url(#terminal-3109797362-line-18)">https://docs.example.com/animatron</text><text class="terminal-3109797362-r18" x="732" y="459.2" textLength="195.2" clip-path="url(#terminal-3109797362-line-18)">Rook&#160;Hydra&#160;&#160;&#160;&#160;&#160;&#160;</text><text class="terminal-3109797362-r1" x="976" y="459.2" textLength="12.2" clip-path="url(#terminal-3109797362-line-18)">
</text><text class="terminal-3109797362-r17" x="280.6" y="483.6" textLength="414.8" clip-path="url(#terminal-3109797362-line-19)">ics/release-playbook/nightly-check</text><text class="terminal-3109797362-r1" x="976" y="483.6" textLength="12.2" clip-path="url(#terminal-3109797362-line-19)">
</text><text class="terminal-3109797362-r17" x="280.6" y="508" textLength="48.8" clip-path="url(#terminal-3109797362-line-20)">list</text><text class="terminal-3109797362-r14" x="732" y="508" textLength="73.2" clip-path="url(#terminal-3109797362-line-20)">Labels</text><text class="terminal-3109797362-r1" x="976" y="508" textLength="12.2" clip-path="url(#terminal-3109797362-line-20)">
</text><text class="terminal-3109797362-r19" x="732" y="532.4" textLength="12.2" clip-path="url(#terminal-3109797362-line-21)"></text><text class="terminal-3109797362-r20" x="744.2" y="532.4" textLength="183" clip-path="url(#terminal-3109797362-line-21)">monster-rollout</text><text class="terminal-3109797362-r1" x="976" y="532.4" textLength="12.2" clip-path="url(#terminal-3109797362-line-21)">
</text><text class="terminal-3109797362-r19" x="732" y="556.8" textLength="12.2" clip-path="url(#terminal-3109797362-line-22)"></text><text class="terminal-3109797362-r20" x="744.2" y="556.8" textLength="183" clip-path="url(#terminal-3109797362-line-22)">support-handoff</text><text class="terminal-3109797362-r1" x="976" y="556.8" textLength="12.2" clip-path="url(#terminal-3109797362-line-22)">
</text><text class="terminal-3109797362-r1" x="976" y="581.2" textLength="12.2" clip-path="url(#terminal-3109797362-line-23)">
</text><text class="terminal-3109797362-r1" x="976" y="605.6" textLength="12.2" clip-path="url(#terminal-3109797362-line-24)">
</text><text class="terminal-3109797362-r14" x="732" y="630" textLength="122" clip-path="url(#terminal-3109797362-line-25)">Components</text><text class="terminal-3109797362-r1" x="976" y="630" textLength="12.2" clip-path="url(#terminal-3109797362-line-25)">
</text><text class="terminal-3109797362-r19" x="732" y="654.4" textLength="12.2" clip-path="url(#terminal-3109797362-line-26)"></text><text class="terminal-3109797362-r20" x="744.2" y="654.4" textLength="109.8" clip-path="url(#terminal-3109797362-line-26)">Backend&#160;x</text><text class="terminal-3109797362-r19" x="854" y="654.4" textLength="12.2" clip-path="url(#terminal-3109797362-line-26)"></text><text class="terminal-3109797362-r21" x="951.6" y="654.4" textLength="12.2" clip-path="url(#terminal-3109797362-line-26)">▂</text><text class="terminal-3109797362-r1" x="976" y="654.4" textLength="12.2" clip-path="url(#terminal-3109797362-line-26)">
</text><text class="terminal-3109797362-r19" x="732" y="678.8" textLength="12.2" clip-path="url(#terminal-3109797362-line-27)"></text><text class="terminal-3109797362-r20" x="744.2" y="678.8" textLength="61" clip-path="url(#terminal-3109797362-line-27)">API&#160;x</text><text class="terminal-3109797362-r19" x="805.2" y="678.8" textLength="12.2" clip-path="url(#terminal-3109797362-line-27)"></text><text class="terminal-3109797362-r1" x="976" y="678.8" textLength="12.2" clip-path="url(#terminal-3109797362-line-27)">
</text><text class="terminal-3109797362-r1" x="976" y="703.2" textLength="12.2" clip-path="url(#terminal-3109797362-line-28)">
</text><text class="terminal-3109797362-r1" x="976" y="727.6" textLength="12.2" clip-path="url(#terminal-3109797362-line-29)">
</text><text class="terminal-3109797362-r14" x="732" y="752" textLength="85.4" clip-path="url(#terminal-3109797362-line-30)">Affects</text><text class="terminal-3109797362-r1" x="976" y="752" textLength="12.2" clip-path="url(#terminal-3109797362-line-30)">
</text><text class="terminal-3109797362-r14" x="732" y="776.4" textLength="97.6" clip-path="url(#terminal-3109797362-line-31)">Versions</text><text class="terminal-3109797362-r1" x="976" y="776.4" textLength="12.2" clip-path="url(#terminal-3109797362-line-31)">
</text><text class="terminal-3109797362-r19" x="732" y="800.8" textLength="12.2" clip-path="url(#terminal-3109797362-line-32)"></text><text class="terminal-3109797362-r20" x="744.2" y="800.8" textLength="85.4" clip-path="url(#terminal-3109797362-line-32)">1.1.0&#160;x</text><text class="terminal-3109797362-r19" x="829.6" y="800.8" textLength="12.2" clip-path="url(#terminal-3109797362-line-32)"></text><text class="terminal-3109797362-r1" x="976" y="800.8" textLength="12.2" clip-path="url(#terminal-3109797362-line-32)">
</text><text class="terminal-3109797362-r1" x="976" y="825.2" textLength="12.2" clip-path="url(#terminal-3109797362-line-33)">
</text><text class="terminal-3109797362-r1" x="976" y="849.6" textLength="12.2" clip-path="url(#terminal-3109797362-line-34)">
</text><text class="terminal-3109797362-r14" x="732" y="874" textLength="146.4" clip-path="url(#terminal-3109797362-line-35)">Fix&#160;Versions</text><text class="terminal-3109797362-r1" x="976" y="874" textLength="12.2" clip-path="url(#terminal-3109797362-line-35)">
</text><text class="terminal-3109797362-r19" x="732" y="898.4" textLength="12.2" clip-path="url(#terminal-3109797362-line-36)"></text><text class="terminal-3109797362-r20" x="744.2" y="898.4" textLength="85.4" clip-path="url(#terminal-3109797362-line-36)">2.0.0&#160;x</text><text class="terminal-3109797362-r19" x="829.6" y="898.4" textLength="12.2" clip-path="url(#terminal-3109797362-line-36)"></text><text class="terminal-3109797362-r1" x="976" y="898.4" textLength="12.2" clip-path="url(#terminal-3109797362-line-36)">
</text><text class="terminal-3109797362-r1" x="976" y="922.8" textLength="12.2" clip-path="url(#terminal-3109797362-line-37)">
</text><text class="terminal-3109797362-r24" x="732" y="947.2" textLength="219.6" clip-path="url(#terminal-3109797362-line-38)">No&#160;pending&#160;changes</text><text class="terminal-3109797362-r1" x="976" y="947.2" textLength="12.2" clip-path="url(#terminal-3109797362-line-38)">
</text>
    </g>
    </g>
</svg>
