<svg class="rich-terminal" viewBox="0 0 1482 1026.0" xmlns="http://www.w3.org/2000/svg">
    <!-- Generated with Rich https://www.textualize.io -->
    <style>

    @font-face {
        font-family: "Fira Code";
        src: local("FiraCode-Regular"),
                url("https://cdnjs.cloudflare.com/ajax/libs/firacode/6.2.0/woff2/FiraCode-Regular.woff2") format("woff2"),
                url("https://cdnjs.cloudflare.com/ajax/libs/firacode/6.2.0/woff/FiraCode-Regular.woff") format("woff");
        font-style: normal;
        font-weight: 400;
    }
    @font-face {
        font-family: "Fira Code";
        src: local("FiraCode-Bold"),
                url("https://cdnjs.cloudflare.com/ajax/libs/firacode/6.2.0/woff2/FiraCode-Bold.woff2") format("woff2"),
                url("https://cdnjs.cloudflare.com/ajax/libs/firacode/6.2.0/woff/FiraCode-Bold.woff") format("woff");
        font-style: bold;
        font-weight: 700;
    }

    .terminal-1452046927-matrix {
        font-family: Fira Code, monospace;
        font-size: 20px;
        line-height: 24.4px;
        font-variant-east-asian: full-width;
    }

    .terminal-1452046927-title {
        font-size: 18px;
        font-weight: bold;
        font-family: arial;
    }

    .terminal-1452046927-r1 { fill: #c5c8c6 }
.terminal-1452046927-r2 { fill: #121212;font-weight: bold }
.terminal-1452046927-r3 { fill: #7f7f7f }
.terminal-1452046927-r4 { fill: #5f5f5f }
.terminal-1452046927-r5 { fill: #f5ebdd;font-weight: bold }
.terminal-1452046927-r6 { fill: #a0a0a0;font-weight: bold }
.terminal-1452046927-r7 { fill: #fea62b;font-weight: bold }
.terminal-1452046927-r8 { fill: #0178d4;font-weight: bold }
.terminal-1452046927-r9 { fill: #797979 }
.terminal-1452046927-r10 { fill: #e0e0e0 }
.terminal-1452046927-r11 { fill: #262626 }
.terminal-1452046927-r12 { fill: #0178d4 }
.terminal-1452046927-r13 { fill: #e0e0e0;font-weight: bold }
.terminal-1452046927-r14 { fill: #121212 }
.terminal-1452046927-r15 { fill: #ddedf9;font-weight: bold }
.terminal-1452046927-r16 { fill: #272727 }
.terminal-1452046927-r17 { fill: #003054 }
.terminal-1452046927-r18 { fill: #a2a2a2 }
.terminal-1452046927-r19 { fill: #539eff }
.terminal-1452046927-r20 { fill: #000000 }
.terminal-1452046927-r21 { fill: #737373 }
.terminal-1452046927-r22 { fill: #744f1c;font-weight: bold }
.terminal-1452046927-r23 { fill: #533a18;font-weight: bold }
    </style>

    <defs>
    <clipPath id="terminal-1452046927-clip-terminal">
      <rect x="0" y="0" width="1463.0" height="975.0" />
    </clipPath>
    <clipPath id="terminal-1452046927-line-0">
    <rect x="0" y="1.5" width="1464" height="24.65"/>
            </clipPath>
<clipPath id="terminal-1452046927-line-1">
    <rect x="0" y="25.9" width="1464" height="24.65"/>
            </clipPath>
<clipPath id="terminal-1452046927-line-2">
    <rect x="0" y="50.3" width="1464" height="24.65"/>
            </clipPath>
<clipPath id="terminal-1452046927-line-3">
    <rect x="0" y="74.7" width="1464" height="24.65"/>
            </clipPath>
<clipPath id="terminal-1452046927-line-4">
    <rect x="0" y="99.1" width="1464" height="24.65"/>
            </clipPath>
<clipPath id="terminal-1452046927-line-5">
    <rect x="0" y="123.5" width="1464" height="24.65"/>
            </clipPath>
<clipPath id="terminal-1452046927-line-6">
    <rect x="0" y="147.9" width="1464" height="24.65"/>
            </clipPath>
<clipPath id="terminal-1452046927-line-7">
    <rect x="0" y="172.3" width="1464" height="24.65"/>
            </clipPath>
<clipPath id="terminal-1452046927-line-8">
    <rect x="0" y="196.7" width="1464" height="24.65"/>
            </clipPath>
<clipPath id="terminal-1452046927-line-9">
    <rect x="0" y="221.1" width="1464" height="24.65"/>
            </clipPath>
<clipPath id="terminal-1452046927-line-10">
    <rect x="0" y="245.5" width="1464" height="24.65"/>
            </clipPath>
<clipPath id="terminal-1452046927-line-11">
    <rect x="0" y="269.9" width="1464" height="24.65"/>
            </clipPath>
<clipPath id="terminal-1452046927-line-12">
    <rect x="0" y="294.3" width="1464" height="24.65"/>
            </clipPath>
<clipPath id="terminal-1452046927-line-13">
    <rect x="0" y="318.7" width="1464" height="24.65"/>
            </clipPath>
<clipPath id="terminal-1452046927-line-14">
    <rect x="0" y="343.1" width="1464" height="24.65"/>
            </clipPath>
<clipPath id="terminal-1452046927-line-15">
    <rect x="0" y="367.5" width="1464" height="24.65"/>
            </clipPath>
<clipPath id="terminal-1452046927-line-16">
    <rect x="0" y="391.9" width="1464" height="24.65"/>
            </clipPath>
<clipPath id="terminal-1452046927-line-17">
    <rect x="0" y="416.3" width="1464" height="24.65"/>
            </clipPath>
<clipPath id="terminal-1452046927-line-18">
    <rect x="0" y="440.7" width="1464" height="24.65"/>
            </clipPath>
<clipPath id="terminal-1452046927-line-19">
    <rect x="0" y="465.1" width="1464" height="24.65"/>
            </clipPath>
<clipPath id="terminal-1452046927-line-20">
    <rect x="0" y="489.5" width="1464" height="24.65"/>
            </clipPath>
<clipPath id="terminal-1452046927-line-21">
    <rect x="0" y="513.9" width="1464" height="24.65"/>
            </clipPath>
<clipPath id="terminal-1452046927-line-22">
    <rect x="0" y="538.3" width="1464" height="24.65"/>
            </clipPath>
<clipPath id="terminal-1452046927-line-23">
    <rect x="0" y="562.7" width="1464" height="24.65"/>
            </clipPath>
<clipPath id="terminal-1452046927-line-24">
    <rect x="0" y="587.1" width="1464" height="24.65"/>
            </clipPath>
<clipPath id="terminal-1452046927-line-25">
    <rect x="0" y="611.5" width="1464" height="24.65"/>
            </clipPath>
<clipPath id="terminal-1452046927-line-26">
    <rect x="0" y="635.9" width="1464" height="24.65"/>
            </clipPath>
<clipPath id="terminal-1452046927-line-27">
    <rect x="0" y="660.3" width="1464" height="24.65"/>
            </clipPath>
<clipPath id="terminal-1452046927-line-28">
    <rect x="0" y="684.7" width="1464" height="24.65"/>
            </clipPath>
<clipPath id="terminal-1452046927-line-29">
    <rect x="0" y="709.1" width="1464" height="24.65"/>
            </clipPath>
<clipPath id="terminal-1452046927-line-30">
    <rect x="0" y="733.5" width="1464" height="24.65"/>
            </clipPath>
<clipPath id="terminal-1452046927-line-31">
    <rect x="0" y="757.9" width="1464" height="24.65"/>
            </clipPath>
<clipPath id="terminal-1452046927-line-32">
    <rect x="0" y="782.3" width="1464" height="24.65"/>
            </clipPath>
<clipPath id="terminal-1452046927-line-33">
    <rect x="0" y="806.7" width="1464" height="24.65"/>
            </clipPath>
<clipPath id="terminal-1452046927-line-34">
    <rect x="0" y="831.1" width="1464" height="24.65"/>
            </clipPath>
<clipPath id="terminal-1452046927-line-35">
    <rect x="0" y="855.5" width="1464" height="24.65"/>
            </clipPath>
<clipPath id="terminal-1452046927-line-36">
    <rect x="0" y="879.9" width="1464" height="24.65"/>
            </clipPath>
<clipPath id="terminal-1452046927-line-37">
    <rect x="0" y="904.3" width="1464" height="24.65"/>
            </clipPath>
<clipPath id="terminal-1452046927-line-38">
    <rect x="0" y="928.7" width="1464" height="24.65"/>
            </clipPath>
    </defs>

    <rect fill="#292929" stroke="rgba(255,255,255,0.35)" stroke-width="1" x="1" y="1" width="1480" height="1024" rx="8"/><text class="terminal-1452046927-title" fill="#c5c8c6" text-anchor="middle" x="740" y="27">gojeera</text>
            <g transform="translate(26,22)">
            <circle cx="0" cy="0" r="7" fill="#ff5f57"/>
            <circle cx="22" cy="0" r="7" fill="#febc2e"/>
            <circle cx="44" cy="0" r="7" fill="#28c840"/>
            </g>
        
    <g transform="translate(9, 41)" clip-path="url(#terminal-1452046927-clip-terminal)">
    <rect fill="#121212" x="0" y="1.5" width="1464" height="24.65" shape-rendering="crispEdges"/><rect fill="#121212" x="0" y="25.9" width="12.2" height="24.65" shape-rendering="crispEdges"/><rect fill="#b86b00" x="12.2" y="25.9" width="12.2" height="24.65" shape-rendering="crispEdges"/><rect fill="#b86b00" x="24.4" y="25.9" width="61" height="24.65" shape-rendering="crispEdges"/><rect fill="#b86b00" x="85.4" y="25.9" width="85.4" height="24.65" shape-rendering="crispEdges"/><rect fill="#b86b00" x="170.8" y="25.9" width="12.2" height="24.65" shape-rendering="crispEdges"/><rect fill="#b86b00" x="183" y="25.9" width="12.2" height="24.65" shape-rendering="crispEdges"/><rect fill="#121212" x="195.2" y="25.9" width="12.2" height="24.65" shape-rendering="crispEdges"/><rect fill="#1e1e1e" x="207.4" y="25.9" width="85.4" height="24.65" shape-rendering="crispEdges"/><rect fill="#1e1e1e" x="292.8" y="25.9" width="158.6" height="24.65" shape-rendering="crispEdges"/><rect fill="#1e1e1e" x="451.4" y="25.9" width="12.2" height="24.65" shape-rendering="crispEdges"/><rect fill="#1e1e1e" x="463.6" y="25.9" width="12.2" height="24.65" shape-rendering="crispEdges"/><rect fill="#121212" x="475.8" y="25.9" width="12.2" height="24.65" shape-rendering="crispEdges"/><rect fill="#1a1a1a" x="488" y="25.9" width="97.6" height="24.65" shape-rendering="crispEdges"/><rect fill="#1a1a1a" x="585.6" y="25.9" width="158.6" height="24.65" shape-rendering="crispEdges"/><rect fill="#1a1a1a" x="744.2" y="25.9" width="12.2" height="24.65" shape-rendering="crispEdges"/><rect fill="#171717" x="756.4" y="25.9" width="12.2" height="24.65" shape-rendering="crispEdges"/><rect fill="#121212" x="768.6" y="25.9" width="12.2" height="24.65" shape-rendering="crispEdges"/><rect fill="#1a1a1a" x="780.8" y="25.9" width="48.8" height="24.65" shape-rendering="crispEdges"/><rect fill="#1a1a1a" x="829.6" y="25.9" width="195.2" height="24.65" shape-rendering="crispEdges"/><rect fill="#1a1a1a" x="1024.8" y="25.9" width="12.2" height="24.65" shape-rendering="crispEdges"/><rect fill="#171717" x="1037" y="25.9" width="12.2" height="24.65" shape-rendering="crispEdges"/><rect fill="#121212" x="1049.2" y="25.9" width="12.2" height="24.65" shape-rendering="crispEdges"/><rect fill="#1a1a1a" x="1061.4" y="25.9" width="73.2" height="24.65" shape-rendering="crispEdges"/><rect fill="#1a1a1a" x="1134.6" y="25.9" width="183" height="24.65" shape-rendering="crispEdges"/><rect fill="#1a1a1a" x="1317.6" y="25.9" width="12.2" height="24.65" shape-rendering="crispEdges"/><rect fill="#171717" x="1329.8" y="25.9" width="12.2" height="24.65" shape-rendering="crispEdges"/><rect fill="#121212" x="1342" y="25.9" width="12.2" height="24.65" shape-rendering="crispEdges"/><rect fill="#b86b00" x="1354.2" y="25.9" width="97.6" height="24.65" shape-rendering="crispEdges"/><rect fill="#121212" x="1451.8" y="25.9" width="12.2" height="24.65" shape-rendering="crispEdges"/><rect fill="#121212" x="0" y="50.3" width="1464" height="24.65" shape-rendering="crispEdges"/><rect fill="#121212" x="0" y="74.7" width="24.4" height="24.65" shape-rendering="crispEdges"/><rect fill="#121212" x="24.4" y="74.7" width="231.8" height="24.65" shape-rendering="crispEdges"/><rect fill="#121212" x="256.2" y="74.7" width="12.2" height="24.65" shape-rendering="crispEdges"/><rect fill="#121212" x="268.4" y="74.7" width="12.2" height="24.65" shape-rendering="crispEdges"/><rect fill="#121212" x="280.6" y="74.7" width="170.8" height="24.65" shape-rendering="crispEdges"/><rect fill="#121212" x="451.4" y="74.7" width="12.2" height="24.65" shape-rendering="crispEdges"/><rect fill="#121212" x="463.6" y="74.7" width="12.2" height="24.65" shape-rendering="crispEdges"/><rect fill="#121212" x="475.8" y="74.7" width="219.6" height="24.65" shape-rendering="crispEdges"/><rect fill="#121212" x="695.4" y="74.7" width="768.6" height="24.65" shape-rendering="crispEdges"/><rect fill="#121212" x="0" y="99.1" width="24.4" height="24.65" shape-rendering="crispEdges"/><rect fill="#121212" x="24.4" y="99.1" width="524.6" height="24.65" shape-rendering="crispEdges"/><rect fill="#121212" x="549" y="99.1" width="890.6" height="24.65" shape-rendering="crispEdges"/><rect fill="#121212" x="1439.6" y="99.1" width="24.4" height="24.65" shape-rendering="crispEdges"/><rect fill="#121212" x="0" y="123.5" width="1464" height="24.65" shape-rendering="crispEdges"/><rect fill="#121212" x="0" y="147.9" width="36.6" height="24.65" shape-rendering="crispEdges"/><rect fill="#121212" x="36.6" y="147.9" width="134.2" height="24.65" shape-rendering="crispEdges"/><rect fill="#121212" x="170.8" y="147.9" width="24.4" height="24.65" shape-rendering="crispEdges"/><rect fill="#121212" x="195.2" y="147.9" width="146.4" height="24.65" shape-rendering="crispEdges"/><rect fill="#0178d4" x="341.6" y="147.9" width="36.6" height="24.65" shape-rendering="crispEdges"/><rect fill="#121212" x="378.2" y="147.9" width="24.4" height="24.65" shape-rendering="crispEdges"/><rect fill="#121212" x="402.6" y="147.9" width="109.8" height="24.65" shape-rendering="crispEdges"/><rect fill="#0178d4" x="512.4" y="147.9" width="36.6" height="24.65" shape-rendering="crispEdges"/><rect fill="#121212" x="549" y="147.9" width="24.4" height="24.65" shape-rendering="crispEdges"/><rect fill="#121212" x="573.4" y="147.9" width="170.8" height="24.65" shape-rendering="crispEdges"/><rect fill="#0178d4" x="744.2" y="147.9" width="36.6" height="24.65" shape-rendering="crispEdges"/><rect fill="#121212" x="780.8" y="147.9" width="24.4" height="24.65" shape-rendering="crispEdges"/><rect fill="#121212" x="805.2" y="147.9" width="122" height="24.65" shape-rendering="crispEdges"/><rect fill="#0178d4" x="927.2" y="147.9" width="36.6" height="24.65" shape-rendering="crispEdges"/><rect fill="#121212" x="963.8" y="147.9" width="24.4" height="24.65" shape-rendering="crispEdges"/><rect fill="#121212" x="988.2" y="147.9" width="109.8" height="24.65" shape-rendering="crispEdges"/><rect fill="#0178d4" x="1098" y="147.9" width="36.6" height="24.65" shape-rendering="crispEdges"/><rect fill="#121212" x="1134.6" y="147.9" width="329.4" height="24.65" shape-rendering="crispEdges"/><rect fill="#121212" x="0" y="172.3" width="24.4" height="24.65" shape-rendering="crispEdges"/><rect fill="#121212" x="24.4" y="172.3" width="170.8" height="24.65" shape-rendering="crispEdges"/><rect fill="#121212" x="195.2" y="172.3" width="183" height="24.65" shape-rendering="crispEdges"/><rect fill="#121212" x="378.2" y="172.3" width="1073.6" height="24.65" shape-rendering="crispEdges"/><rect fill="#121212" x="1451.8" y="172.3" width="12.2" height="24.65" shape-rendering="crispEdges"/><rect fill="#121212" x="0" y="196.7" width="24.4" height="24.65" shape-rendering="crispEdges"/><rect fill="#2d3740" x="24.4" y="196.7" width="329.4" height="24.65" shape-rendering="crispEdges"/><rect fill="#2d3740" x="353.8" y="196.7" width="134.2" height="24.65" shape-rendering="crispEdges"/><rect fill="#2d3740" x="488" y="196.7" width="219.6" height="24.65" shape-rendering="crispEdges"/><rect fill="#2d3740" x="707.6" y="196.7" width="256.2" height="24.65" shape-rendering="crispEdges"/><rect fill="#121212" x="963.8" y="196.7" width="12.2" height="24.65" shape-rendering="crispEdges"/><rect fill="#121212" x="976" y="196.7" width="73.2" height="24.65" shape-rendering="crispEdges"/><rect fill="#121212" x="1049.2" y="196.7" width="390.4" height="24.65" shape-rendering="crispEdges"/><rect fill="#003054" x="1439.6" y="196.7" width="12.2" height="24.65" shape-rendering="crispEdges"/><rect fill="#121212" x="1451.8" y="196.7" width="12.2" height="24.65" shape-rendering="crispEdges"/><rect fill="#121212" x="0" y="221.1" width="24.4" height="24.65" shape-rendering="crispEdges"/><rect fill="#0178d4" x="24.4" y="221.1" width="329.4" height="24.65" shape-rendering="crispEdges"/><rect fill="#0178d4" x="353.8" y="221.1" width="134.2" height="24.65" shape-rendering="crispEdges"/><rect fill="#0178d4" x="488" y="221.1" width="219.6" height="24.65" shape-rendering="crispEdges"/><rect fill="#0178d4" x="707.6" y="221.1" width="256.2" height="24.65" shape-rendering="crispEdges"/><rect fill="#121212" x="963.8" y="221.1" width="12.2" height="24.65" shape-rendering="crispEdges"/><rect fill="#1e1e1e" x="976" y="221.1" width="48.8" height="24.65" shape-rendering="crispEdges"/><rect fill="#1e1e1e" x="1024.8" y="221.1" width="366" height="24.65" shape-rendering="crispEdges"/><rect fill="#1e1e1e" x="1390.8" y="221.1" width="12.2" height="24.65" shape-rendering="crispEdges"/><rect fill="#1e1e1e" x="1403" y="221.1" width="12.2" height="24.65" shape-rendering="crispEdges"/><rect fill="#121212" x="1415.2" y="221.1" width="24.4" height="24.65" shape-rendering="crispEdges"/><rect fill="#003054" x="1439.6" y="221.1" width="12.2" height="24.65" shape-rendering="crispEdges"/><rect fill="#121212" x="1451.8" y="221.1" width="12.2" height="24.65" shape-rendering="crispEdges"/><rect fill="#121212" x="0" y="245.5" width="24.4" height="24.65" shape-rendering="crispEdges"/><rect fill="#003054" x="24.4" y="245.5" width="744.2" height="24.65" shape-rendering="crispEdges"/><rect fill="#000000" x="768.6" y="245.5" width="12.2" height="24.65" shape-rendering="crispEdges"/><rect fill="#000000" x="780.8" y="245.5" width="183" height="24.65" shape-rendering="crispEdges"/><rect fill="#121212" x="963.8" y="245.5" width="475.8" height="24.65" shape-rendering="crispEdges"/><rect fill="#003054" x="1439.6" y="245.5" width="12.2" height="24.65" shape-rendering="crispEdges"/><rect fill="#121212" x="1451.8" y="245.5" width="12.2" height="24.65" shape-rendering="crispEdges"/><rect fill="#121212" x="0" y="269.9" width="976" height="24.65" shape-rendering="crispEdges"/><rect fill="#121212" x="976" y="269.9" width="122" height="24.65" shape-rendering="crispEdges"/><rect fill="#121212" x="1098" y="269.9" width="341.6" height="24.65" shape-rendering="crispEdges"/><rect fill="#003054" x="1439.6" y="269.9" width="12.2" height="24.65" shape-rendering="crispEdges"/><rect fill="#121212" x="1451.8" y="269.9" width="12.2" height="24.65" shape-rendering="crispEdges"/><rect fill="#121212" x="0" y="294.3" width="976" height="24.65" shape-rendering="crispEdges"/><rect fill="#171717" x="976" y="294.3" width="439.2" height="24.65" shape-rendering="crispEdges"/><rect fill="#121212" x="1415.2" y="294.3" width="24.4" height="24.65" shape-rendering="crispEdges"/><rect fill="#003054" x="1439.6" y="294.3" width="12.2" height="24.65" shape-rendering="crispEdges"/><rect fill="#121212" x="1451.8" y="294.3" width="12.2" height="24.65" shape-rendering="crispEdges"/><rect fill="#121212" x="0" y="318.7" width="1439.6" height="24.65" shape-rendering="crispEdges"/><rect fill="#003054" x="1439.6" y="318.7" width="12.2" height="24.65" shape-rendering="crispEdges"/><rect fill="#121212" x="1451.8" y="318.7" width="12.2" height="24.65" shape-rendering="crispEdges"/><rect fill="#121212" x="0" y="343.1" width="976" height="24.65" shape-rendering="crispEdges"/><rect fill="#121212" x="976" y="343.1" width="97.6" height="24.65" shape-rendering="crispEdges"/><rect fill="#121212" x="1073.6" y="343.1" width="366" height="24.65" shape-rendering="crispEdges"/><rect fill="#003054" x="1439.6" y="343.1" width="12.2" height="24.65" shape-rendering="crispEdges"/><rect fill="#121212" x="1451.8" y="343.1" width="12.2" height="24.65" shape-rendering="crispEdges"/><rect fill="#121212" x="0" y="367.5" width="976" height="24.65" shape-rendering="crispEdges"/><rect fill="#1e1e1e" x="976" y="367.5" width="73.2" height="24.65" shape-rendering="crispEdges"/><rect fill="#1e1e1e" x="1049.2" y="367.5" width="341.6" height="24.65" shape-rendering="crispEdges"/><rect fill="#1e1e1e" x="1390.8" y="367.5" width="12.2" height="24.65" shape-rendering="crispEdges"/><rect fill="#1e1e1e" x="1403" y="367.5" width="12.2" height="24.65" shape-rendering="crispEdges"/><rect fill="#121212" x="1415.2" y="367.5" width="24.4" height="24.65" shape-rendering="crispEdges"/><rect fill="#003054" x="1439.6" y="367.5" width="12.2" height="24.65" shape-rendering="crispEdges"/><rect fill="#121212" x="1451.8" y="367.5" width="12.2" height="24.65" shape-rendering="crispEdges"/><rect fill="#121212" x="0" y="391.9" width="1439.6" height="24.65" shape-rendering="crispEdges"/><rect fill="#003054" x="1439.6" y="391.9" width="12.2" height="24.65" shape-rendering="crispEdges"/><rect fill="#121212" x="1451.8" y="391.9" width="12.2" height="24.65" shape-rendering="crispEdges"/><rect fill="#121212" x="0" y="416.3" width="976" height="24.65" shape-rendering="crispEdges"/><rect fill="#121212" x="976" y="416.3" width="97.6" height="24.65" shape-rendering="crispEdges"/><rect fill="#121212" x="1073.6" y="416.3" width="366" height="24.65" shape-rendering="crispEdges"/><rect fill="#003054" x="1439.6" y="416.3" width="12.2" height="24.65" shape-rendering="crispEdges"/><rect fill="#121212" x="1451.8" y="416.3" width="12.2" height="24.65" shape-rendering="crispEdges"/><rect fill="#121212" x="0" y="440.7" width="976" height="24.65" shape-rendering="crispEdges"/><rect fill="#1e1e1e" x="976" y="440.7" width="122" height="24.65" shape-rendering="crispEdges"/><rect fill="#1e1e1e" x="1098" y="440.7" width="292.8" height="24.65" shape-rendering="crispEdges"/><rect fill="#1e1e1e" x="1390.8" y="440.7" width="12.2" height="24.65" shape-rendering="crispEdges"/><rect fill="#1e1e1e" x="1403" y="440.7" width="12.2" height="24.65" shape-rendering="crispEdges"/><rect fill="#121212" x="1415.2" y="440.7" width="24.4" height="24.65" shape-rendering="crispEdges"/><rect fill="#003054" x="1439.6" y="440.7" width="12.2" height="24.65" shape-rendering="crispEdges"/><rect fill="#121212" x="1451.8" y="440.7" width="12.2" height="24.65" shape-rendering="crispEdges"/><rect fill="#121212" x="0" y="465.1" width="1439.6" height="24.65" shape-rendering="crispEdges"/><rect fill="#003054" x="1439.6" y="465.1" width="12.2" height="24.65" shape-rendering="crispEdges"/><rect fill="#121212" x="1451.8" y="465.1" width="12.2" height="24.65" shape-rendering="crispEdges"/><rect fill="#121212" x="0" y="489.5" width="976" height="24.65" shape-rendering="crispEdges"/><rect fill="#121212" x="976" y="489.5" width="97.6" height="24.65" shape-rendering="crispEdges"/><rect fill="#121212" x="1073.6" y="489.5" width="366" height="24.65" shape-rendering="crispEdges"/><rect fill="#003054" x="1439.6" y="489.5" width="12.2" height="24.65" shape-rendering="crispEdges"/><rect fill="#121212" x="1451.8" y="489.5" width="12.2" height="24.65" shape-rendering="crispEdges"/><rect fill="#121212" x="0" y="513.9" width="976" height="24.65" shape-rendering="crispEdges"/><rect fill="#171717" x="976" y="513.9" width="439.2" height="24.65" shape-rendering="crispEdges"/><rect fill="#121212" x="1415.2" y="513.9" width="24.4" height="24.65" shape-rendering="crispEdges"/><rect fill="#003054" x="1439.6" y="513.9" width="12.2" height="24.65" shape-rendering="crispEdges"/><rect fill="#121212" x="1451.8" y="513.9" width="12.2" height="24.65" shape-rendering="crispEdges"/><rect fill="#121212" x="0" y="538.3" width="1439.6" height="24.65" shape-rendering="crispEdges"/><rect fill="#003054" x="1439.6" y="538.3" width="12.2" height="24.65" shape-rendering="crispEdges"/><rect fill="#121212" x="1451.8" y="538.3" width="12.2" height="24.65" shape-rendering="crispEdges"/><rect fill="#121212" x="0" y="562.7" width="976" height="24.65" shape-rendering="crispEdges"/><rect fill="#121212" x="976" y="562.7" width="73.2" height="24.65" shape-rendering="crispEdges"/><rect fill="#121212" x="1049.2" y="562.7" width="390.4" height="24.65" shape-rendering="crispEdges"/><rect fill="#003054" x="1439.6" y="562.7" width="12.2" height="24.65" shape-rendering="crispEdges"/><rect fill="#121212" x="1451.8" y="562.7" width="12.2" height="24.65" shape-rendering="crispEdges"/><rect fill="#121212" x="0" y="587.1" width="976" height="24.65" shape-rendering="crispEdges"/><rect fill="#242f38" x="976" y="587.1" width="12.2" height="24.65" shape-rendering="crispEdges"/><rect fill="#242f38" x="988.2" y="587.1" width="195.2" height="24.65" shape-rendering="crispEdges"/><rect fill="#242f38" x="1183.4" y="587.1" width="12.2" height="24.65" shape-rendering="crispEdges"/><rect fill="#242f38" x="1195.6" y="587.1" width="12.2" height="24.65" shape-rendering="crispEdges"/><rect fill="#121212" x="1207.8" y="587.1" width="231.8" height="24.65" shape-rendering="crispEdges"/><rect fill="#003054" x="1439.6" y="587.1" width="12.2" height="24.65" shape-rendering="crispEdges"/><rect fill="#121212" x="1451.8" y="587.1" width="12.2" height="24.65" shape-rendering="crispEdges"/><rect fill="#121212" x="0" y="611.5" width="976" height="24.65" shape-rendering="crispEdges"/><rect fill="#242f38" x="976" y="611.5" width="12.2" height="24.65" shape-rendering="crispEdges"/><rect fill="#242f38" x="988.2" y="611.5" width="207.4" height="24.65" shape-rendering="crispEdges"/><rect fill="#242f38" x="1195.6" y="611.5" width="12.2" height="24.65" shape-rendering="crispEdges"/><rect fill="#242f38" x="1207.8" y="611.5" width="12.2" height="24.65" shape-rendering="crispEdges"/><rect fill="#121212" x="1220" y="611.5" width="219.6" height="24.65" shape-rendering="crispEdges"/><rect fill="#000000" x="1439.6" y="611.5" width="12.2" height="24.65" shape-rendering="crispEdges"/><rect fill="#121212" x="1451.8" y="611.5" width="12.2" height="24.65" shape-rendering="crispEdges"/><rect fill="#121212" x="0" y="635.9" width="976" height="24.65" shape-rendering="crispEdges"/><rect fill="#1e1e1e" x="976" y="635.9" width="439.2" height="24.65" shape-rendering="crispEdges"/><rect fill="#121212" x="1415.2" y="635.9" width="24.4" height="24.65" shape-rendering="crispEdges"/><rect fill="#000000" x="1439.6" y="635.9" width="12.2" height="24.65" shape-rendering="crispEdges"/><rect fill="#121212" x="1451.8" y="635.9" width="12.2" height="24.65" shape-rendering="crispEdges"/><rect fill="#121212" x="0" y="660.3" width="1439.6" height="24.65" shape-rendering="crispEdges"/><rect fill="#000000" x="1439.6" y="660.3" width="12.2" height="24.65" shape-rendering="crispEdges"/><rect fill="#121212" x="1451.8" y="660.3" width="12.2" height="24.65" shape-rendering="crispEdges"/><rect fill="#121212" x="0" y="684.7" width="976" height="24.65" shape-rendering="crispEdges"/><rect fill="#121212" x="976" y="684.7" width="122" height="24.65" shape-rendering="crispEdges"/><rect fill="#121212" x="1098" y="684.7" width="341.6" height="24.65" shape-rendering="crispEdges"/><rect fill="#000000" x="1439.6" y="684.7" width="12.2" height="24.65" shape-rendering="crispEdges"/><rect fill="#121212" x="1451.8" y="684.7" width="12.2" height="24.65" shape-rendering="crispEdges"/><rect fill="#121212" x="0" y="709.1" width="976" height="24.65" shape-rendering="crispEdges"/><rect fill="#242f38" x="976" y="709.1" width="12.2" height="24.65" shape-rendering="crispEdges"/><rect fill="#242f38" x="988.2" y="709.1" width="97.6" height="24.65" shape-rendering="crispEdges"/><rect fill="#242f38" x="1085.8" y="709.1" width="12.2" height="24.65" shape-rendering="crispEdges"/><rect fill="#242f38" x="1098" y="709.1" width="12.2" height="24.65" shape-rendering="crispEdges"/><rect fill="#121212" x="1110.2" y="709.1" width="329.4" height="24.65" shape-rendering="crispEdges"/><rect fill="#000000" x="1439.6" y="709.1" width="12.2" height="24.65" shape-rendering="crispEdges"/><rect fill="#121212" x="1451.8" y="709.1" width="12.2" height="24.65" shape-rendering="crispEdges"/><rect fill="#121212" x="0" y="733.5" width="976" height="24.65" shape-rendering="crispEdges"/><rect fill="#1e1e1e" x="976" y="733.5" width="402.6" height="24.65" shape-rendering="crispEdges"/><rect fill="#1e1e1e" x="1378.6" y="733.5" width="24.4" height="24.65" shape-rendering="crispEdges"/><rect fill="#1e1e1e" x="1403" y="733.5" width="12.2" height="24.65" shape-rendering="crispEdges"/><rect fill="#121212" x="1415.2" y="733.5" width="24.4" height="24.65" shape-rendering="crispEdges"/><rect fill="#000000" x="1439.6" y="733.5" width="12.2" height="24.65" shape-rendering="crispEdges"/><rect fill="#121212" x="1451.8" y="733.5" width="12.2" height="24.65" shape-rendering="crispEdges"/><rect fill="#121212" x="0" y="757.9" width="1439.6" height="24.65" shape-rendering="crispEdges"/><rect fill="#000000" x="1439.6" y="757.9" width="12.2" height="24.65" shape-rendering="crispEdges"/><rect fill="#121212" x="1451.8" y="757.9" width="12.2" height="24.65" shape-rendering="crispEdges"/><rect fill="#121212" x="0" y="782.3" width="976" height="24.65" shape-rendering="crispEdges"/><rect fill="#121212" x="976" y="782.3" width="85.4" height="24.65" shape-rendering="crispEdges"/><rect fill="#121212" x="1061.4" y="782.3" width="378.2" height="24.65" shape-rendering="crispEdges"/><rect fill="#000000" x="1439.6" y="782.3" width="12.2" height="24.65" shape-rendering="crispEdges"/><rect fill="#121212" x="1451.8" y="782.3" width="12.2" height="24.65" shape-rendering="crispEdges"/><rect fill="#121212" x="0" y="806.7" width="976" height="24.65" shape-rendering="crispEdges"/><rect fill="#121212" x="976" y="806.7" width="97.6" height="24.65" shape-rendering="crispEdges"/><rect fill="#121212" x="1073.6" y="806.7" width="366" height="24.65" shape-rendering="crispEdges"/><rect fill="#000000" x="1439.6" y="806.7" width="12.2" height="24.65" shape-rendering="crispEdges"/><rect fill="#121212" x="1451.8" y="806.7" width="12.2" height="24.65" shape-rendering="crispEdges"/><rect fill="#121212" x="0" y="831.1" width="976" height="24.65" shape-rendering="crispEdges"/><rect fill="#242f38" x="976" y="831.1" width="12.2" height="24.65" shape-rendering="crispEdges"/><rect fill="#242f38" x="988.2" y="831.1" width="73.2" height="24.65" shape-rendering="crispEdges"/><rect fill="#242f38" x="1061.4" y="831.1" width="12.2" height="24.65" shape-rendering="crispEdges"/><rect fill="#242f38" x="1073.6" y="831.1" width="12.2" height="24.65" shape-rendering="crispEdges"/><rect fill="#121212" x="1085.8" y="831.1" width="353.8" height="24.65" shape-rendering="crispEdges"/><rect fill="#000000" x="1439.6" y="831.1" width="12.2" height="24.65" shape-rendering="crispEdges"/><rect fill="#121212" x="1451.8" y="831.1" width="12.2" height="24.65" shape-rendering="crispEdges"/><rect fill="#121212" x="0" y="855.5" width="976" height="24.65" shape-rendering="crispEdges"/><rect fill="#1e1e1e" x="976" y="855.5" width="402.6" height="24.65" shape-rendering="crispEdges"/><rect fill="#1e1e1e" x="1378.6" y="855.5" width="24.4" height="24.65" shape-rendering="crispEdges"/><rect fill="#1e1e1e" x="1403" y="855.5" width="12.2" height="24.65" shape-rendering="crispEdges"/><rect fill="#121212" x="1415.2" y="855.5" width="24.4" height="24.65" shape-rendering="crispEdges"/><rect fill="#000000" x="1439.6" y="855.5" width="12.2" height="24.65" shape-rendering="crispEdges"/><rect fill="#121212" x="1451.8" y="855.5" width="12.2" height="24.65" shape-rendering="crispEdges"/><rect fill="#121212" x="0" y="879.9" width="1439.6" height="24.65" shape-rendering="crispEdges"/><rect fill="#000000" x="1439.6" y="879.9" width="12.2" height="24.65" shape-rendering="crispEdges"/><rect fill="#121212" x="1451.8" y="879.9" width="12.2" height="24.65" shape-rendering="crispEdges"/><rect fill="#121212" x="0" y="904.3" width="1464" height="24.65" shape-rendering="crispEdges"/><rect fill="#121212" x="0" y="928.7" width="1085.8" height="24.65" shape-rendering="crispEdges"/><rect fill="#121212" x="1085.8" y="928.7" width="12.2" height="24.65" shape-rendering="crispEdges"/><rect fill="#121212" x="1098" y="928.7" width="219.6" height="24.65" shape-rendering="crispEdges"/><rect fill="#121212" x="1317.6" y="928.7" width="12.2" height="24.65" shape-rendering="crispEdges"/><rect fill="#121212" x="1329.8" y="928.7" width="134.2" height="24.65" shape-rendering="crispEdges"/><rect fill="#121212" x="0" y="953.1" width="1464" height="24.65" shape-rendering="crispEdges"/>
    <g class="terminal-1452046927-matrix">
    <text class="terminal-1452046927-r1" x="1464" y="20" textLength="12.2" clip-path="url(#terminal-1452046927-line-0)">
</text><text class="terminal-1452046927-r2" x="24.4" y="44.4" textLength="61" clip-path="url(#terminal-1452046927-line-1)">Basic</text><text class="terminal-1452046927-r2" x="170.8" y="44.4" textLength="12.2" clip-path="url(#terminal-1452046927-line-1)">▼</text><text class="terminal-1452046927-r3" x="207.4" y="44.4" textLength="85.4" clip-path="url(#terminal-1452046927-line-1)">Project</text><text class="terminal-1452046927-r3" x="451.4" y="44.4" textLength="12.2" clip-path="url(#terminal-1452046927-line-1)">▼</text><text class="terminal-1452046927-r4" x="488" y="44.4" textLength="97.6" clip-path="url(#terminal-1452046927-line-1)">Assignee</text><text class="terminal-1452046927-r4" x="744.2" y="44.4" textLength="12.2" clip-path="url(#terminal-1452046927-line-1)">▼</text><text class="terminal-1452046927-r4" x="780.8" y="44.4" textLength="48.8" clip-path="url(#terminal-1452046927-line-1)">Type</text><text class="terminal-1452046927-r4" x="1024.8" y="44.4" textLength="12.2" clip-path="url(#terminal-1452046927-line-1)">▼</text><text class="terminal-1452046927-r4" x="1061.4" y="44.4" textLength="73.2" clip-path="url(#terminal-1452046927-line-1)">Status</text><text class="terminal-1452046927-r4" x="1317.6" y="44.4" textLength="12.2" clip-path="url(#terminal-1452046927-line-1)">▼</text><text class="terminal-1452046927-r5" x="1354.2" y="44.4" textLength="97.6" clip-path="url(#terminal-1452046927-line-1)">&#160;Search&#160;</text><text class="terminal-1452046927-r1" x="1464" y="44.4" textLength="12.2" clip-path="url(#terminal-1452046927-line-1)">
</text><text class="terminal-1452046927-r1" x="1464" y="68.8" textLength="12.2" clip-path="url(#terminal-1452046927-line-2)">
</text><text class="terminal-1452046927-r6" x="24.4" y="93.2" textLength="231.8" clip-path="url(#terminal-1452046927-line-3)">Engineering&#160;Project</text><text class="terminal-1452046927-r6" x="268.4" y="93.2" textLength="12.2" clip-path="url(#terminal-1452046927-line-3)">/</text><text class="terminal-1452046927-r7" x="280.6" y="93.2" textLength="170.8" clip-path="url(#terminal-1452046927-line-3)">&#160;+&#160;Add&#160;parent&#160;</text><text class="terminal-1452046927-r6" x="451.4" y="93.2" textLength="12.2" clip-path="url(#terminal-1452046927-line-3)">/</text><text class="terminal-1452046927-r6" x="475.8" y="93.2" textLength="219.6" clip-path="url(#terminal-1452046927-line-3)">[Initiative]&#160;ENG-1</text><text class="terminal-1452046927-r1" x="1464" y="93.2" textLength="12.2" clip-path="url(#terminal-1452046927-line-3)">
</text><text class="terminal-1452046927-r8" x="24.4" y="117.6" textLength="524.6" clip-path="url(#terminal-1452046927-line-4)">ACME&#160;cinematic&#160;monster&#160;animatronics&#160;roadmap</text><text class="terminal-1452046927-r1" x="1464" y="117.6" textLength="12.2" clip-path="url(#terminal-1452046927-line-4)">
</text><text class="terminal-1452046927-r1" x="1464" y="142" textLength="12.2" clip-path="url(#terminal-1452046927-line-5)">
</text><text class="terminal-1452046927-r9" x="36.6" y="166.4" textLength="134.2" clip-path="url(#terminal-1452046927-line-6)">Description</text><text class="terminal-1452046927-r10" x="195.2" y="166.4" textLength="146.4" clip-path="url(#terminal-1452046927-line-6)">Attachments&#160;</text><text class="terminal-1452046927-r2" x="341.6" y="166.4" textLength="36.6" clip-path="url(#terminal-1452046927-line-6)">&#160;1&#160;</text><text class="terminal-1452046927-r9" x="402.6" y="166.4" textLength="109.8" clip-path="url(#terminal-1452046927-line-6)">Subtasks&#160;</text><text class="terminal-1452046927-r2" x="512.4" y="166.4" textLength="36.6" clip-path="url(#terminal-1452046927-line-6)">&#160;1&#160;</text><text class="terminal-1452046927-r9" x="573.4" y="166.4" textLength="170.8" clip-path="url(#terminal-1452046927-line-6)">Related&#160;Items&#160;</text><text class="terminal-1452046927-r2" x="744.2" y="166.4" textLength="36.6" clip-path="url(#terminal-1452046927-line-6)">&#160;2&#160;</text><text class="terminal-1452046927-r9" x="805.2" y="166.4" textLength="122" clip-path="url(#terminal-1452046927-line-6)">Web&#160;Links&#160;</text><text class="terminal-1452046927-r2" x="927.2" y="166.4" textLength="36.6" clip-path="url(#terminal-1452046927-line-6)">&#160;6&#160;</text><text class="terminal-1452046927-r9" x="988.2" y="166.4" textLength="109.8" clip-path="url(#terminal-1452046927-line-6)">Comments&#160;</text><text class="terminal-1452046927-r2" x="1098" y="166.4" textLength="36.6" clip-path="url(#terminal-1452046927-line-6)">&#160;1&#160;</text><text class="terminal-1452046927-r1" x="1464" y="166.4" textLength="12.2" clip-path="url(#terminal-1452046927-line-6)">
</text><text class="terminal-1452046927-r11" x="24.4" y="190.8" textLength="170.8" clip-path="url(#terminal-1452046927-line-7)">━━━━━━━━━━━━━╸</text><text class="terminal-1452046927-r12" x="195.2" y="190.8" textLength="183" clip-path="url(#terminal-1452046927-line-7)">━━━━━━━━━━━━━━━</text><text class="terminal-1452046927-r11" x="378.2" y="190.8" textLength="1073.6" clip-path="url(#terminal-1452046927-line-7)">╺━━━━━━━━━━━━━━━━━━━━━━━━━━━━━━━━━━━━━━━━━━━━━━━━━━━━━━━━━━━━━━━━━━━━━━━━━━━━━━━━━━━━━━━</text><text class="terminal-1452046927-r1" x="1464" y="190.8" textLength="12.2" clip-path="url(#terminal-1452046927-line-7)">
</text><text class="terminal-1452046927-r13" x="24.4" y="215.2" textLength="329.4" clip-path="url(#terminal-1452046927-line-8)">&#160;File&#160;Name&#160;&#160;&#160;&#160;&#160;&#160;&#160;&#160;&#160;&#160;&#160;&#160;&#160;&#160;&#160;&#160;&#160;</text><text class="terminal-1452046927-r13" x="353.8" y="215.2" textLength="134.2" clip-path="url(#terminal-1452046927-line-8)">&#160;Size&#160;(KB)&#160;</text><text class="terminal-1452046927-r13" x="488" y="215.2" textLength="219.6" clip-path="url(#terminal-1452046927-line-8)">&#160;Added&#160;&#160;&#160;&#160;&#160;&#160;&#160;&#160;&#160;&#160;&#160;&#160;</text><text class="terminal-1452046927-r13" x="707.6" y="215.2" textLength="256.2" clip-path="url(#terminal-1452046927-line-8)">&#160;Author&#160;&#160;&#160;&#160;&#160;&#160;&#160;&#160;&#160;&#160;&#160;&#160;&#160;&#160;</text><text class="terminal-1452046927-r13" x="976" y="215.2" textLength="73.2" clip-path="url(#terminal-1452046927-line-8)">Status</text><text class="terminal-1452046927-r1" x="1464" y="215.2" textLength="12.2" clip-path="url(#terminal-1452046927-line-8)">
</text><text class="terminal-1452046927-r15" x="24.4" y="239.6" textLength="329.4" clip-path="url(#terminal-1452046927-line-9)">&#160;image-20260205-112310.png&#160;</text><text class="terminal-1452046927-r15" x="353.8" y="239.6" textLength="134.2" clip-path="url(#terminal-1452046927-line-9)">&#160;244.54&#160;&#160;&#160;&#160;</text><text class="terminal-1452046927-r15" x="488" y="239.6" textLength="219.6" clip-path="url(#terminal-1452046927-line-9)">&#160;2026-02-05&#160;13:23&#160;</text><text class="terminal-1452046927-r15" x="707.6" y="239.6" textLength="256.2" clip-path="url(#terminal-1452046927-line-9)">&#160;rook.hydra@acme.exam</text><text class="terminal-1452046927-r3" x="976" y="239.6" textLength="48.8" clip-path="url(#terminal-1452046927-line-9)">Done</text><text class="terminal-1452046927-r3" x="1390.8" y="239.6" textLength="12.2" clip-path="url(#terminal-1452046927-line-9)">▼</text><text class="terminal-1452046927-r1" x="1464" y="239.6" textLength="12.2" clip-path="url(#terminal-1452046927-line-9)">
</text><text class="terminal-1452046927-r17" x="768.6" y="264" textLength="12.2" clip-path="url(#terminal-1452046927-line-10)">▉</text><text class="terminal-1452046927-r1" x="1464" y="264" textLength="12.2" clip-path="url(#terminal-1452046927-line-10)">
</text><text class="terminal-1452046927-r13" x="976" y="288.4" textLength="122" clip-path="url(#terminal-1452046927-line-11)">Resolution</text><text class="terminal-1452046927-r1" x="1464" y="288.4" textLength="12.2" clip-path="url(#terminal-1452046927-line-11)">
</text><text class="terminal-1452046927-r18" x="976" y="312.8" textLength="439.2" clip-path="url(#terminal-1452046927-line-12)">Done&#160;&#160;&#160;&#160;&#160;&#160;&#160;&#160;&#160;&#160;&#160;&#160;&#160;&#160;&#160;&#160;&#160;&#160;&#160;&#160;&#160;&#160;&#160;&#160;&#160;&#160;&#160;&#160;&#160;&#160;&#160;&#160;</text><text class="terminal-1452046927-r1" x="1464" y="312.8" textLength="12.2" clip-path="url(#terminal-1452046927-line-12)">
</text><text class="terminal-1452046927-r1" x="1464" y="337.2" textLength="12.2" clip-path="url(#terminal-1452046927-line-13)">
</text><text class="terminal-1452046927-r13" x="976" y="361.6" textLength="97.6" clip-path="url(#terminal-1452046927-line-14)">Priority</text><text class="terminal-1452046927-r1" x="1464" y="361.6" textLength="12.2" clip-path="url(#terminal-1452046927-line-14)">
</text><text class="terminal-1452046927-r10" x="976" y="386" textLength="73.2" clip-path="url(#terminal-1452046927-line-15)">Medium</text><text class="terminal-1452046927-r3" x="1390.8" y="386" textLength="12.2" clip-path="url(#terminal-1452046927-line-15)">▼</text><text class="terminal-1452046927-r1" x="1464" y="386" textLength="12.2" clip-path="url(#terminal-1452046927-line-15)">
</text><text class="terminal-1452046927-r1" x="1464" y="410.4" textLength="12.2" clip-path="url(#terminal-1452046927-line-16)">
</text><text class="terminal-1452046927-r13" x="976" y="434.8" textLength="97.6" clip-path="url(#terminal-1452046927-line-17)">Assignee</text><text class="terminal-1452046927-r1" x="1464" y="434.8" textLength="12.2" clip-path="url(#terminal-1452046927-line-17)">
</text><text class="terminal-1452046927-r10" x="976" y="459.2" textLength="122" clip-path="url(#terminal-1452046927-line-18)">Rook&#160;Hydra</text><text class="terminal-1452046927-r3" x="1390.8" y="459.2" textLength="12.2" clip-path="url(#terminal-1452046927-line-18)">▼</text><text class="terminal-1452046927-r1" x="1464" y="459.2" textLength="12.2" clip-path="url(#terminal-1452046927-line-18)">
</text><text class="terminal-1452046927-r1" x="1464" y="483.6" textLength="12.2" clip-path="url(#terminal-1452046927-line-19)">
</text><text class="terminal-1452046927-r13" x="976" y="508" textLength="97.6" clip-path="url(#terminal-1452046927-line-20)">Reporter</text><text class="terminal-1452046927-r1" x="1464" y="508" textLength="12.2" clip-path="url(#terminal-1452046927-line-20)">
</text><text class="terminal-1452046927-r18" x="976" y="532.4" textLength="439.2" clip-path="url(#terminal-1452046927-line-21)">Rook&#160;Hydra&#160;&#160;&#160;&#160;&#160;&#160;&#160;&#160;&#160;&#160;&#160;&#160;&#160;&#160;&#160;&#160;&#160;&#160;&#160;&#160;&#160;&#160;&#160;&#160;&#160;&#160;</text><text class="terminal-1452046927-r1" x="1464" y="532.4" textLength="12.2" clip-path="url(#terminal-1452046927-line-21)">
</text><text class="terminal-1452046927-r1" x="1464" y="556.8" textLength="12.2" clip-path="url(#terminal-1452046927-line-22)">
</text><text class="terminal-1452046927-r13" x="976" y="581.2" textLength="73.2" clip-path="url(#terminal-1452046927-line-23)">Labels</text><text class="terminal-1452046927-r1" x="1464" y="581.2" textLength="12.2" clip-path="url(#terminal-1452046927-line-23)">
</text><text class="terminal-1452046927-r19" x="988.2" y="605.6" textLength="195.2" clip-path="url(#terminal-1452046927-line-24)">monster-program&#160;</text><text class="terminal-1452046927-r19" x="1183.4" y="605.6" textLength="12.2" clip-path="url(#terminal-1452046927-line-24)">x</text><text class="terminal-1452046927-r20" x="1439.6" y="605.6" textLength="12.2" clip-path="url(#terminal-1452046927-line-24)">▄</text><text class="terminal-1452046927-r1" x="1464" y="605.6" textLength="12.2" clip-path="url(#terminal-1452046927-line-24)">
</text><text class="terminal-1452046927-r19" x="988.2" y="630" textLength="207.4" clip-path="url(#terminal-1452046927-line-25)">cinematic-lineup&#160;</text><text class="terminal-1452046927-r19" x="1195.6" y="630" textLength="12.2" clip-path="url(#terminal-1452046927-line-25)">x</text><text class="terminal-1452046927-r1" x="1464" y="630" textLength="12.2" clip-path="url(#terminal-1452046927-line-25)">
</text><text class="terminal-1452046927-r1" x="1464" y="654.4" textLength="12.2" clip-path="url(#terminal-1452046927-line-26)">
</text><text class="terminal-1452046927-r1" x="1464" y="678.8" textLength="12.2" clip-path="url(#terminal-1452046927-line-27)">
</text><text class="terminal-1452046927-r13" x="976" y="703.2" textLength="122" clip-path="url(#terminal-1452046927-line-28)">Components</text><text class="terminal-1452046927-r1" x="1464" y="703.2" textLength="12.2" clip-path="url(#terminal-1452046927-line-28)">
</text><text class="terminal-1452046927-r19" x="988.2" y="727.6" textLength="97.6" clip-path="url(#terminal-1452046927-line-29)">Backend&#160;</text><text class="terminal-1452046927-r19" x="1085.8" y="727.6" textLength="12.2" clip-path="url(#terminal-1452046927-line-29)">x</text><text class="terminal-1452046927-r1" x="1464" y="727.6" textLength="12.2" clip-path="url(#terminal-1452046927-line-29)">
</text><text class="terminal-1452046927-r21" x="1378.6" y="752" textLength="24.4" clip-path="url(#terminal-1452046927-line-30)">&#160;▼</text><text class="terminal-1452046927-r1" x="1464" y="752" textLength="12.2" clip-path="url(#terminal-1452046927-line-30)">
</text><text class="terminal-1452046927-r1" x="1464" y="776.4" textLength="12.2" clip-path="url(#terminal-1452046927-line-31)">
</text><text class="terminal-1452046927-r13" x="976" y="800.8" textLength="85.4" clip-path="url(#terminal-1452046927-line-32)">Affects</text><text class="terminal-1452046927-r1" x="1464" y="800.8" textLength="12.2" clip-path="url(#terminal-1452046927-line-32)">
</text><text class="terminal-1452046927-r13" x="976" y="825.2" textLength="97.6" clip-path="url(#terminal-1452046927-line-33)">Versions</text><text class="terminal-1452046927-r1" x="1464" y="825.2" textLength="12.2" clip-path="url(#terminal-1452046927-line-33)">
</text><text class="terminal-1452046927-r19" x="988.2" y="849.6" textLength="73.2" clip-path="url(#terminal-1452046927-line-34)">1.0.0&#160;</text><text class="terminal-1452046927-r19" x="1061.4" y="849.6" textLength="12.2" clip-path="url(#terminal-1452046927-line-34)">x</text><text class="terminal-1452046927-r1" x="1464" y="849.6" textLength="12.2" clip-path="url(#terminal-1452046927-line-34)">
</text><text class="terminal-1452046927-r21" x="1378.6" y="874" textLength="24.4" clip-path="url(#terminal-1452046927-line-35)">&#160;▼</text><text class="terminal-1452046927-r1" x="1464" y="874" textLength="12.2" clip-path="url(#terminal-1452046927-line-35)">
</text><text class="terminal-1452046927-r1" x="1464" y="898.4" textLength="12.2" clip-path="url(#terminal-1452046927-line-36)">
</text><text class="terminal-1452046927-r1" x="1464" y="922.8" textLength="12.2" clip-path="url(#terminal-1452046927-line-37)">
</text><text class="terminal-1452046927-r23" x="1098" y="947.2" textLength="219.6" clip-path="url(#terminal-1452046927-line-38)">No&#160;pending&#160;changes</text><text class="terminal-1452046927-r1" x="1464" y="947.2" textLength="12.2" clip-path="url(#terminal-1452046927-line-38)">
</text>
    </g>
    </g>
</svg>
