<svg xmlns="http://www.w3.org/2000/svg" class="rich-terminal" viewBox="0 0 501.0 732.25" width="501.0" height="732.25"><!-- Generated with Rich https://www.textualize.io --><style>

    @font-face {
        font-family: "Fira Code";
        src: local("FiraCode-Regular"),
                url("https://cdnjs.cloudflare.com/ajax/libs/firacode/6.2.0/woff2/FiraCode-Regular.woff2") format("woff2"),
                url("https://cdnjs.cloudflare.com/ajax/libs/firacode/6.2.0/woff/FiraCode-Regular.woff") format("woff");
        font-style: normal;
        font-weight: 400;
    }
    @font-face {
        font-family: "Fira Code";
        src: local("FiraCode-Bold"),
                url("https://cdnjs.cloudflare.com/ajax/libs/firacode/6.2.0/woff2/FiraCode-Bold.woff2") format("woff2"),
                url("https://cdnjs.cloudflare.com/ajax/libs/firacode/6.2.0/woff/FiraCode-Bold.woff") format("woff");
        font-style: bold;
        font-weight: 700;
    }

    .terminal-853557509-matrix {
        font-family: Fira Code, monospace;
        font-size: 20px;
        line-height: 24.4px;
        font-variant-east-asian: full-width;
    }

    .terminal-853557509-title {
        font-size: 18px;
        font-weight: bold;
        font-family: arial;
    }

    .terminal-853557509-r1 { fill: #c5c8c6 }
.terminal-853557509-r2 { fill: #121212;font-weight: bold }
.terminal-853557509-r3 { fill: #7f7f7f }
.terminal-853557509-r4 { fill: #5f5f5f }
.terminal-853557509-r5 { fill: #f5ebdd;font-weight: bold }
.terminal-853557509-r6 { fill: #a0a0a0;font-weight: bold }
.terminal-853557509-r7 { fill: #fea62b;font-weight: bold }
.terminal-853557509-r8 { fill: #0178d4;font-weight: bold }
.terminal-853557509-r9 { fill: #e0e0e0 }
.terminal-853557509-r10 { fill: #797979 }
.terminal-853557509-r11 { fill: #262626 }
.terminal-853557509-r12 { fill: #0178d4 }
.terminal-853557509-r13 { fill: #e0e0e0;font-weight: bold }
.terminal-853557509-r14 { fill: #838383 }
.terminal-853557509-r15 { fill: #a2a2a2 }
.terminal-853557509-r16 { fill: #539eff }
.terminal-853557509-r17 { fill: #737373 }
.terminal-853557509-r18 { fill: #744f1c;font-weight: bold }
.terminal-853557509-r19 { fill: #533a18;font-weight: bold }
    </style><defs>
    <clipPath id="terminal-853557509-clip-terminal">
      <rect x="0" y="0" width="1463.0" height="1463.0" />
    </clipPath>
    <clipPath id="terminal-853557509-line-0">
    <rect x="0" y="1.5" width="1464" height="24.65" />
            </clipPath>
<clipPath id="terminal-853557509-line-1">
    <rect x="0" y="25.9" width="1464" height="24.65" />
            </clipPath>
<clipPath id="terminal-853557509-line-2">
    <rect x="0" y="50.3" width="1464" height="24.65" />
            </clipPath>
<clipPath id="terminal-853557509-line-3">
    <rect x="0" y="74.7" width="1464" height="24.65" />
            </clipPath>
<clipPath id="terminal-853557509-line-4">
    <rect x="0" y="99.1" width="1464" height="24.65" />
            </clipPath>
<clipPath id="terminal-853557509-line-5">
    <rect x="0" y="123.5" width="1464" height="24.65" />
            </clipPath>
<clipPath id="terminal-853557509-line-6">
    <rect x="0" y="147.9" width="1464" height="24.65" />
            </clipPath>
<clipPath id="terminal-853557509-line-7">
    <rect x="0" y="172.3" width="1464" height="24.65" />
            </clipPath>
<clipPath id="terminal-853557509-line-8">
    <rect x="0" y="196.7" width="1464" height="24.65" />
            </clipPath>
<clipPath id="terminal-853557509-line-9">
    <rect x="0" y="221.1" width="1464" height="24.65" />
            </clipPath>
<clipPath id="terminal-853557509-line-10">
    <rect x="0" y="245.5" width="1464" height="24.65" />
            </clipPath>
<clipPath id="terminal-853557509-line-11">
    <rect x="0" y="269.9" width="1464" height="24.65" />
            </clipPath>
<clipPath id="terminal-853557509-line-12">
    <rect x="0" y="294.3" width="1464" height="24.65" />
            </clipPath>
<clipPath id="terminal-853557509-line-13">
    <rect x="0" y="318.7" width="1464" height="24.65" />
            </clipPath>
<clipPath id="terminal-853557509-line-14">
    <rect x="0" y="343.1" width="1464" height="24.65" />
            </clipPath>
<clipPath id="terminal-853557509-line-15">
    <rect x="0" y="367.5" width="1464" height="24.65" />
            </clipPath>
<clipPath id="terminal-853557509-line-16">
    <rect x="0" y="391.9" width="1464" height="24.65" />
            </clipPath>
<clipPath id="terminal-853557509-line-17">
    <rect x="0" y="416.3" width="1464" height="24.65" />
            </clipPath>
<clipPath id="terminal-853557509-line-18">
    <rect x="0" y="440.7" width="1464" height="24.65" />
            </clipPath>
<clipPath id="terminal-853557509-line-19">
    <rect x="0" y="465.1" width="1464" height="24.65" />
            </clipPath>
<clipPath id="terminal-853557509-line-20">
    <rect x="0" y="489.5" width="1464" height="24.65" />
            </clipPath>
<clipPath id="terminal-853557509-line-21">
    <rect x="0" y="513.9" width="1464" height="24.65" />
            </clipPath>
<clipPath id="terminal-853557509-line-22">
    <rect x="0" y="538.3" width="1464" height="24.65" />
            </clipPath>
<clipPath id="terminal-853557509-line-23">
    <rect x="0" y="562.7" width="1464" height="24.65" />
            </clipPath>
<clipPath id="terminal-853557509-line-24">
    <rect x="0" y="587.1" width="1464" height="24.65" />
            </clipPath>
<clipPath id="terminal-853557509-line-25">
    <rect x="0" y="611.5" width="1464" height="24.65" />
            </clipPath>
<clipPath id="terminal-853557509-line-26">
    <rect x="0" y="635.9" width="1464" height="24.65" />
            </clipPath>
<clipPath id="terminal-853557509-line-27">
    <rect x="0" y="660.3" width="1464" height="24.65" />
            </clipPath>
<clipPath id="terminal-853557509-line-28">
    <rect x="0" y="684.7" width="1464" height="24.65" />
            </clipPath>
<clipPath id="terminal-853557509-line-29">
    <rect x="0" y="709.1" width="1464" height="24.65" />
            </clipPath>
<clipPath id="terminal-853557509-line-30">
    <rect x="0" y="733.5" width="1464" height="24.65" />
            </clipPath>
<clipPath id="terminal-853557509-line-31">
    <rect x="0" y="757.9" width="1464" height="24.65" />
            </clipPath>
<clipPath id="terminal-853557509-line-32">
    <rect x="0" y="782.3" width="1464" height="24.65" />
            </clipPath>
<clipPath id="terminal-853557509-line-33">
    <rect x="0" y="806.7" width="1464" height="24.65" />
            </clipPath>
<clipPath id="terminal-853557509-line-34">
    <rect x="0" y="831.1" width="1464" height="24.65" />
            </clipPath>
<clipPath id="terminal-853557509-line-35">
    <rect x="0" y="855.5" width="1464" height="24.65" />
            </clipPath>
<clipPath id="terminal-853557509-line-36">
    <rect x="0" y="879.9" width="1464" height="24.65" />
            </clipPath>
<clipPath id="terminal-853557509-line-37">
    <rect x="0" y="904.3" width="1464" height="24.65" />
            </clipPath>
<clipPath id="terminal-853557509-line-38">
    <rect x="0" y="928.7" width="1464" height="24.65" />
            </clipPath>
<clipPath id="terminal-853557509-line-39">
    <rect x="0" y="953.1" width="1464" height="24.65" />
            </clipPath>
<clipPath id="terminal-853557509-line-40">
    <rect x="0" y="977.5" width="1464" height="24.65" />
            </clipPath>
<clipPath id="terminal-853557509-line-41">
    <rect x="0" y="1001.9" width="1464" height="24.65" />
            </clipPath>
<clipPath id="terminal-853557509-line-42">
    <rect x="0" y="1026.3" width="1464" height="24.65" />
            </clipPath>
<clipPath id="terminal-853557509-line-43">
    <rect x="0" y="1050.7" width="1464" height="24.65" />
            </clipPath>
<clipPath id="terminal-853557509-line-44">
    <rect x="0" y="1075.1" width="1464" height="24.65" />
            </clipPath>
<clipPath id="terminal-853557509-line-45">
    <rect x="0" y="1099.5" width="1464" height="24.65" />
            </clipPath>
<clipPath id="terminal-853557509-line-46">
    <rect x="0" y="1123.9" width="1464" height="24.65" />
            </clipPath>
<clipPath id="terminal-853557509-line-47">
    <rect x="0" y="1148.3" width="1464" height="24.65" />
            </clipPath>
<clipPath id="terminal-853557509-line-48">
    <rect x="0" y="1172.7" width="1464" height="24.65" />
            </clipPath>
<clipPath id="terminal-853557509-line-49">
    <rect x="0" y="1197.1" width="1464" height="24.65" />
            </clipPath>
<clipPath id="terminal-853557509-line-50">
    <rect x="0" y="1221.5" width="1464" height="24.65" />
            </clipPath>
<clipPath id="terminal-853557509-line-51">
    <rect x="0" y="1245.9" width="1464" height="24.65" />
            </clipPath>
<clipPath id="terminal-853557509-line-52">
    <rect x="0" y="1270.3" width="1464" height="24.65" />
            </clipPath>
<clipPath id="terminal-853557509-line-53">
    <rect x="0" y="1294.7" width="1464" height="24.65" />
            </clipPath>
<clipPath id="terminal-853557509-line-54">
    <rect x="0" y="1319.1" width="1464" height="24.65" />
            </clipPath>
<clipPath id="terminal-853557509-line-55">
    <rect x="0" y="1343.5" width="1464" height="24.65" />
            </clipPath>
<clipPath id="terminal-853557509-line-56">
    <rect x="0" y="1367.9" width="1464" height="24.65" />
            </clipPath>
<clipPath id="terminal-853557509-line-57">
    <rect x="0" y="1392.3" width="1464" height="24.65" />
            </clipPath>
<clipPath id="terminal-853557509-line-58">
    <rect x="0" y="1416.7" width="1464" height="24.65" />
            </clipPath>
    </defs><g clip-path="url(#terminal-853557509-clip-terminal)" transform="translate(-963.0,-196.7)"><rect fill="#121212" x="170.8" y="172.3" width="1281" height="24.65" shape-rendering="crispEdges" /><rect fill="#121212" x="1451.8" y="172.3" width="12.2" height="24.65" shape-rendering="crispEdges" /><rect fill="#121212" x="622.2" y="196.7" width="353.8" height="24.65" shape-rendering="crispEdges" /><rect fill="#121212" x="976" y="196.7" width="73.2" height="24.65" shape-rendering="crispEdges" /><rect fill="#121212" x="1049.2" y="196.7" width="414.8" height="24.65" shape-rendering="crispEdges" /><rect fill="#121212" x="0" y="221.1" width="976" height="24.65" shape-rendering="crispEdges" /><rect fill="#272727" x="976" y="221.1" width="48.8" height="24.65" shape-rendering="crispEdges" /><rect fill="#272727" x="1024.8" y="221.1" width="378.2" height="24.65" shape-rendering="crispEdges" /><rect fill="#272727" x="1403" y="221.1" width="12.2" height="24.65" shape-rendering="crispEdges" /><rect fill="#272727" x="1415.2" y="221.1" width="12.2" height="24.65" shape-rendering="crispEdges" /><rect fill="#121212" x="1427.4" y="221.1" width="36.6" height="24.65" shape-rendering="crispEdges" /><rect fill="#121212" x="0" y="245.5" width="1464" height="24.65" shape-rendering="crispEdges" /><rect fill="#121212" x="0" y="269.9" width="976" height="24.65" shape-rendering="crispEdges" /><rect fill="#121212" x="976" y="269.9" width="97.6" height="24.65" shape-rendering="crispEdges" /><rect fill="#121212" x="1073.6" y="269.9" width="390.4" height="24.65" shape-rendering="crispEdges" /><rect fill="#121212" x="0" y="294.3" width="976" height="24.65" shape-rendering="crispEdges" /><rect fill="#1e1e1e" x="976" y="294.3" width="73.2" height="24.65" shape-rendering="crispEdges" /><rect fill="#1e1e1e" x="1049.2" y="294.3" width="353.8" height="24.65" shape-rendering="crispEdges" /><rect fill="#1e1e1e" x="1403" y="294.3" width="12.2" height="24.65" shape-rendering="crispEdges" /><rect fill="#1e1e1e" x="1415.2" y="294.3" width="12.2" height="24.65" shape-rendering="crispEdges" /><rect fill="#121212" x="1427.4" y="294.3" width="36.6" height="24.65" shape-rendering="crispEdges" /><rect fill="#121212" x="0" y="318.7" width="1464" height="24.65" shape-rendering="crispEdges" /><rect fill="#121212" x="0" y="343.1" width="976" height="24.65" shape-rendering="crispEdges" /><rect fill="#121212" x="976" y="343.1" width="97.6" height="24.65" shape-rendering="crispEdges" /><rect fill="#121212" x="1073.6" y="343.1" width="390.4" height="24.65" shape-rendering="crispEdges" /><rect fill="#121212" x="0" y="367.5" width="976" height="24.65" shape-rendering="crispEdges" /><rect fill="#1e1e1e" x="976" y="367.5" width="146.4" height="24.65" shape-rendering="crispEdges" /><rect fill="#1e1e1e" x="1122.4" y="367.5" width="280.6" height="24.65" shape-rendering="crispEdges" /><rect fill="#1e1e1e" x="1403" y="367.5" width="12.2" height="24.65" shape-rendering="crispEdges" /><rect fill="#1e1e1e" x="1415.2" y="367.5" width="12.2" height="24.65" shape-rendering="crispEdges" /><rect fill="#121212" x="1427.4" y="367.5" width="36.6" height="24.65" shape-rendering="crispEdges" /><rect fill="#121212" x="0" y="391.9" width="1464" height="24.65" shape-rendering="crispEdges" /><rect fill="#121212" x="0" y="416.3" width="976" height="24.65" shape-rendering="crispEdges" /><rect fill="#121212" x="976" y="416.3" width="97.6" height="24.65" shape-rendering="crispEdges" /><rect fill="#121212" x="1073.6" y="416.3" width="390.4" height="24.65" shape-rendering="crispEdges" /><rect fill="#121212" x="0" y="440.7" width="976" height="24.65" shape-rendering="crispEdges" /><rect fill="#171717" x="976" y="440.7" width="451.4" height="24.65" shape-rendering="crispEdges" /><rect fill="#121212" x="1427.4" y="440.7" width="36.6" height="24.65" shape-rendering="crispEdges" /><rect fill="#121212" x="0" y="465.1" width="1464" height="24.65" shape-rendering="crispEdges" /><rect fill="#121212" x="0" y="489.5" width="976" height="24.65" shape-rendering="crispEdges" /><rect fill="#121212" x="976" y="489.5" width="73.2" height="24.65" shape-rendering="crispEdges" /><rect fill="#121212" x="1049.2" y="489.5" width="414.8" height="24.65" shape-rendering="crispEdges" /><rect fill="#121212" x="0" y="513.9" width="976" height="24.65" shape-rendering="crispEdges" /><rect fill="#242f38" x="976" y="513.9" width="12.2" height="24.65" shape-rendering="crispEdges" /><rect fill="#242f38" x="988.2" y="513.9" width="158.6" height="24.65" shape-rendering="crispEdges" /><rect fill="#242f38" x="1146.8" y="513.9" width="12.2" height="24.65" shape-rendering="crispEdges" /><rect fill="#242f38" x="1159" y="513.9" width="12.2" height="24.65" shape-rendering="crispEdges" /><rect fill="#121212" x="1171.2" y="513.9" width="12.2" height="24.65" shape-rendering="crispEdges" /><rect fill="#242f38" x="1183.4" y="513.9" width="12.2" height="24.65" shape-rendering="crispEdges" /><rect fill="#242f38" x="1195.6" y="513.9" width="146.4" height="24.65" shape-rendering="crispEdges" /><rect fill="#242f38" x="1342" y="513.9" width="12.2" height="24.65" shape-rendering="crispEdges" /><rect fill="#242f38" x="1354.2" y="513.9" width="12.2" height="24.65" shape-rendering="crispEdges" /><rect fill="#121212" x="1366.4" y="513.9" width="97.6" height="24.65" shape-rendering="crispEdges" /><rect fill="#121212" x="0" y="538.3" width="976" height="24.65" shape-rendering="crispEdges" /><rect fill="#1e1e1e" x="976" y="538.3" width="451.4" height="24.65" shape-rendering="crispEdges" /><rect fill="#121212" x="1427.4" y="538.3" width="36.6" height="24.65" shape-rendering="crispEdges" /><rect fill="#121212" x="0" y="562.7" width="1464" height="24.65" shape-rendering="crispEdges" /><rect fill="#121212" x="0" y="587.1" width="976" height="24.65" shape-rendering="crispEdges" /><rect fill="#121212" x="976" y="587.1" width="122" height="24.65" shape-rendering="crispEdges" /><rect fill="#121212" x="1098" y="587.1" width="366" height="24.65" shape-rendering="crispEdges" /><rect fill="#121212" x="0" y="611.5" width="976" height="24.65" shape-rendering="crispEdges" /><rect fill="#242f38" x="976" y="611.5" width="12.2" height="24.65" shape-rendering="crispEdges" /><rect fill="#242f38" x="988.2" y="611.5" width="109.8" height="24.65" shape-rendering="crispEdges" /><rect fill="#242f38" x="1098" y="611.5" width="12.2" height="24.65" shape-rendering="crispEdges" /><rect fill="#242f38" x="1110.2" y="611.5" width="12.2" height="24.65" shape-rendering="crispEdges" /><rect fill="#121212" x="1122.4" y="611.5" width="12.2" height="24.65" shape-rendering="crispEdges" /><rect fill="#242f38" x="1134.6" y="611.5" width="12.2" height="24.65" shape-rendering="crispEdges" /><rect fill="#242f38" x="1146.8" y="611.5" width="48.8" height="24.65" shape-rendering="crispEdges" /><rect fill="#242f38" x="1195.6" y="611.5" width="12.2" height="24.65" shape-rendering="crispEdges" /><rect fill="#242f38" x="1207.8" y="611.5" width="12.2" height="24.65" shape-rendering="crispEdges" /><rect fill="#121212" x="1220" y="611.5" width="244" height="24.65" shape-rendering="crispEdges" /><rect fill="#121212" x="0" y="635.9" width="976" height="24.65" shape-rendering="crispEdges" /><rect fill="#1e1e1e" x="976" y="635.9" width="414.8" height="24.65" shape-rendering="crispEdges" /><rect fill="#1e1e1e" x="1390.8" y="635.9" width="24.4" height="24.65" shape-rendering="crispEdges" /><rect fill="#1e1e1e" x="1415.2" y="635.9" width="12.2" height="24.65" shape-rendering="crispEdges" /><rect fill="#121212" x="1427.4" y="635.9" width="36.6" height="24.65" shape-rendering="crispEdges" /><rect fill="#121212" x="0" y="660.3" width="1464" height="24.65" shape-rendering="crispEdges" /><rect fill="#121212" x="0" y="684.7" width="976" height="24.65" shape-rendering="crispEdges" /><rect fill="#121212" x="976" y="684.7" width="85.4" height="24.65" shape-rendering="crispEdges" /><rect fill="#121212" x="1061.4" y="684.7" width="402.6" height="24.65" shape-rendering="crispEdges" /><rect fill="#121212" x="0" y="709.1" width="976" height="24.65" shape-rendering="crispEdges" /><rect fill="#121212" x="976" y="709.1" width="97.6" height="24.65" shape-rendering="crispEdges" /><rect fill="#121212" x="1073.6" y="709.1" width="390.4" height="24.65" shape-rendering="crispEdges" /><rect fill="#121212" x="0" y="733.5" width="976" height="24.65" shape-rendering="crispEdges" /><rect fill="#242f38" x="976" y="733.5" width="12.2" height="24.65" shape-rendering="crispEdges" /><rect fill="#242f38" x="988.2" y="733.5" width="73.2" height="24.65" shape-rendering="crispEdges" /><rect fill="#242f38" x="1061.4" y="733.5" width="12.2" height="24.65" shape-rendering="crispEdges" /><rect fill="#242f38" x="1073.6" y="733.5" width="12.2" height="24.65" shape-rendering="crispEdges" /><rect fill="#121212" x="1085.8" y="733.5" width="378.2" height="24.65" shape-rendering="crispEdges" /><rect fill="#121212" x="0" y="757.9" width="976" height="24.65" shape-rendering="crispEdges" /><rect fill="#1e1e1e" x="976" y="757.9" width="414.8" height="24.65" shape-rendering="crispEdges" /><rect fill="#1e1e1e" x="1390.8" y="757.9" width="24.4" height="24.65" shape-rendering="crispEdges" /><rect fill="#1e1e1e" x="1415.2" y="757.9" width="12.2" height="24.65" shape-rendering="crispEdges" /><rect fill="#121212" x="1427.4" y="757.9" width="36.6" height="24.65" shape-rendering="crispEdges" /><rect fill="#121212" x="0" y="782.3" width="1464" height="24.65" shape-rendering="crispEdges" /><rect fill="#121212" x="0" y="806.7" width="976" height="24.65" shape-rendering="crispEdges" /><rect fill="#121212" x="976" y="806.7" width="146.4" height="24.65" shape-rendering="crispEdges" /><rect fill="#121212" x="1122.4" y="806.7" width="341.6" height="24.65" shape-rendering="crispEdges" /><rect fill="#121212" x="0" y="831.1" width="976" height="24.65" shape-rendering="crispEdges" /><rect fill="#242f38" x="976" y="831.1" width="12.2" height="24.65" shape-rendering="crispEdges" /><rect fill="#242f38" x="988.2" y="831.1" width="73.2" height="24.65" shape-rendering="crispEdges" /><rect fill="#242f38" x="1061.4" y="831.1" width="12.2" height="24.65" shape-rendering="crispEdges" /><rect fill="#242f38" x="1073.6" y="831.1" width="12.2" height="24.65" shape-rendering="crispEdges" /><rect fill="#121212" x="1085.8" y="831.1" width="378.2" height="24.65" shape-rendering="crispEdges" /><rect fill="#121212" x="0" y="855.5" width="976" height="24.65" shape-rendering="crispEdges" /><rect fill="#1e1e1e" x="976" y="855.5" width="414.8" height="24.65" shape-rendering="crispEdges" /><rect fill="#1e1e1e" x="1390.8" y="855.5" width="24.4" height="24.65" shape-rendering="crispEdges" /><rect fill="#1e1e1e" x="1415.2" y="855.5" width="12.2" height="24.65" shape-rendering="crispEdges" /><rect fill="#121212" x="1427.4" y="855.5" width="36.6" height="24.65" shape-rendering="crispEdges" /><rect fill="#121212" x="0" y="879.9" width="1464" height="24.65" shape-rendering="crispEdges" /><rect fill="#121212" x="0" y="904.3" width="976" height="24.65" shape-rendering="crispEdges" /><rect fill="#121212" x="976" y="904.3" width="146.4" height="24.65" shape-rendering="crispEdges" /><rect fill="#121212" x="1122.4" y="904.3" width="341.6" height="24.65" shape-rendering="crispEdges" /><rect fill="#121212" x="0" y="928.7" width="976" height="24.65" shape-rendering="crispEdges" /><rect fill="#1e1e1e" x="976" y="928.7" width="451.4" height="24.65" shape-rendering="crispEdges" /><rect fill="#121212" x="1427.4" y="928.7" width="36.6" height="24.65" shape-rendering="crispEdges" /><g class="terminal-853557509-matrix"><text class="terminal-853557509-r13" x="976" y="215.2" textLength="73.2" clip-path="url(#terminal-853557509-line-8)">Status</text><text class="terminal-853557509-r14" x="976" y="239.6" textLength="48.8" clip-path="url(#terminal-853557509-line-9)">Done</text><text class="terminal-853557509-r14" x="1403" y="239.6" textLength="12.2" clip-path="url(#terminal-853557509-line-9)">▼</text><text class="terminal-853557509-r13" x="976" y="288.4" textLength="97.6" clip-path="url(#terminal-853557509-line-11)">Priority</text><text class="terminal-853557509-r9" x="976" y="312.8" textLength="73.2" clip-path="url(#terminal-853557509-line-12)">Medium</text><text class="terminal-853557509-r3" x="1403" y="312.8" textLength="12.2" clip-path="url(#terminal-853557509-line-12)">▼</text><text class="terminal-853557509-r13" x="976" y="361.6" textLength="97.6" clip-path="url(#terminal-853557509-line-14)">Assignee</text><text class="terminal-853557509-r9" x="976" y="386" textLength="146.4" clip-path="url(#terminal-853557509-line-15)">Nyx Basilisk</text><text class="terminal-853557509-r3" x="1403" y="386" textLength="12.2" clip-path="url(#terminal-853557509-line-15)">▼</text><text class="terminal-853557509-r13" x="976" y="434.8" textLength="97.6" clip-path="url(#terminal-853557509-line-17)">Reporter</text><text class="terminal-853557509-r15" x="976" y="459.2" textLength="451.4" clip-path="url(#terminal-853557509-line-18)">Rook Hydra                           </text><text class="terminal-853557509-r13" x="976" y="508" textLength="73.2" clip-path="url(#terminal-853557509-line-20)">Labels</text><text class="terminal-853557509-r16" x="988.2" y="532.4" textLength="158.6" clip-path="url(#terminal-853557509-line-21)">creature-rig </text><text class="terminal-853557509-r16" x="1146.8" y="532.4" textLength="12.2" clip-path="url(#terminal-853557509-line-21)">x</text><text class="terminal-853557509-r16" x="1195.6" y="532.4" textLength="146.4" clip-path="url(#terminal-853557509-line-21)">motion-cues </text><text class="terminal-853557509-r16" x="1342" y="532.4" textLength="12.2" clip-path="url(#terminal-853557509-line-21)">x</text><text class="terminal-853557509-r13" x="976" y="605.6" textLength="122" clip-path="url(#terminal-853557509-line-24)">Components</text><text class="terminal-853557509-r16" x="988.2" y="630" textLength="109.8" clip-path="url(#terminal-853557509-line-25)">Frontend </text><text class="terminal-853557509-r16" x="1098" y="630" textLength="12.2" clip-path="url(#terminal-853557509-line-25)">x</text><text class="terminal-853557509-r16" x="1146.8" y="630" textLength="48.8" clip-path="url(#terminal-853557509-line-25)">API </text><text class="terminal-853557509-r16" x="1195.6" y="630" textLength="12.2" clip-path="url(#terminal-853557509-line-25)">x</text><text class="terminal-853557509-r17" x="1390.8" y="654.4" textLength="24.4" clip-path="url(#terminal-853557509-line-26)"> ▼</text><text class="terminal-853557509-r13" x="976" y="703.2" textLength="85.4" clip-path="url(#terminal-853557509-line-28)">Affects</text><text class="terminal-853557509-r13" x="976" y="727.6" textLength="97.6" clip-path="url(#terminal-853557509-line-29)">Versions</text><text class="terminal-853557509-r16" x="988.2" y="752" textLength="73.2" clip-path="url(#terminal-853557509-line-30)">1.0.0 </text><text class="terminal-853557509-r16" x="1061.4" y="752" textLength="12.2" clip-path="url(#terminal-853557509-line-30)">x</text><text class="terminal-853557509-r17" x="1390.8" y="776.4" textLength="24.4" clip-path="url(#terminal-853557509-line-31)"> ▼</text><text class="terminal-853557509-r13" x="976" y="825.2" textLength="146.4" clip-path="url(#terminal-853557509-line-33)">Fix Versions</text><text class="terminal-853557509-r16" x="988.2" y="849.6" textLength="73.2" clip-path="url(#terminal-853557509-line-34)">2.0.0 </text><text class="terminal-853557509-r16" x="1061.4" y="849.6" textLength="12.2" clip-path="url(#terminal-853557509-line-34)">x</text><text class="terminal-853557509-r17" x="1390.8" y="874" textLength="24.4" clip-path="url(#terminal-853557509-line-35)"> ▼</text><text class="terminal-853557509-r13" x="976" y="922.8" textLength="146.4" clip-path="url(#terminal-853557509-line-37)">Story Points</text></g></g></svg>