<svg xmlns="http://www.w3.org/2000/svg" class="rich-terminal" viewBox="0 0 1049.1999999999998 878.65" width="1049.1999999999998" height="878.65"><!-- Generated with Rich https://www.textualize.io --><style>

    @font-face {
        font-family: "Fira Code";
        src: local("FiraCode-Regular"),
                url("https://cdnjs.cloudflare.com/ajax/libs/firacode/6.2.0/woff2/FiraCode-Regular.woff2") format("woff2"),
                url("https://cdnjs.cloudflare.com/ajax/libs/firacode/6.2.0/woff/FiraCode-Regular.woff") format("woff");
        font-style: normal;
        font-weight: 400;
    }
    @font-face {
        font-family: "Fira Code";
        src: local("FiraCode-Bold"),
                url("https://cdnjs.cloudflare.com/ajax/libs/firacode/6.2.0/woff2/FiraCode-Bold.woff2") format("woff2"),
                url("https://cdnjs.cloudflare.com/ajax/libs/firacode/6.2.0/woff/FiraCode-Bold.woff") format("woff");
        font-style: bold;
        font-weight: 700;
    }

    .terminal-1698760445-matrix {
        font-family: Fira Code, monospace;
        font-size: 20px;
        line-height: 24.4px;
        font-variant-east-asian: full-width;
    }

    .terminal-1698760445-title {
        font-size: 18px;
        font-weight: bold;
        font-family: arial;
    }

    .terminal-1698760445-r1 { fill: #e0e0e0 }
.terminal-1698760445-r2 { fill: #c5c8c6 }
.terminal-1698760445-r3 { fill: #1f2f3b;font-weight: bold }
.terminal-1698760445-r4 { fill: #272727 }
.terminal-1698760445-r5 { fill: #212121 }
.terminal-1698760445-r6 { fill: #e1e1e1;font-weight: bold }
.terminal-1698760445-r7 { fill: #e0e0e0;font-weight: bold }
.terminal-1698760445-r8 { fill: #1e1e1e }
.terminal-1698760445-r9 { fill: #868686 }
.terminal-1698760445-r10 { fill: #ababab }
.terminal-1698760445-r11 { fill: #0178d4 }
.terminal-1698760445-r12 { fill: #3e3e3e }
.terminal-1698760445-r13 { fill: #e0f1e7;font-weight: bold }
.terminal-1698760445-r14 { fill: #f3e2e7;font-weight: bold }
.terminal-1698760445-r15 { fill: #3b3b3b }
    </style><defs>
    <clipPath id="terminal-1698760445-clip-terminal">
      <rect x="0" y="0" width="1463.0" height="975.0" />
    </clipPath>
    <clipPath id="terminal-1698760445-line-0">
    <rect x="0" y="1.5" width="1464" height="24.65" />
            </clipPath>
<clipPath id="terminal-1698760445-line-1">
    <rect x="0" y="25.9" width="1464" height="24.65" />
            </clipPath>
<clipPath id="terminal-1698760445-line-2">
    <rect x="0" y="50.3" width="1464" height="24.65" />
            </clipPath>
<clipPath id="terminal-1698760445-line-3">
    <rect x="0" y="74.7" width="1464" height="24.65" />
            </clipPath>
<clipPath id="terminal-1698760445-line-4">
    <rect x="0" y="99.1" width="1464" height="24.65" />
            </clipPath>
<clipPath id="terminal-1698760445-line-5">
    <rect x="0" y="123.5" width="1464" height="24.65" />
            </clipPath>
<clipPath id="terminal-1698760445-line-6">
    <rect x="0" y="147.9" width="1464" height="24.65" />
            </clipPath>
<clipPath id="terminal-1698760445-line-7">
    <rect x="0" y="172.3" width="1464" height="24.65" />
            </clipPath>
<clipPath id="terminal-1698760445-line-8">
    <rect x="0" y="196.7" width="1464" height="24.65" />
            </clipPath>
<clipPath id="terminal-1698760445-line-9">
    <rect x="0" y="221.1" width="1464" height="24.65" />
            </clipPath>
<clipPath id="terminal-1698760445-line-10">
    <rect x="0" y="245.5" width="1464" height="24.65" />
            </clipPath>
<clipPath id="terminal-1698760445-line-11">
    <rect x="0" y="269.9" width="1464" height="24.65" />
            </clipPath>
<clipPath id="terminal-1698760445-line-12">
    <rect x="0" y="294.3" width="1464" height="24.65" />
            </clipPath>
<clipPath id="terminal-1698760445-line-13">
    <rect x="0" y="318.7" width="1464" height="24.65" />
            </clipPath>
<clipPath id="terminal-1698760445-line-14">
    <rect x="0" y="343.1" width="1464" height="24.65" />
            </clipPath>
<clipPath id="terminal-1698760445-line-15">
    <rect x="0" y="367.5" width="1464" height="24.65" />
            </clipPath>
<clipPath id="terminal-1698760445-line-16">
    <rect x="0" y="391.9" width="1464" height="24.65" />
            </clipPath>
<clipPath id="terminal-1698760445-line-17">
    <rect x="0" y="416.3" width="1464" height="24.65" />
            </clipPath>
<clipPath id="terminal-1698760445-line-18">
    <rect x="0" y="440.7" width="1464" height="24.65" />
            </clipPath>
<clipPath id="terminal-1698760445-line-19">
    <rect x="0" y="465.1" width="1464" height="24.65" />
            </clipPath>
<clipPath id="terminal-1698760445-line-20">
    <rect x="0" y="489.5" width="1464" height="24.65" />
            </clipPath>
<clipPath id="terminal-1698760445-line-21">
    <rect x="0" y="513.9" width="1464" height="24.65" />
            </clipPath>
<clipPath id="terminal-1698760445-line-22">
    <rect x="0" y="538.3" width="1464" height="24.65" />
            </clipPath>
<clipPath id="terminal-1698760445-line-23">
    <rect x="0" y="562.7" width="1464" height="24.65" />
            </clipPath>
<clipPath id="terminal-1698760445-line-24">
    <rect x="0" y="587.1" width="1464" height="24.65" />
            </clipPath>
<clipPath id="terminal-1698760445-line-25">
    <rect x="0" y="611.5" width="1464" height="24.65" />
            </clipPath>
<clipPath id="terminal-1698760445-line-26">
    <rect x="0" y="635.9" width="1464" height="24.65" />
            </clipPath>
<clipPath id="terminal-1698760445-line-27">
    <rect x="0" y="660.3" width="1464" height="24.65" />
            </clipPath>
<clipPath id="terminal-1698760445-line-28">
    <rect x="0" y="684.7" width="1464" height="24.65" />
            </clipPath>
<clipPath id="terminal-1698760445-line-29">
    <rect x="0" y="709.1" width="1464" height="24.65" />
            </clipPath>
<clipPath id="terminal-1698760445-line-30">
    <rect x="0" y="733.5" width="1464" height="24.65" />
            </clipPath>
<clipPath id="terminal-1698760445-line-31">
    <rect x="0" y="757.9" width="1464" height="24.65" />
            </clipPath>
<clipPath id="terminal-1698760445-line-32">
    <rect x="0" y="782.3" width="1464" height="24.65" />
            </clipPath>
<clipPath id="terminal-1698760445-line-33">
    <rect x="0" y="806.7" width="1464" height="24.65" />
            </clipPath>
<clipPath id="terminal-1698760445-line-34">
    <rect x="0" y="831.1" width="1464" height="24.65" />
            </clipPath>
<clipPath id="terminal-1698760445-line-35">
    <rect x="0" y="855.5" width="1464" height="24.65" />
            </clipPath>
<clipPath id="terminal-1698760445-line-36">
    <rect x="0" y="879.9" width="1464" height="24.65" />
            </clipPath>
<clipPath id="terminal-1698760445-line-37">
    <rect x="0" y="904.3" width="1464" height="24.65" />
            </clipPath>
<clipPath id="terminal-1698760445-line-38">
    <rect x="0" y="928.7" width="1464" height="24.65" />
            </clipPath>
    </defs><g clip-path="url(#terminal-1698760445-clip-terminal)" transform="translate(-207.4,-50.3)"><rect fill="#141414" x="183" y="25.9" width="85.4" height="24.65" shape-rendering="crispEdges" /><rect fill="#141414" x="268.4" y="25.9" width="170.8" height="24.65" shape-rendering="crispEdges" /><rect fill="#141414" x="439.2" y="25.9" width="12.2" height="24.65" shape-rendering="crispEdges" /><rect fill="#141414" x="451.4" y="25.9" width="12.2" height="24.65" shape-rendering="crispEdges" /><rect fill="#121212" x="463.6" y="25.9" width="12.2" height="24.65" shape-rendering="crispEdges" /><rect fill="#131313" x="475.8" y="25.9" width="97.6" height="24.65" shape-rendering="crispEdges" /><rect fill="#131313" x="573.4" y="25.9" width="158.6" height="24.65" shape-rendering="crispEdges" /><rect fill="#131313" x="732" y="25.9" width="12.2" height="24.65" shape-rendering="crispEdges" /><rect fill="#131313" x="744.2" y="25.9" width="12.2" height="24.65" shape-rendering="crispEdges" /><rect fill="#121212" x="756.4" y="25.9" width="12.2" height="24.65" shape-rendering="crispEdges" /><rect fill="#131313" x="768.6" y="25.9" width="48.8" height="24.65" shape-rendering="crispEdges" /><rect fill="#131313" x="817.4" y="25.9" width="207.4" height="24.65" shape-rendering="crispEdges" /><rect fill="#131313" x="1024.8" y="25.9" width="12.2" height="24.65" shape-rendering="crispEdges" /><rect fill="#131313" x="1037" y="25.9" width="12.2" height="24.65" shape-rendering="crispEdges" /><rect fill="#121212" x="1049.2" y="25.9" width="12.2" height="24.65" shape-rendering="crispEdges" /><rect fill="#131313" x="1061.4" y="25.9" width="73.2" height="24.65" shape-rendering="crispEdges" /><rect fill="#131313" x="1134.6" y="25.9" width="183" height="24.65" shape-rendering="crispEdges" /><rect fill="#1e1e1e" x="207.4" y="50.3" width="1049.2" height="24.65" shape-rendering="crispEdges" /><rect fill="#1e1e1e" x="207.4" y="74.7" width="439.2" height="24.65" shape-rendering="crispEdges" /><rect fill="#1e1e1e" x="646.6" y="74.7" width="158.6" height="24.65" shape-rendering="crispEdges" /><rect fill="#1e1e1e" x="805.2" y="74.7" width="451.4" height="24.65" shape-rendering="crispEdges" /><rect fill="#1e1e1e" x="207.4" y="99.1" width="12.2" height="24.65" shape-rendering="crispEdges" /><rect fill="#1e1e1e" x="219.6" y="99.1" width="85.4" height="24.65" shape-rendering="crispEdges" /><rect fill="#1e1e1e" x="305" y="99.1" width="927.2" height="24.65" shape-rendering="crispEdges" /><rect fill="#0053aa" x="1232.2" y="99.1" width="12.2" height="24.65" shape-rendering="crispEdges" /><rect fill="#1e1e1e" x="1244.4" y="99.1" width="12.2" height="24.65" shape-rendering="crispEdges" /><rect fill="#1e1e1e" x="207.4" y="123.5" width="12.2" height="24.65" shape-rendering="crispEdges" /><rect fill="#2d2d2d" x="219.6" y="123.5" width="305" height="24.65" shape-rendering="crispEdges" /><rect fill="#2d2d2d" x="524.6" y="123.5" width="683.2" height="24.65" shape-rendering="crispEdges" /><rect fill="#2d2d2d" x="1207.8" y="123.5" width="12.2" height="24.65" shape-rendering="crispEdges" /><rect fill="#2d2d2d" x="1220" y="123.5" width="12.2" height="24.65" shape-rendering="crispEdges" /><rect fill="#0053aa" x="1232.2" y="123.5" width="12.2" height="24.65" shape-rendering="crispEdges" /><rect fill="#1e1e1e" x="1244.4" y="123.5" width="12.2" height="24.65" shape-rendering="crispEdges" /><rect fill="#1e1e1e" x="207.4" y="147.9" width="1024.8" height="24.65" shape-rendering="crispEdges" /><rect fill="#0053aa" x="1232.2" y="147.9" width="12.2" height="24.65" shape-rendering="crispEdges" /><rect fill="#1e1e1e" x="1244.4" y="147.9" width="12.2" height="24.65" shape-rendering="crispEdges" /><rect fill="#1e1e1e" x="207.4" y="172.3" width="12.2" height="24.65" shape-rendering="crispEdges" /><rect fill="#1e1e1e" x="219.6" y="172.3" width="122" height="24.65" shape-rendering="crispEdges" /><rect fill="#1e1e1e" x="341.6" y="172.3" width="890.6" height="24.65" shape-rendering="crispEdges" /><rect fill="#0053aa" x="1232.2" y="172.3" width="12.2" height="24.65" shape-rendering="crispEdges" /><rect fill="#1e1e1e" x="1244.4" y="172.3" width="12.2" height="24.65" shape-rendering="crispEdges" /><rect fill="#1e1e1e" x="207.4" y="196.7" width="12.2" height="24.65" shape-rendering="crispEdges" /><rect fill="#2d2d2d" x="219.6" y="196.7" width="36.6" height="24.65" shape-rendering="crispEdges" /><rect fill="#2d2d2d" x="256.2" y="196.7" width="951.6" height="24.65" shape-rendering="crispEdges" /><rect fill="#2d2d2d" x="1207.8" y="196.7" width="12.2" height="24.65" shape-rendering="crispEdges" /><rect fill="#2d2d2d" x="1220" y="196.7" width="12.2" height="24.65" shape-rendering="crispEdges" /><rect fill="#0053aa" x="1232.2" y="196.7" width="12.2" height="24.65" shape-rendering="crispEdges" /><rect fill="#1e1e1e" x="1244.4" y="196.7" width="12.2" height="24.65" shape-rendering="crispEdges" /><rect fill="#1e1e1e" x="207.4" y="221.1" width="1024.8" height="24.65" shape-rendering="crispEdges" /><rect fill="#0053aa" x="1232.2" y="221.1" width="12.2" height="24.65" shape-rendering="crispEdges" /><rect fill="#1e1e1e" x="1244.4" y="221.1" width="12.2" height="24.65" shape-rendering="crispEdges" /><rect fill="#1e1e1e" x="207.4" y="245.5" width="12.2" height="24.65" shape-rendering="crispEdges" /><rect fill="#1e1e1e" x="219.6" y="245.5" width="97.6" height="24.65" shape-rendering="crispEdges" /><rect fill="#1e1e1e" x="317.2" y="245.5" width="915" height="24.65" shape-rendering="crispEdges" /><rect fill="#0053aa" x="1232.2" y="245.5" width="12.2" height="24.65" shape-rendering="crispEdges" /><rect fill="#1e1e1e" x="1244.4" y="245.5" width="12.2" height="24.65" shape-rendering="crispEdges" /><rect fill="#1e1e1e" x="207.4" y="269.9" width="12.2" height="24.65" shape-rendering="crispEdges" /><rect fill="#2d2d2d" x="219.6" y="269.9" width="122" height="24.65" shape-rendering="crispEdges" /><rect fill="#2d2d2d" x="341.6" y="269.9" width="866.2" height="24.65" shape-rendering="crispEdges" /><rect fill="#2d2d2d" x="1207.8" y="269.9" width="12.2" height="24.65" shape-rendering="crispEdges" /><rect fill="#2d2d2d" x="1220" y="269.9" width="12.2" height="24.65" shape-rendering="crispEdges" /><rect fill="#0053aa" x="1232.2" y="269.9" width="12.2" height="24.65" shape-rendering="crispEdges" /><rect fill="#1e1e1e" x="1244.4" y="269.9" width="12.2" height="24.65" shape-rendering="crispEdges" /><rect fill="#1e1e1e" x="207.4" y="294.3" width="1024.8" height="24.65" shape-rendering="crispEdges" /><rect fill="#0053aa" x="1232.2" y="294.3" width="12.2" height="24.65" shape-rendering="crispEdges" /><rect fill="#1e1e1e" x="1244.4" y="294.3" width="12.2" height="24.65" shape-rendering="crispEdges" /><rect fill="#1e1e1e" x="207.4" y="318.7" width="12.2" height="24.65" shape-rendering="crispEdges" /><rect fill="#1e1e1e" x="219.6" y="318.7" width="97.6" height="24.65" shape-rendering="crispEdges" /><rect fill="#1e1e1e" x="317.2" y="318.7" width="915" height="24.65" shape-rendering="crispEdges" /><rect fill="#0053aa" x="1232.2" y="318.7" width="12.2" height="24.65" shape-rendering="crispEdges" /><rect fill="#1e1e1e" x="1244.4" y="318.7" width="12.2" height="24.65" shape-rendering="crispEdges" /><rect fill="#1e1e1e" x="207.4" y="343.1" width="12.2" height="24.65" shape-rendering="crispEdges" /><rect fill="#2d2d2d" x="219.6" y="343.1" width="219.6" height="24.65" shape-rendering="crispEdges" /><rect fill="#2d2d2d" x="439.2" y="343.1" width="768.6" height="24.65" shape-rendering="crispEdges" /><rect fill="#2d2d2d" x="1207.8" y="343.1" width="12.2" height="24.65" shape-rendering="crispEdges" /><rect fill="#2d2d2d" x="1220" y="343.1" width="12.2" height="24.65" shape-rendering="crispEdges" /><rect fill="#0053aa" x="1232.2" y="343.1" width="12.2" height="24.65" shape-rendering="crispEdges" /><rect fill="#1e1e1e" x="1244.4" y="343.1" width="12.2" height="24.65" shape-rendering="crispEdges" /><rect fill="#1e1e1e" x="207.4" y="367.5" width="1024.8" height="24.65" shape-rendering="crispEdges" /><rect fill="#0053aa" x="1232.2" y="367.5" width="12.2" height="24.65" shape-rendering="crispEdges" /><rect fill="#1e1e1e" x="1244.4" y="367.5" width="12.2" height="24.65" shape-rendering="crispEdges" /><rect fill="#1e1e1e" x="207.4" y="391.9" width="12.2" height="24.65" shape-rendering="crispEdges" /><rect fill="#1e1e1e" x="219.6" y="391.9" width="85.4" height="24.65" shape-rendering="crispEdges" /><rect fill="#1e1e1e" x="305" y="391.9" width="927.2" height="24.65" shape-rendering="crispEdges" /><rect fill="#0053aa" x="1232.2" y="391.9" width="12.2" height="24.65" shape-rendering="crispEdges" /><rect fill="#1e1e1e" x="1244.4" y="391.9" width="12.2" height="24.65" shape-rendering="crispEdges" /><rect fill="#1e1e1e" x="207.4" y="416.3" width="12.2" height="24.65" shape-rendering="crispEdges" /><rect fill="#2d2d2d" x="219.6" y="416.3" width="1012.6" height="24.65" shape-rendering="crispEdges" /><rect fill="#0053aa" x="1232.2" y="416.3" width="12.2" height="24.65" shape-rendering="crispEdges" /><rect fill="#1e1e1e" x="1244.4" y="416.3" width="12.2" height="24.65" shape-rendering="crispEdges" /><rect fill="#1e1e1e" x="207.4" y="440.7" width="1024.8" height="24.65" shape-rendering="crispEdges" /><rect fill="#0053aa" x="1232.2" y="440.7" width="12.2" height="24.65" shape-rendering="crispEdges" /><rect fill="#1e1e1e" x="1244.4" y="440.7" width="12.2" height="24.65" shape-rendering="crispEdges" /><rect fill="#1e1e1e" x="207.4" y="465.1" width="12.2" height="24.65" shape-rendering="crispEdges" /><rect fill="#1e1e1e" x="219.6" y="465.1" width="134.2" height="24.65" shape-rendering="crispEdges" /><rect fill="#1e1e1e" x="353.8" y="465.1" width="878.4" height="24.65" shape-rendering="crispEdges" /><rect fill="#0053aa" x="1232.2" y="465.1" width="12.2" height="24.65" shape-rendering="crispEdges" /><rect fill="#1e1e1e" x="1244.4" y="465.1" width="12.2" height="24.65" shape-rendering="crispEdges" /><rect fill="#1e1e1e" x="207.4" y="489.5" width="12.2" height="24.65" shape-rendering="crispEdges" /><rect fill="#2d2d2d" x="219.6" y="489.5" width="12.2" height="24.65" shape-rendering="crispEdges" /><rect fill="#2d2d2d" x="231.8" y="489.5" width="48.8" height="24.65" shape-rendering="crispEdges" /><rect fill="#2d2d2d" x="280.6" y="489.5" width="24.4" height="24.65" shape-rendering="crispEdges" /><rect fill="#2d2d2d" x="305" y="489.5" width="85.4" height="24.65" shape-rendering="crispEdges" /><rect fill="#2d2d2d" x="390.4" y="489.5" width="841.8" height="24.65" shape-rendering="crispEdges" /><rect fill="#0053aa" x="1232.2" y="489.5" width="12.2" height="24.65" shape-rendering="crispEdges" /><rect fill="#1e1e1e" x="1244.4" y="489.5" width="12.2" height="24.65" shape-rendering="crispEdges" /><rect fill="#1e1e1e" x="207.4" y="513.9" width="12.2" height="24.65" shape-rendering="crispEdges" /><rect fill="#2d2d2d" x="219.6" y="513.9" width="73.2" height="24.65" shape-rendering="crispEdges" /><rect fill="#2d2d2d" x="292.8" y="513.9" width="939.4" height="24.65" shape-rendering="crispEdges" /><rect fill="#0053aa" x="1232.2" y="513.9" width="12.2" height="24.65" shape-rendering="crispEdges" /><rect fill="#1e1e1e" x="1244.4" y="513.9" width="12.2" height="24.65" shape-rendering="crispEdges" /><rect fill="#1e1e1e" x="207.4" y="538.3" width="12.2" height="24.65" shape-rendering="crispEdges" /><rect fill="#353535" x="219.6" y="538.3" width="1012.6" height="24.65" shape-rendering="crispEdges" /><rect fill="#0053aa" x="1232.2" y="538.3" width="12.2" height="24.65" shape-rendering="crispEdges" /><rect fill="#1e1e1e" x="1244.4" y="538.3" width="12.2" height="24.65" shape-rendering="crispEdges" /><rect fill="#1e1e1e" x="207.4" y="562.7" width="12.2" height="24.65" shape-rendering="crispEdges" /><rect fill="#2d2d2d" x="219.6" y="562.7" width="1012.6" height="24.65" shape-rendering="crispEdges" /><rect fill="#0053aa" x="1232.2" y="562.7" width="12.2" height="24.65" shape-rendering="crispEdges" /><rect fill="#1e1e1e" x="1244.4" y="562.7" width="12.2" height="24.65" shape-rendering="crispEdges" /><rect fill="#1e1e1e" x="207.4" y="587.1" width="12.2" height="24.65" shape-rendering="crispEdges" /><rect fill="#2d2d2d" x="219.6" y="587.1" width="1012.6" height="24.65" shape-rendering="crispEdges" /><rect fill="#0053aa" x="1232.2" y="587.1" width="12.2" height="24.65" shape-rendering="crispEdges" /><rect fill="#1e1e1e" x="1244.4" y="587.1" width="12.2" height="24.65" shape-rendering="crispEdges" /><rect fill="#1e1e1e" x="207.4" y="611.5" width="12.2" height="24.65" shape-rendering="crispEdges" /><rect fill="#2d2d2d" x="219.6" y="611.5" width="1012.6" height="24.65" shape-rendering="crispEdges" /><rect fill="#0053aa" x="1232.2" y="611.5" width="12.2" height="24.65" shape-rendering="crispEdges" /><rect fill="#1e1e1e" x="1244.4" y="611.5" width="12.2" height="24.65" shape-rendering="crispEdges" /><rect fill="#1e1e1e" x="207.4" y="635.9" width="12.2" height="24.65" shape-rendering="crispEdges" /><rect fill="#2d2d2d" x="219.6" y="635.9" width="1012.6" height="24.65" shape-rendering="crispEdges" /><rect fill="#0053aa" x="1232.2" y="635.9" width="12.2" height="24.65" shape-rendering="crispEdges" /><rect fill="#1e1e1e" x="1244.4" y="635.9" width="12.2" height="24.65" shape-rendering="crispEdges" /><rect fill="#1e1e1e" x="207.4" y="660.3" width="12.2" height="24.65" shape-rendering="crispEdges" /><rect fill="#2d2d2d" x="219.6" y="660.3" width="1012.6" height="24.65" shape-rendering="crispEdges" /><rect fill="#0053aa" x="1232.2" y="660.3" width="12.2" height="24.65" shape-rendering="crispEdges" /><rect fill="#1e1e1e" x="1244.4" y="660.3" width="12.2" height="24.65" shape-rendering="crispEdges" /><rect fill="#1e1e1e" x="207.4" y="684.7" width="12.2" height="24.65" shape-rendering="crispEdges" /><rect fill="#2d2d2d" x="219.6" y="684.7" width="1012.6" height="24.65" shape-rendering="crispEdges" /><rect fill="#0053aa" x="1232.2" y="684.7" width="12.2" height="24.65" shape-rendering="crispEdges" /><rect fill="#1e1e1e" x="1244.4" y="684.7" width="12.2" height="24.65" shape-rendering="crispEdges" /><rect fill="#1e1e1e" x="207.4" y="709.1" width="12.2" height="24.65" shape-rendering="crispEdges" /><rect fill="#2d2d2d" x="219.6" y="709.1" width="1012.6" height="24.65" shape-rendering="crispEdges" /><rect fill="#0053aa" x="1232.2" y="709.1" width="12.2" height="24.65" shape-rendering="crispEdges" /><rect fill="#1e1e1e" x="1244.4" y="709.1" width="12.2" height="24.65" shape-rendering="crispEdges" /><rect fill="#1e1e1e" x="207.4" y="733.5" width="12.2" height="24.65" shape-rendering="crispEdges" /><rect fill="#2d2d2d" x="219.6" y="733.5" width="1012.6" height="24.65" shape-rendering="crispEdges" /><rect fill="#0053aa" x="1232.2" y="733.5" width="12.2" height="24.65" shape-rendering="crispEdges" /><rect fill="#1e1e1e" x="1244.4" y="733.5" width="12.2" height="24.65" shape-rendering="crispEdges" /><rect fill="#1e1e1e" x="207.4" y="757.9" width="12.2" height="24.65" shape-rendering="crispEdges" /><rect fill="#2d2d2d" x="219.6" y="757.9" width="1012.6" height="24.65" shape-rendering="crispEdges" /><rect fill="#3e3e3e" x="1232.2" y="757.9" width="12.2" height="24.65" shape-rendering="crispEdges" /><rect fill="#1e1e1e" x="1244.4" y="757.9" width="12.2" height="24.65" shape-rendering="crispEdges" /><rect fill="#1e1e1e" x="207.4" y="782.3" width="1024.8" height="24.65" shape-rendering="crispEdges" /><rect fill="#3e3e3e" x="1232.2" y="782.3" width="12.2" height="24.65" shape-rendering="crispEdges" /><rect fill="#1e1e1e" x="1244.4" y="782.3" width="12.2" height="24.65" shape-rendering="crispEdges" /><rect fill="#1e1e1e" x="207.4" y="806.7" width="12.2" height="24.65" shape-rendering="crispEdges" /><rect fill="#1e1e1e" x="219.6" y="806.7" width="97.6" height="24.65" shape-rendering="crispEdges" /><rect fill="#1e1e1e" x="317.2" y="806.7" width="915" height="24.65" shape-rendering="crispEdges" /><rect fill="#3e3e3e" x="1232.2" y="806.7" width="12.2" height="24.65" shape-rendering="crispEdges" /><rect fill="#1e1e1e" x="1244.4" y="806.7" width="12.2" height="24.65" shape-rendering="crispEdges" /><rect fill="#1e1e1e" x="207.4" y="831.1" width="1049.2" height="24.65" shape-rendering="crispEdges" /><rect fill="#1e1e1e" x="207.4" y="855.5" width="317.2" height="24.65" shape-rendering="crispEdges" /><rect fill="#18954b" x="524.6" y="855.5" width="61" height="24.65" shape-rendering="crispEdges" /><rect fill="#18954b" x="585.6" y="855.5" width="73.2" height="24.65" shape-rendering="crispEdges" /><rect fill="#18954b" x="658.8" y="855.5" width="61" height="24.65" shape-rendering="crispEdges" /><rect fill="#1e1e1e" x="719.8" y="855.5" width="12.2" height="24.65" shape-rendering="crispEdges" /><rect fill="#a32549" x="732" y="855.5" width="48.8" height="24.65" shape-rendering="crispEdges" /><rect fill="#a32549" x="780.8" y="855.5" width="97.6" height="24.65" shape-rendering="crispEdges" /><rect fill="#a32549" x="878.4" y="855.5" width="48.8" height="24.65" shape-rendering="crispEdges" /><rect fill="#1e1e1e" x="927.2" y="855.5" width="329.4" height="24.65" shape-rendering="crispEdges" /><rect fill="#1e1e1e" x="207.4" y="879.9" width="1049.2" height="24.65" shape-rendering="crispEdges" /><rect fill="#18954b" x="207.4" y="904.3" width="329.4" height="24.65" shape-rendering="crispEdges" /><rect fill="#18954b" x="536.8" y="904.3" width="378.2" height="24.65" shape-rendering="crispEdges" /><rect fill="#18954b" x="915" y="904.3" width="341.6" height="24.65" shape-rendering="crispEdges" /><rect fill="#121212" x="24.4" y="928.7" width="1427.4" height="24.65" shape-rendering="crispEdges" /><g class="terminal-1698760445-matrix"><text class="terminal-1698760445-r6" x="646.6" y="93.2" textLength="158.6" clip-path="url(#terminal-1698760445-line-3)">New Work Item</text><text class="terminal-1698760445-r7" x="219.6" y="117.6" textLength="85.4" clip-path="url(#terminal-1698760445-line-4)">Project</text><text class="terminal-1698760445-r1" x="219.6" y="142" textLength="305" clip-path="url(#terminal-1698760445-line-5)">Engineering Project (ENG)</text><text class="terminal-1698760445-r9" x="1207.8" y="142" textLength="12.2" clip-path="url(#terminal-1698760445-line-5)">▼</text><text class="terminal-1698760445-r7" x="219.6" y="190.8" textLength="122" clip-path="url(#terminal-1698760445-line-7)">Issue Type</text><text class="terminal-1698760445-r1" x="219.6" y="215.2" textLength="36.6" clip-path="url(#terminal-1698760445-line-8)">Bug</text><text class="terminal-1698760445-r9" x="1207.8" y="215.2" textLength="12.2" clip-path="url(#terminal-1698760445-line-8)">▼</text><text class="terminal-1698760445-r7" x="219.6" y="264" textLength="97.6" clip-path="url(#terminal-1698760445-line-10)">Reporter</text><text class="terminal-1698760445-r1" x="219.6" y="288.4" textLength="122" clip-path="url(#terminal-1698760445-line-11)">Rook Hydra</text><text class="terminal-1698760445-r9" x="1207.8" y="288.4" textLength="12.2" clip-path="url(#terminal-1698760445-line-11)">▼</text><text class="terminal-1698760445-r7" x="219.6" y="337.2" textLength="97.6" clip-path="url(#terminal-1698760445-line-13)">Assignee</text><text class="terminal-1698760445-r9" x="219.6" y="361.6" textLength="219.6" clip-path="url(#terminal-1698760445-line-14)">Select an assignee</text><text class="terminal-1698760445-r9" x="1207.8" y="361.6" textLength="12.2" clip-path="url(#terminal-1698760445-line-14)">▼</text><text class="terminal-1698760445-r7" x="219.6" y="410.4" textLength="85.4" clip-path="url(#terminal-1698760445-line-16)">Summary</text><text class="terminal-1698760445-r1" x="219.6" y="434.8" textLength="1012.6" clip-path="url(#terminal-1698760445-line-17)">Coordinate monster rollout dependencies                                            </text><text class="terminal-1698760445-r7" x="219.6" y="483.6" textLength="134.2" clip-path="url(#terminal-1698760445-line-19)">Description</text><text class="terminal-1698760445-r1" x="231.8" y="508" textLength="48.8" clip-path="url(#terminal-1698760445-line-20)">Edit</text><text class="terminal-1698760445-r10" x="305" y="508" textLength="85.4" clip-path="url(#terminal-1698760445-line-20)">Preview</text><text class="terminal-1698760445-r11" x="219.6" y="532.4" textLength="73.2" clip-path="url(#terminal-1698760445-line-21)">━━━━━━</text><text class="terminal-1698760445-r12" x="292.8" y="532.4" textLength="939.4" clip-path="url(#terminal-1698760445-line-21)">╺━━━━━━━━━━━━━━━━━━━━━━━━━━━━━━━━━━━━━━━━━━━━━━━━━━━━━━━━━━━━━━━━━━━━━━━━━━━━</text><text class="terminal-1698760445-r12" x="1232.2" y="752" textLength="12.2" clip-path="url(#terminal-1698760445-line-30)">▄</text><text class="terminal-1698760445-r7" x="219.6" y="825.2" textLength="97.6" clip-path="url(#terminal-1698760445-line-33)">Priority</text><text class="terminal-1698760445-r13" x="585.6" y="874" textLength="73.2" clip-path="url(#terminal-1698760445-line-35)"> Save </text><text class="terminal-1698760445-r14" x="780.8" y="874" textLength="97.6" clip-path="url(#terminal-1698760445-line-35)"> Cancel </text><text class="terminal-1698760445-r13" x="536.8" y="922.8" textLength="378.2" clip-path="url(#terminal-1698760445-line-37)">Required: All fields complete ✓</text></g></g></svg>