<svg xmlns="http://www.w3.org/2000/svg" class="rich-terminal" viewBox="0 0 1464.0 24.65" width="1464.0" height="24.65"><!-- Generated with Rich https://www.textualize.io --><style>

    @font-face {
        font-family: "Fira Code";
        src: local("FiraCode-Regular"),
                url("https://cdnjs.cloudflare.com/ajax/libs/firacode/6.2.0/woff2/FiraCode-Regular.woff2") format("woff2"),
                url("https://cdnjs.cloudflare.com/ajax/libs/firacode/6.2.0/woff/FiraCode-Regular.woff") format("woff");
        font-style: normal;
        font-weight: 400;
    }
    @font-face {
        font-family: "Fira Code";
        src: local("FiraCode-Bold"),
                url("https://cdnjs.cloudflare.com/ajax/libs/firacode/6.2.0/woff2/FiraCode-Bold.woff2") format("woff2"),
                url("https://cdnjs.cloudflare.com/ajax/libs/firacode/6.2.0/woff/FiraCode-Bold.woff") format("woff");
        font-style: bold;
        font-weight: 700;
    }

    .terminal-4195713151-matrix {
        font-family: Fira Code, monospace;
        font-size: 20px;
        line-height: 24.4px;
        font-variant-east-asian: full-width;
    }

    .terminal-4195713151-title {
        font-size: 18px;
        font-weight: bold;
        font-family: arial;
    }

    .terminal-4195713151-r1 { fill: #c5c8c6 }
.terminal-4195713151-r2 { fill: #121212;font-weight: bold }
.terminal-4195713151-r3 { fill: #e0e0e0 }
.terminal-4195713151-r4 { fill: #f5ebdd;font-weight: bold }
    </style><defs>
    <clipPath id="terminal-4195713151-clip-terminal">
      <rect x="0" y="0" width="1463.0" height="975.0" />
    </clipPath>
    <clipPath id="terminal-4195713151-line-0">
    <rect x="0" y="1.5" width="1464" height="24.65" />
            </clipPath>
<clipPath id="terminal-4195713151-line-1">
    <rect x="0" y="25.9" width="1464" height="24.65" />
            </clipPath>
<clipPath id="terminal-4195713151-line-2">
    <rect x="0" y="50.3" width="1464" height="24.65" />
            </clipPath>
<clipPath id="terminal-4195713151-line-3">
    <rect x="0" y="74.7" width="1464" height="24.65" />
            </clipPath>
<clipPath id="terminal-4195713151-line-4">
    <rect x="0" y="99.1" width="1464" height="24.65" />
            </clipPath>
<clipPath id="terminal-4195713151-line-5">
    <rect x="0" y="123.5" width="1464" height="24.65" />
            </clipPath>
<clipPath id="terminal-4195713151-line-6">
    <rect x="0" y="147.9" width="1464" height="24.65" />
            </clipPath>
<clipPath id="terminal-4195713151-line-7">
    <rect x="0" y="172.3" width="1464" height="24.65" />
            </clipPath>
<clipPath id="terminal-4195713151-line-8">
    <rect x="0" y="196.7" width="1464" height="24.65" />
            </clipPath>
<clipPath id="terminal-4195713151-line-9">
    <rect x="0" y="221.1" width="1464" height="24.65" />
            </clipPath>
<clipPath id="terminal-4195713151-line-10">
    <rect x="0" y="245.5" width="1464" height="24.65" />
            </clipPath>
<clipPath id="terminal-4195713151-line-11">
    <rect x="0" y="269.9" width="1464" height="24.65" />
            </clipPath>
<clipPath id="terminal-4195713151-line-12">
    <rect x="0" y="294.3" width="1464" height="24.65" />
            </clipPath>
<clipPath id="terminal-4195713151-line-13">
    <rect x="0" y="318.7" width="1464" height="24.65" />
            </clipPath>
<clipPath id="terminal-4195713151-line-14">
    <rect x="0" y="343.1" width="1464" height="24.65" />
            </clipPath>
<clipPath id="terminal-4195713151-line-15">
    <rect x="0" y="367.5" width="1464" height="24.65" />
            </clipPath>
<clipPath id="terminal-4195713151-line-16">
    <rect x="0" y="391.9" width="1464" height="24.65" />
            </clipPath>
<clipPath id="terminal-4195713151-line-17">
    <rect x="0" y="416.3" width="1464" height="24.65" />
            </clipPath>
<clipPath id="terminal-4195713151-line-18">
    <rect x="0" y="440.7" width="1464" height="24.65" />
            </clipPath>
<clipPath id="terminal-4195713151-line-19">
    <rect x="0" y="465.1" width="1464" height="24.65" />
            </clipPath>
<clipPath id="terminal-4195713151-line-20">
    <rect x="0" y="489.5" width="1464" height="24.65" />
            </clipPath>
<clipPath id="terminal-4195713151-line-21">
    <rect x="0" y="513.9" width="1464" height="24.65" />
            </clipPath>
<clipPath id="terminal-4195713151-line-22">
    <rect x="0" y="538.3" width="1464" height="24.65" />
            </clipPath>
<clipPath id="terminal-4195713151-line-23">
    <rect x="0" y="562.7" width="1464" height="24.65" />
            </clipPath>
<clipPath id="terminal-4195713151-line-24">
    <rect x="0" y="587.1" width="1464" height="24.65" />
            </clipPath>
<clipPath id="terminal-4195713151-line-25">
    <rect x="0" y="611.5" width="1464" height="24.65" />
            </clipPath>
<clipPath id="terminal-4195713151-line-26">
    <rect x="0" y="635.9" width="1464" height="24.65" />
            </clipPath>
<clipPath id="terminal-4195713151-line-27">
    <rect x="0" y="660.3" width="1464" height="24.65" />
            </clipPath>
<clipPath id="terminal-4195713151-line-28">
    <rect x="0" y="684.7" width="1464" height="24.65" />
            </clipPath>
<clipPath id="terminal-4195713151-line-29">
    <rect x="0" y="709.1" width="1464" height="24.65" />
            </clipPath>
<clipPath id="terminal-4195713151-line-30">
    <rect x="0" y="733.5" width="1464" height="24.65" />
            </clipPath>
<clipPath id="terminal-4195713151-line-31">
    <rect x="0" y="757.9" width="1464" height="24.65" />
            </clipPath>
<clipPath id="terminal-4195713151-line-32">
    <rect x="0" y="782.3" width="1464" height="24.65" />
            </clipPath>
<clipPath id="terminal-4195713151-line-33">
    <rect x="0" y="806.7" width="1464" height="24.65" />
            </clipPath>
<clipPath id="terminal-4195713151-line-34">
    <rect x="0" y="831.1" width="1464" height="24.65" />
            </clipPath>
<clipPath id="terminal-4195713151-line-35">
    <rect x="0" y="855.5" width="1464" height="24.65" />
            </clipPath>
<clipPath id="terminal-4195713151-line-36">
    <rect x="0" y="879.9" width="1464" height="24.65" />
            </clipPath>
<clipPath id="terminal-4195713151-line-37">
    <rect x="0" y="904.3" width="1464" height="24.65" />
            </clipPath>
<clipPath id="terminal-4195713151-line-38">
    <rect x="0" y="928.7" width="1464" height="24.65" />
            </clipPath>
    </defs><g clip-path="url(#terminal-4195713151-clip-terminal)" transform="translate(-0.0,-25.9)"><rect fill="#121212" x="0" y="1.5" width="1464" height="24.65" shape-rendering="crispEdges" /><rect fill="#121212" x="0" y="25.9" width="12.2" height="24.65" shape-rendering="crispEdges" /><rect fill="#0c7dd4" x="12.2" y="25.9" width="12.2" height="24.65" shape-rendering="crispEdges" /><rect fill="#0c7dd4" x="24.4" y="25.9" width="36.6" height="24.65" shape-rendering="crispEdges" /><rect fill="#0c7dd4" x="61" y="25.9" width="109.8" height="24.65" shape-rendering="crispEdges" /><rect fill="#0c7dd4" x="170.8" y="25.9" width="12.2" height="24.65" shape-rendering="crispEdges" /><rect fill="#0c7dd4" x="183" y="25.9" width="12.2" height="24.65" shape-rendering="crispEdges" /><rect fill="#121212" x="195.2" y="25.9" width="12.2" height="24.65" shape-rendering="crispEdges" /><rect fill="#1e1e1e" x="207.4" y="25.9" width="1134.6" height="24.65" shape-rendering="crispEdges" /><rect fill="#121212" x="1342" y="25.9" width="12.2" height="24.65" shape-rendering="crispEdges" /><rect fill="#b86b00" x="1354.2" y="25.9" width="97.6" height="24.65" shape-rendering="crispEdges" /><rect fill="#121212" x="1451.8" y="25.9" width="12.2" height="24.65" shape-rendering="crispEdges" /><rect fill="#121212" x="0" y="50.3" width="1464" height="24.65" shape-rendering="crispEdges" /><g class="terminal-4195713151-matrix"><text class="terminal-4195713151-r2" x="24.4" y="44.4" textLength="36.6" clip-path="url(#terminal-4195713151-line-1)">JQL</text><text class="terminal-4195713151-r2" x="170.8" y="44.4" textLength="12.2" clip-path="url(#terminal-4195713151-line-1)">▼</text><text class="terminal-4195713151-r3" x="207.4" y="44.4" textLength="1134.6" clip-path="url(#terminal-4195713151-line-1)">assignee = currentUser() AND resolution = Unresolved                                         </text><text class="terminal-4195713151-r4" x="1354.2" y="44.4" textLength="97.6" clip-path="url(#terminal-4195713151-line-1)"> Search </text></g></g></svg>