<svg xmlns="http://www.w3.org/2000/svg" class="rich-terminal" viewBox="0 0 615.6 317.44999999999993" width="615.6" height="317.44999999999993"><!-- Generated with Rich https://www.textualize.io --><style>

    @font-face {
        font-family: "Fira Code";
        src: local("FiraCode-Regular"),
                url("https://cdnjs.cloudflare.com/ajax/libs/firacode/6.2.0/woff2/FiraCode-Regular.woff2") format("woff2"),
                url("https://cdnjs.cloudflare.com/ajax/libs/firacode/6.2.0/woff/FiraCode-Regular.woff") format("woff");
        font-style: normal;
        font-weight: 400;
    }
    @font-face {
        font-family: "Fira Code";
        src: local("FiraCode-Bold"),
                url("https://cdnjs.cloudflare.com/ajax/libs/firacode/6.2.0/woff2/FiraCode-Bold.woff2") format("woff2"),
                url("https://cdnjs.cloudflare.com/ajax/libs/firacode/6.2.0/woff/FiraCode-Bold.woff") format("woff");
        font-style: bold;
        font-weight: 700;
    }

    .terminal-256540810-matrix {
        font-family: Fira Code, monospace;
        font-size: 20px;
        line-height: 24.4px;
        font-variant-east-asian: full-width;
    }

    .terminal-256540810-title {
        font-size: 18px;
        font-weight: bold;
        font-family: arial;
    }

    .terminal-256540810-r1 { fill: #c5c8c6 }
.terminal-256540810-r2 { fill: #121212;font-weight: bold }
.terminal-256540810-r3 { fill: #7f7f7f }
.terminal-256540810-r4 { fill: #5f5f5f }
.terminal-256540810-r5 { fill: #f5ebdd;font-weight: bold }
.terminal-256540810-r6 { fill: #a0a0a0;font-weight: bold }
.terminal-256540810-r7 { fill: #fea62b;font-weight: bold }
.terminal-256540810-r8 { fill: #0178d4;font-weight: bold }
.terminal-256540810-r9 { fill: #e0e0e0 }
.terminal-256540810-r10 { fill: #797979 }
.terminal-256540810-r11 { fill: #262626 }
.terminal-256540810-r12 { fill: #0178d4 }
.terminal-256540810-r13 { fill: #e0e0e0;text-decoration: underline; }
.terminal-256540810-r14 { fill: #e0e0e0;font-weight: bold }
.terminal-256540810-r15 { fill: #121212 }
.terminal-256540810-r16 { fill: #ddedf9;font-weight: bold }
.terminal-256540810-r17 { fill: #a2a2a2 }
.terminal-256540810-r18 { fill: #539eff;font-weight: bold }
.terminal-256540810-r19 { fill: #539eff }
.terminal-256540810-r20 { fill: #737373 }
.terminal-256540810-r21 { fill: #000000 }
.terminal-256540810-r22 { fill: #744f1c;font-weight: bold }
.terminal-256540810-r23 { fill: #533a18;font-weight: bold }
    </style><defs>
    <clipPath id="terminal-256540810-clip-terminal">
      <rect x="0" y="0" width="975.0" height="975.0" />
    </clipPath>
    <clipPath id="terminal-256540810-line-0">
    <rect x="0" y="1.5" width="976" height="24.65" />
            </clipPath>
<clipPath id="terminal-256540810-line-1">
    <rect x="0" y="25.9" width="976" height="24.65" />
            </clipPath>
<clipPath id="terminal-256540810-line-2">
    <rect x="0" y="50.3" width="976" height="24.65" />
            </clipPath>
<clipPath id="terminal-256540810-line-3">
    <rect x="0" y="74.7" width="976" height="24.65" />
            </clipPath>
<clipPath id="terminal-256540810-line-4">
    <rect x="0" y="99.1" width="976" height="24.65" />
            </clipPath>
<clipPath id="terminal-256540810-line-5">
    <rect x="0" y="123.5" width="976" height="24.65" />
            </clipPath>
<clipPath id="terminal-256540810-line-6">
    <rect x="0" y="147.9" width="976" height="24.65" />
            </clipPath>
<clipPath id="terminal-256540810-line-7">
    <rect x="0" y="172.3" width="976" height="24.65" />
            </clipPath>
<clipPath id="terminal-256540810-line-8">
    <rect x="0" y="196.7" width="976" height="24.65" />
            </clipPath>
<clipPath id="terminal-256540810-line-9">
    <rect x="0" y="221.1" width="976" height="24.65" />
            </clipPath>
<clipPath id="terminal-256540810-line-10">
    <rect x="0" y="245.5" width="976" height="24.65" />
            </clipPath>
<clipPath id="terminal-256540810-line-11">
    <rect x="0" y="269.9" width="976" height="24.65" />
            </clipPath>
<clipPath id="terminal-256540810-line-12">
    <rect x="0" y="294.3" width="976" height="24.65" />
            </clipPath>
<clipPath id="terminal-256540810-line-13">
    <rect x="0" y="318.7" width="976" height="24.65" />
            </clipPath>
<clipPath id="terminal-256540810-line-14">
    <rect x="0" y="343.1" width="976" height="24.65" />
            </clipPath>
<clipPath id="terminal-256540810-line-15">
    <rect x="0" y="367.5" width="976" height="24.65" />
            </clipPath>
<clipPath id="terminal-256540810-line-16">
    <rect x="0" y="391.9" width="976" height="24.65" />
            </clipPath>
<clipPath id="terminal-256540810-line-17">
    <rect x="0" y="416.3" width="976" height="24.65" />
            </clipPath>
<clipPath id="terminal-256540810-line-18">
    <rect x="0" y="440.7" width="976" height="24.65" />
            </clipPath>
<clipPath id="terminal-256540810-line-19">
    <rect x="0" y="465.1" width="976" height="24.65" />
            </clipPath>
<clipPath id="terminal-256540810-line-20">
    <rect x="0" y="489.5" width="976" height="24.65" />
            </clipPath>
<clipPath id="terminal-256540810-line-21">
    <rect x="0" y="513.9" width="976" height="24.65" />
            </clipPath>
<clipPath id="terminal-256540810-line-22">
    <rect x="0" y="538.3" width="976" height="24.65" />
            </clipPath>
<clipPath id="terminal-256540810-line-23">
    <rect x="0" y="562.7" width="976" height="24.65" />
            </clipPath>
<clipPath id="terminal-256540810-line-24">
    <rect x="0" y="587.1" width="976" height="24.65" />
            </clipPath>
<clipPath id="terminal-256540810-line-25">
    <rect x="0" y="611.5" width="976" height="24.65" />
            </clipPath>
<clipPath id="terminal-256540810-line-26">
    <rect x="0" y="635.9" width="976" height="24.65" />
            </clipPath>
<clipPath id="terminal-256540810-line-27">
    <rect x="0" y="660.3" width="976" height="24.65" />
            </clipPath>
<clipPath id="terminal-256540810-line-28">
    <rect x="0" y="684.7" width="976" height="24.65" />
            </clipPath>
<clipPath id="terminal-256540810-line-29">
    <rect x="0" y="709.1" width="976" height="24.65" />
            </clipPath>
<clipPath id="terminal-256540810-line-30">
    <rect x="0" y="733.5" width="976" height="24.65" />
            </clipPath>
<clipPath id="terminal-256540810-line-31">
    <rect x="0" y="757.9" width="976" height="24.65" />
            </clipPath>
<clipPath id="terminal-256540810-line-32">
    <rect x="0" y="782.3" width="976" height="24.65" />
            </clipPath>
<clipPath id="terminal-256540810-line-33">
    <rect x="0" y="806.7" width="976" height="24.65" />
            </clipPath>
<clipPath id="terminal-256540810-line-34">
    <rect x="0" y="831.1" width="976" height="24.65" />
            </clipPath>
<clipPath id="terminal-256540810-line-35">
    <rect x="0" y="855.5" width="976" height="24.65" />
            </clipPath>
<clipPath id="terminal-256540810-line-36">
    <rect x="0" y="879.9" width="976" height="24.65" />
            </clipPath>
<clipPath id="terminal-256540810-line-37">
    <rect x="0" y="904.3" width="976" height="24.65" />
            </clipPath>
<clipPath id="terminal-256540810-line-38">
    <rect x="0" y="928.7" width="976" height="24.65" />
            </clipPath>
    </defs><g clip-path="url(#terminal-256540810-clip-terminal)" transform="translate(-24.4,-147.9)"><rect fill="#121212" x="0" y="123.5" width="976" height="24.65" shape-rendering="crispEdges" /><rect fill="#121212" x="0" y="147.9" width="36.6" height="24.65" shape-rendering="crispEdges" /><rect fill="#121212" x="36.6" y="147.9" width="134.2" height="24.65" shape-rendering="crispEdges" /><rect fill="#121212" x="170.8" y="147.9" width="24.4" height="24.65" shape-rendering="crispEdges" /><rect fill="#121212" x="195.2" y="147.9" width="146.4" height="24.65" shape-rendering="crispEdges" /><rect fill="#0178d4" x="341.6" y="147.9" width="36.6" height="24.65" shape-rendering="crispEdges" /><rect fill="#121212" x="378.2" y="147.9" width="24.4" height="24.65" shape-rendering="crispEdges" /><rect fill="#121212" x="402.6" y="147.9" width="97.6" height="24.65" shape-rendering="crispEdges" /><rect fill="#121212" x="500.2" y="147.9" width="24.4" height="24.65" shape-rendering="crispEdges" /><rect fill="#121212" x="524.6" y="147.9" width="158.6" height="24.65" shape-rendering="crispEdges" /><rect fill="#121212" x="24.4" y="172.3" width="12.2" height="24.65" shape-rendering="crispEdges" /><rect fill="#121212" x="36.6" y="172.3" width="134.2" height="24.65" shape-rendering="crispEdges" /><rect fill="#121212" x="170.8" y="172.3" width="793" height="24.65" shape-rendering="crispEdges" /><rect fill="#121212" x="0" y="196.7" width="48.8" height="24.65" shape-rendering="crispEdges" /><rect fill="#121212" x="48.8" y="196.7" width="463.6" height="24.65" shape-rendering="crispEdges" /><rect fill="#121212" x="512.4" y="196.7" width="61" height="24.65" shape-rendering="crispEdges" /><rect fill="#121212" x="573.4" y="196.7" width="85.4" height="24.65" shape-rendering="crispEdges" /><rect fill="#121212" x="0" y="221.1" width="658.8" height="24.65" shape-rendering="crispEdges" /><rect fill="#121212" x="0" y="245.5" width="48.8" height="24.65" shape-rendering="crispEdges" /><rect fill="#121212" x="48.8" y="245.5" width="402.6" height="24.65" shape-rendering="crispEdges" /><rect fill="#121212" x="451.4" y="245.5" width="61" height="24.65" shape-rendering="crispEdges" /><rect fill="#121212" x="512.4" y="245.5" width="439.2" height="24.65" shape-rendering="crispEdges" /><rect fill="#121212" x="0" y="269.9" width="658.8" height="24.65" shape-rendering="crispEdges" /><rect fill="#121212" x="0" y="294.3" width="48.8" height="24.65" shape-rendering="crispEdges" /><rect fill="#121212" x="48.8" y="294.3" width="305" height="24.65" shape-rendering="crispEdges" /><rect fill="#121212" x="353.8" y="294.3" width="231.8" height="24.65" shape-rendering="crispEdges" /><rect fill="#121212" x="585.6" y="294.3" width="73.2" height="24.65" shape-rendering="crispEdges" /><rect fill="#121212" x="0" y="318.7" width="48.8" height="24.65" shape-rendering="crispEdges" /><rect fill="#121212" x="48.8" y="318.7" width="97.6" height="24.65" shape-rendering="crispEdges" /><rect fill="#121212" x="146.4" y="318.7" width="805.2" height="24.65" shape-rendering="crispEdges" /><rect fill="#121212" x="0" y="343.1" width="658.8" height="24.65" shape-rendering="crispEdges" /><rect fill="#121212" x="0" y="367.5" width="48.8" height="24.65" shape-rendering="crispEdges" /><rect fill="#121212" x="48.8" y="367.5" width="268.4" height="24.65" shape-rendering="crispEdges" /><rect fill="#121212" x="317.2" y="367.5" width="341.6" height="24.65" shape-rendering="crispEdges" /><rect fill="#121212" x="0" y="391.9" width="48.8" height="24.65" shape-rendering="crispEdges" /><rect fill="#0178d4" x="48.8" y="391.9" width="573.4" height="24.65" shape-rendering="crispEdges" /><rect fill="#121212" x="622.2" y="391.9" width="329.4" height="24.65" shape-rendering="crispEdges" /><rect fill="#121212" x="0" y="416.3" width="48.8" height="24.65" shape-rendering="crispEdges" /><rect fill="#0178d4" x="48.8" y="416.3" width="305" height="24.65" shape-rendering="crispEdges" /><rect fill="#121212" x="353.8" y="416.3" width="305" height="24.65" shape-rendering="crispEdges" /><rect fill="#121212" x="0" y="440.7" width="658.8" height="24.65" shape-rendering="crispEdges" /><rect fill="#121212" x="0" y="465.1" width="48.8" height="24.65" shape-rendering="crispEdges" /><rect fill="#121212" x="48.8" y="465.1" width="305" height="24.65" shape-rendering="crispEdges" /><rect fill="#121212" x="353.8" y="465.1" width="597.8" height="24.65" shape-rendering="crispEdges" /><g class="terminal-256540810-matrix"><text class="terminal-256540810-r9" x="36.6" y="166.4" textLength="134.2" clip-path="url(#terminal-256540810-line-6)">Description</text><text class="terminal-256540810-r10" x="195.2" y="166.4" textLength="146.4" clip-path="url(#terminal-256540810-line-6)">Attachments </text><text class="terminal-256540810-r2" x="341.6" y="166.4" textLength="36.6" clip-path="url(#terminal-256540810-line-6)"> 2 </text><text class="terminal-256540810-r10" x="402.6" y="166.4" textLength="97.6" clip-path="url(#terminal-256540810-line-6)">Subtasks</text><text class="terminal-256540810-r10" x="524.6" y="166.4" textLength="158.6" clip-path="url(#terminal-256540810-line-6)">Related Items</text><text class="terminal-256540810-r11" x="24.4" y="190.8" textLength="12.2" clip-path="url(#terminal-256540810-line-7)">╸</text><text class="terminal-256540810-r12" x="36.6" y="190.8" textLength="134.2" clip-path="url(#terminal-256540810-line-7)">━━━━━━━━━━━</text><text class="terminal-256540810-r11" x="170.8" y="190.8" textLength="793" clip-path="url(#terminal-256540810-line-7)">╺━━━━━━━━━━━━━━━━━━━━━━━━━━━━━━━━━━━━━━━━━━━━━━━━━━━━━━━━━━━━━━━━</text><text class="terminal-256540810-r9" x="48.8" y="215.2" textLength="463.6" clip-path="url(#terminal-256540810-line-8)">Depends on motion alert validation in </text><text class="terminal-256540810-r13" x="512.4" y="215.2" textLength="61" clip-path="url(#terminal-256540810-line-8)">ENG-7</text><text class="terminal-256540810-r9" x="48.8" y="264" textLength="402.6" clip-path="url(#terminal-256540810-line-10)">Related support escalation item: </text><text class="terminal-256540810-r13" x="451.4" y="264" textLength="61" clip-path="url(#terminal-256540810-line-10)">SUP-1</text><text class="terminal-256540810-r9" x="48.8" y="312.8" textLength="305" clip-path="url(#terminal-256540810-line-12)">Reference documentation: </text><text class="terminal-256540810-r13" x="353.8" y="312.8" textLength="231.8" clip-path="url(#terminal-256540810-line-12)">Animatronic release</text><text class="terminal-256540810-r13" x="48.8" y="337.2" textLength="97.6" clip-path="url(#terminal-256540810-line-13)">playbook</text><text class="terminal-256540810-r9" x="48.8" y="386" textLength="268.4" clip-path="url(#terminal-256540810-line-15)">Nightly checklist URL:</text><text class="terminal-256540810-r16" x="48.8" y="410.4" textLength="573.4" clip-path="url(#terminal-256540810-line-16)">https://docs.example.com/animatronics/release-p</text><text class="terminal-256540810-r16" x="48.8" y="434.8" textLength="305" clip-path="url(#terminal-256540810-line-17)">laybook/nightly-checklist</text></g></g></svg>