<svg xmlns="http://www.w3.org/2000/svg" class="rich-terminal" viewBox="0 0 938.6 219.85" width="938.6" height="219.85"><!-- Generated with Rich https://www.textualize.io --><style>

    @font-face {
        font-family: "Fira Code";
        src: local("FiraCode-Regular"),
                url("https://cdnjs.cloudflare.com/ajax/libs/firacode/6.2.0/woff2/FiraCode-Regular.woff2") format("woff2"),
                url("https://cdnjs.cloudflare.com/ajax/libs/firacode/6.2.0/woff/FiraCode-Regular.woff") format("woff");
        font-style: normal;
        font-weight: 400;
    }
    @font-face {
        font-family: "Fira Code";
        src: local("FiraCode-Bold"),
                url("https://cdnjs.cloudflare.com/ajax/libs/firacode/6.2.0/woff2/FiraCode-Bold.woff2") format("woff2"),
                url("https://cdnjs.cloudflare.com/ajax/libs/firacode/6.2.0/woff/FiraCode-Bold.woff") format("woff");
        font-style: bold;
        font-weight: 700;
    }

    .terminal-3277281435-matrix {
        font-family: Fira Code, monospace;
        font-size: 20px;
        line-height: 24.4px;
        font-variant-east-asian: full-width;
    }

    .terminal-3277281435-title {
        font-size: 18px;
        font-weight: bold;
        font-family: arial;
    }

    .terminal-3277281435-r1 { fill: #c5c8c6 }
.terminal-3277281435-r2 { fill: #57a5e2;font-weight: bold }
.terminal-3277281435-r3 { fill: #7f7f7f }
.terminal-3277281435-r4 { fill: #5f5f5f }
.terminal-3277281435-r5 { fill: #e0e0e0 }
.terminal-3277281435-r6 { fill: #0178d4;font-weight: bold }
.terminal-3277281435-r7 { fill: #fea62b;font-weight: bold }
.terminal-3277281435-r8 { fill: #a0a0a0 }
.terminal-3277281435-r9 { fill: #262626 }
.terminal-3277281435-r10 { fill: #0178d4 }
.terminal-3277281435-r11 { fill: #539eff }
.terminal-3277281435-r12 { fill: #e0e0e0;font-weight: bold }
.terminal-3277281435-r13 { fill: #121212 }
.terminal-3277281435-r14 { fill: #a2a2a2 }
.terminal-3277281435-r15 { fill: #57a5e2 }
.terminal-3277281435-r16 { fill: #737373 }
.terminal-3277281435-r17 { fill: #1e1e1e }
.terminal-3277281435-r18 { fill: #a5a5a5 }
    </style><defs>
    <clipPath id="terminal-3277281435-clip-terminal">
      <rect x="0" y="0" width="1463.0" height="975.0" />
    </clipPath>
    <clipPath id="terminal-3277281435-line-0">
    <rect x="0" y="1.5" width="1464" height="24.65" />
            </clipPath>
<clipPath id="terminal-3277281435-line-1">
    <rect x="0" y="25.9" width="1464" height="24.65" />
            </clipPath>
<clipPath id="terminal-3277281435-line-2">
    <rect x="0" y="50.3" width="1464" height="24.65" />
            </clipPath>
<clipPath id="terminal-3277281435-line-3">
    <rect x="0" y="74.7" width="1464" height="24.65" />
            </clipPath>
<clipPath id="terminal-3277281435-line-4">
    <rect x="0" y="99.1" width="1464" height="24.65" />
            </clipPath>
<clipPath id="terminal-3277281435-line-5">
    <rect x="0" y="123.5" width="1464" height="24.65" />
            </clipPath>
<clipPath id="terminal-3277281435-line-6">
    <rect x="0" y="147.9" width="1464" height="24.65" />
            </clipPath>
<clipPath id="terminal-3277281435-line-7">
    <rect x="0" y="172.3" width="1464" height="24.65" />
            </clipPath>
<clipPath id="terminal-3277281435-line-8">
    <rect x="0" y="196.7" width="1464" height="24.65" />
            </clipPath>
<clipPath id="terminal-3277281435-line-9">
    <rect x="0" y="221.1" width="1464" height="24.65" />
            </clipPath>
<clipPath id="terminal-3277281435-line-10">
    <rect x="0" y="245.5" width="1464" height="24.65" />
            </clipPath>
<clipPath id="terminal-3277281435-line-11">
    <rect x="0" y="269.9" width="1464" height="24.65" />
            </clipPath>
<clipPath id="terminal-3277281435-line-12">
    <rect x="0" y="294.3" width="1464" height="24.65" />
            </clipPath>
<clipPath id="terminal-3277281435-line-13">
    <rect x="0" y="318.7" width="1464" height="24.65" />
            </clipPath>
<clipPath id="terminal-3277281435-line-14">
    <rect x="0" y="343.1" width="1464" height="24.65" />
            </clipPath>
<clipPath id="terminal-3277281435-line-15">
    <rect x="0" y="367.5" width="1464" height="24.65" />
            </clipPath>
<clipPath id="terminal-3277281435-line-16">
    <rect x="0" y="391.9" width="1464" height="24.65" />
            </clipPath>
<clipPath id="terminal-3277281435-line-17">
    <rect x="0" y="416.3" width="1464" height="24.65" />
            </clipPath>
<clipPath id="terminal-3277281435-line-18">
    <rect x="0" y="440.7" width="1464" height="24.65" />
            </clipPath>
<clipPath id="terminal-3277281435-line-19">
    <rect x="0" y="465.1" width="1464" height="24.65" />
            </clipPath>
<clipPath id="terminal-3277281435-line-20">
    <rect x="0" y="489.5" width="1464" height="24.65" />
            </clipPath>
<clipPath id="terminal-3277281435-line-21">
    <rect x="0" y="513.9" width="1464" height="24.65" />
            </clipPath>
<clipPath id="terminal-3277281435-line-22">
    <rect x="0" y="538.3" width="1464" height="24.65" />
            </clipPath>
<clipPath id="terminal-3277281435-line-23">
    <rect x="0" y="562.7" width="1464" height="24.65" />
            </clipPath>
<clipPath id="terminal-3277281435-line-24">
    <rect x="0" y="587.1" width="1464" height="24.65" />
            </clipPath>
<clipPath id="terminal-3277281435-line-25">
    <rect x="0" y="611.5" width="1464" height="24.65" />
            </clipPath>
<clipPath id="terminal-3277281435-line-26">
    <rect x="0" y="635.9" width="1464" height="24.65" />
            </clipPath>
<clipPath id="terminal-3277281435-line-27">
    <rect x="0" y="660.3" width="1464" height="24.65" />
            </clipPath>
<clipPath id="terminal-3277281435-line-28">
    <rect x="0" y="684.7" width="1464" height="24.65" />
            </clipPath>
<clipPath id="terminal-3277281435-line-29">
    <rect x="0" y="709.1" width="1464" height="24.65" />
            </clipPath>
<clipPath id="terminal-3277281435-line-30">
    <rect x="0" y="733.5" width="1464" height="24.65" />
            </clipPath>
<clipPath id="terminal-3277281435-line-31">
    <rect x="0" y="757.9" width="1464" height="24.65" />
            </clipPath>
<clipPath id="terminal-3277281435-line-32">
    <rect x="0" y="782.3" width="1464" height="24.65" />
            </clipPath>
<clipPath id="terminal-3277281435-line-33">
    <rect x="0" y="806.7" width="1464" height="24.65" />
            </clipPath>
<clipPath id="terminal-3277281435-line-34">
    <rect x="0" y="831.1" width="1464" height="24.65" />
            </clipPath>
<clipPath id="terminal-3277281435-line-35">
    <rect x="0" y="855.5" width="1464" height="24.65" />
            </clipPath>
<clipPath id="terminal-3277281435-line-36">
    <rect x="0" y="879.9" width="1464" height="24.65" />
            </clipPath>
<clipPath id="terminal-3277281435-line-37">
    <rect x="0" y="904.3" width="1464" height="24.65" />
            </clipPath>
<clipPath id="terminal-3277281435-line-38">
    <rect x="0" y="928.7" width="1464" height="24.65" />
            </clipPath>
    </defs><g clip-path="url(#terminal-3277281435-clip-terminal)" transform="translate(-24.4,-147.9)"><rect fill="#121212" x="0" y="123.5" width="1464" height="24.65" shape-rendering="crispEdges" /><rect fill="#121212" x="0" y="147.9" width="36.6" height="24.65" shape-rendering="crispEdges" /><rect fill="#121212" x="36.6" y="147.9" width="134.2" height="24.65" shape-rendering="crispEdges" /><rect fill="#121212" x="170.8" y="147.9" width="24.4" height="24.65" shape-rendering="crispEdges" /><rect fill="#121212" x="195.2" y="147.9" width="134.2" height="24.65" shape-rendering="crispEdges" /><rect fill="#121212" x="329.4" y="147.9" width="36.6" height="24.65" shape-rendering="crispEdges" /><rect fill="#121212" x="366" y="147.9" width="12.2" height="24.65" shape-rendering="crispEdges" /><rect fill="#121212" x="378.2" y="147.9" width="97.6" height="24.65" shape-rendering="crispEdges" /><rect fill="#121212" x="475.8" y="147.9" width="24.4" height="24.65" shape-rendering="crispEdges" /><rect fill="#121212" x="500.2" y="147.9" width="158.6" height="24.65" shape-rendering="crispEdges" /><rect fill="#121212" x="658.8" y="147.9" width="36.6" height="24.65" shape-rendering="crispEdges" /><rect fill="#121212" x="695.4" y="147.9" width="12.2" height="24.65" shape-rendering="crispEdges" /><rect fill="#121212" x="707.6" y="147.9" width="109.8" height="24.65" shape-rendering="crispEdges" /><rect fill="#121212" x="817.4" y="147.9" width="36.6" height="24.65" shape-rendering="crispEdges" /><rect fill="#121212" x="854" y="147.9" width="12.2" height="24.65" shape-rendering="crispEdges" /><rect fill="#121212" x="866.2" y="147.9" width="97.6" height="24.65" shape-rendering="crispEdges" /><rect fill="#121212" x="24.4" y="172.3" width="671" height="24.65" shape-rendering="crispEdges" /><rect fill="#121212" x="695.4" y="172.3" width="158.6" height="24.65" shape-rendering="crispEdges" /><rect fill="#121212" x="854" y="172.3" width="597.8" height="24.65" shape-rendering="crispEdges" /><rect fill="#121212" x="24.4" y="196.7" width="12.2" height="24.65" shape-rendering="crispEdges" /><rect fill="#121212" x="36.6" y="196.7" width="793" height="24.65" shape-rendering="crispEdges" /><rect fill="#121212" x="829.6" y="196.7" width="122" height="24.65" shape-rendering="crispEdges" /><rect fill="#1e1e1e" x="951.6" y="196.7" width="12.2" height="24.65" shape-rendering="crispEdges" /><rect fill="#121212" x="24.4" y="221.1" width="12.2" height="24.65" shape-rendering="crispEdges" /><rect fill="#121212" x="36.6" y="221.1" width="646.6" height="24.65" shape-rendering="crispEdges" /><rect fill="#121212" x="683.2" y="221.1" width="268.4" height="24.65" shape-rendering="crispEdges" /><rect fill="#1e1e1e" x="951.6" y="221.1" width="12.2" height="24.65" shape-rendering="crispEdges" /><rect fill="#121212" x="24.4" y="245.5" width="927.2" height="24.65" shape-rendering="crispEdges" /><rect fill="#1e1e1e" x="951.6" y="245.5" width="12.2" height="24.65" shape-rendering="crispEdges" /><rect fill="#121212" x="24.4" y="269.9" width="927.2" height="24.65" shape-rendering="crispEdges" /><rect fill="#1e1e1e" x="951.6" y="269.9" width="12.2" height="24.65" shape-rendering="crispEdges" /><rect fill="#121212" x="24.4" y="294.3" width="927.2" height="24.65" shape-rendering="crispEdges" /><rect fill="#1e1e1e" x="951.6" y="294.3" width="12.2" height="24.65" shape-rendering="crispEdges" /><rect fill="#121212" x="24.4" y="318.7" width="927.2" height="24.65" shape-rendering="crispEdges" /><rect fill="#1e1e1e" x="951.6" y="318.7" width="12.2" height="24.65" shape-rendering="crispEdges" /><rect fill="#121212" x="24.4" y="343.1" width="927.2" height="24.65" shape-rendering="crispEdges" /><rect fill="#1e1e1e" x="951.6" y="343.1" width="12.2" height="24.65" shape-rendering="crispEdges" /><rect fill="#121212" x="24.4" y="367.5" width="927.2" height="24.65" shape-rendering="crispEdges" /><rect fill="#1e1e1e" x="951.6" y="367.5" width="12.2" height="24.65" shape-rendering="crispEdges" /><g class="terminal-3277281435-matrix"><text class="terminal-3277281435-r8" x="36.6" y="166.4" textLength="134.2" clip-path="url(#terminal-3277281435-line-6)">Description</text><text class="terminal-3277281435-r8" x="195.2" y="166.4" textLength="134.2" clip-path="url(#terminal-3277281435-line-6)">Attachments</text><text class="terminal-3277281435-r2" x="329.4" y="166.4" textLength="36.6" clip-path="url(#terminal-3277281435-line-6)"> 1 </text><text class="terminal-3277281435-r8" x="378.2" y="166.4" textLength="97.6" clip-path="url(#terminal-3277281435-line-6)">Subtasks</text><text class="terminal-3277281435-r8" x="500.2" y="166.4" textLength="158.6" clip-path="url(#terminal-3277281435-line-6)">Related Items</text><text class="terminal-3277281435-r2" x="658.8" y="166.4" textLength="36.6" clip-path="url(#terminal-3277281435-line-6)"> 2 </text><text class="terminal-3277281435-r5" x="707.6" y="166.4" textLength="109.8" clip-path="url(#terminal-3277281435-line-6)">Web Links</text><text class="terminal-3277281435-r2" x="817.4" y="166.4" textLength="36.6" clip-path="url(#terminal-3277281435-line-6)"> 6 </text><text class="terminal-3277281435-r8" x="866.2" y="166.4" textLength="97.6" clip-path="url(#terminal-3277281435-line-6)">Comments</text><text class="terminal-3277281435-r9" x="24.4" y="190.8" textLength="671" clip-path="url(#terminal-3277281435-line-7)">━━━━━━━━━━━━━━━━━━━━━━━━━━━━━━━━━━━━━━━━━━━━━━━━━━━━━━╸</text><text class="terminal-3277281435-r10" x="695.4" y="190.8" textLength="158.6" clip-path="url(#terminal-3277281435-line-7)">━━━━━━━━━━━━━</text><text class="terminal-3277281435-r9" x="854" y="190.8" textLength="597.8" clip-path="url(#terminal-3277281435-line-7)">╺━━━━━━━━━━━━━━━━━━━━━━━━━━━━━━━━━━━━━━━━━━━━━━━━</text><text class="terminal-3277281435-r11" x="36.6" y="215.2" textLength="793" clip-path="url(#terminal-3277281435-line-8)">merge request • MR #456: Add merge approval settings • Resolved •</text><text class="terminal-3277281435-r11" x="36.6" y="239.6" textLength="646.6" clip-path="url(#terminal-3277281435-line-9)">https://gitlab.example.com/project/merge_requests/456</text><text class="terminal-3277281435-r5" x="24.4" y="288.4" textLength="927.2" clip-path="url(#terminal-3277281435-line-11)"> documentation • Merge Approval Process Documentation • Not Resolved •      </text><text class="terminal-3277281435-r5" x="24.4" y="312.8" textLength="927.2" clip-path="url(#terminal-3277281435-line-12)"> https://confluence.example.com/display/DEV/Merge+Approval+Process          </text><text class="terminal-3277281435-r5" x="24.4" y="361.6" textLength="927.2" clip-path="url(#terminal-3277281435-line-14)"> Web link • Repository Settings API Documentation • https://api-            </text></g></g></svg>