<svg xmlns="http://www.w3.org/2000/svg" class="rich-terminal" viewBox="0 0 615.6 317.44999999999993" width="615.6" height="317.44999999999993"><!-- Generated with Rich https://www.textualize.io --><style>

    @font-face {
        font-family: "Fira Code";
        src: local("FiraCode-Regular"),
                url("https://cdnjs.cloudflare.com/ajax/libs/firacode/6.2.0/woff2/FiraCode-Regular.woff2") format("woff2"),
                url("https://cdnjs.cloudflare.com/ajax/libs/firacode/6.2.0/woff/FiraCode-Regular.woff") format("woff");
        font-style: normal;
        font-weight: 400;
    }
    @font-face {
        font-family: "Fira Code";
        src: local("FiraCode-Bold"),
                url("https://cdnjs.cloudflare.com/ajax/libs/firacode/6.2.0/woff2/FiraCode-Bold.woff2") format("woff2"),
                url("https://cdnjs.cloudflare.com/ajax/libs/firacode/6.2.0/woff/FiraCode-Bold.woff") format("woff");
        font-style: bold;
        font-weight: 700;
    }

    .terminal-2747529334-matrix {
        font-family: Fira Code, monospace;
        font-size: 20px;
        line-height: 24.4px;
        font-variant-east-asian: full-width;
    }

    .terminal-2747529334-title {
        font-size: 18px;
        font-weight: bold;
        font-family: arial;
    }

    .terminal-2747529334-r1 { fill: #c5c8c6 }
.terminal-2747529334-r2 { fill: #57a5e2;font-weight: bold }
.terminal-2747529334-r3 { fill: #7f7f7f }
.terminal-2747529334-r4 { fill: #5f5f5f }
.terminal-2747529334-r5 { fill: #e0e0e0 }
.terminal-2747529334-r6 { fill: #0178d4;font-weight: bold }
.terminal-2747529334-r7 { fill: #fea62b;font-weight: bold }
.terminal-2747529334-r8 { fill: #a0a0a0 }
.terminal-2747529334-r9 { fill: #0178d4 }
.terminal-2747529334-r10 { fill: #262626 }
.terminal-2747529334-r11 { fill: #e0e0e0;text-decoration: underline; }
.terminal-2747529334-r12 { fill: #e0e0e0;font-weight: bold }
.terminal-2747529334-r13 { fill: #121212 }
.terminal-2747529334-r14 { fill: #ddedf9;font-weight: bold }
.terminal-2747529334-r15 { fill: #a2a2a2 }
.terminal-2747529334-r16 { fill: #57a5e2 }
.terminal-2747529334-r17 { fill: #737373 }
.terminal-2747529334-r18 { fill: #1e1e1e }
    </style><defs>
    <clipPath id="terminal-2747529334-clip-terminal">
      <rect x="0" y="0" width="975.0" height="975.0" />
    </clipPath>
    <clipPath id="terminal-2747529334-line-0">
    <rect x="0" y="1.5" width="976" height="24.65" />
            </clipPath>
<clipPath id="terminal-2747529334-line-1">
    <rect x="0" y="25.9" width="976" height="24.65" />
            </clipPath>
<clipPath id="terminal-2747529334-line-2">
    <rect x="0" y="50.3" width="976" height="24.65" />
            </clipPath>
<clipPath id="terminal-2747529334-line-3">
    <rect x="0" y="74.7" width="976" height="24.65" />
            </clipPath>
<clipPath id="terminal-2747529334-line-4">
    <rect x="0" y="99.1" width="976" height="24.65" />
            </clipPath>
<clipPath id="terminal-2747529334-line-5">
    <rect x="0" y="123.5" width="976" height="24.65" />
            </clipPath>
<clipPath id="terminal-2747529334-line-6">
    <rect x="0" y="147.9" width="976" height="24.65" />
            </clipPath>
<clipPath id="terminal-2747529334-line-7">
    <rect x="0" y="172.3" width="976" height="24.65" />
            </clipPath>
<clipPath id="terminal-2747529334-line-8">
    <rect x="0" y="196.7" width="976" height="24.65" />
            </clipPath>
<clipPath id="terminal-2747529334-line-9">
    <rect x="0" y="221.1" width="976" height="24.65" />
            </clipPath>
<clipPath id="terminal-2747529334-line-10">
    <rect x="0" y="245.5" width="976" height="24.65" />
            </clipPath>
<clipPath id="terminal-2747529334-line-11">
    <rect x="0" y="269.9" width="976" height="24.65" />
            </clipPath>
<clipPath id="terminal-2747529334-line-12">
    <rect x="0" y="294.3" width="976" height="24.65" />
            </clipPath>
<clipPath id="terminal-2747529334-line-13">
    <rect x="0" y="318.7" width="976" height="24.65" />
            </clipPath>
<clipPath id="terminal-2747529334-line-14">
    <rect x="0" y="343.1" width="976" height="24.65" />
            </clipPath>
<clipPath id="terminal-2747529334-line-15">
    <rect x="0" y="367.5" width="976" height="24.65" />
            </clipPath>
<clipPath id="terminal-2747529334-line-16">
    <rect x="0" y="391.9" width="976" height="24.65" />
            </clipPath>
<clipPath id="terminal-2747529334-line-17">
    <rect x="0" y="416.3" width="976" height="24.65" />
            </clipPath>
<clipPath id="terminal-2747529334-line-18">
    <rect x="0" y="440.7" width="976" height="24.65" />
            </clipPath>
<clipPath id="terminal-2747529334-line-19">
    <rect x="0" y="465.1" width="976" height="24.65" />
            </clipPath>
<clipPath id="terminal-2747529334-line-20">
    <rect x="0" y="489.5" width="976" height="24.65" />
            </clipPath>
<clipPath id="terminal-2747529334-line-21">
    <rect x="0" y="513.9" width="976" height="24.65" />
            </clipPath>
<clipPath id="terminal-2747529334-line-22">
    <rect x="0" y="538.3" width="976" height="24.65" />
            </clipPath>
<clipPath id="terminal-2747529334-line-23">
    <rect x="0" y="562.7" width="976" height="24.65" />
            </clipPath>
<clipPath id="terminal-2747529334-line-24">
    <rect x="0" y="587.1" width="976" height="24.65" />
            </clipPath>
<clipPath id="terminal-2747529334-line-25">
    <rect x="0" y="611.5" width="976" height="24.65" />
            </clipPath>
<clipPath id="terminal-2747529334-line-26">
    <rect x="0" y="635.9" width="976" height="24.65" />
            </clipPath>
<clipPath id="terminal-2747529334-line-27">
    <rect x="0" y="660.3" width="976" height="24.65" />
            </clipPath>
<clipPath id="terminal-2747529334-line-28">
    <rect x="0" y="684.7" width="976" height="24.65" />
            </clipPath>
<clipPath id="terminal-2747529334-line-29">
    <rect x="0" y="709.1" width="976" height="24.65" />
            </clipPath>
<clipPath id="terminal-2747529334-line-30">
    <rect x="0" y="733.5" width="976" height="24.65" />
            </clipPath>
<clipPath id="terminal-2747529334-line-31">
    <rect x="0" y="757.9" width="976" height="24.65" />
            </clipPath>
<clipPath id="terminal-2747529334-line-32">
    <rect x="0" y="782.3" width="976" height="24.65" />
            </clipPath>
<clipPath id="terminal-2747529334-line-33">
    <rect x="0" y="806.7" width="976" height="24.65" />
            </clipPath>
<clipPath id="terminal-2747529334-line-34">
    <rect x="0" y="831.1" width="976" height="24.65" />
            </clipPath>
<clipPath id="terminal-2747529334-line-35">
    <rect x="0" y="855.5" width="976" height="24.65" />
            </clipPath>
<clipPath id="terminal-2747529334-line-36">
    <rect x="0" y="879.9" width="976" height="24.65" />
            </clipPath>
<clipPath id="terminal-2747529334-line-37">
    <rect x="0" y="904.3" width="976" height="24.65" />
            </clipPath>
<clipPath id="terminal-2747529334-line-38">
    <rect x="0" y="928.7" width="976" height="24.65" />
            </clipPath>
    </defs><g clip-path="url(#terminal-2747529334-clip-terminal)" transform="translate(-24.4,-147.9)"><rect fill="#121212" x="0" y="123.5" width="976" height="24.65" shape-rendering="crispEdges" /><rect fill="#121212" x="0" y="147.9" width="36.6" height="24.65" shape-rendering="crispEdges" /><rect fill="#121212" x="36.6" y="147.9" width="134.2" height="24.65" shape-rendering="crispEdges" /><rect fill="#121212" x="170.8" y="147.9" width="24.4" height="24.65" shape-rendering="crispEdges" /><rect fill="#121212" x="195.2" y="147.9" width="134.2" height="24.65" shape-rendering="crispEdges" /><rect fill="#121212" x="329.4" y="147.9" width="36.6" height="24.65" shape-rendering="crispEdges" /><rect fill="#121212" x="366" y="147.9" width="12.2" height="24.65" shape-rendering="crispEdges" /><rect fill="#121212" x="378.2" y="147.9" width="97.6" height="24.65" shape-rendering="crispEdges" /><rect fill="#121212" x="475.8" y="147.9" width="24.4" height="24.65" shape-rendering="crispEdges" /><rect fill="#121212" x="500.2" y="147.9" width="158.6" height="24.65" shape-rendering="crispEdges" /><rect fill="#121212" x="24.4" y="172.3" width="158.6" height="24.65" shape-rendering="crispEdges" /><rect fill="#121212" x="183" y="172.3" width="780.8" height="24.65" shape-rendering="crispEdges" /><rect fill="#121212" x="0" y="196.7" width="36.6" height="24.65" shape-rendering="crispEdges" /><rect fill="#121212" x="36.6" y="196.7" width="463.6" height="24.65" shape-rendering="crispEdges" /><rect fill="#121212" x="500.2" y="196.7" width="61" height="24.65" shape-rendering="crispEdges" /><rect fill="#121212" x="561.2" y="196.7" width="97.6" height="24.65" shape-rendering="crispEdges" /><rect fill="#121212" x="0" y="221.1" width="658.8" height="24.65" shape-rendering="crispEdges" /><rect fill="#121212" x="0" y="245.5" width="36.6" height="24.65" shape-rendering="crispEdges" /><rect fill="#121212" x="36.6" y="245.5" width="402.6" height="24.65" shape-rendering="crispEdges" /><rect fill="#121212" x="439.2" y="245.5" width="61" height="24.65" shape-rendering="crispEdges" /><rect fill="#121212" x="500.2" y="245.5" width="451.4" height="24.65" shape-rendering="crispEdges" /><rect fill="#121212" x="0" y="269.9" width="658.8" height="24.65" shape-rendering="crispEdges" /><rect fill="#121212" x="0" y="294.3" width="36.6" height="24.65" shape-rendering="crispEdges" /><rect fill="#121212" x="36.6" y="294.3" width="305" height="24.65" shape-rendering="crispEdges" /><rect fill="#121212" x="341.6" y="294.3" width="231.8" height="24.65" shape-rendering="crispEdges" /><rect fill="#121212" x="573.4" y="294.3" width="85.4" height="24.65" shape-rendering="crispEdges" /><rect fill="#121212" x="0" y="318.7" width="36.6" height="24.65" shape-rendering="crispEdges" /><rect fill="#121212" x="36.6" y="318.7" width="97.6" height="24.65" shape-rendering="crispEdges" /><rect fill="#121212" x="134.2" y="318.7" width="817.4" height="24.65" shape-rendering="crispEdges" /><rect fill="#121212" x="0" y="343.1" width="658.8" height="24.65" shape-rendering="crispEdges" /><rect fill="#121212" x="0" y="367.5" width="36.6" height="24.65" shape-rendering="crispEdges" /><rect fill="#121212" x="36.6" y="367.5" width="268.4" height="24.65" shape-rendering="crispEdges" /><rect fill="#121212" x="305" y="367.5" width="353.8" height="24.65" shape-rendering="crispEdges" /><rect fill="#121212" x="0" y="391.9" width="36.6" height="24.65" shape-rendering="crispEdges" /><rect fill="#0178d4" x="36.6" y="391.9" width="597.8" height="24.65" shape-rendering="crispEdges" /><rect fill="#121212" x="634.4" y="391.9" width="317.2" height="24.65" shape-rendering="crispEdges" /><rect fill="#121212" x="0" y="416.3" width="36.6" height="24.65" shape-rendering="crispEdges" /><rect fill="#0178d4" x="36.6" y="416.3" width="280.6" height="24.65" shape-rendering="crispEdges" /><rect fill="#121212" x="317.2" y="416.3" width="341.6" height="24.65" shape-rendering="crispEdges" /><rect fill="#121212" x="0" y="440.7" width="658.8" height="24.65" shape-rendering="crispEdges" /><rect fill="#121212" x="0" y="465.1" width="36.6" height="24.65" shape-rendering="crispEdges" /><rect fill="#121212" x="36.6" y="465.1" width="305" height="24.65" shape-rendering="crispEdges" /><rect fill="#121212" x="341.6" y="465.1" width="610" height="24.65" shape-rendering="crispEdges" /><g class="terminal-2747529334-matrix"><text class="terminal-2747529334-r5" x="36.6" y="166.4" textLength="134.2" clip-path="url(#terminal-2747529334-line-6)">Description</text><text class="terminal-2747529334-r8" x="195.2" y="166.4" textLength="134.2" clip-path="url(#terminal-2747529334-line-6)">Attachments</text><text class="terminal-2747529334-r2" x="329.4" y="166.4" textLength="36.6" clip-path="url(#terminal-2747529334-line-6)"> 2 </text><text class="terminal-2747529334-r8" x="378.2" y="166.4" textLength="97.6" clip-path="url(#terminal-2747529334-line-6)">Subtasks</text><text class="terminal-2747529334-r8" x="500.2" y="166.4" textLength="158.6" clip-path="url(#terminal-2747529334-line-6)">Related Items</text><text class="terminal-2747529334-r9" x="24.4" y="190.8" textLength="158.6" clip-path="url(#terminal-2747529334-line-7)">━━━━━━━━━━━━━</text><text class="terminal-2747529334-r10" x="183" y="190.8" textLength="780.8" clip-path="url(#terminal-2747529334-line-7)">╺━━━━━━━━━━━━━━━━━━━━━━━━━━━━━━━━━━━━━━━━━━━━━━━━━━━━━━━━━━━━━━━</text><text class="terminal-2747529334-r5" x="36.6" y="215.2" textLength="463.6" clip-path="url(#terminal-2747529334-line-8)">Depends on motion alert validation in </text><text class="terminal-2747529334-r11" x="500.2" y="215.2" textLength="61" clip-path="url(#terminal-2747529334-line-8)">ENG-7</text><text class="terminal-2747529334-r5" x="36.6" y="264" textLength="402.6" clip-path="url(#terminal-2747529334-line-10)">Related support escalation item: </text><text class="terminal-2747529334-r11" x="439.2" y="264" textLength="61" clip-path="url(#terminal-2747529334-line-10)">SUP-1</text><text class="terminal-2747529334-r5" x="36.6" y="312.8" textLength="305" clip-path="url(#terminal-2747529334-line-12)">Reference documentation: </text><text class="terminal-2747529334-r11" x="341.6" y="312.8" textLength="231.8" clip-path="url(#terminal-2747529334-line-12)">Animatronic release</text><text class="terminal-2747529334-r11" x="36.6" y="337.2" textLength="97.6" clip-path="url(#terminal-2747529334-line-13)">playbook</text><text class="terminal-2747529334-r5" x="36.6" y="386" textLength="268.4" clip-path="url(#terminal-2747529334-line-15)">Nightly checklist URL:</text><text class="terminal-2747529334-r14" x="36.6" y="410.4" textLength="597.8" clip-path="url(#terminal-2747529334-line-16)">https://docs.example.com/animatronics/release-pla</text><text class="terminal-2747529334-r14" x="36.6" y="434.8" textLength="280.6" clip-path="url(#terminal-2747529334-line-17)">ybook/nightly-checklist</text></g></g></svg>