<svg xmlns="http://www.w3.org/2000/svg" class="rich-terminal" viewBox="0 0 378.2 878.65" width="378.2" height="878.65"><!-- Generated with Rich https://www.textualize.io --><style>

    @font-face {
        font-family: "Fira Code";
        src: local("FiraCode-Regular"),
                url("https://cdnjs.cloudflare.com/ajax/libs/firacode/6.2.0/woff2/FiraCode-Regular.woff2") format("woff2"),
                url("https://cdnjs.cloudflare.com/ajax/libs/firacode/6.2.0/woff/FiraCode-Regular.woff") format("woff");
        font-style: normal;
        font-weight: 400;
    }
    @font-face {
        font-family: "Fira Code";
        src: local("FiraCode-Bold"),
                url("https://cdnjs.cloudflare.com/ajax/libs/firacode/6.2.0/woff2/FiraCode-Bold.woff2") format("woff2"),
                url("https://cdnjs.cloudflare.com/ajax/libs/firacode/6.2.0/woff/FiraCode-Bold.woff") format("woff");
        font-style: bold;
        font-weight: 700;
    }

    .terminal-3628187097-matrix {
        font-family: Fira Code, monospace;
        font-size: 20px;
        line-height: 24.4px;
        font-variant-east-asian: full-width;
    }

    .terminal-3628187097-title {
        font-size: 18px;
        font-weight: bold;
        font-family: arial;
    }

    .terminal-3628187097-r1 { fill: #c5c8c6 }
.terminal-3628187097-r2 { fill: #57a5e2;font-weight: bold }
.terminal-3628187097-r3 { fill: #7f7f7f }
.terminal-3628187097-r4 { fill: #5f5f5f }
.terminal-3628187097-r5 { fill: #e0e0e0 }
.terminal-3628187097-r6 { fill: #0178d4;font-weight: bold }
.terminal-3628187097-r7 { fill: #fea62b;font-weight: bold }
.terminal-3628187097-r8 { fill: #121212 }
.terminal-3628187097-r9 { fill: #ffffff }
.terminal-3628187097-r10 { fill: #a0a0a0 }
.terminal-3628187097-r11 { fill: #0178d4 }
.terminal-3628187097-r12 { fill: #262626 }
.terminal-3628187097-r13 { fill: #e0e0e0;text-decoration: underline; }
.terminal-3628187097-r14 { fill: #e0e0e0;font-weight: bold }
.terminal-3628187097-r15 { fill: #fea62b }
.terminal-3628187097-r16 { fill: #1e1e1e }
.terminal-3628187097-r17 { fill: #a2a2a2 }
.terminal-3628187097-r18 { fill: #57a5e2 }
.terminal-3628187097-r19 { fill: #737373 }
    </style><defs>
    <clipPath id="terminal-3628187097-clip-terminal">
      <rect x="0" y="0" width="1463.0" height="975.0" />
    </clipPath>
    <clipPath id="terminal-3628187097-line-0">
    <rect x="0" y="1.5" width="1464" height="24.65" />
            </clipPath>
<clipPath id="terminal-3628187097-line-1">
    <rect x="0" y="25.9" width="1464" height="24.65" />
            </clipPath>
<clipPath id="terminal-3628187097-line-2">
    <rect x="0" y="50.3" width="1464" height="24.65" />
            </clipPath>
<clipPath id="terminal-3628187097-line-3">
    <rect x="0" y="74.7" width="1464" height="24.65" />
            </clipPath>
<clipPath id="terminal-3628187097-line-4">
    <rect x="0" y="99.1" width="1464" height="24.65" />
            </clipPath>
<clipPath id="terminal-3628187097-line-5">
    <rect x="0" y="123.5" width="1464" height="24.65" />
            </clipPath>
<clipPath id="terminal-3628187097-line-6">
    <rect x="0" y="147.9" width="1464" height="24.65" />
            </clipPath>
<clipPath id="terminal-3628187097-line-7">
    <rect x="0" y="172.3" width="1464" height="24.65" />
            </clipPath>
<clipPath id="terminal-3628187097-line-8">
    <rect x="0" y="196.7" width="1464" height="24.65" />
            </clipPath>
<clipPath id="terminal-3628187097-line-9">
    <rect x="0" y="221.1" width="1464" height="24.65" />
            </clipPath>
<clipPath id="terminal-3628187097-line-10">
    <rect x="0" y="245.5" width="1464" height="24.65" />
            </clipPath>
<clipPath id="terminal-3628187097-line-11">
    <rect x="0" y="269.9" width="1464" height="24.65" />
            </clipPath>
<clipPath id="terminal-3628187097-line-12">
    <rect x="0" y="294.3" width="1464" height="24.65" />
            </clipPath>
<clipPath id="terminal-3628187097-line-13">
    <rect x="0" y="318.7" width="1464" height="24.65" />
            </clipPath>
<clipPath id="terminal-3628187097-line-14">
    <rect x="0" y="343.1" width="1464" height="24.65" />
            </clipPath>
<clipPath id="terminal-3628187097-line-15">
    <rect x="0" y="367.5" width="1464" height="24.65" />
            </clipPath>
<clipPath id="terminal-3628187097-line-16">
    <rect x="0" y="391.9" width="1464" height="24.65" />
            </clipPath>
<clipPath id="terminal-3628187097-line-17">
    <rect x="0" y="416.3" width="1464" height="24.65" />
            </clipPath>
<clipPath id="terminal-3628187097-line-18">
    <rect x="0" y="440.7" width="1464" height="24.65" />
            </clipPath>
<clipPath id="terminal-3628187097-line-19">
    <rect x="0" y="465.1" width="1464" height="24.65" />
            </clipPath>
<clipPath id="terminal-3628187097-line-20">
    <rect x="0" y="489.5" width="1464" height="24.65" />
            </clipPath>
<clipPath id="terminal-3628187097-line-21">
    <rect x="0" y="513.9" width="1464" height="24.65" />
            </clipPath>
<clipPath id="terminal-3628187097-line-22">
    <rect x="0" y="538.3" width="1464" height="24.65" />
            </clipPath>
<clipPath id="terminal-3628187097-line-23">
    <rect x="0" y="562.7" width="1464" height="24.65" />
            </clipPath>
<clipPath id="terminal-3628187097-line-24">
    <rect x="0" y="587.1" width="1464" height="24.65" />
            </clipPath>
<clipPath id="terminal-3628187097-line-25">
    <rect x="0" y="611.5" width="1464" height="24.65" />
            </clipPath>
<clipPath id="terminal-3628187097-line-26">
    <rect x="0" y="635.9" width="1464" height="24.65" />
            </clipPath>
<clipPath id="terminal-3628187097-line-27">
    <rect x="0" y="660.3" width="1464" height="24.65" />
            </clipPath>
<clipPath id="terminal-3628187097-line-28">
    <rect x="0" y="684.7" width="1464" height="24.65" />
            </clipPath>
<clipPath id="terminal-3628187097-line-29">
    <rect x="0" y="709.1" width="1464" height="24.65" />
            </clipPath>
<clipPath id="terminal-3628187097-line-30">
    <rect x="0" y="733.5" width="1464" height="24.65" />
            </clipPath>
<clipPath id="terminal-3628187097-line-31">
    <rect x="0" y="757.9" width="1464" height="24.65" />
            </clipPath>
<clipPath id="terminal-3628187097-line-32">
    <rect x="0" y="782.3" width="1464" height="24.65" />
            </clipPath>
<clipPath id="terminal-3628187097-line-33">
    <rect x="0" y="806.7" width="1464" height="24.65" />
            </clipPath>
<clipPath id="terminal-3628187097-line-34">
    <rect x="0" y="831.1" width="1464" height="24.65" />
            </clipPath>
<clipPath id="terminal-3628187097-line-35">
    <rect x="0" y="855.5" width="1464" height="24.65" />
            </clipPath>
<clipPath id="terminal-3628187097-line-36">
    <rect x="0" y="879.9" width="1464" height="24.65" />
            </clipPath>
<clipPath id="terminal-3628187097-line-37">
    <rect x="0" y="904.3" width="1464" height="24.65" />
            </clipPath>
<clipPath id="terminal-3628187097-line-38">
    <rect x="0" y="928.7" width="1464" height="24.65" />
            </clipPath>
    </defs><g clip-path="url(#terminal-3628187097-clip-terminal)" transform="translate(-0.0,-74.7)"><rect fill="#121212" x="0" y="50.3" width="1464" height="24.65" shape-rendering="crispEdges" /><rect fill="#121212" x="0" y="74.7" width="12.2" height="24.65" shape-rendering="crispEdges" /><rect fill="#1e1e1e" x="12.2" y="74.7" width="85.4" height="24.65" shape-rendering="crispEdges" /><rect fill="#1e1e1e" x="97.6" y="74.7" width="146.4" height="24.65" shape-rendering="crispEdges" /><rect fill="#1e1e1e" x="244" y="74.7" width="12.2" height="24.65" shape-rendering="crispEdges" /><rect fill="#1e1e1e" x="256.2" y="74.7" width="12.2" height="24.65" shape-rendering="crispEdges" /><rect fill="#121212" x="268.4" y="74.7" width="12.2" height="24.65" shape-rendering="crispEdges" /><rect fill="#0c304c" x="280.6" y="74.7" width="36.6" height="24.65" shape-rendering="crispEdges" /><rect fill="#121212" x="317.2" y="74.7" width="12.2" height="24.65" shape-rendering="crispEdges" /><rect fill="#0c304c" x="329.4" y="74.7" width="36.6" height="24.65" shape-rendering="crispEdges" /><rect fill="#121212" x="366" y="74.7" width="12.2" height="24.65" shape-rendering="crispEdges" /><rect fill="#121212" x="0" y="99.1" width="378.2" height="24.65" shape-rendering="crispEdges" /><rect fill="#121212" x="0" y="123.5" width="12.2" height="24.65" shape-rendering="crispEdges" /><rect fill="#2d2d2d" x="12.2" y="123.5" width="329.4" height="24.65" shape-rendering="crispEdges" /><rect fill="#121212" x="341.6" y="123.5" width="12.2" height="24.65" shape-rendering="crispEdges" /><rect fill="#0053aa" x="353.8" y="123.5" width="12.2" height="24.65" shape-rendering="crispEdges" /><rect fill="#121212" x="366" y="123.5" width="1098" height="24.65" shape-rendering="crispEdges" /><rect fill="#121212" x="0" y="147.9" width="12.2" height="24.65" shape-rendering="crispEdges" /><rect fill="#2d2d2d" x="12.2" y="147.9" width="12.2" height="24.65" shape-rendering="crispEdges" /><rect fill="#2d2d2d" x="24.4" y="147.9" width="305" height="24.65" shape-rendering="crispEdges" /><rect fill="#2d2d2d" x="329.4" y="147.9" width="12.2" height="24.65" shape-rendering="crispEdges" /><rect fill="#121212" x="341.6" y="147.9" width="12.2" height="24.65" shape-rendering="crispEdges" /><rect fill="#0053aa" x="353.8" y="147.9" width="12.2" height="24.65" shape-rendering="crispEdges" /><rect fill="#121212" x="366" y="147.9" width="24.4" height="24.65" shape-rendering="crispEdges" /><rect fill="#121212" x="0" y="172.3" width="12.2" height="24.65" shape-rendering="crispEdges" /><rect fill="#2d2d2d" x="12.2" y="172.3" width="12.2" height="24.65" shape-rendering="crispEdges" /><rect fill="#2d2d2d" x="24.4" y="172.3" width="305" height="24.65" shape-rendering="crispEdges" /><rect fill="#2d2d2d" x="329.4" y="172.3" width="12.2" height="24.65" shape-rendering="crispEdges" /><rect fill="#121212" x="341.6" y="172.3" width="12.2" height="24.65" shape-rendering="crispEdges" /><rect fill="#0053aa" x="353.8" y="172.3" width="12.2" height="24.65" shape-rendering="crispEdges" /><rect fill="#121212" x="366" y="172.3" width="12.2" height="24.65" shape-rendering="crispEdges" /><rect fill="#121212" x="0" y="196.7" width="12.2" height="24.65" shape-rendering="crispEdges" /><rect fill="#2d2d2d" x="12.2" y="196.7" width="12.2" height="24.65" shape-rendering="crispEdges" /><rect fill="#2d2d2d" x="24.4" y="196.7" width="305" height="24.65" shape-rendering="crispEdges" /><rect fill="#2d2d2d" x="329.4" y="196.7" width="12.2" height="24.65" shape-rendering="crispEdges" /><rect fill="#121212" x="341.6" y="196.7" width="12.2" height="24.65" shape-rendering="crispEdges" /><rect fill="#0053aa" x="353.8" y="196.7" width="12.2" height="24.65" shape-rendering="crispEdges" /><rect fill="#121212" x="366" y="196.7" width="24.4" height="24.65" shape-rendering="crispEdges" /><rect fill="#121212" x="0" y="221.1" width="12.2" height="24.65" shape-rendering="crispEdges" /><rect fill="#2d2d2d" x="12.2" y="221.1" width="12.2" height="24.65" shape-rendering="crispEdges" /><rect fill="#2d2d2d" x="24.4" y="221.1" width="305" height="24.65" shape-rendering="crispEdges" /><rect fill="#2d2d2d" x="329.4" y="221.1" width="12.2" height="24.65" shape-rendering="crispEdges" /><rect fill="#121212" x="341.6" y="221.1" width="12.2" height="24.65" shape-rendering="crispEdges" /><rect fill="#0053aa" x="353.8" y="221.1" width="12.2" height="24.65" shape-rendering="crispEdges" /><rect fill="#121212" x="366" y="221.1" width="732" height="24.65" shape-rendering="crispEdges" /><rect fill="#121212" x="0" y="245.5" width="12.2" height="24.65" shape-rendering="crispEdges" /><rect fill="#2d2d2d" x="12.2" y="245.5" width="12.2" height="24.65" shape-rendering="crispEdges" /><rect fill="#2d2d2d" x="24.4" y="245.5" width="305" height="24.65" shape-rendering="crispEdges" /><rect fill="#2d2d2d" x="329.4" y="245.5" width="12.2" height="24.65" shape-rendering="crispEdges" /><rect fill="#121212" x="341.6" y="245.5" width="12.2" height="24.65" shape-rendering="crispEdges" /><rect fill="#0053aa" x="353.8" y="245.5" width="12.2" height="24.65" shape-rendering="crispEdges" /><rect fill="#121212" x="366" y="245.5" width="24.4" height="24.65" shape-rendering="crispEdges" /><rect fill="#121212" x="0" y="269.9" width="12.2" height="24.65" shape-rendering="crispEdges" /><rect fill="#2d2d2d" x="12.2" y="269.9" width="329.4" height="24.65" shape-rendering="crispEdges" /><rect fill="#121212" x="341.6" y="269.9" width="12.2" height="24.65" shape-rendering="crispEdges" /><rect fill="#0053aa" x="353.8" y="269.9" width="12.2" height="24.65" shape-rendering="crispEdges" /><rect fill="#121212" x="366" y="269.9" width="732" height="24.65" shape-rendering="crispEdges" /><rect fill="#121212" x="0" y="294.3" width="12.2" height="24.65" shape-rendering="crispEdges" /><rect fill="#121212" x="12.2" y="294.3" width="341.6" height="24.65" shape-rendering="crispEdges" /><rect fill="#0053aa" x="353.8" y="294.3" width="12.2" height="24.65" shape-rendering="crispEdges" /><rect fill="#121212" x="366" y="294.3" width="24.4" height="24.65" shape-rendering="crispEdges" /><rect fill="#121212" x="0" y="318.7" width="12.2" height="24.65" shape-rendering="crispEdges" /><rect fill="#1e1e1e" x="12.2" y="318.7" width="329.4" height="24.65" shape-rendering="crispEdges" /><rect fill="#121212" x="341.6" y="318.7" width="12.2" height="24.65" shape-rendering="crispEdges" /><rect fill="#0053aa" x="353.8" y="318.7" width="12.2" height="24.65" shape-rendering="crispEdges" /><rect fill="#121212" x="366" y="318.7" width="1073.6" height="24.65" shape-rendering="crispEdges" /><rect fill="#121212" x="0" y="343.1" width="12.2" height="24.65" shape-rendering="crispEdges" /><rect fill="#1e1e1e" x="12.2" y="343.1" width="12.2" height="24.65" shape-rendering="crispEdges" /><rect fill="#1e1e1e" x="24.4" y="343.1" width="305" height="24.65" shape-rendering="crispEdges" /><rect fill="#1e1e1e" x="329.4" y="343.1" width="12.2" height="24.65" shape-rendering="crispEdges" /><rect fill="#121212" x="341.6" y="343.1" width="12.2" height="24.65" shape-rendering="crispEdges" /><rect fill="#0053aa" x="353.8" y="343.1" width="12.2" height="24.65" shape-rendering="crispEdges" /><rect fill="#121212" x="366" y="343.1" width="24.4" height="24.65" shape-rendering="crispEdges" /><rect fill="#121212" x="0" y="367.5" width="12.2" height="24.65" shape-rendering="crispEdges" /><rect fill="#1e1e1e" x="12.2" y="367.5" width="12.2" height="24.65" shape-rendering="crispEdges" /><rect fill="#1e1e1e" x="24.4" y="367.5" width="305" height="24.65" shape-rendering="crispEdges" /><rect fill="#1e1e1e" x="329.4" y="367.5" width="12.2" height="24.65" shape-rendering="crispEdges" /><rect fill="#121212" x="341.6" y="367.5" width="12.2" height="24.65" shape-rendering="crispEdges" /><rect fill="#0053aa" x="353.8" y="367.5" width="12.2" height="24.65" shape-rendering="crispEdges" /><rect fill="#121212" x="366" y="367.5" width="24.4" height="24.65" shape-rendering="crispEdges" /><rect fill="#121212" x="0" y="391.9" width="12.2" height="24.65" shape-rendering="crispEdges" /><rect fill="#1e1e1e" x="12.2" y="391.9" width="12.2" height="24.65" shape-rendering="crispEdges" /><rect fill="#1e1e1e" x="24.4" y="391.9" width="305" height="24.65" shape-rendering="crispEdges" /><rect fill="#1e1e1e" x="329.4" y="391.9" width="12.2" height="24.65" shape-rendering="crispEdges" /><rect fill="#121212" x="341.6" y="391.9" width="12.2" height="24.65" shape-rendering="crispEdges" /><rect fill="#1e1e1e" x="353.8" y="391.9" width="12.2" height="24.65" shape-rendering="crispEdges" /><rect fill="#121212" x="366" y="391.9" width="24.4" height="24.65" shape-rendering="crispEdges" /><rect fill="#121212" x="0" y="416.3" width="12.2" height="24.65" shape-rendering="crispEdges" /><rect fill="#1e1e1e" x="12.2" y="416.3" width="12.2" height="24.65" shape-rendering="crispEdges" /><rect fill="#1e1e1e" x="24.4" y="416.3" width="305" height="24.65" shape-rendering="crispEdges" /><rect fill="#1e1e1e" x="329.4" y="416.3" width="12.2" height="24.65" shape-rendering="crispEdges" /><rect fill="#121212" x="341.6" y="416.3" width="12.2" height="24.65" shape-rendering="crispEdges" /><rect fill="#1e1e1e" x="353.8" y="416.3" width="12.2" height="24.65" shape-rendering="crispEdges" /><rect fill="#121212" x="366" y="416.3" width="732" height="24.65" shape-rendering="crispEdges" /><rect fill="#121212" x="0" y="440.7" width="12.2" height="24.65" shape-rendering="crispEdges" /><rect fill="#1e1e1e" x="12.2" y="440.7" width="329.4" height="24.65" shape-rendering="crispEdges" /><rect fill="#121212" x="341.6" y="440.7" width="12.2" height="24.65" shape-rendering="crispEdges" /><rect fill="#1e1e1e" x="353.8" y="440.7" width="12.2" height="24.65" shape-rendering="crispEdges" /><rect fill="#121212" x="366" y="440.7" width="24.4" height="24.65" shape-rendering="crispEdges" /><rect fill="#121212" x="0" y="465.1" width="12.2" height="24.65" shape-rendering="crispEdges" /><rect fill="#121212" x="12.2" y="465.1" width="341.6" height="24.65" shape-rendering="crispEdges" /><rect fill="#1e1e1e" x="353.8" y="465.1" width="12.2" height="24.65" shape-rendering="crispEdges" /><rect fill="#121212" x="366" y="465.1" width="1073.6" height="24.65" shape-rendering="crispEdges" /><rect fill="#121212" x="0" y="489.5" width="12.2" height="24.65" shape-rendering="crispEdges" /><rect fill="#1e1e1e" x="12.2" y="489.5" width="329.4" height="24.65" shape-rendering="crispEdges" /><rect fill="#121212" x="341.6" y="489.5" width="12.2" height="24.65" shape-rendering="crispEdges" /><rect fill="#1e1e1e" x="353.8" y="489.5" width="12.2" height="24.65" shape-rendering="crispEdges" /><rect fill="#121212" x="366" y="489.5" width="24.4" height="24.65" shape-rendering="crispEdges" /><rect fill="#121212" x="0" y="513.9" width="12.2" height="24.65" shape-rendering="crispEdges" /><rect fill="#1e1e1e" x="12.2" y="513.9" width="12.2" height="24.65" shape-rendering="crispEdges" /><rect fill="#1e1e1e" x="24.4" y="513.9" width="305" height="24.65" shape-rendering="crispEdges" /><rect fill="#1e1e1e" x="329.4" y="513.9" width="12.2" height="24.65" shape-rendering="crispEdges" /><rect fill="#121212" x="341.6" y="513.9" width="12.2" height="24.65" shape-rendering="crispEdges" /><rect fill="#1e1e1e" x="353.8" y="513.9" width="12.2" height="24.65" shape-rendering="crispEdges" /><rect fill="#121212" x="366" y="513.9" width="732" height="24.65" shape-rendering="crispEdges" /><rect fill="#121212" x="0" y="538.3" width="12.2" height="24.65" shape-rendering="crispEdges" /><rect fill="#1e1e1e" x="12.2" y="538.3" width="12.2" height="24.65" shape-rendering="crispEdges" /><rect fill="#1e1e1e" x="24.4" y="538.3" width="305" height="24.65" shape-rendering="crispEdges" /><rect fill="#1e1e1e" x="329.4" y="538.3" width="12.2" height="24.65" shape-rendering="crispEdges" /><rect fill="#121212" x="341.6" y="538.3" width="12.2" height="24.65" shape-rendering="crispEdges" /><rect fill="#1e1e1e" x="353.8" y="538.3" width="12.2" height="24.65" shape-rendering="crispEdges" /><rect fill="#121212" x="366" y="538.3" width="732" height="24.65" shape-rendering="crispEdges" /><rect fill="#121212" x="0" y="562.7" width="12.2" height="24.65" shape-rendering="crispEdges" /><rect fill="#1e1e1e" x="12.2" y="562.7" width="12.2" height="24.65" shape-rendering="crispEdges" /><rect fill="#1e1e1e" x="24.4" y="562.7" width="305" height="24.65" shape-rendering="crispEdges" /><rect fill="#1e1e1e" x="329.4" y="562.7" width="12.2" height="24.65" shape-rendering="crispEdges" /><rect fill="#121212" x="341.6" y="562.7" width="12.2" height="24.65" shape-rendering="crispEdges" /><rect fill="#1e1e1e" x="353.8" y="562.7" width="12.2" height="24.65" shape-rendering="crispEdges" /><rect fill="#121212" x="366" y="562.7" width="732" height="24.65" shape-rendering="crispEdges" /><rect fill="#121212" x="0" y="587.1" width="12.2" height="24.65" shape-rendering="crispEdges" /><rect fill="#1e1e1e" x="12.2" y="587.1" width="12.2" height="24.65" shape-rendering="crispEdges" /><rect fill="#1e1e1e" x="24.4" y="587.1" width="305" height="24.65" shape-rendering="crispEdges" /><rect fill="#1e1e1e" x="329.4" y="587.1" width="12.2" height="24.65" shape-rendering="crispEdges" /><rect fill="#121212" x="341.6" y="587.1" width="12.2" height="24.65" shape-rendering="crispEdges" /><rect fill="#1e1e1e" x="353.8" y="587.1" width="12.2" height="24.65" shape-rendering="crispEdges" /><rect fill="#121212" x="366" y="587.1" width="1073.6" height="24.65" shape-rendering="crispEdges" /><rect fill="#121212" x="0" y="611.5" width="12.2" height="24.65" shape-rendering="crispEdges" /><rect fill="#1e1e1e" x="12.2" y="611.5" width="12.2" height="24.65" shape-rendering="crispEdges" /><rect fill="#1e1e1e" x="24.4" y="611.5" width="305" height="24.65" shape-rendering="crispEdges" /><rect fill="#1e1e1e" x="329.4" y="611.5" width="12.2" height="24.65" shape-rendering="crispEdges" /><rect fill="#121212" x="341.6" y="611.5" width="12.2" height="24.65" shape-rendering="crispEdges" /><rect fill="#1e1e1e" x="353.8" y="611.5" width="12.2" height="24.65" shape-rendering="crispEdges" /><rect fill="#121212" x="366" y="611.5" width="732" height="24.65" shape-rendering="crispEdges" /><rect fill="#121212" x="0" y="635.9" width="12.2" height="24.65" shape-rendering="crispEdges" /><rect fill="#1e1e1e" x="12.2" y="635.9" width="12.2" height="24.65" shape-rendering="crispEdges" /><rect fill="#1e1e1e" x="24.4" y="635.9" width="305" height="24.65" shape-rendering="crispEdges" /><rect fill="#1e1e1e" x="329.4" y="635.9" width="12.2" height="24.65" shape-rendering="crispEdges" /><rect fill="#121212" x="341.6" y="635.9" width="12.2" height="24.65" shape-rendering="crispEdges" /><rect fill="#1e1e1e" x="353.8" y="635.9" width="12.2" height="24.65" shape-rendering="crispEdges" /><rect fill="#121212" x="366" y="635.9" width="732" height="24.65" shape-rendering="crispEdges" /><rect fill="#121212" x="0" y="660.3" width="12.2" height="24.65" shape-rendering="crispEdges" /><rect fill="#1e1e1e" x="12.2" y="660.3" width="329.4" height="24.65" shape-rendering="crispEdges" /><rect fill="#121212" x="341.6" y="660.3" width="12.2" height="24.65" shape-rendering="crispEdges" /><rect fill="#1e1e1e" x="353.8" y="660.3" width="12.2" height="24.65" shape-rendering="crispEdges" /><rect fill="#121212" x="366" y="660.3" width="732" height="24.65" shape-rendering="crispEdges" /><rect fill="#121212" x="0" y="684.7" width="12.2" height="24.65" shape-rendering="crispEdges" /><rect fill="#121212" x="12.2" y="684.7" width="341.6" height="24.65" shape-rendering="crispEdges" /><rect fill="#1e1e1e" x="353.8" y="684.7" width="12.2" height="24.65" shape-rendering="crispEdges" /><rect fill="#121212" x="366" y="684.7" width="1073.6" height="24.65" shape-rendering="crispEdges" /><rect fill="#121212" x="0" y="709.1" width="12.2" height="24.65" shape-rendering="crispEdges" /><rect fill="#1e1e1e" x="12.2" y="709.1" width="329.4" height="24.65" shape-rendering="crispEdges" /><rect fill="#121212" x="341.6" y="709.1" width="12.2" height="24.65" shape-rendering="crispEdges" /><rect fill="#1e1e1e" x="353.8" y="709.1" width="12.2" height="24.65" shape-rendering="crispEdges" /><rect fill="#121212" x="366" y="709.1" width="732" height="24.65" shape-rendering="crispEdges" /><rect fill="#121212" x="0" y="733.5" width="12.2" height="24.65" shape-rendering="crispEdges" /><rect fill="#1e1e1e" x="12.2" y="733.5" width="12.2" height="24.65" shape-rendering="crispEdges" /><rect fill="#1e1e1e" x="24.4" y="733.5" width="305" height="24.65" shape-rendering="crispEdges" /><rect fill="#1e1e1e" x="329.4" y="733.5" width="12.2" height="24.65" shape-rendering="crispEdges" /><rect fill="#121212" x="341.6" y="733.5" width="12.2" height="24.65" shape-rendering="crispEdges" /><rect fill="#1e1e1e" x="353.8" y="733.5" width="12.2" height="24.65" shape-rendering="crispEdges" /><rect fill="#121212" x="366" y="733.5" width="732" height="24.65" shape-rendering="crispEdges" /><rect fill="#121212" x="0" y="757.9" width="12.2" height="24.65" shape-rendering="crispEdges" /><rect fill="#1e1e1e" x="12.2" y="757.9" width="12.2" height="24.65" shape-rendering="crispEdges" /><rect fill="#1e1e1e" x="24.4" y="757.9" width="305" height="24.65" shape-rendering="crispEdges" /><rect fill="#1e1e1e" x="329.4" y="757.9" width="12.2" height="24.65" shape-rendering="crispEdges" /><rect fill="#121212" x="341.6" y="757.9" width="12.2" height="24.65" shape-rendering="crispEdges" /><rect fill="#1e1e1e" x="353.8" y="757.9" width="12.2" height="24.65" shape-rendering="crispEdges" /><rect fill="#121212" x="366" y="757.9" width="732" height="24.65" shape-rendering="crispEdges" /><rect fill="#121212" x="0" y="782.3" width="12.2" height="24.65" shape-rendering="crispEdges" /><rect fill="#1e1e1e" x="12.2" y="782.3" width="12.2" height="24.65" shape-rendering="crispEdges" /><rect fill="#1e1e1e" x="24.4" y="782.3" width="305" height="24.65" shape-rendering="crispEdges" /><rect fill="#1e1e1e" x="329.4" y="782.3" width="12.2" height="24.65" shape-rendering="crispEdges" /><rect fill="#121212" x="341.6" y="782.3" width="12.2" height="24.65" shape-rendering="crispEdges" /><rect fill="#1e1e1e" x="353.8" y="782.3" width="12.2" height="24.65" shape-rendering="crispEdges" /><rect fill="#121212" x="366" y="782.3" width="732" height="24.65" shape-rendering="crispEdges" /><rect fill="#121212" x="0" y="806.7" width="12.2" height="24.65" shape-rendering="crispEdges" /><rect fill="#1e1e1e" x="12.2" y="806.7" width="12.2" height="24.65" shape-rendering="crispEdges" /><rect fill="#1e1e1e" x="24.4" y="806.7" width="305" height="24.65" shape-rendering="crispEdges" /><rect fill="#1e1e1e" x="329.4" y="806.7" width="12.2" height="24.65" shape-rendering="crispEdges" /><rect fill="#121212" x="341.6" y="806.7" width="12.2" height="24.65" shape-rendering="crispEdges" /><rect fill="#1e1e1e" x="353.8" y="806.7" width="12.2" height="24.65" shape-rendering="crispEdges" /><rect fill="#121212" x="366" y="806.7" width="1073.6" height="24.65" shape-rendering="crispEdges" /><rect fill="#121212" x="0" y="831.1" width="12.2" height="24.65" shape-rendering="crispEdges" /><rect fill="#1e1e1e" x="12.2" y="831.1" width="12.2" height="24.65" shape-rendering="crispEdges" /><rect fill="#1e1e1e" x="24.4" y="831.1" width="305" height="24.65" shape-rendering="crispEdges" /><rect fill="#1e1e1e" x="329.4" y="831.1" width="12.2" height="24.65" shape-rendering="crispEdges" /><rect fill="#121212" x="341.6" y="831.1" width="12.2" height="24.65" shape-rendering="crispEdges" /><rect fill="#1e1e1e" x="353.8" y="831.1" width="12.2" height="24.65" shape-rendering="crispEdges" /><rect fill="#121212" x="366" y="831.1" width="732" height="24.65" shape-rendering="crispEdges" /><rect fill="#121212" x="0" y="855.5" width="12.2" height="24.65" shape-rendering="crispEdges" /><rect fill="#1e1e1e" x="12.2" y="855.5" width="12.2" height="24.65" shape-rendering="crispEdges" /><rect fill="#1e1e1e" x="24.4" y="855.5" width="305" height="24.65" shape-rendering="crispEdges" /><rect fill="#1e1e1e" x="329.4" y="855.5" width="12.2" height="24.65" shape-rendering="crispEdges" /><rect fill="#121212" x="341.6" y="855.5" width="12.2" height="24.65" shape-rendering="crispEdges" /><rect fill="#1e1e1e" x="353.8" y="855.5" width="12.2" height="24.65" shape-rendering="crispEdges" /><rect fill="#121212" x="366" y="855.5" width="732" height="24.65" shape-rendering="crispEdges" /><rect fill="#121212" x="0" y="879.9" width="12.2" height="24.65" shape-rendering="crispEdges" /><rect fill="#1e1e1e" x="12.2" y="879.9" width="329.4" height="24.65" shape-rendering="crispEdges" /><rect fill="#121212" x="341.6" y="879.9" width="12.2" height="24.65" shape-rendering="crispEdges" /><rect fill="#1e1e1e" x="353.8" y="879.9" width="12.2" height="24.65" shape-rendering="crispEdges" /><rect fill="#121212" x="366" y="879.9" width="732" height="24.65" shape-rendering="crispEdges" /><rect fill="#121212" x="0" y="904.3" width="12.2" height="24.65" shape-rendering="crispEdges" /><rect fill="#121212" x="12.2" y="904.3" width="0" height="24.65" shape-rendering="crispEdges" /><rect fill="#121212" x="12.2" y="904.3" width="366" height="24.65" shape-rendering="crispEdges" /><rect fill="#121212" x="0" y="928.7" width="134.2" height="24.65" shape-rendering="crispEdges" /><rect fill="#121212" x="134.2" y="928.7" width="97.6" height="24.65" shape-rendering="crispEdges" /><rect fill="#121212" x="231.8" y="928.7" width="146.4" height="24.65" shape-rendering="crispEdges" /><rect fill="#121212" x="0" y="953.1" width="1464" height="24.65" shape-rendering="crispEdges" /><g class="terminal-3628187097-matrix"><text class="terminal-3628187097-r5" x="12.2" y="93.2" textLength="85.4" clip-path="url(#terminal-3628187097-line-3)">Created</text><text class="terminal-3628187097-r3" x="244" y="93.2" textLength="12.2" clip-path="url(#terminal-3628187097-line-3)">▼</text><text class="terminal-3628187097-r2" x="280.6" y="93.2" textLength="36.6" clip-path="url(#terminal-3628187097-line-3)"> ⇊ </text><text class="terminal-3628187097-r2" x="329.4" y="93.2" textLength="36.6" clip-path="url(#terminal-3628187097-line-3)"> ↺ </text><text class="terminal-3628187097-r9" x="24.4" y="166.4" textLength="305" clip-path="url(#terminal-3628187097-line-6)">[Bug] ENG-8              </text><text class="terminal-3628187097-r7" x="24.4" y="190.8" textLength="305" clip-path="url(#terminal-3628187097-line-7)">Coordinate monster       </text><text class="terminal-3628187097-r7" x="24.4" y="215.2" textLength="305" clip-path="url(#terminal-3628187097-line-8)">rollout dependencies     </text><text class="terminal-3628187097-r9" x="24.4" y="239.6" textLength="305" clip-path="url(#terminal-3628187097-line-9)">Medium • To Do • Rook    </text><text class="terminal-3628187097-r9" x="24.4" y="264" textLength="305" clip-path="url(#terminal-3628187097-line-10)">Hydra                    </text><text class="terminal-3628187097-r9" x="24.4" y="361.6" textLength="305" clip-path="url(#terminal-3628187097-line-14)">[Story] ENG-7            </text><text class="terminal-3628187097-r15" x="24.4" y="386" textLength="305" clip-path="url(#terminal-3628187097-line-15)">Audit night-shift alerts </text><text class="terminal-3628187097-r16" x="353.8" y="386" textLength="12.2" clip-path="url(#terminal-3628187097-line-15)">▆</text><text class="terminal-3628187097-r15" x="24.4" y="410.4" textLength="305" clip-path="url(#terminal-3628187097-line-16)">for monster bay builds   </text><text class="terminal-3628187097-r9" x="24.4" y="434.8" textLength="305" clip-path="url(#terminal-3628187097-line-17)">Low • To Do • Rook Hydra </text><text class="terminal-3628187097-r9" x="24.4" y="532.4" textLength="305" clip-path="url(#terminal-3628187097-line-21)">[Sub-task] ENG-6         </text><text class="terminal-3628187097-r15" x="24.4" y="556.8" textLength="305" clip-path="url(#terminal-3628187097-line-22)">Verify rollback path for </text><text class="terminal-3628187097-r15" x="24.4" y="581.2" textLength="305" clip-path="url(#terminal-3628187097-line-23)">claw actuator firmware   </text><text class="terminal-3628187097-r15" x="24.4" y="605.6" textLength="305" clip-path="url(#terminal-3628187097-line-24)">rollout                  </text><text class="terminal-3628187097-r9" x="24.4" y="630" textLength="305" clip-path="url(#terminal-3628187097-line-25)">Medium • Done • Nyx      </text><text class="terminal-3628187097-r9" x="24.4" y="654.4" textLength="305" clip-path="url(#terminal-3628187097-line-26)">Basilisk                 </text><text class="terminal-3628187097-r9" x="24.4" y="752" textLength="305" clip-path="url(#terminal-3628187097-line-30)">[Bug] ENG-5              </text><text class="terminal-3628187097-r15" x="24.4" y="776.4" textLength="305" clip-path="url(#terminal-3628187097-line-31)">Fix jaw servo jitter     </text><text class="terminal-3628187097-r15" x="24.4" y="800.8" textLength="305" clip-path="url(#terminal-3628187097-line-32)">during fog burst         </text><text class="terminal-3628187097-r15" x="24.4" y="825.2" textLength="305" clip-path="url(#terminal-3628187097-line-33)">synchronization          </text><text class="terminal-3628187097-r9" x="24.4" y="849.6" textLength="305" clip-path="url(#terminal-3628187097-line-34)">High • In Progress • Nyx </text><text class="terminal-3628187097-r9" x="24.4" y="874" textLength="305" clip-path="url(#terminal-3628187097-line-35)">Basilisk                 </text><text class="terminal-3628187097-r10" x="134.2" y="947.2" textLength="97.6" clip-path="url(#terminal-3628187097-line-38)">1/1 (12)</text></g></g></svg>