<svg class="rich-terminal" viewBox="0 0 994 635.5999999999999" xmlns="http://www.w3.org/2000/svg">
    <!-- Generated with Rich https://www.textualize.io -->
    <style>

    @font-face {
        font-family: "Fira Code";
        src: local("FiraCode-Regular"),
                url("https://cdnjs.cloudflare.com/ajax/libs/firacode/6.2.0/woff2/FiraCode-Regular.woff2") format("woff2"),
                url("https://cdnjs.cloudflare.com/ajax/libs/firacode/6.2.0/woff/FiraCode-Regular.woff") format("woff");
        font-style: normal;
        font-weight: 400;
    }
    @font-face {
        font-family: "Fira Code";
        src: local("FiraCode-Bold"),
                url("https://cdnjs.cloudflare.com/ajax/libs/firacode/6.2.0/woff2/FiraCode-Bold.woff2") format("woff2"),
                url("https://cdnjs.cloudflare.com/ajax/libs/firacode/6.2.0/woff/FiraCode-Bold.woff") format("woff");
        font-style: bold;
        font-weight: 700;
    }

    .terminal-892834916-matrix {
        font-family: Fira Code, monospace;
        font-size: 20px;
        line-height: 24.4px;
        font-variant-east-asian: full-width;
    }

    .terminal-892834916-title {
        font-size: 18px;
        font-weight: bold;
        font-family: arial;
    }

    .terminal-892834916-r1 { fill: #c5c8c6 }
.terminal-892834916-r2 { fill: #121212;font-weight: bold }
.terminal-892834916-r3 { fill: #7f7f7f }
.terminal-892834916-r4 { fill: #5f5f5f }
.terminal-892834916-r5 { fill: #f5ebdd;font-weight: bold }
.terminal-892834916-r6 { fill: #a0a0a0;font-weight: bold }
.terminal-892834916-r7 { fill: #fea62b;font-weight: bold }
.terminal-892834916-r8 { fill: #c4c5b5;font-weight: bold }
.terminal-892834916-r9 { fill: #0178d4;font-weight: bold }
.terminal-892834916-r10 { fill: #e0e0e0 }
.terminal-892834916-r11 { fill: #797979 }
.terminal-892834916-r12 { fill: #262626 }
.terminal-892834916-r13 { fill: #0178d4 }
.terminal-892834916-r14 { fill: #121212 }
.terminal-892834916-r15 { fill: #e0e0e0;font-weight: bold }
.terminal-892834916-r16 { fill: #e0e0e0;text-decoration: underline; }
.terminal-892834916-r17 { fill: #000000 }
.terminal-892834916-r18 { fill: #625e4c }
.terminal-892834916-r19 { fill: #c4c5b5 }
.terminal-892834916-r20 { fill: #a2a2a2 }
.terminal-892834916-r21 { fill: #a0a0a0 }
.terminal-892834916-r22 { fill: #744f1c;font-weight: bold }
.terminal-892834916-r23 { fill: #533a18;font-weight: bold }
    </style>

    <defs>
    <clipPath id="terminal-892834916-clip-terminal">
      <rect x="0" y="0" width="975.0" height="584.5999999999999" />
    </clipPath>
    <clipPath id="terminal-892834916-line-0">
    <rect x="0" y="1.5" width="976" height="24.65"/>
            </clipPath>
<clipPath id="terminal-892834916-line-1">
    <rect x="0" y="25.9" width="976" height="24.65"/>
            </clipPath>
<clipPath id="terminal-892834916-line-2">
    <rect x="0" y="50.3" width="976" height="24.65"/>
            </clipPath>
<clipPath id="terminal-892834916-line-3">
    <rect x="0" y="74.7" width="976" height="24.65"/>
            </clipPath>
<clipPath id="terminal-892834916-line-4">
    <rect x="0" y="99.1" width="976" height="24.65"/>
            </clipPath>
<clipPath id="terminal-892834916-line-5">
    <rect x="0" y="123.5" width="976" height="24.65"/>
            </clipPath>
<clipPath id="terminal-892834916-line-6">
    <rect x="0" y="147.9" width="976" height="24.65"/>
            </clipPath>
<clipPath id="terminal-892834916-line-7">
    <rect x="0" y="172.3" width="976" height="24.65"/>
            </clipPath>
<clipPath id="terminal-892834916-line-8">
    <rect x="0" y="196.7" width="976" height="24.65"/>
            </clipPath>
<clipPath id="terminal-892834916-line-9">
    <rect x="0" y="221.1" width="976" height="24.65"/>
            </clipPath>
<clipPath id="terminal-892834916-line-10">
    <rect x="0" y="245.5" width="976" height="24.65"/>
            </clipPath>
<clipPath id="terminal-892834916-line-11">
    <rect x="0" y="269.9" width="976" height="24.65"/>
            </clipPath>
<clipPath id="terminal-892834916-line-12">
    <rect x="0" y="294.3" width="976" height="24.65"/>
            </clipPath>
<clipPath id="terminal-892834916-line-13">
    <rect x="0" y="318.7" width="976" height="24.65"/>
            </clipPath>
<clipPath id="terminal-892834916-line-14">
    <rect x="0" y="343.1" width="976" height="24.65"/>
            </clipPath>
<clipPath id="terminal-892834916-line-15">
    <rect x="0" y="367.5" width="976" height="24.65"/>
            </clipPath>
<clipPath id="terminal-892834916-line-16">
    <rect x="0" y="391.9" width="976" height="24.65"/>
            </clipPath>
<clipPath id="terminal-892834916-line-17">
    <rect x="0" y="416.3" width="976" height="24.65"/>
            </clipPath>
<clipPath id="terminal-892834916-line-18">
    <rect x="0" y="440.7" width="976" height="24.65"/>
            </clipPath>
<clipPath id="terminal-892834916-line-19">
    <rect x="0" y="465.1" width="976" height="24.65"/>
            </clipPath>
<clipPath id="terminal-892834916-line-20">
    <rect x="0" y="489.5" width="976" height="24.65"/>
            </clipPath>
<clipPath id="terminal-892834916-line-21">
    <rect x="0" y="513.9" width="976" height="24.65"/>
            </clipPath>
<clipPath id="terminal-892834916-line-22">
    <rect x="0" y="538.3" width="976" height="24.65"/>
            </clipPath>
    </defs>

    <rect fill="#292929" stroke="rgba(255,255,255,0.35)" stroke-width="1" x="1" y="1" width="992" height="633.6" rx="8"/><text class="terminal-892834916-title" fill="#c5c8c6" text-anchor="middle" x="496" y="27">gojeera</text>
            <g transform="translate(26,22)">
            <circle cx="0" cy="0" r="7" fill="#ff5f57"/>
            <circle cx="22" cy="0" r="7" fill="#febc2e"/>
            <circle cx="44" cy="0" r="7" fill="#28c840"/>
            </g>
        
    <g transform="translate(9, 41)" clip-path="url(#terminal-892834916-clip-terminal)">
    <rect fill="#121212" x="0" y="1.5" width="976" height="24.65" shape-rendering="crispEdges"/><rect fill="#121212" x="0" y="25.9" width="12.2" height="24.65" shape-rendering="crispEdges"/><rect fill="#b86b00" x="12.2" y="25.9" width="12.2" height="24.65" shape-rendering="crispEdges"/><rect fill="#b86b00" x="24.4" y="25.9" width="61" height="24.65" shape-rendering="crispEdges"/><rect fill="#b86b00" x="85.4" y="25.9" width="85.4" height="24.65" shape-rendering="crispEdges"/><rect fill="#b86b00" x="170.8" y="25.9" width="12.2" height="24.65" shape-rendering="crispEdges"/><rect fill="#b86b00" x="183" y="25.9" width="12.2" height="24.65" shape-rendering="crispEdges"/><rect fill="#121212" x="195.2" y="25.9" width="12.2" height="24.65" shape-rendering="crispEdges"/><rect fill="#1e1e1e" x="207.4" y="25.9" width="85.4" height="24.65" shape-rendering="crispEdges"/><rect fill="#1e1e1e" x="292.8" y="25.9" width="36.6" height="24.65" shape-rendering="crispEdges"/><rect fill="#1e1e1e" x="329.4" y="25.9" width="12.2" height="24.65" shape-rendering="crispEdges"/><rect fill="#1e1e1e" x="341.6" y="25.9" width="12.2" height="24.65" shape-rendering="crispEdges"/><rect fill="#121212" x="353.8" y="25.9" width="12.2" height="24.65" shape-rendering="crispEdges"/><rect fill="#1a1a1a" x="366" y="25.9" width="97.6" height="24.65" shape-rendering="crispEdges"/><rect fill="#1a1a1a" x="463.6" y="25.9" width="36.6" height="24.65" shape-rendering="crispEdges"/><rect fill="#1a1a1a" x="500.2" y="25.9" width="12.2" height="24.65" shape-rendering="crispEdges"/><rect fill="#171717" x="512.4" y="25.9" width="12.2" height="24.65" shape-rendering="crispEdges"/><rect fill="#121212" x="524.6" y="25.9" width="12.2" height="24.65" shape-rendering="crispEdges"/><rect fill="#1a1a1a" x="536.8" y="25.9" width="48.8" height="24.65" shape-rendering="crispEdges"/><rect fill="#1a1a1a" x="585.6" y="25.9" width="73.2" height="24.65" shape-rendering="crispEdges"/><rect fill="#1a1a1a" x="658.8" y="25.9" width="12.2" height="24.65" shape-rendering="crispEdges"/><rect fill="#171717" x="671" y="25.9" width="12.2" height="24.65" shape-rendering="crispEdges"/><rect fill="#121212" x="683.2" y="25.9" width="12.2" height="24.65" shape-rendering="crispEdges"/><rect fill="#1a1a1a" x="695.4" y="25.9" width="73.2" height="24.65" shape-rendering="crispEdges"/><rect fill="#1a1a1a" x="768.6" y="25.9" width="61" height="24.65" shape-rendering="crispEdges"/><rect fill="#1a1a1a" x="829.6" y="25.9" width="12.2" height="24.65" shape-rendering="crispEdges"/><rect fill="#171717" x="841.8" y="25.9" width="12.2" height="24.65" shape-rendering="crispEdges"/><rect fill="#121212" x="854" y="25.9" width="12.2" height="24.65" shape-rendering="crispEdges"/><rect fill="#b86b00" x="866.2" y="25.9" width="97.6" height="24.65" shape-rendering="crispEdges"/><rect fill="#121212" x="963.8" y="25.9" width="12.2" height="24.65" shape-rendering="crispEdges"/><rect fill="#121212" x="0" y="50.3" width="976" height="24.65" shape-rendering="crispEdges"/><rect fill="#121212" x="0" y="74.7" width="12.2" height="24.65" shape-rendering="crispEdges"/><rect fill="#004295" x="12.2" y="74.7" width="231.8" height="24.65" shape-rendering="crispEdges"/><rect fill="#121212" x="244" y="74.7" width="12.2" height="24.65" shape-rendering="crispEdges"/><rect fill="#121212" x="256.2" y="74.7" width="231.8" height="24.65" shape-rendering="crispEdges"/><rect fill="#121212" x="488" y="74.7" width="12.2" height="24.65" shape-rendering="crispEdges"/><rect fill="#121212" x="500.2" y="74.7" width="12.2" height="24.65" shape-rendering="crispEdges"/><rect fill="#121212" x="512.4" y="74.7" width="170.8" height="24.65" shape-rendering="crispEdges"/><rect fill="#121212" x="683.2" y="74.7" width="12.2" height="24.65" shape-rendering="crispEdges"/><rect fill="#121212" x="695.4" y="74.7" width="12.2" height="24.65" shape-rendering="crispEdges"/><rect fill="#121212" x="707.6" y="74.7" width="134.2" height="24.65" shape-rendering="crispEdges"/><rect fill="#121212" x="841.8" y="74.7" width="134.2" height="24.65" shape-rendering="crispEdges"/><rect fill="#121212" x="0" y="99.1" width="12.2" height="24.65" shape-rendering="crispEdges"/><rect fill="#004295" x="12.2" y="99.1" width="12.2" height="24.65" shape-rendering="crispEdges"/><rect fill="#004295" x="24.4" y="99.1" width="73.2" height="24.65" shape-rendering="crispEdges"/><rect fill="#004295" x="97.6" y="99.1" width="61" height="24.65" shape-rendering="crispEdges"/><rect fill="#004295" x="158.6" y="99.1" width="85.4" height="24.65" shape-rendering="crispEdges"/><rect fill="#121212" x="244" y="99.1" width="12.2" height="24.65" shape-rendering="crispEdges"/><rect fill="#121212" x="256.2" y="99.1" width="475.8" height="24.65" shape-rendering="crispEdges"/><rect fill="#121212" x="732" y="99.1" width="219.6" height="24.65" shape-rendering="crispEdges"/><rect fill="#121212" x="951.6" y="99.1" width="24.4" height="24.65" shape-rendering="crispEdges"/><rect fill="#121212" x="0" y="123.5" width="12.2" height="24.65" shape-rendering="crispEdges"/><rect fill="#004295" x="12.2" y="123.5" width="12.2" height="24.65" shape-rendering="crispEdges"/><rect fill="#004295" x="24.4" y="123.5" width="122" height="24.65" shape-rendering="crispEdges"/><rect fill="#004295" x="146.4" y="123.5" width="97.6" height="24.65" shape-rendering="crispEdges"/><rect fill="#121212" x="244" y="123.5" width="732" height="24.65" shape-rendering="crispEdges"/><rect fill="#121212" x="0" y="147.9" width="12.2" height="24.65" shape-rendering="crispEdges"/><rect fill="#004295" x="12.2" y="147.9" width="12.2" height="24.65" shape-rendering="crispEdges"/><rect fill="#004295" x="24.4" y="147.9" width="183" height="24.65" shape-rendering="crispEdges"/><rect fill="#004295" x="207.4" y="147.9" width="36.6" height="24.65" shape-rendering="crispEdges"/><rect fill="#121212" x="244" y="147.9" width="24.4" height="24.65" shape-rendering="crispEdges"/><rect fill="#121212" x="268.4" y="147.9" width="134.2" height="24.65" shape-rendering="crispEdges"/><rect fill="#121212" x="402.6" y="147.9" width="24.4" height="24.65" shape-rendering="crispEdges"/><rect fill="#121212" x="427" y="147.9" width="146.4" height="24.65" shape-rendering="crispEdges"/><rect fill="#0178d4" x="573.4" y="147.9" width="36.6" height="24.65" shape-rendering="crispEdges"/><rect fill="#121212" x="610" y="147.9" width="24.4" height="24.65" shape-rendering="crispEdges"/><rect fill="#121212" x="634.4" y="147.9" width="97.6" height="24.65" shape-rendering="crispEdges"/><rect fill="#121212" x="732" y="147.9" width="24.4" height="24.65" shape-rendering="crispEdges"/><rect fill="#121212" x="756.4" y="147.9" width="158.6" height="24.65" shape-rendering="crispEdges"/><rect fill="#121212" x="915" y="147.9" width="24.4" height="24.65" shape-rendering="crispEdges"/><rect fill="#121212" x="939.4" y="147.9" width="24.4" height="24.65" shape-rendering="crispEdges"/><rect fill="#121212" x="963.8" y="147.9" width="12.2" height="24.65" shape-rendering="crispEdges"/><rect fill="#121212" x="0" y="172.3" width="12.2" height="24.65" shape-rendering="crispEdges"/><rect fill="#004295" x="12.2" y="172.3" width="12.2" height="24.65" shape-rendering="crispEdges"/><rect fill="#004295" x="24.4" y="172.3" width="146.4" height="24.65" shape-rendering="crispEdges"/><rect fill="#004295" x="170.8" y="172.3" width="73.2" height="24.65" shape-rendering="crispEdges"/><rect fill="#121212" x="244" y="172.3" width="12.2" height="24.65" shape-rendering="crispEdges"/><rect fill="#121212" x="256.2" y="172.3" width="12.2" height="24.65" shape-rendering="crispEdges"/><rect fill="#121212" x="268.4" y="172.3" width="134.2" height="24.65" shape-rendering="crispEdges"/><rect fill="#121212" x="402.6" y="172.3" width="561.2" height="24.65" shape-rendering="crispEdges"/><rect fill="#121212" x="963.8" y="172.3" width="12.2" height="24.65" shape-rendering="crispEdges"/><rect fill="#121212" x="0" y="196.7" width="12.2" height="24.65" shape-rendering="crispEdges"/><rect fill="#004295" x="12.2" y="196.7" width="12.2" height="24.65" shape-rendering="crispEdges"/><rect fill="#004295" x="24.4" y="196.7" width="61" height="24.65" shape-rendering="crispEdges"/><rect fill="#004295" x="85.4" y="196.7" width="24.4" height="24.65" shape-rendering="crispEdges"/><rect fill="#004295" x="109.8" y="196.7" width="122" height="24.65" shape-rendering="crispEdges"/><rect fill="#004295" x="231.8" y="196.7" width="12.2" height="24.65" shape-rendering="crispEdges"/><rect fill="#121212" x="244" y="196.7" width="36.6" height="24.65" shape-rendering="crispEdges"/><rect fill="#121212" x="280.6" y="196.7" width="280.6" height="24.65" shape-rendering="crispEdges"/><rect fill="#121212" x="561.2" y="196.7" width="146.4" height="24.65" shape-rendering="crispEdges"/><rect fill="#003054" x="707.6" y="196.7" width="12.2" height="24.65" shape-rendering="crispEdges"/><rect fill="#121212" x="719.8" y="196.7" width="12.2" height="24.65" shape-rendering="crispEdges"/><rect fill="#121212" x="732" y="196.7" width="73.2" height="24.65" shape-rendering="crispEdges"/><rect fill="#121212" x="805.2" y="196.7" width="146.4" height="24.65" shape-rendering="crispEdges"/><rect fill="#003054" x="951.6" y="196.7" width="12.2" height="24.65" shape-rendering="crispEdges"/><rect fill="#121212" x="963.8" y="196.7" width="12.2" height="24.65" shape-rendering="crispEdges"/><rect fill="#121212" x="0" y="221.1" width="12.2" height="24.65" shape-rendering="crispEdges"/><rect fill="#004295" x="12.2" y="221.1" width="231.8" height="24.65" shape-rendering="crispEdges"/><rect fill="#121212" x="244" y="221.1" width="36.6" height="24.65" shape-rendering="crispEdges"/><rect fill="#121212" x="280.6" y="221.1" width="170.8" height="24.65" shape-rendering="crispEdges"/><rect fill="#121212" x="451.4" y="221.1" width="61" height="24.65" shape-rendering="crispEdges"/><rect fill="#121212" x="512.4" y="221.1" width="195.2" height="24.65" shape-rendering="crispEdges"/><rect fill="#003054" x="707.6" y="221.1" width="12.2" height="24.65" shape-rendering="crispEdges"/><rect fill="#121212" x="719.8" y="221.1" width="12.2" height="24.65" shape-rendering="crispEdges"/><rect fill="#1e1e1e" x="732" y="221.1" width="61" height="24.65" shape-rendering="crispEdges"/><rect fill="#1e1e1e" x="793" y="221.1" width="109.8" height="24.65" shape-rendering="crispEdges"/><rect fill="#1e1e1e" x="902.8" y="221.1" width="12.2" height="24.65" shape-rendering="crispEdges"/><rect fill="#1e1e1e" x="915" y="221.1" width="12.2" height="24.65" shape-rendering="crispEdges"/><rect fill="#121212" x="927.2" y="221.1" width="24.4" height="24.65" shape-rendering="crispEdges"/><rect fill="#003054" x="951.6" y="221.1" width="12.2" height="24.65" shape-rendering="crispEdges"/><rect fill="#121212" x="963.8" y="221.1" width="12.2" height="24.65" shape-rendering="crispEdges"/><rect fill="#121212" x="0" y="245.5" width="707.6" height="24.65" shape-rendering="crispEdges"/><rect fill="#003054" x="707.6" y="245.5" width="12.2" height="24.65" shape-rendering="crispEdges"/><rect fill="#121212" x="719.8" y="245.5" width="231.8" height="24.65" shape-rendering="crispEdges"/><rect fill="#003054" x="951.6" y="245.5" width="12.2" height="24.65" shape-rendering="crispEdges"/><rect fill="#121212" x="963.8" y="245.5" width="12.2" height="24.65" shape-rendering="crispEdges"/><rect fill="#121212" x="0" y="269.9" width="12.2" height="24.65" shape-rendering="crispEdges"/><rect fill="#1e1e1e" x="12.2" y="269.9" width="231.8" height="24.65" shape-rendering="crispEdges"/><rect fill="#121212" x="244" y="269.9" width="36.6" height="24.65" shape-rendering="crispEdges"/><rect fill="#121212" x="280.6" y="269.9" width="390.4" height="24.65" shape-rendering="crispEdges"/><rect fill="#121212" x="671" y="269.9" width="36.6" height="24.65" shape-rendering="crispEdges"/><rect fill="#003054" x="707.6" y="269.9" width="12.2" height="24.65" shape-rendering="crispEdges"/><rect fill="#121212" x="719.8" y="269.9" width="12.2" height="24.65" shape-rendering="crispEdges"/><rect fill="#121212" x="732" y="269.9" width="97.6" height="24.65" shape-rendering="crispEdges"/><rect fill="#121212" x="829.6" y="269.9" width="122" height="24.65" shape-rendering="crispEdges"/><rect fill="#003054" x="951.6" y="269.9" width="12.2" height="24.65" shape-rendering="crispEdges"/><rect fill="#121212" x="963.8" y="269.9" width="12.2" height="24.65" shape-rendering="crispEdges"/><rect fill="#121212" x="0" y="294.3" width="12.2" height="24.65" shape-rendering="crispEdges"/><rect fill="#1e1e1e" x="12.2" y="294.3" width="12.2" height="24.65" shape-rendering="crispEdges"/><rect fill="#1e1e1e" x="24.4" y="294.3" width="97.6" height="24.65" shape-rendering="crispEdges"/><rect fill="#1e1e1e" x="122" y="294.3" width="61" height="24.65" shape-rendering="crispEdges"/><rect fill="#1e1e1e" x="183" y="294.3" width="61" height="24.65" shape-rendering="crispEdges"/><rect fill="#121212" x="244" y="294.3" width="36.6" height="24.65" shape-rendering="crispEdges"/><rect fill="#121212" x="280.6" y="294.3" width="61" height="24.65" shape-rendering="crispEdges"/><rect fill="#121212" x="341.6" y="294.3" width="366" height="24.65" shape-rendering="crispEdges"/><rect fill="#003054" x="707.6" y="294.3" width="12.2" height="24.65" shape-rendering="crispEdges"/><rect fill="#121212" x="719.8" y="294.3" width="12.2" height="24.65" shape-rendering="crispEdges"/><rect fill="#1e1e1e" x="732" y="294.3" width="73.2" height="24.65" shape-rendering="crispEdges"/><rect fill="#1e1e1e" x="805.2" y="294.3" width="97.6" height="24.65" shape-rendering="crispEdges"/><rect fill="#1e1e1e" x="902.8" y="294.3" width="12.2" height="24.65" shape-rendering="crispEdges"/><rect fill="#1e1e1e" x="915" y="294.3" width="12.2" height="24.65" shape-rendering="crispEdges"/><rect fill="#121212" x="927.2" y="294.3" width="24.4" height="24.65" shape-rendering="crispEdges"/><rect fill="#000000" x="951.6" y="294.3" width="12.2" height="24.65" shape-rendering="crispEdges"/><rect fill="#121212" x="963.8" y="294.3" width="12.2" height="24.65" shape-rendering="crispEdges"/><rect fill="#121212" x="0" y="318.7" width="12.2" height="24.65" shape-rendering="crispEdges"/><rect fill="#1e1e1e" x="12.2" y="318.7" width="12.2" height="24.65" shape-rendering="crispEdges"/><rect fill="#1e1e1e" x="24.4" y="318.7" width="207.4" height="24.65" shape-rendering="crispEdges"/><rect fill="#1e1e1e" x="231.8" y="318.7" width="12.2" height="24.65" shape-rendering="crispEdges"/><rect fill="#121212" x="244" y="318.7" width="463.6" height="24.65" shape-rendering="crispEdges"/><rect fill="#003054" x="707.6" y="318.7" width="12.2" height="24.65" shape-rendering="crispEdges"/><rect fill="#121212" x="719.8" y="318.7" width="231.8" height="24.65" shape-rendering="crispEdges"/><rect fill="#000000" x="951.6" y="318.7" width="12.2" height="24.65" shape-rendering="crispEdges"/><rect fill="#121212" x="963.8" y="318.7" width="12.2" height="24.65" shape-rendering="crispEdges"/><rect fill="#121212" x="0" y="343.1" width="12.2" height="24.65" shape-rendering="crispEdges"/><rect fill="#1e1e1e" x="12.2" y="343.1" width="12.2" height="24.65" shape-rendering="crispEdges"/><rect fill="#1e1e1e" x="24.4" y="343.1" width="122" height="24.65" shape-rendering="crispEdges"/><rect fill="#1e1e1e" x="146.4" y="343.1" width="97.6" height="24.65" shape-rendering="crispEdges"/><rect fill="#121212" x="244" y="343.1" width="36.6" height="24.65" shape-rendering="crispEdges"/><rect fill="#121212" x="280.6" y="343.1" width="292.8" height="24.65" shape-rendering="crispEdges"/><rect fill="#121212" x="573.4" y="343.1" width="134.2" height="24.65" shape-rendering="crispEdges"/><rect fill="#003054" x="707.6" y="343.1" width="12.2" height="24.65" shape-rendering="crispEdges"/><rect fill="#121212" x="719.8" y="343.1" width="12.2" height="24.65" shape-rendering="crispEdges"/><rect fill="#121212" x="732" y="343.1" width="97.6" height="24.65" shape-rendering="crispEdges"/><rect fill="#121212" x="829.6" y="343.1" width="122" height="24.65" shape-rendering="crispEdges"/><rect fill="#000000" x="951.6" y="343.1" width="12.2" height="24.65" shape-rendering="crispEdges"/><rect fill="#121212" x="963.8" y="343.1" width="12.2" height="24.65" shape-rendering="crispEdges"/><rect fill="#121212" x="0" y="367.5" width="12.2" height="24.65" shape-rendering="crispEdges"/><rect fill="#1e1e1e" x="12.2" y="367.5" width="12.2" height="24.65" shape-rendering="crispEdges"/><rect fill="#1e1e1e" x="24.4" y="367.5" width="134.2" height="24.65" shape-rendering="crispEdges"/><rect fill="#1e1e1e" x="158.6" y="367.5" width="85.4" height="24.65" shape-rendering="crispEdges"/><rect fill="#121212" x="244" y="367.5" width="36.6" height="24.65" shape-rendering="crispEdges"/><rect fill="#121212" x="280.6" y="367.5" width="341.6" height="24.65" shape-rendering="crispEdges"/><rect fill="#121212" x="622.2" y="367.5" width="85.4" height="24.65" shape-rendering="crispEdges"/><rect fill="#003054" x="707.6" y="367.5" width="12.2" height="24.65" shape-rendering="crispEdges"/><rect fill="#121212" x="719.8" y="367.5" width="12.2" height="24.65" shape-rendering="crispEdges"/><rect fill="#1e1e1e" x="732" y="367.5" width="122" height="24.65" shape-rendering="crispEdges"/><rect fill="#1e1e1e" x="854" y="367.5" width="48.8" height="24.65" shape-rendering="crispEdges"/><rect fill="#1e1e1e" x="902.8" y="367.5" width="12.2" height="24.65" shape-rendering="crispEdges"/><rect fill="#1e1e1e" x="915" y="367.5" width="12.2" height="24.65" shape-rendering="crispEdges"/><rect fill="#121212" x="927.2" y="367.5" width="24.4" height="24.65" shape-rendering="crispEdges"/><rect fill="#000000" x="951.6" y="367.5" width="12.2" height="24.65" shape-rendering="crispEdges"/><rect fill="#121212" x="963.8" y="367.5" width="12.2" height="24.65" shape-rendering="crispEdges"/><rect fill="#121212" x="0" y="391.9" width="12.2" height="24.65" shape-rendering="crispEdges"/><rect fill="#1e1e1e" x="12.2" y="391.9" width="12.2" height="24.65" shape-rendering="crispEdges"/><rect fill="#1e1e1e" x="24.4" y="391.9" width="73.2" height="24.65" shape-rendering="crispEdges"/><rect fill="#1e1e1e" x="97.6" y="391.9" width="146.4" height="24.65" shape-rendering="crispEdges"/><rect fill="#121212" x="244" y="391.9" width="463.6" height="24.65" shape-rendering="crispEdges"/><rect fill="#003054" x="707.6" y="391.9" width="12.2" height="24.65" shape-rendering="crispEdges"/><rect fill="#121212" x="719.8" y="391.9" width="231.8" height="24.65" shape-rendering="crispEdges"/><rect fill="#000000" x="951.6" y="391.9" width="12.2" height="24.65" shape-rendering="crispEdges"/><rect fill="#121212" x="963.8" y="391.9" width="12.2" height="24.65" shape-rendering="crispEdges"/><rect fill="#121212" x="0" y="416.3" width="12.2" height="24.65" shape-rendering="crispEdges"/><rect fill="#1e1e1e" x="12.2" y="416.3" width="12.2" height="24.65" shape-rendering="crispEdges"/><rect fill="#1e1e1e" x="24.4" y="416.3" width="36.6" height="24.65" shape-rendering="crispEdges"/><rect fill="#1e1e1e" x="61" y="416.3" width="48.8" height="24.65" shape-rendering="crispEdges"/><rect fill="#1e1e1e" x="109.8" y="416.3" width="122" height="24.65" shape-rendering="crispEdges"/><rect fill="#1e1e1e" x="231.8" y="416.3" width="12.2" height="24.65" shape-rendering="crispEdges"/><rect fill="#121212" x="244" y="416.3" width="36.6" height="24.65" shape-rendering="crispEdges"/><rect fill="#121212" x="280.6" y="416.3" width="268.4" height="24.65" shape-rendering="crispEdges"/><rect fill="#121212" x="549" y="416.3" width="158.6" height="24.65" shape-rendering="crispEdges"/><rect fill="#003054" x="707.6" y="416.3" width="12.2" height="24.65" shape-rendering="crispEdges"/><rect fill="#121212" x="719.8" y="416.3" width="12.2" height="24.65" shape-rendering="crispEdges"/><rect fill="#121212" x="732" y="416.3" width="97.6" height="24.65" shape-rendering="crispEdges"/><rect fill="#121212" x="829.6" y="416.3" width="122" height="24.65" shape-rendering="crispEdges"/><rect fill="#000000" x="951.6" y="416.3" width="12.2" height="24.65" shape-rendering="crispEdges"/><rect fill="#121212" x="963.8" y="416.3" width="12.2" height="24.65" shape-rendering="crispEdges"/><rect fill="#121212" x="0" y="440.7" width="12.2" height="24.65" shape-rendering="crispEdges"/><rect fill="#1e1e1e" x="12.2" y="440.7" width="231.8" height="24.65" shape-rendering="crispEdges"/><rect fill="#121212" x="244" y="440.7" width="36.6" height="24.65" shape-rendering="crispEdges"/><rect fill="#121212" x="280.6" y="440.7" width="402.6" height="24.65" shape-rendering="crispEdges"/><rect fill="#121212" x="683.2" y="440.7" width="24.4" height="24.65" shape-rendering="crispEdges"/><rect fill="#000000" x="707.6" y="440.7" width="12.2" height="24.65" shape-rendering="crispEdges"/><rect fill="#121212" x="719.8" y="440.7" width="12.2" height="24.65" shape-rendering="crispEdges"/><rect fill="#171717" x="732" y="440.7" width="195.2" height="24.65" shape-rendering="crispEdges"/><rect fill="#121212" x="927.2" y="440.7" width="24.4" height="24.65" shape-rendering="crispEdges"/><rect fill="#000000" x="951.6" y="440.7" width="12.2" height="24.65" shape-rendering="crispEdges"/><rect fill="#121212" x="963.8" y="440.7" width="12.2" height="24.65" shape-rendering="crispEdges"/><rect fill="#121212" x="0" y="465.1" width="280.6" height="24.65" shape-rendering="crispEdges"/><rect fill="#121212" x="280.6" y="465.1" width="402.6" height="24.65" shape-rendering="crispEdges"/><rect fill="#121212" x="683.2" y="465.1" width="24.4" height="24.65" shape-rendering="crispEdges"/><rect fill="#000000" x="707.6" y="465.1" width="12.2" height="24.65" shape-rendering="crispEdges"/><rect fill="#121212" x="719.8" y="465.1" width="231.8" height="24.65" shape-rendering="crispEdges"/><rect fill="#000000" x="951.6" y="465.1" width="12.2" height="24.65" shape-rendering="crispEdges"/><rect fill="#121212" x="963.8" y="465.1" width="12.2" height="24.65" shape-rendering="crispEdges"/><rect fill="#121212" x="0" y="489.5" width="12.2" height="24.65" shape-rendering="crispEdges"/><rect fill="#1e1e1e" x="12.2" y="489.5" width="231.8" height="24.65" shape-rendering="crispEdges"/><rect fill="#121212" x="244" y="489.5" width="36.6" height="24.65" shape-rendering="crispEdges"/><rect fill="#121212" x="280.6" y="489.5" width="73.2" height="24.65" shape-rendering="crispEdges"/><rect fill="#121212" x="353.8" y="489.5" width="353.8" height="24.65" shape-rendering="crispEdges"/><rect fill="#000000" x="707.6" y="489.5" width="12.2" height="24.65" shape-rendering="crispEdges"/><rect fill="#121212" x="719.8" y="489.5" width="12.2" height="24.65" shape-rendering="crispEdges"/><rect fill="#121212" x="732" y="489.5" width="73.2" height="24.65" shape-rendering="crispEdges"/><rect fill="#121212" x="805.2" y="489.5" width="146.4" height="24.65" shape-rendering="crispEdges"/><rect fill="#000000" x="951.6" y="489.5" width="12.2" height="24.65" shape-rendering="crispEdges"/><rect fill="#121212" x="963.8" y="489.5" width="12.2" height="24.65" shape-rendering="crispEdges"/><rect fill="#121212" x="0" y="513.9" width="12.2" height="24.65" shape-rendering="crispEdges"/><rect fill="#121212" x="12.2" y="513.9" width="0" height="24.65" shape-rendering="crispEdges"/><rect fill="#121212" x="12.2" y="513.9" width="244" height="24.65" shape-rendering="crispEdges"/><rect fill="#121212" x="256.2" y="513.9" width="0" height="24.65" shape-rendering="crispEdges"/><rect fill="#121212" x="256.2" y="513.9" width="719.8" height="24.65" shape-rendering="crispEdges"/><rect fill="#121212" x="0" y="538.3" width="73.2" height="24.65" shape-rendering="crispEdges"/><rect fill="#121212" x="73.2" y="538.3" width="97.6" height="24.65" shape-rendering="crispEdges"/><rect fill="#121212" x="170.8" y="538.3" width="85.4" height="24.65" shape-rendering="crispEdges"/><rect fill="#121212" x="256.2" y="538.3" width="463.6" height="24.65" shape-rendering="crispEdges"/><rect fill="#121212" x="719.8" y="538.3" width="12.2" height="24.65" shape-rendering="crispEdges"/><rect fill="#121212" x="732" y="538.3" width="219.6" height="24.65" shape-rendering="crispEdges"/><rect fill="#121212" x="951.6" y="538.3" width="12.2" height="24.65" shape-rendering="crispEdges"/><rect fill="#121212" x="963.8" y="538.3" width="12.2" height="24.65" shape-rendering="crispEdges"/><rect fill="#121212" x="0" y="562.7" width="976" height="24.65" shape-rendering="crispEdges"/>
    <g class="terminal-892834916-matrix">
    <text class="terminal-892834916-r1" x="976" y="20" textLength="12.2" clip-path="url(#terminal-892834916-line-0)">
</text><text class="terminal-892834916-r2" x="24.4" y="44.4" textLength="61" clip-path="url(#terminal-892834916-line-1)">Basic</text><text class="terminal-892834916-r2" x="170.8" y="44.4" textLength="12.2" clip-path="url(#terminal-892834916-line-1)">▼</text><text class="terminal-892834916-r3" x="207.4" y="44.4" textLength="85.4" clip-path="url(#terminal-892834916-line-1)">Project</text><text class="terminal-892834916-r3" x="329.4" y="44.4" textLength="12.2" clip-path="url(#terminal-892834916-line-1)">▼</text><text class="terminal-892834916-r4" x="366" y="44.4" textLength="97.6" clip-path="url(#terminal-892834916-line-1)">Assignee</text><text class="terminal-892834916-r4" x="500.2" y="44.4" textLength="12.2" clip-path="url(#terminal-892834916-line-1)">▼</text><text class="terminal-892834916-r4" x="536.8" y="44.4" textLength="48.8" clip-path="url(#terminal-892834916-line-1)">Type</text><text class="terminal-892834916-r4" x="658.8" y="44.4" textLength="12.2" clip-path="url(#terminal-892834916-line-1)">▼</text><text class="terminal-892834916-r4" x="695.4" y="44.4" textLength="73.2" clip-path="url(#terminal-892834916-line-1)">Status</text><text class="terminal-892834916-r4" x="829.6" y="44.4" textLength="12.2" clip-path="url(#terminal-892834916-line-1)">▼</text><text class="terminal-892834916-r5" x="866.2" y="44.4" textLength="97.6" clip-path="url(#terminal-892834916-line-1)">&#160;Search&#160;</text><text class="terminal-892834916-r1" x="976" y="44.4" textLength="12.2" clip-path="url(#terminal-892834916-line-1)">
</text><text class="terminal-892834916-r1" x="976" y="68.8" textLength="12.2" clip-path="url(#terminal-892834916-line-2)">
</text><text class="terminal-892834916-r6" x="256.2" y="93.2" textLength="231.8" clip-path="url(#terminal-892834916-line-3)">Engineering&#160;Project</text><text class="terminal-892834916-r6" x="500.2" y="93.2" textLength="12.2" clip-path="url(#terminal-892834916-line-3)">/</text><text class="terminal-892834916-r7" x="512.4" y="93.2" textLength="170.8" clip-path="url(#terminal-892834916-line-3)">&#160;+&#160;Add&#160;parent&#160;</text><text class="terminal-892834916-r6" x="683.2" y="93.2" textLength="12.2" clip-path="url(#terminal-892834916-line-3)">/</text><text class="terminal-892834916-r6" x="707.6" y="93.2" textLength="134.2" clip-path="url(#terminal-892834916-line-3)">[Bug]&#160;ENG-8</text><text class="terminal-892834916-r1" x="976" y="93.2" textLength="12.2" clip-path="url(#terminal-892834916-line-3)">
</text><text class="terminal-892834916-r8" x="24.4" y="117.6" textLength="73.2" clip-path="url(#terminal-892834916-line-4)">[Bug]&#160;</text><text class="terminal-892834916-r8" x="97.6" y="117.6" textLength="61" clip-path="url(#terminal-892834916-line-4)">ENG-8</text><text class="terminal-892834916-r9" x="256.2" y="117.6" textLength="475.8" clip-path="url(#terminal-892834916-line-4)">Coordinate&#160;monster&#160;rollout&#160;dependencies</text><text class="terminal-892834916-r1" x="976" y="117.6" textLength="12.2" clip-path="url(#terminal-892834916-line-4)">
</text><text class="terminal-892834916-r8" x="24.4" y="142" textLength="122" clip-path="url(#terminal-892834916-line-5)">Coordinate</text><text class="terminal-892834916-r1" x="976" y="142" textLength="12.2" clip-path="url(#terminal-892834916-line-5)">
</text><text class="terminal-892834916-r8" x="24.4" y="166.4" textLength="183" clip-path="url(#terminal-892834916-line-6)">monster&#160;rollout</text><text class="terminal-892834916-r10" x="268.4" y="166.4" textLength="134.2" clip-path="url(#terminal-892834916-line-6)">Description</text><text class="terminal-892834916-r11" x="427" y="166.4" textLength="146.4" clip-path="url(#terminal-892834916-line-6)">Attachments&#160;</text><text class="terminal-892834916-r2" x="573.4" y="166.4" textLength="36.6" clip-path="url(#terminal-892834916-line-6)">&#160;2&#160;</text><text class="terminal-892834916-r11" x="634.4" y="166.4" textLength="97.6" clip-path="url(#terminal-892834916-line-6)">Subtasks</text><text class="terminal-892834916-r11" x="756.4" y="166.4" textLength="158.6" clip-path="url(#terminal-892834916-line-6)">Related&#160;Items</text><text class="terminal-892834916-r11" x="939.4" y="166.4" textLength="24.4" clip-path="url(#terminal-892834916-line-6)">We</text><text class="terminal-892834916-r1" x="976" y="166.4" textLength="12.2" clip-path="url(#terminal-892834916-line-6)">
</text><text class="terminal-892834916-r8" x="24.4" y="190.8" textLength="146.4" clip-path="url(#terminal-892834916-line-7)">dependencies</text><text class="terminal-892834916-r12" x="256.2" y="190.8" textLength="12.2" clip-path="url(#terminal-892834916-line-7)">╸</text><text class="terminal-892834916-r13" x="268.4" y="190.8" textLength="134.2" clip-path="url(#terminal-892834916-line-7)">━━━━━━━━━━━</text><text class="terminal-892834916-r12" x="402.6" y="190.8" textLength="561.2" clip-path="url(#terminal-892834916-line-7)">╺━━━━━━━━━━━━━━━━━━━━━━━━━━━━━━━━━━━━━━━━━━━━━</text><text class="terminal-892834916-r1" x="976" y="190.8" textLength="12.2" clip-path="url(#terminal-892834916-line-7)">
</text><text class="terminal-892834916-r8" x="24.4" y="215.2" textLength="61" clip-path="url(#terminal-892834916-line-8)">Medi…</text><text class="terminal-892834916-r8" x="109.8" y="215.2" textLength="122" clip-path="url(#terminal-892834916-line-8)">Rook&#160;Hydra</text><text class="terminal-892834916-r10" x="280.6" y="215.2" textLength="280.6" clip-path="url(#terminal-892834916-line-8)">Depends&#160;on&#160;motion&#160;alert</text><text class="terminal-892834916-r15" x="732" y="215.2" textLength="73.2" clip-path="url(#terminal-892834916-line-8)">Status</text><text class="terminal-892834916-r1" x="976" y="215.2" textLength="12.2" clip-path="url(#terminal-892834916-line-8)">
</text><text class="terminal-892834916-r10" x="280.6" y="239.6" textLength="170.8" clip-path="url(#terminal-892834916-line-9)">validation&#160;in&#160;</text><text class="terminal-892834916-r16" x="451.4" y="239.6" textLength="61" clip-path="url(#terminal-892834916-line-9)">ENG-7</text><text class="terminal-892834916-r3" x="732" y="239.6" textLength="61" clip-path="url(#terminal-892834916-line-9)">To&#160;Do</text><text class="terminal-892834916-r3" x="902.8" y="239.6" textLength="12.2" clip-path="url(#terminal-892834916-line-9)">▼</text><text class="terminal-892834916-r1" x="976" y="239.6" textLength="12.2" clip-path="url(#terminal-892834916-line-9)">
</text><text class="terminal-892834916-r1" x="976" y="264" textLength="12.2" clip-path="url(#terminal-892834916-line-10)">
</text><text class="terminal-892834916-r10" x="280.6" y="288.4" textLength="390.4" clip-path="url(#terminal-892834916-line-11)">Related&#160;support&#160;escalation&#160;item:</text><text class="terminal-892834916-r15" x="732" y="288.4" textLength="97.6" clip-path="url(#terminal-892834916-line-11)">Priority</text><text class="terminal-892834916-r17" x="951.6" y="288.4" textLength="12.2" clip-path="url(#terminal-892834916-line-11)">▃</text><text class="terminal-892834916-r1" x="976" y="288.4" textLength="12.2" clip-path="url(#terminal-892834916-line-11)">
</text><text class="terminal-892834916-r18" x="24.4" y="312.8" textLength="97.6" clip-path="url(#terminal-892834916-line-12)">[Story]&#160;</text><text class="terminal-892834916-r18" x="122" y="312.8" textLength="61" clip-path="url(#terminal-892834916-line-12)">ENG-7</text><text class="terminal-892834916-r16" x="280.6" y="312.8" textLength="61" clip-path="url(#terminal-892834916-line-12)">SUP-1</text><text class="terminal-892834916-r10" x="732" y="312.8" textLength="73.2" clip-path="url(#terminal-892834916-line-12)">Medium</text><text class="terminal-892834916-r3" x="902.8" y="312.8" textLength="12.2" clip-path="url(#terminal-892834916-line-12)">▼</text><text class="terminal-892834916-r1" x="976" y="312.8" textLength="12.2" clip-path="url(#terminal-892834916-line-12)">
</text><text class="terminal-892834916-r19" x="24.4" y="337.2" textLength="207.4" clip-path="url(#terminal-892834916-line-13)">Audit&#160;night-shift</text><text class="terminal-892834916-r1" x="976" y="337.2" textLength="12.2" clip-path="url(#terminal-892834916-line-13)">
</text><text class="terminal-892834916-r19" x="24.4" y="361.6" textLength="122" clip-path="url(#terminal-892834916-line-14)">alerts&#160;for</text><text class="terminal-892834916-r10" x="280.6" y="361.6" textLength="292.8" clip-path="url(#terminal-892834916-line-14)">Reference&#160;documentation:</text><text class="terminal-892834916-r15" x="732" y="361.6" textLength="97.6" clip-path="url(#terminal-892834916-line-14)">Assignee</text><text class="terminal-892834916-r1" x="976" y="361.6" textLength="12.2" clip-path="url(#terminal-892834916-line-14)">
</text><text class="terminal-892834916-r19" x="24.4" y="386" textLength="134.2" clip-path="url(#terminal-892834916-line-15)">monster&#160;bay</text><text class="terminal-892834916-r16" x="280.6" y="386" textLength="341.6" clip-path="url(#terminal-892834916-line-15)">Animatronic&#160;release&#160;playbook</text><text class="terminal-892834916-r10" x="732" y="386" textLength="122" clip-path="url(#terminal-892834916-line-15)">Rook&#160;Hydra</text><text class="terminal-892834916-r3" x="902.8" y="386" textLength="12.2" clip-path="url(#terminal-892834916-line-15)">▼</text><text class="terminal-892834916-r1" x="976" y="386" textLength="12.2" clip-path="url(#terminal-892834916-line-15)">
</text><text class="terminal-892834916-r19" x="24.4" y="410.4" textLength="73.2" clip-path="url(#terminal-892834916-line-16)">builds</text><text class="terminal-892834916-r1" x="976" y="410.4" textLength="12.2" clip-path="url(#terminal-892834916-line-16)">
</text><text class="terminal-892834916-r18" x="24.4" y="434.8" textLength="36.6" clip-path="url(#terminal-892834916-line-17)">Low</text><text class="terminal-892834916-r18" x="109.8" y="434.8" textLength="122" clip-path="url(#terminal-892834916-line-17)">Rook&#160;Hydra</text><text class="terminal-892834916-r10" x="280.6" y="434.8" textLength="268.4" clip-path="url(#terminal-892834916-line-17)">Nightly&#160;checklist&#160;URL:</text><text class="terminal-892834916-r17" x="707.6" y="434.8" textLength="12.2" clip-path="url(#terminal-892834916-line-17)">▄</text><text class="terminal-892834916-r15" x="732" y="434.8" textLength="97.6" clip-path="url(#terminal-892834916-line-17)">Reporter</text><text class="terminal-892834916-r1" x="976" y="434.8" textLength="12.2" clip-path="url(#terminal-892834916-line-17)">
</text><text class="terminal-892834916-r16" x="280.6" y="459.2" textLength="402.6" clip-path="url(#terminal-892834916-line-18)">https://docs.example.com/animatro</text><text class="terminal-892834916-r20" x="732" y="459.2" textLength="195.2" clip-path="url(#terminal-892834916-line-18)">Rook&#160;Hydra&#160;&#160;&#160;&#160;&#160;&#160;</text><text class="terminal-892834916-r1" x="976" y="459.2" textLength="12.2" clip-path="url(#terminal-892834916-line-18)">
</text><text class="terminal-892834916-r16" x="280.6" y="483.6" textLength="402.6" clip-path="url(#terminal-892834916-line-19)">nics/release-playbook/nightly-che</text><text class="terminal-892834916-r1" x="976" y="483.6" textLength="12.2" clip-path="url(#terminal-892834916-line-19)">
</text><text class="terminal-892834916-r16" x="280.6" y="508" textLength="73.2" clip-path="url(#terminal-892834916-line-20)">cklist</text><text class="terminal-892834916-r15" x="732" y="508" textLength="73.2" clip-path="url(#terminal-892834916-line-20)">Labels</text><text class="terminal-892834916-r1" x="976" y="508" textLength="12.2" clip-path="url(#terminal-892834916-line-20)">
</text><text class="terminal-892834916-r1" x="976" y="532.4" textLength="12.2" clip-path="url(#terminal-892834916-line-21)">
</text><text class="terminal-892834916-r21" x="73.2" y="556.8" textLength="97.6" clip-path="url(#terminal-892834916-line-22)">1/1&#160;(12)</text><text class="terminal-892834916-r23" x="732" y="556.8" textLength="219.6" clip-path="url(#terminal-892834916-line-22)">No&#160;pending&#160;changes</text><text class="terminal-892834916-r1" x="976" y="556.8" textLength="12.2" clip-path="url(#terminal-892834916-line-22)">
</text>
    </g>
    </g>
</svg>
