<svg class="rich-terminal" viewBox="0 0 994 635.5999999999999" xmlns="http://www.w3.org/2000/svg">
    <!-- Generated with Rich https://www.textualize.io -->
    <style>

    @font-face {
        font-family: "Fira Code";
        src: local("FiraCode-Regular"),
                url("https://cdnjs.cloudflare.com/ajax/libs/firacode/6.2.0/woff2/FiraCode-Regular.woff2") format("woff2"),
                url("https://cdnjs.cloudflare.com/ajax/libs/firacode/6.2.0/woff/FiraCode-Regular.woff") format("woff");
        font-style: normal;
        font-weight: 400;
    }
    @font-face {
        font-family: "Fira Code";
        src: local("FiraCode-Bold"),
                url("https://cdnjs.cloudflare.com/ajax/libs/firacode/6.2.0/woff2/FiraCode-Bold.woff2") format("woff2"),
                url("https://cdnjs.cloudflare.com/ajax/libs/firacode/6.2.0/woff/FiraCode-Bold.woff") format("woff");
        font-style: bold;
        font-weight: 700;
    }

    .terminal-567140554-matrix {
        font-family: Fira Code, monospace;
        font-size: 20px;
        line-height: 24.4px;
        font-variant-east-asian: full-width;
    }

    .terminal-567140554-title {
        font-size: 18px;
        font-weight: bold;
        font-family: arial;
    }

    .terminal-567140554-r1 { fill: #c5c8c6 }
.terminal-567140554-r2 { fill: #121212;font-weight: bold }
.terminal-567140554-r3 { fill: #737373 }
.terminal-567140554-r4 { fill: #e0e0e0 }
.terminal-567140554-r5 { fill: #7f7f7f }
.terminal-567140554-r6 { fill: #5f5f5f }
.terminal-567140554-r7 { fill: #f5ebdd;font-weight: bold }
.terminal-567140554-r8 { fill: #0178d4;font-weight: bold }
.terminal-567140554-r9 { fill: #9dacb7 }
.terminal-567140554-r10 { fill: #9dacb7;font-weight: bold }
.terminal-567140554-r11 { fill: #fea62b;font-weight: bold }
.terminal-567140554-r12 { fill: #e0e0e0;font-weight: bold }
.terminal-567140554-r13 { fill: #797979 }
.terminal-567140554-r14 { fill: #262626 }
.terminal-567140554-r15 { fill: #0178d4 }
.terminal-567140554-r16 { fill: #121212 }
.terminal-567140554-r17 { fill: #a0a0a0 }
.terminal-567140554-r18 { fill: #4ebf71 }
.terminal-567140554-r19 { fill: #000000 }
.terminal-567140554-r20 { fill: #a5a5a5 }
.terminal-567140554-r21 { fill: #a5a5a5;font-weight: bold }
.terminal-567140554-r22 { fill: #a2a2a2 }
    </style>

    <defs>
    <clipPath id="terminal-567140554-clip-terminal">
      <rect x="0" y="0" width="975.0" height="584.5999999999999" />
    </clipPath>
    <clipPath id="terminal-567140554-line-0">
    <rect x="0" y="1.5" width="976" height="24.65"/>
            </clipPath>
<clipPath id="terminal-567140554-line-1">
    <rect x="0" y="25.9" width="976" height="24.65"/>
            </clipPath>
<clipPath id="terminal-567140554-line-2">
    <rect x="0" y="50.3" width="976" height="24.65"/>
            </clipPath>
<clipPath id="terminal-567140554-line-3">
    <rect x="0" y="74.7" width="976" height="24.65"/>
            </clipPath>
<clipPath id="terminal-567140554-line-4">
    <rect x="0" y="99.1" width="976" height="24.65"/>
            </clipPath>
<clipPath id="terminal-567140554-line-5">
    <rect x="0" y="123.5" width="976" height="24.65"/>
            </clipPath>
<clipPath id="terminal-567140554-line-6">
    <rect x="0" y="147.9" width="976" height="24.65"/>
            </clipPath>
<clipPath id="terminal-567140554-line-7">
    <rect x="0" y="172.3" width="976" height="24.65"/>
            </clipPath>
<clipPath id="terminal-567140554-line-8">
    <rect x="0" y="196.7" width="976" height="24.65"/>
            </clipPath>
<clipPath id="terminal-567140554-line-9">
    <rect x="0" y="221.1" width="976" height="24.65"/>
            </clipPath>
<clipPath id="terminal-567140554-line-10">
    <rect x="0" y="245.5" width="976" height="24.65"/>
            </clipPath>
<clipPath id="terminal-567140554-line-11">
    <rect x="0" y="269.9" width="976" height="24.65"/>
            </clipPath>
<clipPath id="terminal-567140554-line-12">
    <rect x="0" y="294.3" width="976" height="24.65"/>
            </clipPath>
<clipPath id="terminal-567140554-line-13">
    <rect x="0" y="318.7" width="976" height="24.65"/>
            </clipPath>
<clipPath id="terminal-567140554-line-14">
    <rect x="0" y="343.1" width="976" height="24.65"/>
            </clipPath>
<clipPath id="terminal-567140554-line-15">
    <rect x="0" y="367.5" width="976" height="24.65"/>
            </clipPath>
<clipPath id="terminal-567140554-line-16">
    <rect x="0" y="391.9" width="976" height="24.65"/>
            </clipPath>
<clipPath id="terminal-567140554-line-17">
    <rect x="0" y="416.3" width="976" height="24.65"/>
            </clipPath>
<clipPath id="terminal-567140554-line-18">
    <rect x="0" y="440.7" width="976" height="24.65"/>
            </clipPath>
<clipPath id="terminal-567140554-line-19">
    <rect x="0" y="465.1" width="976" height="24.65"/>
            </clipPath>
<clipPath id="terminal-567140554-line-20">
    <rect x="0" y="489.5" width="976" height="24.65"/>
            </clipPath>
<clipPath id="terminal-567140554-line-21">
    <rect x="0" y="513.9" width="976" height="24.65"/>
            </clipPath>
<clipPath id="terminal-567140554-line-22">
    <rect x="0" y="538.3" width="976" height="24.65"/>
            </clipPath>
    </defs>

    <rect fill="#292929" stroke="rgba(255,255,255,0.35)" stroke-width="1" x="1" y="1" width="992" height="633.6" rx="8"/><text class="terminal-567140554-title" fill="#c5c8c6" text-anchor="middle" x="496" y="27">gojeera</text>
            <g transform="translate(26,22)">
            <circle cx="0" cy="0" r="7" fill="#ff5f57"/>
            <circle cx="22" cy="0" r="7" fill="#febc2e"/>
            <circle cx="44" cy="0" r="7" fill="#28c840"/>
            </g>
        
    <g transform="translate(9, 41)" clip-path="url(#terminal-567140554-clip-terminal)">
    <rect fill="#121212" x="0" y="1.5" width="976" height="24.65" shape-rendering="crispEdges"/><rect fill="#121212" x="0" y="25.9" width="12.2" height="24.65" shape-rendering="crispEdges"/><rect fill="#b86b00" x="12.2" y="25.9" width="12.2" height="24.65" shape-rendering="crispEdges"/><rect fill="#b86b00" x="24.4" y="25.9" width="61" height="24.65" shape-rendering="crispEdges"/><rect fill="#b86b00" x="85.4" y="25.9" width="85.4" height="24.65" shape-rendering="crispEdges"/><rect fill="#b86b00" x="170.8" y="25.9" width="12.2" height="24.65" shape-rendering="crispEdges"/><rect fill="#b86b00" x="183" y="25.9" width="12.2" height="24.65" shape-rendering="crispEdges"/><rect fill="#121212" x="195.2" y="25.9" width="12.2" height="24.65" shape-rendering="crispEdges"/><rect fill="#1e1e1e" x="207.4" y="25.9" width="36.6" height="24.65" shape-rendering="crispEdges"/><rect fill="#1e1e1e" x="244" y="25.9" width="73.2" height="24.65" shape-rendering="crispEdges"/><rect fill="#121212" x="317.2" y="25.9" width="12.2" height="24.65" shape-rendering="crispEdges"/><rect fill="#1e1e1e" x="329.4" y="25.9" width="85.4" height="24.65" shape-rendering="crispEdges"/><rect fill="#1e1e1e" x="414.8" y="25.9" width="12.2" height="24.65" shape-rendering="crispEdges"/><rect fill="#1e1e1e" x="427" y="25.9" width="12.2" height="24.65" shape-rendering="crispEdges"/><rect fill="#1e1e1e" x="439.2" y="25.9" width="12.2" height="24.65" shape-rendering="crispEdges"/><rect fill="#121212" x="451.4" y="25.9" width="12.2" height="24.65" shape-rendering="crispEdges"/><rect fill="#1a1a1a" x="463.6" y="25.9" width="85.4" height="24.65" shape-rendering="crispEdges"/><rect fill="#1a1a1a" x="549" y="25.9" width="12.2" height="24.65" shape-rendering="crispEdges"/><rect fill="#1a1a1a" x="561.2" y="25.9" width="12.2" height="24.65" shape-rendering="crispEdges"/><rect fill="#171717" x="573.4" y="25.9" width="12.2" height="24.65" shape-rendering="crispEdges"/><rect fill="#121212" x="585.6" y="25.9" width="12.2" height="24.65" shape-rendering="crispEdges"/><rect fill="#1a1a1a" x="597.8" y="25.9" width="48.8" height="24.65" shape-rendering="crispEdges"/><rect fill="#1a1a1a" x="646.6" y="25.9" width="48.8" height="24.65" shape-rendering="crispEdges"/><rect fill="#1a1a1a" x="695.4" y="25.9" width="12.2" height="24.65" shape-rendering="crispEdges"/><rect fill="#171717" x="707.6" y="25.9" width="12.2" height="24.65" shape-rendering="crispEdges"/><rect fill="#121212" x="719.8" y="25.9" width="12.2" height="24.65" shape-rendering="crispEdges"/><rect fill="#1a1a1a" x="732" y="25.9" width="73.2" height="24.65" shape-rendering="crispEdges"/><rect fill="#1a1a1a" x="805.2" y="25.9" width="24.4" height="24.65" shape-rendering="crispEdges"/><rect fill="#1a1a1a" x="829.6" y="25.9" width="12.2" height="24.65" shape-rendering="crispEdges"/><rect fill="#171717" x="841.8" y="25.9" width="12.2" height="24.65" shape-rendering="crispEdges"/><rect fill="#121212" x="854" y="25.9" width="12.2" height="24.65" shape-rendering="crispEdges"/><rect fill="#b86b00" x="866.2" y="25.9" width="97.6" height="24.65" shape-rendering="crispEdges"/><rect fill="#121212" x="963.8" y="25.9" width="12.2" height="24.65" shape-rendering="crispEdges"/><rect fill="#121212" x="0" y="50.3" width="976" height="24.65" shape-rendering="crispEdges"/><rect fill="#121212" x="0" y="74.7" width="12.2" height="24.65" shape-rendering="crispEdges"/><rect fill="#0c304c" x="12.2" y="74.7" width="231.8" height="24.65" shape-rendering="crispEdges"/><rect fill="#121212" x="244" y="74.7" width="12.2" height="24.65" shape-rendering="crispEdges"/><rect fill="#121212" x="256.2" y="74.7" width="427" height="24.65" shape-rendering="crispEdges"/><rect fill="#121212" x="683.2" y="74.7" width="292.8" height="24.65" shape-rendering="crispEdges"/><rect fill="#121212" x="0" y="99.1" width="12.2" height="24.65" shape-rendering="crispEdges"/><rect fill="#0c304c" x="12.2" y="99.1" width="12.2" height="24.65" shape-rendering="crispEdges"/><rect fill="#0c304c" x="24.4" y="99.1" width="73.2" height="24.65" shape-rendering="crispEdges"/><rect fill="#0c304c" x="97.6" y="99.1" width="12.2" height="24.65" shape-rendering="crispEdges"/><rect fill="#0c304c" x="109.8" y="99.1" width="122" height="24.65" shape-rendering="crispEdges"/><rect fill="#0c304c" x="231.8" y="99.1" width="12.2" height="24.65" shape-rendering="crispEdges"/><rect fill="#121212" x="244" y="99.1" width="12.2" height="24.65" shape-rendering="crispEdges"/><rect fill="#121212" x="256.2" y="99.1" width="634.4" height="24.65" shape-rendering="crispEdges"/><rect fill="#121212" x="890.6" y="99.1" width="61" height="24.65" shape-rendering="crispEdges"/><rect fill="#121212" x="951.6" y="99.1" width="24.4" height="24.65" shape-rendering="crispEdges"/><rect fill="#121212" x="0" y="123.5" width="12.2" height="24.65" shape-rendering="crispEdges"/><rect fill="#0c304c" x="12.2" y="123.5" width="12.2" height="24.65" shape-rendering="crispEdges"/><rect fill="#0c304c" x="24.4" y="123.5" width="146.4" height="24.65" shape-rendering="crispEdges"/><rect fill="#0c304c" x="170.8" y="123.5" width="73.2" height="24.65" shape-rendering="crispEdges"/><rect fill="#121212" x="244" y="123.5" width="732" height="24.65" shape-rendering="crispEdges"/><rect fill="#121212" x="0" y="147.9" width="12.2" height="24.65" shape-rendering="crispEdges"/><rect fill="#0c304c" x="12.2" y="147.9" width="12.2" height="24.65" shape-rendering="crispEdges"/><rect fill="#0c304c" x="24.4" y="147.9" width="195.2" height="24.65" shape-rendering="crispEdges"/><rect fill="#0c304c" x="219.6" y="147.9" width="24.4" height="24.65" shape-rendering="crispEdges"/><rect fill="#121212" x="244" y="147.9" width="24.4" height="24.65" shape-rendering="crispEdges"/><rect fill="#121212" x="268.4" y="147.9" width="134.2" height="24.65" shape-rendering="crispEdges"/><rect fill="#121212" x="402.6" y="147.9" width="24.4" height="24.65" shape-rendering="crispEdges"/><rect fill="#121212" x="427" y="147.9" width="146.4" height="24.65" shape-rendering="crispEdges"/><rect fill="#0178d4" x="573.4" y="147.9" width="36.6" height="24.65" shape-rendering="crispEdges"/><rect fill="#121212" x="610" y="147.9" width="24.4" height="24.65" shape-rendering="crispEdges"/><rect fill="#121212" x="634.4" y="147.9" width="109.8" height="24.65" shape-rendering="crispEdges"/><rect fill="#0178d4" x="744.2" y="147.9" width="36.6" height="24.65" shape-rendering="crispEdges"/><rect fill="#121212" x="780.8" y="147.9" width="24.4" height="24.65" shape-rendering="crispEdges"/><rect fill="#121212" x="805.2" y="147.9" width="158.6" height="24.65" shape-rendering="crispEdges"/><rect fill="#121212" x="963.8" y="147.9" width="12.2" height="24.65" shape-rendering="crispEdges"/><rect fill="#121212" x="0" y="172.3" width="12.2" height="24.65" shape-rendering="crispEdges"/><rect fill="#0c304c" x="12.2" y="172.3" width="12.2" height="24.65" shape-rendering="crispEdges"/><rect fill="#0c304c" x="24.4" y="172.3" width="134.2" height="24.65" shape-rendering="crispEdges"/><rect fill="#0c304c" x="158.6" y="172.3" width="85.4" height="24.65" shape-rendering="crispEdges"/><rect fill="#121212" x="244" y="172.3" width="12.2" height="24.65" shape-rendering="crispEdges"/><rect fill="#121212" x="256.2" y="172.3" width="12.2" height="24.65" shape-rendering="crispEdges"/><rect fill="#121212" x="268.4" y="172.3" width="134.2" height="24.65" shape-rendering="crispEdges"/><rect fill="#121212" x="402.6" y="172.3" width="561.2" height="24.65" shape-rendering="crispEdges"/><rect fill="#121212" x="963.8" y="172.3" width="12.2" height="24.65" shape-rendering="crispEdges"/><rect fill="#121212" x="0" y="196.7" width="12.2" height="24.65" shape-rendering="crispEdges"/><rect fill="#0c304c" x="12.2" y="196.7" width="12.2" height="24.65" shape-rendering="crispEdges"/><rect fill="#0c304c" x="24.4" y="196.7" width="122" height="24.65" shape-rendering="crispEdges"/><rect fill="#0c304c" x="146.4" y="196.7" width="97.6" height="24.65" shape-rendering="crispEdges"/><rect fill="#121212" x="244" y="196.7" width="36.6" height="24.65" shape-rendering="crispEdges"/><rect fill="#121212" x="280.6" y="196.7" width="329.4" height="24.65" shape-rendering="crispEdges"/><rect fill="#121212" x="610" y="196.7" width="122" height="24.65" shape-rendering="crispEdges"/><rect fill="#121212" x="732" y="196.7" width="109.8" height="24.65" shape-rendering="crispEdges"/><rect fill="#121212" x="841.8" y="196.7" width="109.8" height="24.65" shape-rendering="crispEdges"/><rect fill="#003054" x="951.6" y="196.7" width="12.2" height="24.65" shape-rendering="crispEdges"/><rect fill="#121212" x="963.8" y="196.7" width="12.2" height="24.65" shape-rendering="crispEdges"/><rect fill="#121212" x="0" y="221.1" width="12.2" height="24.65" shape-rendering="crispEdges"/><rect fill="#0c304c" x="12.2" y="221.1" width="12.2" height="24.65" shape-rendering="crispEdges"/><rect fill="#0c304c" x="24.4" y="221.1" width="207.4" height="24.65" shape-rendering="crispEdges"/><rect fill="#0c304c" x="231.8" y="221.1" width="12.2" height="24.65" shape-rendering="crispEdges"/><rect fill="#121212" x="244" y="221.1" width="36.6" height="24.65" shape-rendering="crispEdges"/><rect fill="#121212" x="280.6" y="221.1" width="353.8" height="24.65" shape-rendering="crispEdges"/><rect fill="#121212" x="634.4" y="221.1" width="97.6" height="24.65" shape-rendering="crispEdges"/><rect fill="#121212" x="732" y="221.1" width="146.4" height="24.65" shape-rendering="crispEdges"/><rect fill="#121212" x="878.4" y="221.1" width="73.2" height="24.65" shape-rendering="crispEdges"/><rect fill="#003054" x="951.6" y="221.1" width="12.2" height="24.65" shape-rendering="crispEdges"/><rect fill="#121212" x="963.8" y="221.1" width="12.2" height="24.65" shape-rendering="crispEdges"/><rect fill="#121212" x="0" y="245.5" width="12.2" height="24.65" shape-rendering="crispEdges"/><rect fill="#0c304c" x="12.2" y="245.5" width="231.8" height="24.65" shape-rendering="crispEdges"/><rect fill="#121212" x="244" y="245.5" width="36.6" height="24.65" shape-rendering="crispEdges"/><rect fill="#121212" x="280.6" y="245.5" width="341.6" height="24.65" shape-rendering="crispEdges"/><rect fill="#121212" x="622.2" y="245.5" width="109.8" height="24.65" shape-rendering="crispEdges"/><rect fill="#121212" x="732" y="245.5" width="195.2" height="24.65" shape-rendering="crispEdges"/><rect fill="#121212" x="927.2" y="245.5" width="24.4" height="24.65" shape-rendering="crispEdges"/><rect fill="#003054" x="951.6" y="245.5" width="12.2" height="24.65" shape-rendering="crispEdges"/><rect fill="#121212" x="963.8" y="245.5" width="12.2" height="24.65" shape-rendering="crispEdges"/><rect fill="#121212" x="0" y="269.9" width="12.2" height="24.65" shape-rendering="crispEdges"/><rect fill="#121212" x="12.2" y="269.9" width="0" height="24.65" shape-rendering="crispEdges"/><rect fill="#121212" x="12.2" y="269.9" width="268.4" height="24.65" shape-rendering="crispEdges"/><rect fill="#121212" x="280.6" y="269.9" width="85.4" height="24.65" shape-rendering="crispEdges"/><rect fill="#121212" x="366" y="269.9" width="366" height="24.65" shape-rendering="crispEdges"/><rect fill="#121212" x="732" y="269.9" width="73.2" height="24.65" shape-rendering="crispEdges"/><rect fill="#121212" x="805.2" y="269.9" width="146.4" height="24.65" shape-rendering="crispEdges"/><rect fill="#003054" x="951.6" y="269.9" width="12.2" height="24.65" shape-rendering="crispEdges"/><rect fill="#121212" x="963.8" y="269.9" width="12.2" height="24.65" shape-rendering="crispEdges"/><rect fill="#121212" x="0" y="294.3" width="12.2" height="24.65" shape-rendering="crispEdges"/><rect fill="#1e1e1e" x="12.2" y="294.3" width="231.8" height="24.65" shape-rendering="crispEdges"/><rect fill="#121212" x="244" y="294.3" width="488" height="24.65" shape-rendering="crispEdges"/><rect fill="#1e1e1e" x="732" y="294.3" width="48.8" height="24.65" shape-rendering="crispEdges"/><rect fill="#1e1e1e" x="780.8" y="294.3" width="146.4" height="24.65" shape-rendering="crispEdges"/><rect fill="#121212" x="927.2" y="294.3" width="24.4" height="24.65" shape-rendering="crispEdges"/><rect fill="#000000" x="951.6" y="294.3" width="12.2" height="24.65" shape-rendering="crispEdges"/><rect fill="#121212" x="963.8" y="294.3" width="12.2" height="24.65" shape-rendering="crispEdges"/><rect fill="#121212" x="0" y="318.7" width="12.2" height="24.65" shape-rendering="crispEdges"/><rect fill="#1e1e1e" x="12.2" y="318.7" width="12.2" height="24.65" shape-rendering="crispEdges"/><rect fill="#1e1e1e" x="24.4" y="318.7" width="73.2" height="24.65" shape-rendering="crispEdges"/><rect fill="#1e1e1e" x="97.6" y="318.7" width="12.2" height="24.65" shape-rendering="crispEdges"/><rect fill="#1e1e1e" x="109.8" y="318.7" width="122" height="24.65" shape-rendering="crispEdges"/><rect fill="#1e1e1e" x="231.8" y="318.7" width="12.2" height="24.65" shape-rendering="crispEdges"/><rect fill="#121212" x="244" y="318.7" width="36.6" height="24.65" shape-rendering="crispEdges"/><rect fill="#121212" x="280.6" y="318.7" width="402.6" height="24.65" shape-rendering="crispEdges"/><rect fill="#121212" x="683.2" y="318.7" width="268.4" height="24.65" shape-rendering="crispEdges"/><rect fill="#000000" x="951.6" y="318.7" width="12.2" height="24.65" shape-rendering="crispEdges"/><rect fill="#121212" x="963.8" y="318.7" width="12.2" height="24.65" shape-rendering="crispEdges"/><rect fill="#121212" x="0" y="343.1" width="12.2" height="24.65" shape-rendering="crispEdges"/><rect fill="#1e1e1e" x="12.2" y="343.1" width="12.2" height="24.65" shape-rendering="crispEdges"/><rect fill="#1e1e1e" x="24.4" y="343.1" width="109.8" height="24.65" shape-rendering="crispEdges"/><rect fill="#1e1e1e" x="134.2" y="343.1" width="109.8" height="24.65" shape-rendering="crispEdges"/><rect fill="#121212" x="244" y="343.1" width="36.6" height="24.65" shape-rendering="crispEdges"/><rect fill="#121212" x="280.6" y="343.1" width="378.2" height="24.65" shape-rendering="crispEdges"/><rect fill="#121212" x="658.8" y="343.1" width="73.2" height="24.65" shape-rendering="crispEdges"/><rect fill="#121212" x="732" y="343.1" width="122" height="24.65" shape-rendering="crispEdges"/><rect fill="#121212" x="854" y="343.1" width="97.6" height="24.65" shape-rendering="crispEdges"/><rect fill="#000000" x="951.6" y="343.1" width="12.2" height="24.65" shape-rendering="crispEdges"/><rect fill="#121212" x="963.8" y="343.1" width="12.2" height="24.65" shape-rendering="crispEdges"/><rect fill="#121212" x="0" y="367.5" width="12.2" height="24.65" shape-rendering="crispEdges"/><rect fill="#1e1e1e" x="12.2" y="367.5" width="12.2" height="24.65" shape-rendering="crispEdges"/><rect fill="#1e1e1e" x="24.4" y="367.5" width="170.8" height="24.65" shape-rendering="crispEdges"/><rect fill="#1e1e1e" x="195.2" y="367.5" width="48.8" height="24.65" shape-rendering="crispEdges"/><rect fill="#121212" x="244" y="367.5" width="36.6" height="24.65" shape-rendering="crispEdges"/><rect fill="#121212" x="280.6" y="367.5" width="317.2" height="24.65" shape-rendering="crispEdges"/><rect fill="#121212" x="597.8" y="367.5" width="134.2" height="24.65" shape-rendering="crispEdges"/><rect fill="#171717" x="732" y="367.5" width="195.2" height="24.65" shape-rendering="crispEdges"/><rect fill="#121212" x="927.2" y="367.5" width="24.4" height="24.65" shape-rendering="crispEdges"/><rect fill="#000000" x="951.6" y="367.5" width="12.2" height="24.65" shape-rendering="crispEdges"/><rect fill="#121212" x="963.8" y="367.5" width="12.2" height="24.65" shape-rendering="crispEdges"/><rect fill="#121212" x="0" y="391.9" width="12.2" height="24.65" shape-rendering="crispEdges"/><rect fill="#1e1e1e" x="12.2" y="391.9" width="12.2" height="24.65" shape-rendering="crispEdges"/><rect fill="#1e1e1e" x="24.4" y="391.9" width="207.4" height="24.65" shape-rendering="crispEdges"/><rect fill="#1e1e1e" x="231.8" y="391.9" width="12.2" height="24.65" shape-rendering="crispEdges"/><rect fill="#121212" x="244" y="391.9" width="707.6" height="24.65" shape-rendering="crispEdges"/><rect fill="#000000" x="951.6" y="391.9" width="12.2" height="24.65" shape-rendering="crispEdges"/><rect fill="#121212" x="963.8" y="391.9" width="12.2" height="24.65" shape-rendering="crispEdges"/><rect fill="#121212" x="0" y="416.3" width="12.2" height="24.65" shape-rendering="crispEdges"/><rect fill="#1e1e1e" x="12.2" y="416.3" width="12.2" height="24.65" shape-rendering="crispEdges"/><rect fill="#1e1e1e" x="24.4" y="416.3" width="134.2" height="24.65" shape-rendering="crispEdges"/><rect fill="#1e1e1e" x="158.6" y="416.3" width="85.4" height="24.65" shape-rendering="crispEdges"/><rect fill="#121212" x="244" y="416.3" width="488" height="24.65" shape-rendering="crispEdges"/><rect fill="#121212" x="732" y="416.3" width="97.6" height="24.65" shape-rendering="crispEdges"/><rect fill="#121212" x="829.6" y="416.3" width="122" height="24.65" shape-rendering="crispEdges"/><rect fill="#000000" x="951.6" y="416.3" width="12.2" height="24.65" shape-rendering="crispEdges"/><rect fill="#121212" x="963.8" y="416.3" width="12.2" height="24.65" shape-rendering="crispEdges"/><rect fill="#121212" x="0" y="440.7" width="12.2" height="24.65" shape-rendering="crispEdges"/><rect fill="#1e1e1e" x="12.2" y="440.7" width="12.2" height="24.65" shape-rendering="crispEdges"/><rect fill="#1e1e1e" x="24.4" y="440.7" width="48.8" height="24.65" shape-rendering="crispEdges"/><rect fill="#1e1e1e" x="73.2" y="440.7" width="48.8" height="24.65" shape-rendering="crispEdges"/><rect fill="#1e1e1e" x="122" y="440.7" width="109.8" height="24.65" shape-rendering="crispEdges"/><rect fill="#1e1e1e" x="231.8" y="440.7" width="12.2" height="24.65" shape-rendering="crispEdges"/><rect fill="#121212" x="244" y="440.7" width="488" height="24.65" shape-rendering="crispEdges"/><rect fill="#1e1e1e" x="732" y="440.7" width="97.6" height="24.65" shape-rendering="crispEdges"/><rect fill="#1e1e1e" x="829.6" y="440.7" width="97.6" height="24.65" shape-rendering="crispEdges"/><rect fill="#121212" x="927.2" y="440.7" width="24.4" height="24.65" shape-rendering="crispEdges"/><rect fill="#000000" x="951.6" y="440.7" width="12.2" height="24.65" shape-rendering="crispEdges"/><rect fill="#121212" x="963.8" y="440.7" width="12.2" height="24.65" shape-rendering="crispEdges"/><rect fill="#121212" x="0" y="465.1" width="12.2" height="24.65" shape-rendering="crispEdges"/><rect fill="#1e1e1e" x="12.2" y="465.1" width="231.8" height="24.65" shape-rendering="crispEdges"/><rect fill="#121212" x="244" y="465.1" width="707.6" height="24.65" shape-rendering="crispEdges"/><rect fill="#000000" x="951.6" y="465.1" width="12.2" height="24.65" shape-rendering="crispEdges"/><rect fill="#121212" x="963.8" y="465.1" width="12.2" height="24.65" shape-rendering="crispEdges"/><rect fill="#121212" x="0" y="489.5" width="12.2" height="24.65" shape-rendering="crispEdges"/><rect fill="#121212" x="12.2" y="489.5" width="0" height="24.65" shape-rendering="crispEdges"/><rect fill="#121212" x="12.2" y="489.5" width="719.8" height="24.65" shape-rendering="crispEdges"/><rect fill="#121212" x="732" y="489.5" width="97.6" height="24.65" shape-rendering="crispEdges"/><rect fill="#121212" x="829.6" y="489.5" width="122" height="24.65" shape-rendering="crispEdges"/><rect fill="#000000" x="951.6" y="489.5" width="12.2" height="24.65" shape-rendering="crispEdges"/><rect fill="#121212" x="963.8" y="489.5" width="12.2" height="24.65" shape-rendering="crispEdges"/><rect fill="#121212" x="0" y="513.9" width="12.2" height="24.65" shape-rendering="crispEdges"/><rect fill="#121212" x="12.2" y="513.9" width="0" height="24.65" shape-rendering="crispEdges"/><rect fill="#121212" x="12.2" y="513.9" width="244" height="24.65" shape-rendering="crispEdges"/><rect fill="#121212" x="256.2" y="513.9" width="0" height="24.65" shape-rendering="crispEdges"/><rect fill="#121212" x="256.2" y="513.9" width="719.8" height="24.65" shape-rendering="crispEdges"/><rect fill="#121212" x="0" y="538.3" width="85.4" height="24.65" shape-rendering="crispEdges"/><rect fill="#121212" x="85.4" y="538.3" width="85.4" height="24.65" shape-rendering="crispEdges"/><rect fill="#121212" x="170.8" y="538.3" width="85.4" height="24.65" shape-rendering="crispEdges"/><rect fill="#121212" x="256.2" y="538.3" width="463.6" height="24.65" shape-rendering="crispEdges"/><rect fill="#121212" x="719.8" y="538.3" width="256.2" height="24.65" shape-rendering="crispEdges"/><rect fill="#121212" x="0" y="562.7" width="976" height="24.65" shape-rendering="crispEdges"/>
    <g class="terminal-567140554-matrix">
    <text class="terminal-567140554-r1" x="976" y="20" textLength="12.2" clip-path="url(#terminal-567140554-line-0)">
</text><text class="terminal-567140554-r2" x="24.4" y="44.4" textLength="61" clip-path="url(#terminal-567140554-line-1)">Basic</text><text class="terminal-567140554-r2" x="170.8" y="44.4" textLength="12.2" clip-path="url(#terminal-567140554-line-1)">▼</text><text class="terminal-567140554-r3" x="207.4" y="44.4" textLength="36.6" clip-path="url(#terminal-567140554-line-1)">KEY</text><text class="terminal-567140554-r5" x="329.4" y="44.4" textLength="85.4" clip-path="url(#terminal-567140554-line-1)">Project</text><text class="terminal-567140554-r5" x="427" y="44.4" textLength="12.2" clip-path="url(#terminal-567140554-line-1)">▼</text><text class="terminal-567140554-r6" x="463.6" y="44.4" textLength="85.4" clip-path="url(#terminal-567140554-line-1)">Assigne</text><text class="terminal-567140554-r6" x="561.2" y="44.4" textLength="12.2" clip-path="url(#terminal-567140554-line-1)">▼</text><text class="terminal-567140554-r6" x="597.8" y="44.4" textLength="48.8" clip-path="url(#terminal-567140554-line-1)">Type</text><text class="terminal-567140554-r6" x="695.4" y="44.4" textLength="12.2" clip-path="url(#terminal-567140554-line-1)">▼</text><text class="terminal-567140554-r6" x="732" y="44.4" textLength="73.2" clip-path="url(#terminal-567140554-line-1)">Status</text><text class="terminal-567140554-r6" x="829.6" y="44.4" textLength="12.2" clip-path="url(#terminal-567140554-line-1)">▼</text><text class="terminal-567140554-r7" x="866.2" y="44.4" textLength="97.6" clip-path="url(#terminal-567140554-line-1)">&#160;Search&#160;</text><text class="terminal-567140554-r1" x="976" y="44.4" textLength="12.2" clip-path="url(#terminal-567140554-line-1)">
</text><text class="terminal-567140554-r1" x="976" y="68.8" textLength="12.2" clip-path="url(#terminal-567140554-line-2)">
</text><text class="terminal-567140554-r8" x="256.2" y="93.2" textLength="427" clip-path="url(#terminal-567140554-line-3)">Test&#160;Project&#160;/&#160;[Task]&#160;EXAMPLE-19539</text><text class="terminal-567140554-r1" x="976" y="93.2" textLength="12.2" clip-path="url(#terminal-567140554-line-3)">
</text><text class="terminal-567140554-r9" x="24.4" y="117.6" textLength="73.2" clip-path="url(#terminal-567140554-line-4)">[Task]</text><text class="terminal-567140554-r10" x="109.8" y="117.6" textLength="122" clip-path="url(#terminal-567140554-line-4)">EXAMPLE-19</text><text class="terminal-567140554-r11" x="256.2" y="117.6" textLength="634.4" clip-path="url(#terminal-567140554-line-4)">Update&#160;merge&#160;request&#160;approval&#160;settings&#160;in&#160;repository</text><text class="terminal-567140554-r1" x="976" y="117.6" textLength="12.2" clip-path="url(#terminal-567140554-line-4)">
</text><text class="terminal-567140554-r12" x="24.4" y="142" textLength="146.4" clip-path="url(#terminal-567140554-line-5)">Update&#160;merge</text><text class="terminal-567140554-r1" x="976" y="142" textLength="12.2" clip-path="url(#terminal-567140554-line-5)">
</text><text class="terminal-567140554-r12" x="24.4" y="166.4" textLength="195.2" clip-path="url(#terminal-567140554-line-6)">request&#160;approval</text><text class="terminal-567140554-r4" x="268.4" y="166.4" textLength="134.2" clip-path="url(#terminal-567140554-line-6)">Description</text><text class="terminal-567140554-r13" x="427" y="166.4" textLength="146.4" clip-path="url(#terminal-567140554-line-6)">Attachments&#160;</text><text class="terminal-567140554-r2" x="573.4" y="166.4" textLength="36.6" clip-path="url(#terminal-567140554-line-6)">&#160;1&#160;</text><text class="terminal-567140554-r13" x="634.4" y="166.4" textLength="109.8" clip-path="url(#terminal-567140554-line-6)">Subtasks&#160;</text><text class="terminal-567140554-r2" x="744.2" y="166.4" textLength="36.6" clip-path="url(#terminal-567140554-line-6)">&#160;5&#160;</text><text class="terminal-567140554-r13" x="805.2" y="166.4" textLength="158.6" clip-path="url(#terminal-567140554-line-6)">Related&#160;Items</text><text class="terminal-567140554-r1" x="976" y="166.4" textLength="12.2" clip-path="url(#terminal-567140554-line-6)">
</text><text class="terminal-567140554-r12" x="24.4" y="190.8" textLength="134.2" clip-path="url(#terminal-567140554-line-7)">settings&#160;in</text><text class="terminal-567140554-r14" x="256.2" y="190.8" textLength="12.2" clip-path="url(#terminal-567140554-line-7)">╸</text><text class="terminal-567140554-r15" x="268.4" y="190.8" textLength="134.2" clip-path="url(#terminal-567140554-line-7)">━━━━━━━━━━━</text><text class="terminal-567140554-r14" x="402.6" y="190.8" textLength="561.2" clip-path="url(#terminal-567140554-line-7)">╺━━━━━━━━━━━━━━━━━━━━━━━━━━━━━━━━━━━━━━━━━━━━━</text><text class="terminal-567140554-r1" x="976" y="190.8" textLength="12.2" clip-path="url(#terminal-567140554-line-7)">
</text><text class="terminal-567140554-r12" x="24.4" y="215.2" textLength="122" clip-path="url(#terminal-567140554-line-8)">repository</text><text class="terminal-567140554-r4" x="280.6" y="215.2" textLength="329.4" clip-path="url(#terminal-567140554-line-8)">Configure&#160;the&#160;repository&#160;to</text><text class="terminal-567140554-r4" x="732" y="215.2" textLength="109.8" clip-path="url(#terminal-567140554-line-8)">5m&#160;logged</text><text class="terminal-567140554-r1" x="976" y="215.2" textLength="12.2" clip-path="url(#terminal-567140554-line-8)">
</text><text class="terminal-567140554-r9" x="24.4" y="239.6" textLength="207.4" clip-path="url(#terminal-567140554-line-9)">Med-HighTest&#160;User</text><text class="terminal-567140554-r4" x="280.6" y="239.6" textLength="353.8" clip-path="url(#terminal-567140554-line-9)">require&#160;at&#160;least&#160;one&#160;approval</text><text class="terminal-567140554-r17" x="732" y="239.6" textLength="146.4" clip-path="url(#terminal-567140554-line-9)">0m&#160;remaining</text><text class="terminal-567140554-r1" x="976" y="239.6" textLength="12.2" clip-path="url(#terminal-567140554-line-9)">
</text><text class="terminal-567140554-r4" x="280.6" y="264" textLength="341.6" clip-path="url(#terminal-567140554-line-10)">before&#160;merge&#160;requests&#160;can&#160;be</text><text class="terminal-567140554-r18" x="732" y="264" textLength="195.2" clip-path="url(#terminal-567140554-line-10)">━━━━━━━━━━━━━━━━</text><text class="terminal-567140554-r1" x="976" y="264" textLength="12.2" clip-path="url(#terminal-567140554-line-10)">
</text><text class="terminal-567140554-r4" x="280.6" y="288.4" textLength="85.4" clip-path="url(#terminal-567140554-line-11)">merged.</text><text class="terminal-567140554-r12" x="732" y="288.4" textLength="73.2" clip-path="url(#terminal-567140554-line-11)">Status</text><text class="terminal-567140554-r19" x="951.6" y="288.4" textLength="12.2" clip-path="url(#terminal-567140554-line-11)">▆</text><text class="terminal-567140554-r1" x="976" y="288.4" textLength="12.2" clip-path="url(#terminal-567140554-line-11)">
</text><text class="terminal-567140554-r5" x="732" y="312.8" textLength="48.8" clip-path="url(#terminal-567140554-line-12)">Done</text><text class="terminal-567140554-r1" x="976" y="312.8" textLength="12.2" clip-path="url(#terminal-567140554-line-12)">
</text><text class="terminal-567140554-r20" x="24.4" y="337.2" textLength="73.2" clip-path="url(#terminal-567140554-line-13)">[Task]</text><text class="terminal-567140554-r21" x="109.8" y="337.2" textLength="122" clip-path="url(#terminal-567140554-line-13)">EXAMPLE-19</text><text class="terminal-567140554-r4" x="280.6" y="337.2" textLength="402.6" clip-path="url(#terminal-567140554-line-13)">This&#160;will&#160;ensure&#160;code&#160;quality&#160;and</text><text class="terminal-567140554-r1" x="976" y="337.2" textLength="12.2" clip-path="url(#terminal-567140554-line-13)">
</text><text class="terminal-567140554-r12" x="24.4" y="361.6" textLength="109.8" clip-path="url(#terminal-567140554-line-14)">Implement</text><text class="terminal-567140554-r4" x="280.6" y="361.6" textLength="378.2" clip-path="url(#terminal-567140554-line-14)">prevent&#160;unapproved&#160;changes&#160;from</text><text class="terminal-567140554-r12" x="732" y="361.6" textLength="122" clip-path="url(#terminal-567140554-line-14)">Resolution</text><text class="terminal-567140554-r1" x="976" y="361.6" textLength="12.2" clip-path="url(#terminal-567140554-line-14)">
</text><text class="terminal-567140554-r12" x="24.4" y="386" textLength="170.8" clip-path="url(#terminal-567140554-line-15)">automated&#160;code</text><text class="terminal-567140554-r4" x="280.6" y="386" textLength="317.2" clip-path="url(#terminal-567140554-line-15)">being&#160;deployed&#160;to&#160;staging.</text><text class="terminal-567140554-r22" x="732" y="386" textLength="195.2" clip-path="url(#terminal-567140554-line-15)">Done&#160;&#160;&#160;&#160;&#160;&#160;&#160;&#160;&#160;&#160;&#160;&#160;</text><text class="terminal-567140554-r1" x="976" y="386" textLength="12.2" clip-path="url(#terminal-567140554-line-15)">
</text><text class="terminal-567140554-r12" x="24.4" y="410.4" textLength="207.4" clip-path="url(#terminal-567140554-line-16)">quality&#160;checks&#160;in</text><text class="terminal-567140554-r1" x="976" y="410.4" textLength="12.2" clip-path="url(#terminal-567140554-line-16)">
</text><text class="terminal-567140554-r12" x="24.4" y="434.8" textLength="134.2" clip-path="url(#terminal-567140554-line-17)">CI&#160;pipeline</text><text class="terminal-567140554-r12" x="732" y="434.8" textLength="97.6" clip-path="url(#terminal-567140554-line-17)">Priority</text><text class="terminal-567140554-r1" x="976" y="434.8" textLength="12.2" clip-path="url(#terminal-567140554-line-17)">
</text><text class="terminal-567140554-r20" x="24.4" y="459.2" textLength="48.8" clip-path="url(#terminal-567140554-line-18)">High</text><text class="terminal-567140554-r20" x="122" y="459.2" textLength="109.8" clip-path="url(#terminal-567140554-line-18)">Test&#160;User</text><text class="terminal-567140554-r4" x="732" y="459.2" textLength="97.6" clip-path="url(#terminal-567140554-line-18)">Med-High</text><text class="terminal-567140554-r1" x="976" y="459.2" textLength="12.2" clip-path="url(#terminal-567140554-line-18)">
</text><text class="terminal-567140554-r1" x="976" y="483.6" textLength="12.2" clip-path="url(#terminal-567140554-line-19)">
</text><text class="terminal-567140554-r12" x="732" y="508" textLength="97.6" clip-path="url(#terminal-567140554-line-20)">Assignee</text><text class="terminal-567140554-r1" x="976" y="508" textLength="12.2" clip-path="url(#terminal-567140554-line-20)">
</text><text class="terminal-567140554-r1" x="976" y="532.4" textLength="12.2" clip-path="url(#terminal-567140554-line-21)">
</text><text class="terminal-567140554-r17" x="85.4" y="556.8" textLength="85.4" clip-path="url(#terminal-567140554-line-22)">1/1&#160;(5)</text><text class="terminal-567140554-r1" x="976" y="556.8" textLength="12.2" clip-path="url(#terminal-567140554-line-22)">
</text>
    </g>
    </g>
</svg>
